<svg xmlns="http://www.w3.org/2000/svg" xmlns:xlink="http://www.w3.org/1999/xlink" width="1002" height="271.5" contentScriptType="application/ecmascript" contentStyleType="text/css" style="width:1002px;height:271px" preserveAspectRatio="none" version="1.1" viewBox="0 0 1002 271" zoomAndPan="magnify"><g><polygon fill="#FFF" points="24 9 325.5 9 336 44.414 717 44.414 717 261 24 261 24 9" style="stroke:#000;stroke-width:2.25"/><line style="stroke:#000;stroke-width:2.25" x1="24" x2="336" y1="44.414" y2="44.414"/><text x="30" y="33.8" fill="#000" font-family="sans-serif" font-size="21" font-weight="bold" lengthAdjust="spacingAndGlyphs" textLength="292.5">Terminal with &apos;local&apos; readers</text><polygon fill="#FFF" points="240 75 321 75 331.5 110.414 681 110.414 681 225 240 225 240 75" style="stroke:#000;stroke-width:2.25"/><line style="stroke:#000;stroke-width:2.25" x1="240" x2="331.5" y1="110.414" y2="110.414"/><text x="246" y="99.8" fill="#000" font-family="sans-serif" font-size="21" font-weight="bold" lengthAdjust="spacingAndGlyphs" textLength="72">Keyple</text><rect style="stroke:#d4ac0d;stroke-width:2.25" width="163.5" height="71.414" x="48.75" y="129" fill="#FEFECE"/><rect style="stroke:#d4ac0d;stroke-width:2.25" width="22.5" height="15" x="182.25" y="136.5" fill="#FEFECE"/><rect style="stroke:#d4ac0d;stroke-width:2.25" width="6" height="3" x="179.25" y="139.5" fill="#FEFECE"/><rect style="stroke:#d4ac0d;stroke-width:2.25" width="6" height="3" x="179.25" y="145.5" fill="#FEFECE"/><text x="71.25" y="180.8" fill="#000" font-family="sans-serif" font-size="21" lengthAdjust="spacingAndGlyphs" textLength="103.5">Application</text><rect style="stroke:#8e44ad;stroke-width:2.25" width="391.5" height="71.414" x="264.75" y="129" fill="#F4ECF7"/><rect style="stroke:#8e44ad;stroke-width:2.25" width="22.5" height="15" x="626.25" y="136.5" fill="#F4ECF7"/><rect style="stroke:#8e44ad;stroke-width:2.25" width="6" height="3" x="623.25" y="139.5" fill="#F4ECF7"/><rect style="stroke:#8e44ad;stroke-width:2.25" width="6" height="3" x="623.25" y="145.5" fill="#F4ECF7"/><text x="287.25" y="180.8" fill="#000" font-family="sans-serif" font-size="21" lengthAdjust="spacingAndGlyphs" textLength="331.5">Keyple Core &amp; companion modules</text><rect style="stroke:#e74c3c;stroke-width:2.25" width="252" height="71.414" x="741" y="129" fill="#FDEDEC"/><rect style="stroke:#e74c3c;stroke-width:2.25" width="22.5" height="15" x="963" y="136.5" fill="#FDEDEC"/><rect style="stroke:#e74c3c;stroke-width:2.25" width="6" height="3" x="960" y="139.5" fill="#FDEDEC"/><rect style="stroke:#e74c3c;stroke-width:2.25" width="6" height="3" x="960" y="145.5" fill="#FDEDEC"/><text x="763.5" y="180.8" fill="#000" font-family="sans-serif" font-size="21" lengthAdjust="spacingAndGlyphs" textLength="192">Hardware Reader(s)</text><path id="appA-localKeypleLibs" fill="none" d="M212.355,165 C229.8,165 247.245,165 264.705,165" style="stroke:#a80036;stroke-width:1.5"/><path id="localKeypleLibs-reader" fill="none" d="M656.61,165 C684.69,165 712.77,165 740.85,165" style="stroke:#a80036;stroke-width:1.5"/></g></svg>