<svg xmlns="http://www.w3.org/2000/svg" xmlns:xlink="http://www.w3.org/1999/xlink" width="680" height="553" contentScriptType="application/ecmascript" contentStyleType="text/css" style="width:680px;height:553px" preserveAspectRatio="none" version="1.1" viewBox="0 0 680 553" zoomAndPan="magnify"><g><polygon fill="#FFF" points="22 24.5 260 24.5 267 46.988 452 46.988 452 504 22 504 22 24.5" style="stroke:#000;stroke-width:1.5"/><line style="stroke:#000;stroke-width:1.5" x1="22" x2="267" y1="46.988" y2="46.988"/><text x="26" y="40.035" fill="#000" font-family="sans-serif" font-size="14" font-weight="bold" lengthAdjust="spacingAndGlyphs" textLength="232">Terminal with SmartCard reader</text><polygon fill="#FFF" points="46 120.5 226 120.5 233 142.988 236 142.988 236 399.5 46 399.5 46 120.5" style="stroke:#000;stroke-width:1.5"/><line style="stroke:#000;stroke-width:1.5" x1="46" x2="233" y1="142.988" y2="142.988"/><text x="50" y="136.035" fill="#000" font-family="sans-serif" font-size="14" font-weight="bold" lengthAdjust="spacingAndGlyphs" textLength="174">Keyple Core &amp; Solutions</text><rect style="stroke:#d4ac0d;stroke-width:1.5" width="98" height="36.488" x="108" y="59.5" fill="#FEFECE"/><rect style="stroke:#d4ac0d;stroke-width:1.5" width="10" height="5" x="103" y="64.5" fill="#FEFECE"/><rect style="stroke:#d4ac0d;stroke-width:1.5" width="10" height="5" x="103" y="85.988" fill="#FEFECE"/><text x="118" y="83.035" fill="#000" font-family="sans-serif" font-size="14" lengthAdjust="spacingAndGlyphs" textLength="78">Application</text><rect style="stroke:#27ae60;stroke-width:1.5" width="184" height="36.488" x="252" y="347.5" fill="#E9F7EF"/><rect style="stroke:#27ae60;stroke-width:1.5" width="10" height="5" x="247" y="352.5" fill="#E9F7EF"/><rect style="stroke:#27ae60;stroke-width:1.5" width="10" height="5" x="247" y="373.988" fill="#E9F7EF"/><text x="262" y="371.035" fill="#000" font-family="sans-serif" font-size="14" lengthAdjust="spacingAndGlyphs" textLength="164">Local SmartCard Reader</text><rect style="stroke:#e74c3c;stroke-width:1.5" width="141" height="36.488" x="86.5" y="452" fill="#FDEDEC"/><rect style="stroke:#e74c3c;stroke-width:1.5" width="10" height="5" x="81.5" y="457" fill="#FDEDEC"/><rect style="stroke:#e74c3c;stroke-width:1.5" width="10" height="5" x="81.5" y="478.488" fill="#FDEDEC"/><text x="96.5" y="475.535" fill="#000" font-family="sans-serif" font-size="14" lengthAdjust="spacingAndGlyphs" textLength="121">Local SAM Reader</text><rect style="stroke:#3498db;stroke-width:1.5" width="119" height="36.488" x="97.5" y="347.5" fill="#EBF5FB"/><rect style="stroke:#3498db;stroke-width:1.5" width="10" height="5" x="92.5" y="352.5" fill="#EBF5FB"/><rect style="stroke:#3498db;stroke-width:1.5" width="10" height="5" x="92.5" y="373.988" fill="#EBF5FB"/><text x="107.5" y="371.035" fill="#000" font-family="sans-serif" font-size="14" lengthAdjust="spacingAndGlyphs" textLength="99">Keyple Plugins</text><rect style="stroke:#8e44ad;stroke-width:1.5" width="102" height="36.488" x="106" y="251.5" fill="#F4ECF7"/><rect style="stroke:#8e44ad;stroke-width:1.5" width="10" height="5" x="101" y="256.5" fill="#F4ECF7"/><rect style="stroke:#8e44ad;stroke-width:1.5" width="10" height="5" x="101" y="277.988" fill="#F4ECF7"/><text x="116" y="275.035" fill="#000" font-family="sans-serif" font-size="14" lengthAdjust="spacingAndGlyphs" textLength="82">Keyple Core</text><rect style="stroke:#d4ac0d;stroke-width:1.5" width="123" height="36.488" x="95.5" y="155.5" fill="#FEFECE"/><rect style="stroke:#d4ac0d;stroke-width:1.5" width="10" height="5" x="90.5" y="160.5" fill="#FEFECE"/><rect style="stroke:#d4ac0d;stroke-width:1.5" width="10" height="5" x="90.5" y="181.988" fill="#FEFECE"/><text x="105.5" y="179.035" fill="#000" font-family="sans-serif" font-size="14" lengthAdjust="spacingAndGlyphs" textLength="103">Keyple Calypso</text><rect style="stroke:#e74c3c;stroke-width:1.5" width="201" height="52.977" x="468.5" y="443.5" fill="#FDEDEC"/><rect style="stroke:#e74c3c;stroke-width:1.5" width="10" height="5" x="463.5" y="448.5" fill="#FDEDEC"/><rect style="stroke:#e74c3c;stroke-width:1.5" width="10" height="5" x="463.5" y="486.477" fill="#FDEDEC"/><text x="478.5" y="467.035" fill="#000" font-family="sans-serif" font-size="14" lengthAdjust="spacingAndGlyphs" textLength="181">Remote SmartCard Reader</text><text x="478.5" y="483.523" fill="#000" font-family="sans-serif" font-size="14" lengthAdjust="spacingAndGlyphs" textLength="121">(PO, SAM, HSM,...)</text><path id="appA-keypleCalypso" fill="none" d="M157,95.74 C157,112.7 157,138.45 157,155.37" style="stroke:#a80036;stroke-width:1"/><path id="keypleCalypso-keypleCore" fill="none" d="M157,191.74 C157,208.7 157,234.45 157,251.37" style="stroke:#a80036;stroke-width:1"/><path id="keypleCore-keyplePlugin" fill="none" d="M157,287.74 C157,304.7 157,330.45 157,347.37" style="stroke:#a80036;stroke-width:1"/><path id="keyplePlugin-localReader" fill="none" d="M157,383.89 C157,402.85 157,433.01 157,451.87" style="stroke:#a80036;stroke-width:1;stroke-dasharray:7,7"/><path id="deviceCardReader-keyplePlugin" fill="none" d="M251.89,365.5 C240.1,365.5 228.32,365.5 216.53,365.5" style="stroke:#a80036;stroke-width:1"/><path id="keyplePlugin-reader" fill="none" d="M178.58,383.54 C190.46,392.06 205.82,401.75 221,407.5 C318.17,444.32 349.86,424.43 452,443.5 C457.31,444.49 462.75,445.55 468.24,446.64" style="stroke:#a80036;stroke-width:1;stroke-dasharray:7,7"/><text x="222.5" y="539.668" fill="#888" font-family="sans-serif" font-size="10" lengthAdjust="spacingAndGlyphs" textLength="243">Keyple Standalone Application - Overview (08/12/2020)</text></g></svg>