<svg xmlns="http://www.w3.org/2000/svg" xmlns:xlink="http://www.w3.org/1999/xlink" width="2010" height="3917.5" contentScriptType="application/ecmascript" contentStyleType="text/css" style="width:2010px;height:3917px" preserveAspectRatio="none" version="1.1" viewBox="0 0 2010 3917" zoomAndPan="magnify"><defs><filter id="b1310j62tb2zf40" width="1" height="1" x="0" y="0"><feFlood flood-color="#ADD8E6" result="flood"/><feComposite in="SourceGraphic" in2="flood" operator="over"/></filter></defs><g><text x="508.125" y="76.714" fill="#000" font-family="sans-serif" font-size="45" lengthAdjust="spacingAndGlyphs" textLength="992.5">Keyple Distributed - Async Node API (04/11/2020)</text><rect style="stroke:#a80036;stroke-width:2.5" width="25" height="166.758" x="166.25" y="374.648" fill="#ADD8E6"/><rect style="stroke:#a80036;stroke-width:2.5" width="25" height="330.137" x="166.25" y="1205.195" fill="#ADD8E6"/><rect style="stroke:#a80036;stroke-width:2.5" width="25" height="35" x="166.25" y="2851.152" fill="#ADD8E6"/><rect style="stroke:#a80036;stroke-width:2.5" width="25" height="199.258" x="166.25" y="2941.152" fill="#ADD8E6"/><rect style="stroke:#a80036;stroke-width:2.5" width="25" height="22.5" x="166.25" y="3619.805" fill="#ADD8E6"/><rect style="stroke:#a80036;stroke-width:2.5" width="25" height="110.879" x="601.25" y="430.527" fill="pink"/><rect style="stroke:#a80036;stroke-width:2.5" width="25" height="918.047" x="601.25" y="617.285" fill="pink"/><rect style="stroke:#a80036;stroke-width:2.5" width="25" height="219.258" x="613.75" y="1281.074" fill="#FFFFE0"/><rect style="stroke:#a80036;stroke-width:2.5" width="25" height="219.258" x="601.25" y="2666.894" fill="pink"/><rect style="stroke:#a80036;stroke-width:2.5" width="25" height="110.879" x="601.25" y="3029.531" fill="pink"/><rect style="stroke:#a80036;stroke-width:2.5" width="25" height="292.637" x="601.25" y="3327.168" fill="pink"/><rect style="stroke:#a80036;stroke-width:2.5" width="25" height="75.879" x="1208.75" y="541.406" fill="pink"/><rect style="stroke:#a80036;stroke-width:2.5" width="25" height="1131.563" x="1208.75" y="1535.332" fill="pink"/><rect style="stroke:#a80036;stroke-width:2.5" width="25" height="219.258" x="1221.25" y="2412.637" fill="#FFFFE0"/><rect style="stroke:#a80036;stroke-width:2.5" width="25" height="186.758" x="1208.75" y="3140.41" fill="pink"/><rect style="stroke:#a80036;stroke-width:2.5" width="25" height="330.137" x="1808.75" y="2336.758" fill="#ADD8E6"/><rect style="stroke:#a80036;stroke-width:2.5" width="25" height="35" x="1808.75" y="3216.289" fill="#ADD8E6"/><line style="stroke:#a80036;stroke-width:2.5;stroke-dasharray:5,5" x1="177.5" x2="177.5" y1="349.648" y2="3664.805"/><line style="stroke:#a80036;stroke-width:2.5;stroke-dasharray:5,5" x1="612.5" x2="612.5" y1="349.648" y2="3664.805"/><line style="stroke:#a80036;stroke-width:2.5;stroke-dasharray:5,5" x1="1221.25" x2="1221.25" y1="349.648" y2="3664.805"/><line style="stroke:#a80036;stroke-width:2.5;stroke-dasharray:5,5" x1="1821.25" x2="1821.25" y1="349.648" y2="3664.805"/><rect style="stroke:#a80036;stroke-width:3.75" width="332.5" height="123.047" x="12.5" y="224.102" fill="#ADD8E6" rx="12.5" ry="12.5"/><text x="88.75" y="277.935" fill="#000" font-family="sans-serif" font-size="35" lengthAdjust="spacingAndGlyphs" textLength="180">nodeClient:</text><text x="30" y="321.958" fill="#000" font-family="sans-serif" font-size="35" font-weight="bold" lengthAdjust="spacingAndGlyphs" textLength="297.5">AsyncNodeClient</text><rect style="stroke:#a80036;stroke-width:3.75" width="332.5" height="123.047" x="12.5" y="3662.305" fill="#ADD8E6" rx="12.5" ry="12.5"/><text x="88.75" y="3716.138" fill="#000" font-family="sans-serif" font-size="35" lengthAdjust="spacingAndGlyphs" textLength="180">nodeClient:</text><text x="30" y="3760.161" fill="#000" font-family="sans-serif" font-size="35" font-weight="bold" lengthAdjust="spacingAndGlyphs" textLength="297.5">AsyncNodeClient</text><text x="451.25" y="297.935" fill="#000" font-family="sans-serif" font-size="35" lengthAdjust="spacingAndGlyphs" textLength="310">userEndpointClient:</text><text x="425" y="341.958" fill="#000" filter="url(#b1310j62tb2zf40)" font-family="sans-serif" font-size="35" font-weight="bold" lengthAdjust="spacingAndGlyphs" textLength="362.5">AsyncEndpointClient</text><ellipse cx="613.75" cy="129.102" fill="#FEFECE" rx="20" ry="20" style="stroke:#a80036;stroke-width:5"/><path fill="none" d="M613.75,149.1016 L613.75,216.6016 M581.25,169.1016 L646.25,169.1016 M613.75,216.6016 L581.25,254.1016 M613.75,216.6016 L646.25,254.1016" style="stroke:#a80036;stroke-width:5"/><text x="451.25" y="3698.638" fill="#000" font-family="sans-serif" font-size="35" lengthAdjust="spacingAndGlyphs" textLength="310">userEndpointClient:</text><text x="425" y="3742.661" fill="#000" filter="url(#b1310j62tb2zf40)" font-family="sans-serif" font-size="35" font-weight="bold" lengthAdjust="spacingAndGlyphs" textLength="362.5">AsyncEndpointClient</text><ellipse cx="613.75" cy="3775.352" fill="#FEFECE" rx="20" ry="20" style="stroke:#a80036;stroke-width:5"/><path fill="none" d="M613.75,3795.3516 L613.75,3862.8516 M581.25,3815.3516 L646.25,3815.3516 M613.75,3862.8516 L581.25,3900.3516 M613.75,3862.8516 L646.25,3900.3516" style="stroke:#a80036;stroke-width:5"/><text x="1051.25" y="297.935" fill="#000" font-family="sans-serif" font-size="35" lengthAdjust="spacingAndGlyphs" textLength="325">userEndpointServer:</text><text x="1023.75" y="341.958" fill="#000" filter="url(#b1310j62tb2zf40)" font-family="sans-serif" font-size="35" font-weight="bold" lengthAdjust="spacingAndGlyphs" textLength="380">AsyncEndpointServer</text><ellipse cx="1221.25" cy="129.102" fill="#FEFECE" rx="20" ry="20" style="stroke:#a80036;stroke-width:5"/><path fill="none" d="M1221.25,149.1016 L1221.25,216.6016 M1188.75,169.1016 L1253.75,169.1016 M1221.25,216.6016 L1188.75,254.1016 M1221.25,216.6016 L1253.75,254.1016" style="stroke:#a80036;stroke-width:5"/><text x="1051.25" y="3698.638" fill="#000" font-family="sans-serif" font-size="35" lengthAdjust="spacingAndGlyphs" textLength="325">userEndpointServer:</text><text x="1023.75" y="3742.661" fill="#000" filter="url(#b1310j62tb2zf40)" font-family="sans-serif" font-size="35" font-weight="bold" lengthAdjust="spacingAndGlyphs" textLength="380">AsyncEndpointServer</text><ellipse cx="1221.25" cy="3775.352" fill="#FEFECE" rx="20" ry="20" style="stroke:#a80036;stroke-width:5"/><path fill="none" d="M1221.25,3795.3516 L1221.25,3862.8516 M1188.75,3815.3516 L1253.75,3815.3516 M1221.25,3862.8516 L1188.75,3900.3516 M1221.25,3862.8516 L1253.75,3900.3516" style="stroke:#a80036;stroke-width:5"/><rect style="stroke:#a80036;stroke-width:3.75" width="350" height="123.047" x="1646.25" y="224.102" fill="#ADD8E6" rx="12.5" ry="12.5"/><text x="1723.75" y="277.935" fill="#000" font-family="sans-serif" font-size="35" lengthAdjust="spacingAndGlyphs" textLength="195">nodeServer:</text><text x="1663.75" y="321.958" fill="#000" font-family="sans-serif" font-size="35" font-weight="bold" lengthAdjust="spacingAndGlyphs" textLength="315">AsyncNodeServer</text><rect style="stroke:#a80036;stroke-width:3.75" width="350" height="123.047" x="1646.25" y="3662.305" fill="#ADD8E6" rx="12.5" ry="12.5"/><text x="1723.75" y="3716.138" fill="#000" font-family="sans-serif" font-size="35" lengthAdjust="spacingAndGlyphs" textLength="195">nodeServer:</text><text x="1663.75" y="3760.161" fill="#000" font-family="sans-serif" font-size="35" font-weight="bold" lengthAdjust="spacingAndGlyphs" textLength="315">AsyncNodeServer</text><rect style="stroke:#a80036;stroke-width:2.5" width="25" height="166.758" x="166.25" y="374.648" fill="#ADD8E6"/><rect style="stroke:#a80036;stroke-width:2.5" width="25" height="330.137" x="166.25" y="1205.195" fill="#ADD8E6"/><rect style="stroke:#a80036;stroke-width:2.5" width="25" height="35" x="166.25" y="2851.152" fill="#ADD8E6"/><rect style="stroke:#a80036;stroke-width:2.5" width="25" height="199.258" x="166.25" y="2941.152" fill="#ADD8E6"/><rect style="stroke:#a80036;stroke-width:2.5" width="25" height="22.5" x="166.25" y="3619.805" fill="#ADD8E6"/><rect style="stroke:#a80036;stroke-width:2.5" width="25" height="110.879" x="601.25" y="430.527" fill="pink"/><rect style="stroke:#a80036;stroke-width:2.5" width="25" height="918.047" x="601.25" y="617.285" fill="pink"/><rect style="stroke:#a80036;stroke-width:2.5" width="25" height="219.258" x="613.75" y="1281.074" fill="#FFFFE0"/><rect style="stroke:#a80036;stroke-width:2.5" width="25" height="219.258" x="601.25" y="2666.894" fill="pink"/><rect style="stroke:#a80036;stroke-width:2.5" width="25" height="110.879" x="601.25" y="3029.531" fill="pink"/><rect style="stroke:#a80036;stroke-width:2.5" width="25" height="292.637" x="601.25" y="3327.168" fill="pink"/><rect style="stroke:#a80036;stroke-width:2.5" width="25" height="75.879" x="1208.75" y="541.406" fill="pink"/><rect style="stroke:#a80036;stroke-width:2.5" width="25" height="1131.563" x="1208.75" y="1535.332" fill="pink"/><rect style="stroke:#a80036;stroke-width:2.5" width="25" height="219.258" x="1221.25" y="2412.637" fill="#FFFFE0"/><rect style="stroke:#a80036;stroke-width:2.5" width="25" height="186.758" x="1208.75" y="3140.41" fill="pink"/><rect style="stroke:#a80036;stroke-width:2.5" width="25" height="330.137" x="1808.75" y="2336.758" fill="#ADD8E6"/><rect style="stroke:#a80036;stroke-width:2.5" width="25" height="35" x="1808.75" y="3216.289" fill="#ADD8E6"/><polygon fill="#A80036" points="571.25 420.527 596.25 430.527 571.25 440.527 581.25 430.527" style="stroke:#a80036;stroke-width:2.5"/><line style="stroke:#a80036;stroke-width:2.5" x1="191.25" x2="586.25" y1="430.527" y2="430.527"/><text x="208.75" y="418.386" fill="#000" font-family="sans-serif" font-size="32.5" lengthAdjust="spacingAndGlyphs" textLength="207.5">openSession (</text><text x="416.25" y="418.386" fill="green" font-family="sans-serif" font-size="32.5" lengthAdjust="spacingAndGlyphs" textLength="137.5">sessionId</text><text x="553.75" y="418.386" fill="#000" font-family="sans-serif" font-size="32.5" lengthAdjust="spacingAndGlyphs" textLength="10">)</text><line style="stroke:#a80036;stroke-width:2.5" x1="1216.25" x2="1191.25" y1="506.406" y2="496.406"/><line style="stroke:#a80036;stroke-width:2.5" x1="1216.25" x2="1191.25" y1="506.406" y2="516.406"/><line style="stroke:#a80036;stroke-width:2.5" x1="626.25" x2="1218.75" y1="506.406" y2="506.406"/><text x="643.75" y="494.265" fill="#000" font-family="sans-serif" font-size="32.5" lengthAdjust="spacingAndGlyphs" textLength="450">send asynchronous handshake</text><polygon fill="#A80036" points="206.25 531.406 181.25 541.406 206.25 551.406 196.25 541.406" style="stroke:#a80036;stroke-width:2.5"/><line style="stroke:#a80036;stroke-width:2.5;stroke-dasharray:2,2" x1="191.25" x2="611.25" y1="541.406" y2="541.406"/><polygon fill="#A80036" points="653.75 607.285 628.75 617.285 653.75 627.285 643.75 617.285" style="stroke:#a80036;stroke-width:2.5"/><line style="stroke:#a80036;stroke-width:2.5;stroke-dasharray:2,2" x1="638.75" x2="1218.75" y1="617.285" y2="617.285"/><text x="668.75" y="605.144" fill="#000" font-family="sans-serif" font-size="32.5" lengthAdjust="spacingAndGlyphs" textLength="117.5">Session</text><line style="stroke:#a80036;stroke-width:2.5" x1="626.25" x2="731.25" y1="693.164" y2="693.164"/><line style="stroke:#a80036;stroke-width:2.5" x1="731.25" x2="731.25" y1="693.164" y2="725.664"/><line style="stroke:#a80036;stroke-width:2.5" x1="628.75" x2="731.25" y1="725.664" y2="725.664"/><polygon fill="#A80036" points="653.75 715.664 628.75 725.664 653.75 735.664 643.75 725.664" style="stroke:#a80036;stroke-width:2.5"/><text x="643.75" y="681.023" fill="#000" font-family="sans-serif" font-size="32.5" lengthAdjust="spacingAndGlyphs" textLength="245">registerSession (</text><text x="888.75" y="681.023" fill="green" font-family="sans-serif" font-size="32.5" lengthAdjust="spacingAndGlyphs" textLength="137.5">sessionId</text><text x="1026.25" y="681.023" fill="#000" font-family="sans-serif" font-size="32.5" lengthAdjust="spacingAndGlyphs" textLength="147.5">, Session)</text><line style="stroke:#a80036;stroke-width:2.5" x1="626.25" x2="731.25" y1="801.543" y2="801.543"/><line style="stroke:#a80036;stroke-width:2.5" x1="731.25" x2="731.25" y1="801.543" y2="834.043"/><line style="stroke:#a80036;stroke-width:2.5" x1="628.75" x2="731.25" y1="834.043" y2="834.043"/><polygon fill="#A80036" points="653.75 824.043 628.75 834.043 653.75 844.043 643.75 834.043" style="stroke:#a80036;stroke-width:2.5"/><text x="643.75" y="789.402" fill="#000" font-family="sans-serif" font-size="32.5" lengthAdjust="spacingAndGlyphs" textLength="450">[...]ClientUtils.getAsyncNode ()</text><path fill="#FBFB77" d="M320,879.043 L320,1124.043 A12.5,12.5 0 0 0 332.5,1136.543 L892.5,1136.543 A12.5,12.5 0 0 0 905,1124.043 L905,891.543 L880,866.543 L332.5,866.543 A12.5,12.5 0 0 0 320,879.043" style="stroke:#a80036;stroke-width:2.5"/><path fill="#FBFB77" d="M880,866.543 L880,885.293 A6.25,6.25 0 0 0 886.25,891.543 L905,891.543 L880,866.543" style="stroke:#a80036;stroke-width:2.5"/><text x="335" y="912.781" fill="#000" font-family="sans-serif" font-size="32.5" lengthAdjust="spacingAndGlyphs" textLength="505">To retrieve the node it is necessary</text><text x="335" y="953.66" fill="#000" font-family="sans-serif" font-size="32.5" lengthAdjust="spacingAndGlyphs" textLength="532.5">to use the utility class corresponding</text><text x="335" y="994.539" fill="#000" font-family="sans-serif" font-size="32.5" lengthAdjust="spacingAndGlyphs" textLength="382.5">to the client configuration :</text><ellipse cx="348.75" cy="1023.809" fill="#000" rx="6.25" ry="6.25" style="stroke:#000;stroke-width:0"/><text x="367.5" y="1035.418" fill="#000" font-family="sans-serif" font-size="32.5" font-weight="bold" lengthAdjust="spacingAndGlyphs" textLength="207.5">LocalService</text><text x="575" y="1035.418" fill="#000" font-family="sans-serif" font-size="32.5" lengthAdjust="spacingAndGlyphs" textLength="147.5">ClientUtils</text><ellipse cx="348.75" cy="1064.688" fill="#000" rx="6.25" ry="6.25" style="stroke:#000;stroke-width:0"/><text x="367.5" y="1076.296" fill="#000" font-family="sans-serif" font-size="32.5" font-weight="bold" lengthAdjust="spacingAndGlyphs" textLength="225">RemotePlugin</text><text x="592.5" y="1076.296" fill="#000" font-family="sans-serif" font-size="32.5" lengthAdjust="spacingAndGlyphs" textLength="147.5">ClientUtils</text><ellipse cx="348.75" cy="1105.566" fill="#000" rx="6.25" ry="6.25" style="stroke:#000;stroke-width:0"/><text x="367.5" y="1117.175" fill="#000" font-family="sans-serif" font-size="32.5" font-weight="bold" lengthAdjust="spacingAndGlyphs" textLength="297.5">PoolRemotePlugin</text><text x="665" y="1117.175" fill="#000" font-family="sans-serif" font-size="32.5" lengthAdjust="spacingAndGlyphs" textLength="147.5">ClientUtils</text><polygon fill="#A80036" points="218.75 1195.195 193.75 1205.195 218.75 1215.195 208.75 1205.195" style="stroke:#a80036;stroke-width:2.5"/><line style="stroke:#a80036;stroke-width:2.5" x1="203.75" x2="598.75" y1="1205.195" y2="1205.195"/><text x="233.75" y="1193.054" fill="#000" font-family="sans-serif" font-size="32.5" lengthAdjust="spacingAndGlyphs" textLength="132.5">onOpen (</text><text x="366.25" y="1193.054" fill="green" font-family="sans-serif" font-size="32.5" lengthAdjust="spacingAndGlyphs" textLength="137.5">sessionId</text><text x="503.75" y="1193.054" fill="#000" font-family="sans-serif" font-size="32.5" lengthAdjust="spacingAndGlyphs" textLength="10">)</text><polygon fill="#A80036" points="583.75 1271.074 608.75 1281.074 583.75 1291.074 593.75 1281.074" style="stroke:#a80036;stroke-width:2.5"/><line style="stroke:#a80036;stroke-width:2.5" x1="191.25" x2="598.75" y1="1281.074" y2="1281.074"/><text x="208.75" y="1268.933" fill="#000" font-family="sans-serif" font-size="32.5" lengthAdjust="spacingAndGlyphs" textLength="222.5">sendMessage (</text><text x="431.25" y="1268.933" fill="red" font-family="sans-serif" font-size="32.5" lengthAdjust="spacingAndGlyphs" textLength="67.5">dtoA</text><text x="498.75" y="1268.933" fill="#000" font-family="sans-serif" font-size="32.5" lengthAdjust="spacingAndGlyphs" textLength="10">)</text><line style="stroke:#a80036;stroke-width:2.5" x1="638.75" x2="743.75" y1="1356.953" y2="1356.953"/><line style="stroke:#a80036;stroke-width:2.5" x1="743.75" x2="743.75" y1="1356.953" y2="1389.453"/><line style="stroke:#a80036;stroke-width:2.5" x1="641.25" x2="743.75" y1="1389.453" y2="1389.453"/><polygon fill="#A80036" points="666.25 1379.453 641.25 1389.453 666.25 1399.453 656.25 1389.453" style="stroke:#a80036;stroke-width:2.5"/><text x="656.25" y="1344.812" fill="#000" font-family="sans-serif" font-size="32.5" lengthAdjust="spacingAndGlyphs" textLength="205">findSesssion (</text><text x="861.25" y="1344.812" fill="red" font-family="sans-serif" font-size="32.5" lengthAdjust="spacingAndGlyphs" textLength="67.5">dtoA</text><text x="928.75" y="1344.812" fill="green" font-family="sans-serif" font-size="32.5" lengthAdjust="spacingAndGlyphs" textLength="217.5">.getSessionId()</text><text x="1146.25" y="1344.812" fill="#000" font-family="sans-serif" font-size="32.5" lengthAdjust="spacingAndGlyphs" textLength="10">)</text><line style="stroke:#a80036;stroke-width:2.5" x1="1216.25" x2="1191.25" y1="1465.332" y2="1455.332"/><line style="stroke:#a80036;stroke-width:2.5" x1="1216.25" x2="1191.25" y1="1465.332" y2="1475.332"/><line style="stroke:#a80036;stroke-width:2.5" x1="638.75" x2="1218.75" y1="1465.332" y2="1465.332"/><text x="656.25" y="1453.191" fill="#000" font-family="sans-serif" font-size="32.5" lengthAdjust="spacingAndGlyphs" textLength="445">send asynchronous message (</text><text x="1101.25" y="1453.191" fill="red" font-family="sans-serif" font-size="32.5" lengthAdjust="spacingAndGlyphs" textLength="67.5">dtoA</text><text x="1168.75" y="1453.191" fill="#000" font-family="sans-serif" font-size="32.5" lengthAdjust="spacingAndGlyphs" textLength="10">)</text><polygon fill="#A80036" points="218.75 1490.332 193.75 1500.332 218.75 1510.332 208.75 1500.332" style="stroke:#a80036;stroke-width:2.5"/><line style="stroke:#a80036;stroke-width:2.5;stroke-dasharray:2,2" x1="203.75" x2="598.75" y1="1500.332" y2="1500.332"/><polygon fill="#A80036" points="583.75 1525.332 608.75 1535.332 583.75 1545.332 593.75 1535.332" style="stroke:#a80036;stroke-width:2.5"/><line style="stroke:#a80036;stroke-width:2.5;stroke-dasharray:2,2" x1="178.75" x2="598.75" y1="1535.332" y2="1535.332"/><line style="stroke:#a80036;stroke-width:2.5" x1="1233.75" x2="1338.75" y1="1611.211" y2="1611.211"/><line style="stroke:#a80036;stroke-width:2.5" x1="1338.75" x2="1338.75" y1="1611.211" y2="1643.711"/><line style="stroke:#a80036;stroke-width:2.5" x1="1236.25" x2="1338.75" y1="1643.711" y2="1643.711"/><polygon fill="#A80036" points="1261.25 1633.711 1236.25 1643.711 1261.25 1653.711 1251.25 1643.711" style="stroke:#a80036;stroke-width:2.5"/><text x="1251.25" y="1599.07" fill="#000" font-family="sans-serif" font-size="32.5" lengthAdjust="spacingAndGlyphs" textLength="245">registerSession (</text><text x="1496.25" y="1599.07" fill="red" font-family="sans-serif" font-size="32.5" lengthAdjust="spacingAndGlyphs" textLength="67.5">dtoA</text><text x="1563.75" y="1599.07" fill="green" font-family="sans-serif" font-size="32.5" lengthAdjust="spacingAndGlyphs" textLength="217.5">.getSessionId()</text><text x="1781.25" y="1599.07" fill="#000" font-family="sans-serif" font-size="32.5" lengthAdjust="spacingAndGlyphs" textLength="10">)</text><path fill="#FBFB77" d="M887.5,1688.7109 L887.5,1851.2109 A12.5,12.5 0 0 0 900,1863.7109 L1542.5,1863.7109 A12.5,12.5 0 0 0 1555,1851.2109 L1555,1701.2109 L1530,1676.2109 L900,1676.2109 A12.5,12.5 0 0 0 887.5,1688.7109" style="stroke:#a80036;stroke-width:2.5"/><path fill="#FBFB77" d="M1530,1676.2109 L1530,1694.9609 A6.25,6.25 0 0 0 1536.25,1701.2109 L1555,1701.2109 L1530,1676.2109" style="stroke:#a80036;stroke-width:2.5"/><text x="902.5" y="1722.449" fill="#000" font-family="sans-serif" font-size="32.5" lengthAdjust="spacingAndGlyphs" textLength="505">It is necessary to identify the client</text><text x="902.5" y="1763.328" fill="#000" font-family="sans-serif" font-size="32.5" lengthAdjust="spacingAndGlyphs" textLength="115">via the &quot;</text><text x="1017.5" y="1763.328" fill="green" font-family="sans-serif" font-size="32.5" lengthAdjust="spacingAndGlyphs" textLength="137.5">sessionId</text><text x="1155" y="1763.328" fill="#000" font-family="sans-serif" font-size="32.5" lengthAdjust="spacingAndGlyphs" textLength="245">&quot; field in the DTO</text><text x="902.5" y="1804.207" fill="#000" font-family="sans-serif" font-size="32.5" lengthAdjust="spacingAndGlyphs" textLength="615">in order to be able to reply a new message</text><text x="902.5" y="1845.085" fill="#000" font-family="sans-serif" font-size="32.5" lengthAdjust="spacingAndGlyphs" textLength="210">at a later date.</text><line style="stroke:#a80036;stroke-width:2.5" x1="1233.75" x2="1338.75" y1="1933.105" y2="1933.105"/><line style="stroke:#a80036;stroke-width:2.5" x1="1338.75" x2="1338.75" y1="1933.105" y2="1965.605"/><line style="stroke:#a80036;stroke-width:2.5" x1="1236.25" x2="1338.75" y1="1965.605" y2="1965.605"/><polygon fill="#A80036" points="1261.25 1955.605 1236.25 1965.605 1261.25 1975.605 1251.25 1965.605" style="stroke:#a80036;stroke-width:2.5"/><text x="1251.25" y="1920.964" fill="#000" font-family="sans-serif" font-size="32.5" lengthAdjust="spacingAndGlyphs" textLength="457.5">[...]ServerUtils.getAsyncNode ()</text><path fill="#FBFB77" d="M927.5,2010.6055 L927.5,2255.6055 A12.5,12.5 0 0 0 940,2268.1055 L1500,2268.1055 A12.5,12.5 0 0 0 1512.5,2255.6055 L1512.5,2023.1055 L1487.5,1998.1055 L940,1998.1055 A12.5,12.5 0 0 0 927.5,2010.6055" style="stroke:#a80036;stroke-width:2.5"/><path fill="#FBFB77" d="M1487.5,1998.1055 L1487.5,2016.8555 A6.25,6.25 0 0 0 1493.75,2023.1055 L1512.5,2023.1055 L1487.5,1998.1055" style="stroke:#a80036;stroke-width:2.5"/><text x="942.5" y="2044.343" fill="#000" font-family="sans-serif" font-size="32.5" lengthAdjust="spacingAndGlyphs" textLength="507.5">To access the node it is necessary</text><text x="942.5" y="2085.222" fill="#000" font-family="sans-serif" font-size="32.5" lengthAdjust="spacingAndGlyphs" textLength="532.5">to use the utility class corresponding</text><text x="942.5" y="2126.101" fill="#000" font-family="sans-serif" font-size="32.5" lengthAdjust="spacingAndGlyphs" textLength="390">to the server configuration :</text><ellipse cx="956.25" cy="2155.371" fill="#000" rx="6.25" ry="6.25" style="stroke:#000;stroke-width:0"/><text x="975" y="2166.98" fill="#000" font-family="sans-serif" font-size="32.5" font-weight="bold" lengthAdjust="spacingAndGlyphs" textLength="225">RemotePlugin</text><text x="1200" y="2166.98" fill="#000" font-family="sans-serif" font-size="32.5" lengthAdjust="spacingAndGlyphs" textLength="155">ServerUtils</text><ellipse cx="956.25" cy="2196.25" fill="#000" rx="6.25" ry="6.25" style="stroke:#000;stroke-width:0"/><text x="975" y="2207.859" fill="#000" font-family="sans-serif" font-size="32.5" font-weight="bold" lengthAdjust="spacingAndGlyphs" textLength="207.5">LocalService</text><text x="1182.5" y="2207.859" fill="#000" font-family="sans-serif" font-size="32.5" lengthAdjust="spacingAndGlyphs" textLength="155">ServerUtils</text><ellipse cx="956.25" cy="2237.129" fill="#000" rx="6.25" ry="6.25" style="stroke:#000;stroke-width:0"/><text x="975" y="2248.738" fill="#000" font-family="sans-serif" font-size="32.5" font-weight="bold" lengthAdjust="spacingAndGlyphs" textLength="280">PoolLocalService</text><text x="1255" y="2248.738" fill="#000" font-family="sans-serif" font-size="32.5" lengthAdjust="spacingAndGlyphs" textLength="155">ServerUtils</text><polygon fill="#A80036" points="1778.75 2326.758 1803.75 2336.758 1778.75 2346.758 1788.75 2336.758" style="stroke:#a80036;stroke-width:2.5"/><line style="stroke:#a80036;stroke-width:2.5" x1="1233.75" x2="1793.75" y1="2336.758" y2="2336.758"/><text x="1251.25" y="2324.617" fill="#000" font-family="sans-serif" font-size="32.5" lengthAdjust="spacingAndGlyphs" textLength="187.5">onMessage (</text><text x="1438.75" y="2324.617" fill="red" font-family="sans-serif" font-size="32.5" lengthAdjust="spacingAndGlyphs" textLength="67.5">dtoA</text><text x="1506.25" y="2324.617" fill="#000" font-family="sans-serif" font-size="32.5" lengthAdjust="spacingAndGlyphs" textLength="10">)</text><polygon fill="#A80036" points="1273.75 2402.637 1248.75 2412.637 1273.75 2422.637 1263.75 2412.637" style="stroke:#a80036;stroke-width:2.5"/><line style="stroke:#a80036;stroke-width:2.5" x1="1258.75" x2="1806.25" y1="2412.637" y2="2412.637"/><text x="1288.75" y="2400.496" fill="#000" font-family="sans-serif" font-size="32.5" lengthAdjust="spacingAndGlyphs" textLength="222.5">sendMessage (</text><text x="1511.25" y="2400.496" fill="#00F" font-family="sans-serif" font-size="32.5" lengthAdjust="spacingAndGlyphs" textLength="67.5">dtoB</text><text x="1578.75" y="2400.496" fill="#000" font-family="sans-serif" font-size="32.5" lengthAdjust="spacingAndGlyphs" textLength="10">)</text><line style="stroke:#a80036;stroke-width:2.5" x1="1246.25" x2="1351.25" y1="2488.516" y2="2488.516"/><line style="stroke:#a80036;stroke-width:2.5" x1="1351.25" x2="1351.25" y1="2488.516" y2="2521.016"/><line style="stroke:#a80036;stroke-width:2.5" x1="1248.75" x2="1351.25" y1="2521.016" y2="2521.016"/><polygon fill="#A80036" points="1273.75 2511.016 1248.75 2521.016 1273.75 2531.016 1263.75 2521.016" style="stroke:#a80036;stroke-width:2.5"/><text x="1263.75" y="2476.374" fill="#000" font-family="sans-serif" font-size="32.5" lengthAdjust="spacingAndGlyphs" textLength="187.5">findSession (</text><text x="1451.25" y="2476.374" fill="#00F" font-family="sans-serif" font-size="32.5" lengthAdjust="spacingAndGlyphs" textLength="67.5">dtoB</text><text x="1518.75" y="2476.374" fill="green" font-family="sans-serif" font-size="32.5" lengthAdjust="spacingAndGlyphs" textLength="217.5">.getSessionId()</text><text x="1736.25" y="2476.374" fill="#000" font-family="sans-serif" font-size="32.5" lengthAdjust="spacingAndGlyphs" textLength="10">)</text><line style="stroke:#a80036;stroke-width:2.5" x1="613.75" x2="638.75" y1="2596.894" y2="2586.894"/><line style="stroke:#a80036;stroke-width:2.5" x1="613.75" x2="638.75" y1="2596.894" y2="2606.894"/><line style="stroke:#a80036;stroke-width:2.5" x1="613.75" x2="1218.75" y1="2596.894" y2="2596.894"/><text x="656.25" y="2584.753" fill="#000" font-family="sans-serif" font-size="32.5" lengthAdjust="spacingAndGlyphs" textLength="445">send asynchronous message (</text><text x="1101.25" y="2584.753" fill="#00F" font-family="sans-serif" font-size="32.5" lengthAdjust="spacingAndGlyphs" textLength="67.5">dtoB</text><text x="1168.75" y="2584.753" fill="#000" font-family="sans-serif" font-size="32.5" lengthAdjust="spacingAndGlyphs" textLength="10">)</text><polygon fill="#A80036" points="1778.75 2621.894 1803.75 2631.894 1778.75 2641.894 1788.75 2631.894" style="stroke:#a80036;stroke-width:2.5"/><line style="stroke:#a80036;stroke-width:2.5;stroke-dasharray:2,2" x1="1233.75" x2="1793.75" y1="2631.894" y2="2631.894"/><polygon fill="#A80036" points="1248.75 2656.894 1223.75 2666.894 1248.75 2676.894 1238.75 2666.894" style="stroke:#a80036;stroke-width:2.5"/><line style="stroke:#a80036;stroke-width:2.5;stroke-dasharray:2,2" x1="1233.75" x2="1818.75" y1="2666.894" y2="2666.894"/><line style="stroke:#a80036;stroke-width:2.5" x1="626.25" x2="731.25" y1="2742.773" y2="2742.773"/><line style="stroke:#a80036;stroke-width:2.5" x1="731.25" x2="731.25" y1="2742.773" y2="2775.273"/><line style="stroke:#a80036;stroke-width:2.5" x1="628.75" x2="731.25" y1="2775.273" y2="2775.273"/><polygon fill="#A80036" points="653.75 2765.273 628.75 2775.273 653.75 2785.273 643.75 2775.273" style="stroke:#a80036;stroke-width:2.5"/><text x="643.75" y="2730.632" fill="#000" font-family="sans-serif" font-size="32.5" lengthAdjust="spacingAndGlyphs" textLength="450">[...]ClientUtils.getAsyncNode ()</text><polygon fill="#A80036" points="218.75 2841.152 193.75 2851.152 218.75 2861.152 208.75 2851.152" style="stroke:#a80036;stroke-width:2.5"/><line style="stroke:#a80036;stroke-width:2.5" x1="203.75" x2="598.75" y1="2851.152" y2="2851.152"/><text x="233.75" y="2839.011" fill="#000" font-family="sans-serif" font-size="32.5" lengthAdjust="spacingAndGlyphs" textLength="187.5">onMessage (</text><text x="421.25" y="2839.011" fill="#00F" font-family="sans-serif" font-size="32.5" lengthAdjust="spacingAndGlyphs" textLength="67.5">dtoB</text><text x="488.75" y="2839.011" fill="#000" font-family="sans-serif" font-size="32.5" lengthAdjust="spacingAndGlyphs" textLength="10">)</text><polygon fill="#A80036" points="583.75 2876.152 608.75 2886.152 583.75 2896.152 593.75 2886.152" style="stroke:#a80036;stroke-width:2.5"/><line style="stroke:#a80036;stroke-width:2.5;stroke-dasharray:2,2" x1="178.75" x2="598.75" y1="2886.152" y2="2886.152"/><line style="stroke:#a80036;stroke-width:2.5" x1="178.75" x2="296.25" y1="2908.652" y2="2908.652"/><line style="stroke:#a80036;stroke-width:2.5" x1="296.25" x2="296.25" y1="2908.652" y2="2941.152"/><line style="stroke:#a80036;stroke-width:2.5" x1="193.75" x2="296.25" y1="2941.152" y2="2941.152"/><polygon fill="#A80036" points="218.75 2931.152 193.75 2941.152 218.75 2951.152 208.75 2941.152" style="stroke:#a80036;stroke-width:2.5"/><polygon fill="#A80036" points="571.25 3019.531 596.25 3029.531 571.25 3039.531 581.25 3029.531" style="stroke:#a80036;stroke-width:2.5"/><line style="stroke:#a80036;stroke-width:2.5" x1="191.25" x2="586.25" y1="3029.531" y2="3029.531"/><text x="208.75" y="3017.39" fill="#000" font-family="sans-serif" font-size="32.5" lengthAdjust="spacingAndGlyphs" textLength="215">closeSession (</text><text x="423.75" y="3017.39" fill="green" font-family="sans-serif" font-size="32.5" lengthAdjust="spacingAndGlyphs" textLength="137.5">sessionId</text><text x="561.25" y="3017.39" fill="#000" font-family="sans-serif" font-size="32.5" lengthAdjust="spacingAndGlyphs" textLength="10">)</text><line style="stroke:#a80036;stroke-width:2.5" x1="1216.25" x2="1191.25" y1="3105.41" y2="3095.41"/><line style="stroke:#a80036;stroke-width:2.5" x1="1216.25" x2="1191.25" y1="3105.41" y2="3115.41"/><line style="stroke:#a80036;stroke-width:2.5" x1="626.25" x2="1218.75" y1="3105.41" y2="3105.41"/><text x="643.75" y="3093.269" fill="#000" font-family="sans-serif" font-size="32.5" lengthAdjust="spacingAndGlyphs" textLength="487.5">send asynchronous closeSession</text><polygon fill="#A80036" points="206.25 3130.41 181.25 3140.41 206.25 3150.41 196.25 3140.41" style="stroke:#a80036;stroke-width:2.5"/><line style="stroke:#a80036;stroke-width:2.5;stroke-dasharray:2,2" x1="191.25" x2="611.25" y1="3140.41" y2="3140.41"/><polygon fill="#A80036" points="1778.75 3206.289 1803.75 3216.289 1778.75 3226.289 1788.75 3216.289" style="stroke:#a80036;stroke-width:2.5"/><line style="stroke:#a80036;stroke-width:2.5" x1="1233.75" x2="1793.75" y1="3216.289" y2="3216.289"/><text x="1251.25" y="3204.148" fill="#000" font-family="sans-serif" font-size="32.5" lengthAdjust="spacingAndGlyphs" textLength="137.5">onClose (</text><text x="1388.75" y="3204.148" fill="green" font-family="sans-serif" font-size="32.5" lengthAdjust="spacingAndGlyphs" textLength="137.5">sessionId</text><text x="1526.25" y="3204.148" fill="#000" font-family="sans-serif" font-size="32.5" lengthAdjust="spacingAndGlyphs" textLength="10">)</text><polygon fill="#A80036" points="1261.25 3241.289 1236.25 3251.289 1261.25 3261.289 1251.25 3251.289" style="stroke:#a80036;stroke-width:2.5"/><line style="stroke:#a80036;stroke-width:2.5;stroke-dasharray:2,2" x1="1246.25" x2="1818.75" y1="3251.289" y2="3251.289"/><polygon fill="#A80036" points="653.75 3317.168 628.75 3327.168 653.75 3337.168 643.75 3327.168" style="stroke:#a80036;stroke-width:2.5"/><line style="stroke:#a80036;stroke-width:2.5;stroke-dasharray:2,2" x1="638.75" x2="1218.75" y1="3327.168" y2="3327.168"/><text x="668.75" y="3315.027" fill="#000" font-family="sans-serif" font-size="32.5" lengthAdjust="spacingAndGlyphs" textLength="35">ok</text><line style="stroke:#a80036;stroke-width:2.5" x1="626.25" x2="731.25" y1="3403.047" y2="3403.047"/><line style="stroke:#a80036;stroke-width:2.5" x1="731.25" x2="731.25" y1="3403.047" y2="3435.547"/><line style="stroke:#a80036;stroke-width:2.5" x1="628.75" x2="731.25" y1="3435.547" y2="3435.547"/><polygon fill="#A80036" points="653.75 3425.547 628.75 3435.547 653.75 3445.547 643.75 3435.547" style="stroke:#a80036;stroke-width:2.5"/><text x="643.75" y="3390.906" fill="#000" font-family="sans-serif" font-size="32.5" lengthAdjust="spacingAndGlyphs" textLength="407.5">unregisterSession (Session)</text><line style="stroke:#a80036;stroke-width:2.5" x1="626.25" x2="731.25" y1="3511.426" y2="3511.426"/><line style="stroke:#a80036;stroke-width:2.5" x1="731.25" x2="731.25" y1="3511.426" y2="3543.926"/><line style="stroke:#a80036;stroke-width:2.5" x1="628.75" x2="731.25" y1="3543.926" y2="3543.926"/><polygon fill="#A80036" points="653.75 3533.926 628.75 3543.926 653.75 3553.926 643.75 3543.926" style="stroke:#a80036;stroke-width:2.5"/><text x="643.75" y="3499.285" fill="#000" font-family="sans-serif" font-size="32.5" lengthAdjust="spacingAndGlyphs" textLength="450">[...]ClientUtils.getAsyncNode ()</text><polygon fill="#A80036" points="218.75 3609.805 193.75 3619.805 218.75 3629.805 208.75 3619.805" style="stroke:#a80036;stroke-width:2.5"/><line style="stroke:#a80036;stroke-width:2.5" x1="203.75" x2="611.25" y1="3619.805" y2="3619.805"/><text x="233.75" y="3607.664" fill="#000" font-family="sans-serif" font-size="32.5" lengthAdjust="spacingAndGlyphs" textLength="137.5">onClose (</text><text x="371.25" y="3607.664" fill="green" font-family="sans-serif" font-size="32.5" lengthAdjust="spacingAndGlyphs" textLength="137.5">sessionId</text><text x="508.75" y="3607.664" fill="#000" font-family="sans-serif" font-size="32.5" lengthAdjust="spacingAndGlyphs" textLength="10">)</text></g></svg>