<svg xmlns="http://www.w3.org/2000/svg" xmlns:xlink="http://www.w3.org/1999/xlink" width="4192.5" height="5430" contentScriptType="application/ecmascript" contentStyleType="text/css" style="width:4192px;height:5430px" preserveAspectRatio="none" version="1.1" viewBox="0 0 4192 5430" zoomAndPan="magnify"><defs><filter id="b1ud6w416031hq0" width="1" height="1" x="0" y="0"><feFlood flood-color="#ADD8E6" result="flood"/><feComposite in="SourceGraphic" in2="flood" operator="over"/></filter></defs><g><rect style="stroke:#a80036;stroke-width:2.5" width="2062.5" height="5358.262" x="307.5" y="15" fill="#FEF9E7" rx="12.5" ry="12.5"/><text x="1127.5" y="48.738" fill="#000" font-family="sans-serif" font-size="32.5" font-weight="bold" lengthAdjust="spacingAndGlyphs" textLength="422.5">Client APP using Local Lib</text><rect style="stroke:#a80036;stroke-width:2.5" width="1710" height="5358.262" x="2375" y="15" fill="#FDF2E9" rx="12.5" ry="12.5"/><text x="2995" y="48.738" fill="#000" font-family="sans-serif" font-size="32.5" font-weight="bold" lengthAdjust="spacingAndGlyphs" textLength="470">Server APP using Remote Lib</text><rect style="stroke:#a80036;stroke-width:2.5" width="25" height="3332.559" x="93.75" y="1765.156" fill="#FFFFE0"/><rect style="stroke:#a80036;stroke-width:2.5" width="25" height="303.516" x="488.75" y="1765.156" fill="#ADD8E6"/><rect style="stroke:#a80036;stroke-width:2.5" width="25" height="116.523" x="835" y="1093.359" fill="#ADD8E6"/><rect style="stroke:#a80036;stroke-width:2.5" width="25" height="75.879" x="835" y="1505.02" fill="#ADD8E6"/><rect style="stroke:#a80036;stroke-width:2.5" width="25" height="4376.016" x="1442.5" y="721.699" fill="pink"/><rect style="stroke:#a80036;stroke-width:2.5" width="25" height="2398.633" x="2165" y="2676.582" fill="#ADD8E6"/><rect style="stroke:#a80036;stroke-width:2.5" width="25" height="182.402" x="2572.5" y="2711.582" fill="#ADD8E6"/><rect style="stroke:#a80036;stroke-width:2.5" width="25" height="75.879" x="2572.5" y="2969.863" fill="#ADD8E6"/><rect style="stroke:#a80036;stroke-width:2.5" width="25" height="110.879" x="2572.5" y="4888.457" fill="#ADD8E6"/><rect style="stroke:#a80036;stroke-width:2.5" width="25" height="75.879" x="3108.75" y="3121.621" fill="#ADD8E6"/><rect style="stroke:#a80036;stroke-width:2.5" width="25" height="75.879" x="3108.75" y="3682.773" fill="#ADD8E6"/><rect style="stroke:#a80036;stroke-width:2.5" width="25" height="75.879" x="3108.75" y="3875.41" fill="#ADD8E6"/><rect style="stroke:#a80036;stroke-width:2.5" width="25" height="35" x="3108.75" y="4027.168" fill="#ADD8E6"/><rect style="stroke:#a80036;stroke-width:2.5" width="25" height="227.637" x="3108.75" y="4459.063" fill="#ADD8E6"/><rect style="stroke:#a80036;stroke-width:2.5" width="25" height="4761.289" x="3753.75" y="336.426" fill="pink"/><rect style="stroke:#000;stroke-width:5" width="4096.25" height="498.652" x="25" y="4208.047" fill="#FDF2E9" rx="12.5" ry="12.5"/><line style="stroke:#a80036;stroke-width:2.5;stroke-dasharray:5,5" x1="105" x2="105" y1="311.426" y2="5120.215"/><line style="stroke:#a80036;stroke-width:2.5;stroke-dasharray:5,5" x1="500" x2="500" y1="1166.621" y2="5120.215"/><line style="stroke:#a80036;stroke-width:2.5;stroke-dasharray:5,5" x1="847.5" x2="847.5" y1="1054.98" y2="5120.215"/><line style="stroke:#a80036;stroke-width:2.5;stroke-dasharray:5,5" x1="1455" x2="1455" y1="311.426" y2="5120.215"/><line style="stroke:#a80036;stroke-width:2.5;stroke-dasharray:5,5" x1="2177.5" x2="2177.5" y1="943.34" y2="5120.215"/><line style="stroke:#a80036;stroke-width:2.5;stroke-dasharray:5,5" x1="2585" x2="2585" y1="551.123" y2="5120.215"/><line style="stroke:#a80036;stroke-width:2.5;stroke-dasharray:5,5" x1="3120" x2="3120" y1="2809.844" y2="5120.215"/><line style="stroke:#a80036;stroke-width:2.5;stroke-dasharray:5,5" x1="3765" x2="3765" y1="311.426" y2="5120.215"/><rect style="stroke:#a80036;stroke-width:3.75" width="112.5" height="79.023" x="50" y="229.902" fill="#FEFECE" rx="12.5" ry="12.5"/><text x="67.5" y="283.735" fill="#000" font-family="sans-serif" font-size="35" lengthAdjust="spacingAndGlyphs" textLength="77.5">Card</text><rect style="stroke:#a80036;stroke-width:3.75" width="112.5" height="79.023" x="50" y="5117.715" fill="#FEFECE" rx="12.5" ry="12.5"/><text x="67.5" y="5171.548" fill="#000" font-family="sans-serif" font-size="35" lengthAdjust="spacingAndGlyphs" textLength="77.5">Card</text><rect style="stroke:#a80036;stroke-width:3.75" width="367.5" height="79.023" x="317.5" y="5117.715" fill="#ADD8E6" rx="12.5" ry="12.5"/><text x="335" y="5171.548" fill="#000" font-family="sans-serif" font-size="35" font-weight="bold" lengthAdjust="spacingAndGlyphs" textLength="332.5">ObservableReader</text><rect style="stroke:#a80036;stroke-width:3.75" width="145" height="79.023" x="775" y="5117.715" fill="#ADD8E6" rx="12.5" ry="12.5"/><text x="792.5" y="5171.548" fill="#000" font-family="sans-serif" font-size="35" font-weight="bold" lengthAdjust="spacingAndGlyphs" textLength="110">Plugin</text><text x="1295" y="303.735" fill="#000" font-family="sans-serif" font-size="35" font-weight="bold" lengthAdjust="spacingAndGlyphs" textLength="305">Ticketing Service</text><ellipse cx="1455" cy="134.902" fill="#FEFECE" rx="20" ry="20" style="stroke:#a80036;stroke-width:5"/><path fill="none" d="M1455,154.9023 L1455,222.4023 M1422.5,174.9023 L1487.5,174.9023 M1455,222.4023 L1422.5,259.9023 M1455,222.4023 L1487.5,259.9023" style="stroke:#a80036;stroke-width:5"/><text x="1295" y="5154.048" fill="#000" font-family="sans-serif" font-size="35" font-weight="bold" lengthAdjust="spacingAndGlyphs" textLength="305">Ticketing Service</text><ellipse cx="1455" cy="5186.738" fill="#FEFECE" rx="20" ry="20" style="stroke:#a80036;stroke-width:5"/><path fill="none" d="M1455,5206.7383 L1455,5274.2383 M1422.5,5226.7383 L1487.5,5226.7383 M1455,5274.2383 L1422.5,5311.7383 M1455,5274.2383 L1487.5,5311.7383" style="stroke:#a80036;stroke-width:5"/><rect style="stroke:#a80036;stroke-width:3.75" width="365" height="79.023" x="1995" y="5117.715" fill="#ADD8E6" rx="12.5" ry="12.5"/><text x="2012.5" y="5171.548" fill="#000" font-family="sans-serif" font-size="35" font-weight="bold" lengthAdjust="spacingAndGlyphs" textLength="330">LocalServiceClient</text><rect style="stroke:#a80036;stroke-width:3.75" width="400" height="79.023" x="2385" y="5117.715" fill="#ADD8E6" rx="12.5" ry="12.5"/><text x="2402.5" y="5171.548" fill="#000" font-family="sans-serif" font-size="35" font-weight="bold" lengthAdjust="spacingAndGlyphs" textLength="365">RemotePluginServer</text><rect style="stroke:#a80036;stroke-width:3.75" width="622.5" height="79.023" x="2810" y="5117.715" fill="#ADD8E6" rx="12.5" ry="12.5"/><text x="2827.5" y="5171.548" fill="#000" font-family="sans-serif" font-size="35" font-weight="bold" lengthAdjust="spacingAndGlyphs" textLength="587.5">ObservableRemoteReaderServer</text><text x="3528.75" y="259.712" fill="#000" font-family="sans-serif" font-size="35" font-weight="bold" lengthAdjust="spacingAndGlyphs" textLength="450">Remote Ticketing Service</text><text x="3978.75" y="259.712" fill="#000" font-family="sans-serif" font-size="35" lengthAdjust="spacingAndGlyphs" textLength="10">:</text><text x="3457.5" y="303.735" fill="#000" filter="url(#b1ud6w416031hq0)" font-family="sans-serif" font-size="35" font-weight="bold" lengthAdjust="spacingAndGlyphs" textLength="602.5">ObservablePlugin.PluginObserver</text><ellipse cx="3766.25" cy="90.879" fill="#FEFECE" rx="20" ry="20" style="stroke:#a80036;stroke-width:5"/><path fill="none" d="M3766.25,110.8789 L3766.25,178.3789 M3733.75,130.8789 L3798.75,130.8789 M3766.25,178.3789 L3733.75,215.8789 M3766.25,178.3789 L3798.75,215.8789" style="stroke:#a80036;stroke-width:5"/><text x="3528.75" y="5154.048" fill="#000" font-family="sans-serif" font-size="35" font-weight="bold" lengthAdjust="spacingAndGlyphs" textLength="450">Remote Ticketing Service</text><text x="3978.75" y="5154.048" fill="#000" font-family="sans-serif" font-size="35" lengthAdjust="spacingAndGlyphs" textLength="10">:</text><text x="3457.5" y="5198.071" fill="#000" filter="url(#b1ud6w416031hq0)" font-family="sans-serif" font-size="35" font-weight="bold" lengthAdjust="spacingAndGlyphs" textLength="602.5">ObservablePlugin.PluginObserver</text><ellipse cx="3766.25" cy="5230.762" fill="#FEFECE" rx="20" ry="20" style="stroke:#a80036;stroke-width:5"/><path fill="none" d="M3766.25,5250.7617 L3766.25,5318.2617 M3733.75,5270.7617 L3798.75,5270.7617 M3766.25,5318.2617 L3733.75,5355.7617 M3766.25,5318.2617 L3798.75,5355.7617" style="stroke:#a80036;stroke-width:5"/><rect style="stroke:#a80036;stroke-width:2.5" width="25" height="3332.559" x="93.75" y="1765.156" fill="#FFFFE0"/><rect style="stroke:#a80036;stroke-width:2.5" width="25" height="303.516" x="488.75" y="1765.156" fill="#ADD8E6"/><rect style="stroke:#a80036;stroke-width:2.5" width="25" height="116.523" x="835" y="1093.359" fill="#ADD8E6"/><rect style="stroke:#a80036;stroke-width:2.5" width="25" height="75.879" x="835" y="1505.02" fill="#ADD8E6"/><rect style="stroke:#a80036;stroke-width:2.5" width="25" height="4376.016" x="1442.5" y="721.699" fill="pink"/><rect style="stroke:#a80036;stroke-width:2.5" width="25" height="2398.633" x="2165" y="2676.582" fill="#ADD8E6"/><rect style="stroke:#a80036;stroke-width:2.5" width="25" height="182.402" x="2572.5" y="2711.582" fill="#ADD8E6"/><rect style="stroke:#a80036;stroke-width:2.5" width="25" height="75.879" x="2572.5" y="2969.863" fill="#ADD8E6"/><rect style="stroke:#a80036;stroke-width:2.5" width="25" height="110.879" x="2572.5" y="4888.457" fill="#ADD8E6"/><rect style="stroke:#a80036;stroke-width:2.5" width="25" height="75.879" x="3108.75" y="3121.621" fill="#ADD8E6"/><rect style="stroke:#a80036;stroke-width:2.5" width="25" height="75.879" x="3108.75" y="3682.773" fill="#ADD8E6"/><rect style="stroke:#a80036;stroke-width:2.5" width="25" height="75.879" x="3108.75" y="3875.41" fill="#ADD8E6"/><rect style="stroke:#a80036;stroke-width:2.5" width="25" height="35" x="3108.75" y="4027.168" fill="#ADD8E6"/><rect style="stroke:#a80036;stroke-width:2.5" width="25" height="227.637" x="3108.75" y="4459.063" fill="#ADD8E6"/><rect style="stroke:#a80036;stroke-width:2.5" width="25" height="4761.289" x="3753.75" y="336.426" fill="pink"/><rect style="stroke:#eee;stroke-width:2.5" width="4176.25" height="7.5" x="0" y="389.365" fill="#EEE"/><line style="stroke:#000;stroke-width:2.5" x1="0" x2="4176.25" y1="389.365" y2="389.365"/><line style="stroke:#000;stroke-width:2.5" x1="0" x2="4176.25" y1="396.865" y2="396.865"/><rect style="stroke:#000;stroke-width:5" width="435" height="60.879" x="1870.625" y="361.426" fill="#EEE"/><text x="1885.625" y="405.164" fill="#000" font-family="sans-serif" font-size="32.5" font-weight="bold" lengthAdjust="spacingAndGlyphs" textLength="390">Remote Lib Initialization</text><polygon fill="#A80036" points="2812.5 574.941 2787.5 584.941 2812.5 594.941 2802.5 584.941" style="stroke:#a80036;stroke-width:2.5"/><line style="stroke:#a80036;stroke-width:2.5" x1="2797.5" x2="3751.25" y1="584.941" y2="584.941"/><text x="2827.5" y="491.043" fill="#000" font-family="sans-serif" font-size="32.5" lengthAdjust="spacingAndGlyphs" textLength="462.5">smartCardService.registerPlugin</text><text x="2837.5" y="531.921" fill="#000" font-family="sans-serif" font-size="32.5" lengthAdjust="spacingAndGlyphs" textLength="442.5">(RemotePluginServerFactory...</text><text x="2867.5" y="572.8" fill="#000" font-family="sans-serif" font-size="32.5" lengthAdjust="spacingAndGlyphs" textLength="407.5">.withPluginObserver (this)...)</text><rect style="stroke:#a80036;stroke-width:3.75" width="400" height="79.023" x="2385" y="498.418" fill="#ADD8E6" rx="12.5" ry="12.5"/><text x="2402.5" y="552.251" fill="#000" font-family="sans-serif" font-size="35" font-weight="bold" lengthAdjust="spacingAndGlyphs" textLength="365">RemotePluginServer</text><line style="stroke:#a80036;stroke-width:2.5" x1="3778.75" x2="3896.25" y1="689.199" y2="689.199"/><line style="stroke:#a80036;stroke-width:2.5" x1="3896.25" x2="3896.25" y1="689.199" y2="721.699"/><line style="stroke:#a80036;stroke-width:2.5" x1="3793.75" x2="3896.25" y1="721.699" y2="721.699"/><polygon fill="#A80036" points="3818.75 711.699 3793.75 721.699 3818.75 731.699 3808.75 721.699" style="stroke:#a80036;stroke-width:2.5"/><text x="3808.75" y="636.179" fill="#000" font-family="sans-serif" font-size="32.5" lengthAdjust="spacingAndGlyphs" textLength="265">Awaiting receipt of</text><text x="3818.75" y="677.058" fill="#000" font-family="sans-serif" font-size="32.5" lengthAdjust="spacingAndGlyphs" textLength="237.5">a Plugin Event...</text><rect style="stroke:#eee;stroke-width:2.5" width="4176.25" height="7.5" x="0" y="807.139" fill="#EEE"/><line style="stroke:#000;stroke-width:2.5" x1="0" x2="4176.25" y1="807.139" y2="807.139"/><line style="stroke:#000;stroke-width:2.5" x1="0" x2="4176.25" y1="814.639" y2="814.639"/><rect style="stroke:#000;stroke-width:5" width="400" height="60.879" x="1888.125" y="779.199" fill="#EEE"/><text x="1903.125" y="822.937" fill="#000" font-family="sans-serif" font-size="32.5" font-weight="bold" lengthAdjust="spacingAndGlyphs" textLength="355">Local Lib Initialization</text><polygon fill="#A80036" points="1965 910.957 1990 920.957 1965 930.957 1975 920.957" style="stroke:#a80036;stroke-width:2.5"/><line style="stroke:#a80036;stroke-width:2.5" x1="1467.5" x2="1980" y1="920.957" y2="920.957"/><text x="1485" y="908.816" fill="#000" font-family="sans-serif" font-size="32.5" lengthAdjust="spacingAndGlyphs" textLength="405">LocalServiceClientFactory...</text><rect style="stroke:#a80036;stroke-width:3.75" width="365" height="79.023" x="1995" y="865.078" fill="#ADD8E6" rx="12.5" ry="12.5"/><text x="2012.5" y="918.911" fill="#000" font-family="sans-serif" font-size="35" font-weight="bold" lengthAdjust="spacingAndGlyphs" textLength="330">LocalServiceClient</text><polygon fill="#A80036" points="947.5 1058.359 922.5 1068.359 947.5 1078.359 937.5 1068.359" style="stroke:#a80036;stroke-width:2.5"/><line style="stroke:#a80036;stroke-width:2.5" x1="932.5" x2="1440" y1="1068.359" y2="1068.359"/><text x="962.5" y="1015.339" fill="#000" font-family="sans-serif" font-size="32.5" lengthAdjust="spacingAndGlyphs" textLength="462.5">smartCardService.registerPlugin</text><text x="972.5" y="1056.218" fill="#000" font-family="sans-serif" font-size="32.5" lengthAdjust="spacingAndGlyphs" textLength="270">(new XXXFactory())</text><rect style="stroke:#a80036;stroke-width:3.75" width="145" height="79.023" x="775" y="981.836" fill="#ADD8E6" rx="12.5" ry="12.5"/><text x="792.5" y="1035.669" fill="#000" font-family="sans-serif" font-size="35" font-weight="bold" lengthAdjust="spacingAndGlyphs" textLength="110">Plugin</text><polygon fill="#A80036" points="712.5 1134.238 687.5 1144.238 712.5 1154.238 702.5 1144.238" style="stroke:#a80036;stroke-width:2.5"/><line style="stroke:#a80036;stroke-width:2.5" x1="697.5" x2="832.5" y1="1144.238" y2="1144.238"/><text x="727.5" y="1132.097" fill="#000" font-family="sans-serif" font-size="32.5" lengthAdjust="spacingAndGlyphs" textLength="90">create</text><rect style="stroke:#a80036;stroke-width:3.75" width="367.5" height="79.023" x="317.5" y="1088.359" fill="#ADD8E6" rx="12.5" ry="12.5"/><text x="335" y="1142.192" fill="#000" font-family="sans-serif" font-size="35" font-weight="bold" lengthAdjust="spacingAndGlyphs" textLength="332.5">ObservableReader</text><polygon fill="#A80036" points="1412.5 1199.883 1437.5 1209.883 1412.5 1219.883 1422.5 1209.883" style="stroke:#a80036;stroke-width:2.5"/><line style="stroke:#a80036;stroke-width:2.5;stroke-dasharray:2,2" x1="847.5" x2="1427.5" y1="1209.883" y2="1209.883"/><rect style="stroke:#eee;stroke-width:2.5" width="4176.25" height="7.5" x="0" y="1282.822" fill="#EEE"/><line style="stroke:#000;stroke-width:2.5" x1="0" x2="4176.25" y1="1282.822" y2="1282.822"/><line style="stroke:#000;stroke-width:2.5" x1="0" x2="4176.25" y1="1290.322" y2="1290.322"/><rect style="stroke:#000;stroke-width:5" width="367.5" height="60.879" x="1904.375" y="1254.883" fill="#EEE"/><text x="1919.375" y="1298.621" fill="#000" font-family="sans-serif" font-size="32.5" font-weight="bold" lengthAdjust="spacingAndGlyphs" textLength="322.5">Local CardSelection</text><line style="stroke:#a80036;stroke-width:2.5" x1="1467.5" x2="1572.5" y1="1396.641" y2="1396.641"/><line style="stroke:#a80036;stroke-width:2.5" x1="1572.5" x2="1572.5" y1="1396.641" y2="1429.141"/><line style="stroke:#a80036;stroke-width:2.5" x1="1470" x2="1572.5" y1="1429.141" y2="1429.141"/><polygon fill="#A80036" points="1495 1419.141 1470 1429.141 1495 1439.141 1485 1429.141" style="stroke:#a80036;stroke-width:2.5"/><text x="1485" y="1384.499" fill="#000" font-family="sans-serif" font-size="32.5" lengthAdjust="spacingAndGlyphs" textLength="325">Start Ticketing Service</text><polygon fill="#A80036" points="887.5 1495.02 862.5 1505.02 887.5 1515.02 877.5 1505.02" style="stroke:#a80036;stroke-width:2.5"/><line style="stroke:#a80036;stroke-width:2.5" x1="872.5" x2="1440" y1="1505.02" y2="1505.02"/><text x="902.5" y="1492.878" fill="#000" font-family="sans-serif" font-size="32.5" lengthAdjust="spacingAndGlyphs" textLength="257.5">getReader (name)</text><polygon fill="#A80036" points="1412.5 1570.898 1437.5 1580.898 1412.5 1590.898 1422.5 1580.898" style="stroke:#a80036;stroke-width:2.5"/><line style="stroke:#a80036;stroke-width:2.5;stroke-dasharray:2,2" x1="847.5" x2="1427.5" y1="1580.898" y2="1580.898"/><text x="865" y="1568.757" fill="#000" font-family="sans-serif" font-size="32.5" lengthAdjust="spacingAndGlyphs" textLength="90">reader</text><line style="stroke:#a80036;stroke-width:2.5" x1="1467.5" x2="1572.5" y1="1656.777" y2="1656.777"/><line style="stroke:#a80036;stroke-width:2.5" x1="1572.5" x2="1572.5" y1="1656.777" y2="1689.277"/><line style="stroke:#a80036;stroke-width:2.5" x1="1470" x2="1572.5" y1="1689.277" y2="1689.277"/><polygon fill="#A80036" points="1495 1679.277 1470 1689.277 1495 1699.277 1485 1689.277" style="stroke:#a80036;stroke-width:2.5"/><text x="1485" y="1644.636" fill="#000" font-family="sans-serif" font-size="32.5" lengthAdjust="spacingAndGlyphs" textLength="430">prepareCardSelection (reader)</text><polygon fill="#A80036" points="541.25 1755.156 516.25 1765.156 541.25 1775.156 531.25 1765.156" style="stroke:#a80036;stroke-width:2.5"/><line style="stroke:#a80036;stroke-width:2.5" x1="526.25" x2="1440" y1="1765.156" y2="1765.156"/><text x="556.25" y="1753.015" fill="#000" font-family="sans-serif" font-size="32.5" lengthAdjust="spacingAndGlyphs" textLength="397.5">setCardSelectionRequest ()</text><line style="stroke:#a80036;stroke-width:2.5" x1="483.75" x2="458.75" y1="1841.035" y2="1831.035"/><line style="stroke:#a80036;stroke-width:2.5" x1="483.75" x2="458.75" y1="1841.035" y2="1851.035"/><line style="stroke:#a80036;stroke-width:2.5" x1="118.75" x2="486.25" y1="1841.035" y2="1841.035"/><text x="136.25" y="1828.894" fill="#000" font-family="sans-serif" font-size="32.5" lengthAdjust="spacingAndGlyphs" textLength="310">SE_MATCHED Event</text><polygon fill="#A80036" points="146.25 1906.914 121.25 1916.914 146.25 1926.914 136.25 1916.914" style="stroke:#a80036;stroke-width:2.5"/><line style="stroke:#a80036;stroke-width:2.5" x1="131.25" x2="486.25" y1="1916.914" y2="1916.914"/><text x="161.25" y="1904.773" fill="#000" font-family="sans-serif" font-size="32.5" lengthAdjust="spacingAndGlyphs" textLength="122.5">C-APDU</text><polygon fill="#A80036" points="458.75 1982.793 483.75 1992.793 458.75 2002.793 468.75 1992.793" style="stroke:#a80036;stroke-width:2.5"/><line style="stroke:#a80036;stroke-width:2.5;stroke-dasharray:2,2" x1="118.75" x2="473.75" y1="1992.793" y2="1992.793"/><text x="136.25" y="1980.652" fill="#000" font-family="sans-serif" font-size="32.5" lengthAdjust="spacingAndGlyphs" textLength="122.5">R-APDU</text><polygon fill="#A80036" points="1412.5 2058.672 1437.5 2068.672 1412.5 2078.672 1422.5 2068.672" style="stroke:#a80036;stroke-width:2.5"/><line style="stroke:#a80036;stroke-width:2.5;stroke-dasharray:2,2" x1="501.25" x2="1427.5" y1="2068.672" y2="2068.672"/><text x="518.75" y="2056.531" fill="red" font-family="sans-serif" font-size="32.5" font-weight="bold" lengthAdjust="spacingAndGlyphs" textLength="162.5">smartCard</text><rect style="stroke:#eee;stroke-width:2.5" width="4176.25" height="7.5" x="0" y="2141.611" fill="#EEE"/><line style="stroke:#000;stroke-width:2.5" x1="0" x2="4176.25" y1="2141.611" y2="2141.611"/><line style="stroke:#000;stroke-width:2.5" x1="0" x2="4176.25" y1="2149.111" y2="2149.111"/><rect style="stroke:#000;stroke-width:5" width="1060" height="60.879" x="1558.125" y="2113.672" fill="#EEE"/><text x="1573.125" y="2157.41" fill="#000" font-family="sans-serif" font-size="32.5" font-weight="bold" lengthAdjust="spacingAndGlyphs" textLength="1015">Execute Remote Service for a specific Observable Local Reader</text><line style="stroke:#a80036;stroke-width:2.5" x1="1467.5" x2="1572.5" y1="2255.43" y2="2255.43"/><line style="stroke:#a80036;stroke-width:2.5" x1="1572.5" x2="1572.5" y1="2255.43" y2="2287.93"/><line style="stroke:#a80036;stroke-width:2.5" x1="1470" x2="1572.5" y1="2287.93" y2="2287.93"/><polygon fill="#A80036" points="1495 2277.93 1470 2287.93 1495 2297.93 1485 2287.93" style="stroke:#a80036;stroke-width:2.5"/><text x="1485" y="2243.289" fill="#000" font-family="sans-serif" font-size="32.5" lengthAdjust="spacingAndGlyphs" textLength="317.5">prepare userInputData</text><line style="stroke:#a80036;stroke-width:2.5" x1="1467.5" x2="1572.5" y1="2363.809" y2="2363.809"/><line style="stroke:#a80036;stroke-width:2.5" x1="1572.5" x2="1572.5" y1="2363.809" y2="2396.309"/><line style="stroke:#a80036;stroke-width:2.5" x1="1470" x2="1572.5" y1="2396.309" y2="2396.309"/><polygon fill="#A80036" points="1495 2386.309 1470 2396.309 1495 2406.309 1485 2396.309" style="stroke:#a80036;stroke-width:2.5"/><text x="1485" y="2351.668" fill="#000" font-family="sans-serif" font-size="32.5" lengthAdjust="spacingAndGlyphs" textLength="492.5">LocalClientUtils.getLocalService ()</text><polygon fill="#A80036" points="2135 2666.582 2160 2676.582 2135 2686.582 2145 2676.582" style="stroke:#a80036;stroke-width:2.5"/><line style="stroke:#a80036;stroke-width:2.5" x1="1467.5" x2="2150" y1="2676.582" y2="2676.582"/><text x="1485" y="2460.046" fill="#000" font-family="sans-serif" font-size="32.5" lengthAdjust="spacingAndGlyphs" textLength="352.5">executeRemoteService (</text><text x="1495" y="2500.925" fill="#000" font-family="sans-serif" font-size="32.5" lengthAdjust="spacingAndGlyphs" textLength="385">RemoteServiceParameters</text><text x="1515" y="2541.804" fill="#000" font-family="sans-serif" font-size="32.5" lengthAdjust="spacingAndGlyphs" textLength="115">.builder(</text><text x="1630" y="2541.804" fill="#00F" font-family="sans-serif" font-size="32.5" font-weight="bold" lengthAdjust="spacingAndGlyphs" textLength="142.5">serviceId</text><text x="1772.5" y="2541.804" fill="#000" font-family="sans-serif" font-size="32.5" lengthAdjust="spacingAndGlyphs" textLength="120">, reader)</text><text x="1515" y="2582.683" fill="#000" font-family="sans-serif" font-size="32.5" lengthAdjust="spacingAndGlyphs" textLength="332.5">.withInitialCardContent(</text><text x="1847.5" y="2582.683" fill="red" font-family="sans-serif" font-size="32.5" font-weight="bold" lengthAdjust="spacingAndGlyphs" textLength="162.5">smartCard</text><text x="2010" y="2582.683" fill="#000" font-family="sans-serif" font-size="32.5" lengthAdjust="spacingAndGlyphs" textLength="10">)</text><text x="1515" y="2623.562" fill="#000" font-family="sans-serif" font-size="32.5" lengthAdjust="spacingAndGlyphs" textLength="282.5">.withUserInputData(</text><text x="1797.5" y="2623.562" fill="green" font-family="sans-serif" font-size="32.5" font-weight="bold" lengthAdjust="spacingAndGlyphs" textLength="220">userInputData</text><text x="2017.5" y="2623.562" fill="#000" font-family="sans-serif" font-size="32.5" lengthAdjust="spacingAndGlyphs" textLength="117.5">).build(),</text><text x="1495" y="2664.441" fill="#000" font-family="sans-serif" font-size="32.5" lengthAdjust="spacingAndGlyphs" textLength="352.5">classOfUserOutputData)</text><polygon fill="#A80036" points="2542.5 2701.582 2567.5 2711.582 2542.5 2721.582 2552.5 2711.582" style="stroke:#a80036;stroke-width:2.5"/><line style="stroke:#a80036;stroke-width:2.5" x1="2190" x2="2557.5" y1="2711.582" y2="2711.582"/><polygon fill="#A80036" points="2780 2777.461 2805 2787.461 2780 2797.461 2790 2787.461" style="stroke:#a80036;stroke-width:2.5"/><line style="stroke:#a80036;stroke-width:2.5" x1="2597.5" x2="2795" y1="2787.461" y2="2787.461"/><text x="2615" y="2775.32" fill="#000" font-family="sans-serif" font-size="32.5" lengthAdjust="spacingAndGlyphs" textLength="90">create</text><rect style="stroke:#a80036;stroke-width:3.75" width="622.5" height="79.023" x="2810" y="2731.582" fill="#ADD8E6" rx="12.5" ry="12.5"/><text x="2827.5" y="2785.415" fill="#000" font-family="sans-serif" font-size="35" font-weight="bold" lengthAdjust="spacingAndGlyphs" textLength="587.5">ObservableRemoteReaderServer</text><line style="stroke:#a80036;stroke-width:2.5" x1="3748.75" x2="3723.75" y1="2893.984" y2="2883.984"/><line style="stroke:#a80036;stroke-width:2.5" x1="3748.75" x2="3723.75" y1="2893.984" y2="2903.984"/><line style="stroke:#a80036;stroke-width:2.5" x1="2585" x2="3751.25" y1="2893.984" y2="2893.984"/><text x="2602.5" y="2881.843" fill="#000" font-family="sans-serif" font-size="32.5" lengthAdjust="spacingAndGlyphs" textLength="767.5">notify (READER_CONNECTED, remoteReaderName)</text><polygon fill="#A80036" points="2625 2959.863 2600 2969.863 2625 2979.863 2615 2969.863" style="stroke:#a80036;stroke-width:2.5"/><line style="stroke:#a80036;stroke-width:2.5" x1="2610" x2="3751.25" y1="2969.863" y2="2969.863"/><text x="2640" y="2957.722" fill="#000" font-family="sans-serif" font-size="32.5" lengthAdjust="spacingAndGlyphs" textLength="465">getReader (remoteReaderName)</text><polygon fill="#A80036" points="3723.75 3035.742 3748.75 3045.742 3723.75 3055.742 3733.75 3045.742" style="stroke:#a80036;stroke-width:2.5"/><line style="stroke:#a80036;stroke-width:2.5;stroke-dasharray:2,2" x1="2585" x2="3738.75" y1="3045.742" y2="3045.742"/><text x="2602.5" y="3033.601" fill="#000" font-family="sans-serif" font-size="32.5" lengthAdjust="spacingAndGlyphs" textLength="202.5">remoteReader</text><polygon fill="#A80036" points="3161.25 3111.621 3136.25 3121.621 3161.25 3131.621 3151.25 3121.621" style="stroke:#a80036;stroke-width:2.5"/><line style="stroke:#a80036;stroke-width:2.5" x1="3146.25" x2="3751.25" y1="3121.621" y2="3121.621"/><text x="3176.25" y="3109.48" fill="#000" font-family="sans-serif" font-size="32.5" lengthAdjust="spacingAndGlyphs" textLength="205">getServiceId ()</text><polygon fill="#A80036" points="3723.75 3187.5 3748.75 3197.5 3723.75 3207.5 3733.75 3197.5" style="stroke:#a80036;stroke-width:2.5"/><line style="stroke:#a80036;stroke-width:2.5;stroke-dasharray:2,2" x1="3121.25" x2="3738.75" y1="3197.5" y2="3197.5"/><text x="3138.75" y="3185.359" fill="#00F" font-family="sans-serif" font-size="32.5" font-weight="bold" lengthAdjust="spacingAndGlyphs" textLength="142.5">serviceId</text><line style="stroke:#a80036;stroke-width:2.5" x1="3778.75" x2="3883.75" y1="3314.258" y2="3314.258"/><line style="stroke:#a80036;stroke-width:2.5" x1="3883.75" x2="3883.75" y1="3314.258" y2="3346.758"/><line style="stroke:#a80036;stroke-width:2.5" x1="3781.25" x2="3883.75" y1="3346.758" y2="3346.758"/><polygon fill="#A80036" points="3806.25 3336.758 3781.25 3346.758 3806.25 3356.758 3796.25 3346.758" style="stroke:#a80036;stroke-width:2.5"/><text x="3796.25" y="3261.238" fill="#000" font-family="sans-serif" font-size="32.5" lengthAdjust="spacingAndGlyphs" textLength="305">Find ticketing service</text><text x="3796.25" y="3302.117" fill="#000" font-family="sans-serif" font-size="32.5" lengthAdjust="spacingAndGlyphs" textLength="190">to start using</text><text x="3996.25" y="3302.117" fill="#00F" font-family="sans-serif" font-size="32.5" font-weight="bold" lengthAdjust="spacingAndGlyphs" textLength="142.5">serviceId</text><rect style="stroke:#eee;stroke-width:2.5" width="4176.25" height="7.5" x="0" y="3419.697" fill="#EEE"/><line style="stroke:#000;stroke-width:2.5" x1="0" x2="4176.25" y1="3419.697" y2="3419.697"/><line style="stroke:#000;stroke-width:2.5" x1="0" x2="4176.25" y1="3427.197" y2="3427.197"/><rect style="stroke:#000;stroke-width:5" width="452.5" height="60.879" x="1861.875" y="3391.758" fill="#EEE"/><text x="1876.875" y="3435.496" fill="#000" font-family="sans-serif" font-size="32.5" font-weight="bold" lengthAdjust="spacingAndGlyphs" textLength="407.5">Remote Ticketing Service</text><line style="stroke:#a80036;stroke-width:2.5" x1="3778.75" x2="3883.75" y1="3533.516" y2="3533.516"/><line style="stroke:#a80036;stroke-width:2.5" x1="3883.75" x2="3883.75" y1="3533.516" y2="3566.016"/><line style="stroke:#a80036;stroke-width:2.5" x1="3781.25" x2="3883.75" y1="3566.016" y2="3566.016"/><polygon fill="#A80036" points="3806.25 3556.016 3781.25 3566.016 3806.25 3576.016 3796.25 3566.016" style="stroke:#a80036;stroke-width:2.5"/><text x="3796.25" y="3521.374" fill="#000" font-family="sans-serif" font-size="32.5" lengthAdjust="spacingAndGlyphs" textLength="325">Start Ticketing Service</text><polygon fill="#A80036" points="3161.25 3672.773 3136.25 3682.773 3161.25 3692.773 3151.25 3682.773" style="stroke:#a80036;stroke-width:2.5"/><line style="stroke:#a80036;stroke-width:2.5" x1="3146.25" x2="3751.25" y1="3682.773" y2="3682.773"/><text x="3176.25" y="3629.753" fill="#000" font-family="sans-serif" font-size="32.5" lengthAdjust="spacingAndGlyphs" textLength="300">getInitialCardContent</text><text x="3186.25" y="3670.632" fill="#000" font-family="sans-serif" font-size="32.5" lengthAdjust="spacingAndGlyphs" textLength="285">(classOfSmartCard)</text><polygon fill="#A80036" points="3723.75 3748.652 3748.75 3758.652 3723.75 3768.652 3733.75 3758.652" style="stroke:#a80036;stroke-width:2.5"/><line style="stroke:#a80036;stroke-width:2.5;stroke-dasharray:2,2" x1="3121.25" x2="3738.75" y1="3758.652" y2="3758.652"/><text x="3138.75" y="3746.511" fill="red" font-family="sans-serif" font-size="32.5" font-weight="bold" lengthAdjust="spacingAndGlyphs" textLength="162.5">smartCard</text><polygon fill="#A80036" points="3161.25 3865.41 3136.25 3875.41 3161.25 3885.41 3151.25 3875.41" style="stroke:#a80036;stroke-width:2.5"/><line style="stroke:#a80036;stroke-width:2.5" x1="3146.25" x2="3751.25" y1="3875.41" y2="3875.41"/><text x="3176.25" y="3822.39" fill="#000" font-family="sans-serif" font-size="32.5" lengthAdjust="spacingAndGlyphs" textLength="250">getUserInputData</text><text x="3186.25" y="3863.269" fill="#000" font-family="sans-serif" font-size="32.5" lengthAdjust="spacingAndGlyphs" textLength="335">(classOfUserInputData)</text><polygon fill="#A80036" points="3723.75 3941.289 3748.75 3951.289 3723.75 3961.289 3733.75 3951.289" style="stroke:#a80036;stroke-width:2.5"/><line style="stroke:#a80036;stroke-width:2.5;stroke-dasharray:2,2" x1="3121.25" x2="3738.75" y1="3951.289" y2="3951.289"/><text x="3138.75" y="3939.148" fill="green" font-family="sans-serif" font-size="32.5" font-weight="bold" lengthAdjust="spacingAndGlyphs" textLength="220">userInputData</text><polygon fill="#A80036" points="3161.25 4017.168 3136.25 4027.168 3161.25 4037.168 3151.25 4027.168" style="stroke:#a80036;stroke-width:2.5"/><line style="stroke:#a80036;stroke-width:2.5" x1="3146.25" x2="3751.25" y1="4027.168" y2="4027.168"/><text x="3176.25" y="4015.027" fill="#000" font-family="sans-serif" font-size="32.5" lengthAdjust="spacingAndGlyphs" textLength="262.5">addObserver (this)</text><polygon fill="#A80036" points="3723.75 4052.168 3748.75 4062.168 3723.75 4072.168 3733.75 4062.168" style="stroke:#a80036;stroke-width:2.5"/><line style="stroke:#a80036;stroke-width:2.5;stroke-dasharray:2,2" x1="3121.25" x2="3738.75" y1="4062.168" y2="4062.168"/><line style="stroke:#a80036;stroke-width:2.5" x1="3778.75" x2="3883.75" y1="4138.047" y2="4138.047"/><line style="stroke:#a80036;stroke-width:2.5" x1="3883.75" x2="3883.75" y1="4138.047" y2="4170.547"/><line style="stroke:#a80036;stroke-width:2.5" x1="3781.25" x2="3883.75" y1="4170.547" y2="4170.547"/><polygon fill="#A80036" points="3806.25 4160.547 3781.25 4170.547 3806.25 4180.547 3796.25 4170.547" style="stroke:#a80036;stroke-width:2.5"/><text x="3796.25" y="4125.906" fill="#000" font-family="sans-serif" font-size="32.5" lengthAdjust="spacingAndGlyphs" textLength="152.5">continue...</text><path fill="#EEE" d="M37.5,4208.0469 L207.5,4208.0469 L207.5,4228.0469 L182.5,4253.0469 L25,4253.0469 L25,4220.5469" style="stroke:#000;stroke-width:2.5"/><rect style="stroke:#000;stroke-width:5" width="4096.25" height="498.652" x="25" y="4208.047" fill="none" rx="12.5" ry="12.5"/><text x="62.5" y="4244.285" fill="#000" font-family="sans-serif" font-size="32.5" font-weight="bold" lengthAdjust="spacingAndGlyphs" textLength="70">loop</text><text x="245" y="4241.594" fill="#000" font-family="sans-serif" font-size="27.5" font-weight="bold" lengthAdjust="spacingAndGlyphs" textLength="242.5">[Card exchanges]</text><line style="stroke:#a80036;stroke-width:2.5" x1="3778.75" x2="3883.75" y1="4350.684" y2="4350.684"/><line style="stroke:#a80036;stroke-width:2.5" x1="3883.75" x2="3883.75" y1="4350.684" y2="4383.184"/><line style="stroke:#a80036;stroke-width:2.5" x1="3781.25" x2="3883.75" y1="4383.184" y2="4383.184"/><polygon fill="#A80036" points="3806.25 4373.184 3781.25 4383.184 3806.25 4393.184 3796.25 4383.184" style="stroke:#a80036;stroke-width:2.5"/><text x="3796.25" y="4297.664" fill="#000" font-family="sans-serif" font-size="32.5" lengthAdjust="spacingAndGlyphs" textLength="295">prepareCardRequest</text><text x="3806.25" y="4338.542" fill="#000" font-family="sans-serif" font-size="32.5" lengthAdjust="spacingAndGlyphs" textLength="222.5">(remoteReader)</text><polygon fill="#A80036" points="3161.25 4449.063 3136.25 4459.063 3161.25 4469.063 3151.25 4459.063" style="stroke:#a80036;stroke-width:2.5"/><line style="stroke:#a80036;stroke-width:2.5" x1="3146.25" x2="3751.25" y1="4459.063" y2="4459.063"/><text x="3176.25" y="4446.921" fill="#000" font-family="sans-serif" font-size="32.5" lengthAdjust="spacingAndGlyphs" textLength="332.5">processCardRequest ()</text><polygon fill="#A80036" points="146.25 4524.941 121.25 4534.941 146.25 4544.941 136.25 4534.941" style="stroke:#a80036;stroke-width:2.5"/><line style="stroke:#a80036;stroke-width:2.5" x1="131.25" x2="3106.25" y1="4534.941" y2="4534.941"/><text x="161.25" y="4522.8" fill="#000" font-family="sans-serif" font-size="32.5" lengthAdjust="spacingAndGlyphs" textLength="122.5">C-APDU</text><polygon fill="#A80036" points="3078.75 4600.82 3103.75 4610.82 3078.75 4620.82 3088.75 4610.82" style="stroke:#a80036;stroke-width:2.5"/><line style="stroke:#a80036;stroke-width:2.5;stroke-dasharray:2,2" x1="118.75" x2="3093.75" y1="4610.82" y2="4610.82"/><text x="136.25" y="4598.679" fill="#000" font-family="sans-serif" font-size="32.5" lengthAdjust="spacingAndGlyphs" textLength="122.5">R-APDU</text><polygon fill="#A80036" points="3723.75 4676.699 3748.75 4686.699 3723.75 4696.699 3733.75 4686.699" style="stroke:#a80036;stroke-width:2.5"/><line style="stroke:#a80036;stroke-width:2.5;stroke-dasharray:2,2" x1="3121.25" x2="3738.75" y1="4686.699" y2="4686.699"/><text x="3138.75" y="4674.558" fill="#000" font-family="sans-serif" font-size="32.5" lengthAdjust="spacingAndGlyphs" textLength="132.5">response</text><line style="stroke:#a80036;stroke-width:2.5" x1="3778.75" x2="3883.75" y1="4780.078" y2="4780.078"/><line style="stroke:#a80036;stroke-width:2.5" x1="3883.75" x2="3883.75" y1="4780.078" y2="4812.578"/><line style="stroke:#a80036;stroke-width:2.5" x1="3781.25" x2="3883.75" y1="4812.578" y2="4812.578"/><polygon fill="#A80036" points="3806.25 4802.578 3781.25 4812.578 3806.25 4822.578 3796.25 4812.578" style="stroke:#a80036;stroke-width:2.5"/><text x="3796.25" y="4767.937" fill="#000" font-family="sans-serif" font-size="32.5" lengthAdjust="spacingAndGlyphs" textLength="350">prepare UserOutputData</text><polygon fill="#A80036" points="2625 4878.457 2600 4888.457 2625 4898.457 2615 4888.457" style="stroke:#a80036;stroke-width:2.5"/><line style="stroke:#a80036;stroke-width:2.5" x1="2610" x2="3751.25" y1="4888.457" y2="4888.457"/><text x="2640" y="4876.316" fill="#000" font-family="sans-serif" font-size="32.5" lengthAdjust="spacingAndGlyphs" textLength="557.5">terminateService (remoteReaderName,</text><text x="3207.5" y="4876.316" fill="purple" font-family="sans-serif" font-size="32.5" font-weight="bold" lengthAdjust="spacingAndGlyphs" textLength="245">userOutputData</text><text x="3452.5" y="4876.316" fill="#000" font-family="sans-serif" font-size="32.5" lengthAdjust="spacingAndGlyphs" textLength="10">)</text><line style="stroke:#a80036;stroke-width:5" x1="3076.25" x2="3101.25" y1="4951.836" y2="4976.836"/><line style="stroke:#a80036;stroke-width:5" x1="3076.25" x2="3101.25" y1="4976.836" y2="4951.836"/><line style="stroke:#a80036;stroke-width:2.5" x1="2597.5" x2="3088.75" y1="4964.336" y2="4964.336"/><text x="2615" y="4952.195" fill="#000" font-family="sans-serif" font-size="32.5" lengthAdjust="spacingAndGlyphs" textLength="452.5">remove remote reader if needed</text><polygon fill="#A80036" points="2217.5 4989.336 2192.5 4999.336 2217.5 5009.336 2207.5 4999.336" style="stroke:#a80036;stroke-width:2.5"/><line style="stroke:#a80036;stroke-width:2.5;stroke-dasharray:2,2" x1="2202.5" x2="2582.5" y1="4999.336" y2="4999.336"/><polygon fill="#A80036" points="1495 5065.215 1470 5075.215 1495 5085.215 1485 5075.215" style="stroke:#a80036;stroke-width:2.5"/><line style="stroke:#a80036;stroke-width:2.5;stroke-dasharray:2,2" x1="1480" x2="2175" y1="5075.215" y2="5075.215"/><text x="1510" y="5063.074" fill="purple" font-family="sans-serif" font-size="32.5" font-weight="bold" lengthAdjust="spacingAndGlyphs" textLength="245">userOutputData</text><text x="1594.375" y="5409.214" fill="#888" font-family="sans-serif" font-size="25" lengthAdjust="spacingAndGlyphs" textLength="987.5">Keyple Distributed - Reader Client Side API with an ObservableReader (05/11/2020)</text></g></svg>