<svg xmlns="http://www.w3.org/2000/svg" xmlns:xlink="http://www.w3.org/1999/xlink" width="2182.5" height="1402.5" contentScriptType="application/ecmascript" contentStyleType="text/css" style="width:2182px;height:1402px" preserveAspectRatio="none" version="1.1" viewBox="0 0 2182 1402" zoomAndPan="magnify"><defs><filter id="b1sen8tt0j4jx00" width="1" height="1" x="0" y="0"><feFlood flood-color="#ADD8E6" result="flood"/><feComposite in="SourceGraphic" in2="flood" operator="over"/></filter></defs><g><text x="615.625" y="76.714" fill="#000" font-family="sans-serif" font-size="45" lengthAdjust="spacingAndGlyphs" textLength="972.5">Keyple Distributed - Sync Node API (04/11/2020)</text><rect style="stroke:#a80036;stroke-width:2.5" width="25" height="753.047" x="156.25" y="374.648" fill="#ADD8E6"/><rect style="stroke:#a80036;stroke-width:2.5" width="25" height="674.668" x="516.25" y="430.527" fill="pink"/><rect style="stroke:#a80036;stroke-width:2.5" width="25" height="522.91" x="1068.75" y="506.406" fill="pink"/><rect style="stroke:#a80036;stroke-width:2.5" width="25" height="75.879" x="1568.75" y="877.559" fill="#ADD8E6"/><line style="stroke:#a80036;stroke-width:2.5;stroke-dasharray:5,5" x1="167.5" x2="167.5" y1="349.648" y2="1150.195"/><line style="stroke:#a80036;stroke-width:2.5;stroke-dasharray:5,5" x1="527.5" x2="527.5" y1="349.648" y2="1150.195"/><line style="stroke:#a80036;stroke-width:2.5;stroke-dasharray:5,5" x1="1081.25" x2="1081.25" y1="349.648" y2="1150.195"/><line style="stroke:#a80036;stroke-width:2.5;stroke-dasharray:5,5" x1="1581.25" x2="1581.25" y1="349.648" y2="1150.195"/><rect style="stroke:#a80036;stroke-width:3.75" width="312.5" height="123.047" x="12.5" y="224.102" fill="#ADD8E6" rx="12.5" ry="12.5"/><text x="78.75" y="277.935" fill="#000" font-family="sans-serif" font-size="35" lengthAdjust="spacingAndGlyphs" textLength="180">nodeClient:</text><text x="30" y="321.958" fill="#000" font-family="sans-serif" font-size="35" font-weight="bold" lengthAdjust="spacingAndGlyphs" textLength="277.5">SyncNodeClient</text><rect style="stroke:#a80036;stroke-width:3.75" width="312.5" height="123.047" x="12.5" y="1147.695" fill="#ADD8E6" rx="12.5" ry="12.5"/><text x="78.75" y="1201.528" fill="#000" font-family="sans-serif" font-size="35" lengthAdjust="spacingAndGlyphs" textLength="180">nodeClient:</text><text x="30" y="1245.552" fill="#000" font-family="sans-serif" font-size="35" font-weight="bold" lengthAdjust="spacingAndGlyphs" textLength="277.5">SyncNodeClient</text><text x="378.75" y="297.935" fill="#000" font-family="sans-serif" font-size="35" lengthAdjust="spacingAndGlyphs" textLength="285">userSenderClient:</text><text x="350" y="341.958" fill="#000" filter="url(#b1sen8tt0j4jx00)" font-family="sans-serif" font-size="35" font-weight="bold" lengthAdjust="spacingAndGlyphs" textLength="342.5">SyncEndpointClient</text><ellipse cx="528.75" cy="129.102" fill="#FEFECE" rx="20" ry="20" style="stroke:#a80036;stroke-width:5"/><path fill="none" d="M528.75,149.1016 L528.75,216.6016 M496.25,169.1016 L561.25,169.1016 M528.75,216.6016 L496.25,254.1016 M528.75,216.6016 L561.25,254.1016" style="stroke:#a80036;stroke-width:5"/><text x="378.75" y="1184.028" fill="#000" font-family="sans-serif" font-size="35" lengthAdjust="spacingAndGlyphs" textLength="285">userSenderClient:</text><text x="350" y="1228.052" fill="#000" filter="url(#b1sen8tt0j4jx00)" font-family="sans-serif" font-size="35" font-weight="bold" lengthAdjust="spacingAndGlyphs" textLength="342.5">SyncEndpointClient</text><ellipse cx="528.75" cy="1260.742" fill="#FEFECE" rx="20" ry="20" style="stroke:#a80036;stroke-width:5"/><path fill="none" d="M528.75,1280.7422 L528.75,1348.2422 M496.25,1300.7422 L561.25,1300.7422 M528.75,1348.2422 L496.25,1385.7422 M528.75,1348.2422 L561.25,1385.7422" style="stroke:#a80036;stroke-width:5"/><text x="908.75" y="341.958" fill="#000" font-family="sans-serif" font-size="35" lengthAdjust="spacingAndGlyphs" textLength="330">userControllerServer</text><ellipse cx="1081.25" cy="173.125" fill="#FEFECE" rx="20" ry="20" style="stroke:#a80036;stroke-width:5"/><path fill="none" d="M1081.25,193.125 L1081.25,260.625 M1048.75,213.125 L1113.75,213.125 M1081.25,260.625 L1048.75,298.125 M1081.25,260.625 L1113.75,298.125" style="stroke:#a80036;stroke-width:5"/><text x="908.75" y="1184.028" fill="#000" font-family="sans-serif" font-size="35" lengthAdjust="spacingAndGlyphs" textLength="330">userControllerServer</text><ellipse cx="1081.25" cy="1216.719" fill="#FEFECE" rx="20" ry="20" style="stroke:#a80036;stroke-width:5"/><path fill="none" d="M1081.25,1236.7188 L1081.25,1304.2188 M1048.75,1256.7188 L1113.75,1256.7188 M1081.25,1304.2188 L1048.75,1341.7188 M1081.25,1304.2188 L1113.75,1341.7188" style="stroke:#a80036;stroke-width:5"/><rect style="stroke:#a80036;stroke-width:3.75" width="330" height="123.047" x="1416.25" y="224.102" fill="#ADD8E6" rx="12.5" ry="12.5"/><text x="1483.75" y="277.935" fill="#000" font-family="sans-serif" font-size="35" lengthAdjust="spacingAndGlyphs" textLength="195">nodeServer:</text><text x="1433.75" y="321.958" fill="#000" font-family="sans-serif" font-size="35" font-weight="bold" lengthAdjust="spacingAndGlyphs" textLength="295">SyncNodeServer</text><rect style="stroke:#a80036;stroke-width:3.75" width="330" height="123.047" x="1416.25" y="1147.695" fill="#ADD8E6" rx="12.5" ry="12.5"/><text x="1483.75" y="1201.528" fill="#000" font-family="sans-serif" font-size="35" lengthAdjust="spacingAndGlyphs" textLength="195">nodeServer:</text><text x="1433.75" y="1245.552" fill="#000" font-family="sans-serif" font-size="35" font-weight="bold" lengthAdjust="spacingAndGlyphs" textLength="295">SyncNodeServer</text><rect style="stroke:#a80036;stroke-width:2.5" width="25" height="753.047" x="156.25" y="374.648" fill="#ADD8E6"/><rect style="stroke:#a80036;stroke-width:2.5" width="25" height="674.668" x="516.25" y="430.527" fill="pink"/><rect style="stroke:#a80036;stroke-width:2.5" width="25" height="522.91" x="1068.75" y="506.406" fill="pink"/><rect style="stroke:#a80036;stroke-width:2.5" width="25" height="75.879" x="1568.75" y="877.559" fill="#ADD8E6"/><polygon fill="#A80036" points="486.25 420.527 511.25 430.527 486.25 440.527 496.25 430.527" style="stroke:#a80036;stroke-width:2.5"/><line style="stroke:#a80036;stroke-width:2.5" x1="181.25" x2="501.25" y1="430.527" y2="430.527"/><text x="198.75" y="418.386" fill="#000" font-family="sans-serif" font-size="32.5" lengthAdjust="spacingAndGlyphs" textLength="210">sendRequest (</text><text x="408.75" y="418.386" fill="red" font-family="sans-serif" font-size="32.5" lengthAdjust="spacingAndGlyphs" textLength="67.5">dtoA</text><text x="476.25" y="418.386" fill="#000" font-family="sans-serif" font-size="32.5" lengthAdjust="spacingAndGlyphs" textLength="10">)</text><polygon fill="#A80036" points="1038.75 496.406 1063.75 506.406 1038.75 516.406 1048.75 506.406" style="stroke:#a80036;stroke-width:2.5"/><line style="stroke:#a80036;stroke-width:2.5" x1="541.25" x2="1053.75" y1="506.406" y2="506.406"/><text x="558.75" y="494.265" fill="#000" font-family="sans-serif" font-size="32.5" lengthAdjust="spacingAndGlyphs" textLength="402.5">send synchronous request (</text><text x="961.25" y="494.265" fill="red" font-family="sans-serif" font-size="32.5" lengthAdjust="spacingAndGlyphs" textLength="67.5">dtoA</text><text x="1028.75" y="494.265" fill="#000" font-family="sans-serif" font-size="32.5" lengthAdjust="spacingAndGlyphs" textLength="10">)</text><line style="stroke:#a80036;stroke-width:2.5" x1="1093.75" x2="1198.75" y1="675.732" y2="675.732"/><line style="stroke:#a80036;stroke-width:2.5" x1="1198.75" x2="1198.75" y1="675.732" y2="708.232"/><line style="stroke:#a80036;stroke-width:2.5" x1="1096.25" x2="1198.75" y1="708.232" y2="708.232"/><polygon fill="#A80036" points="1121.25 698.232 1096.25 708.232 1121.25 718.232 1111.25 708.232" style="stroke:#a80036;stroke-width:2.5"/><text x="1111.25" y="663.591" fill="#000" font-family="sans-serif" font-size="32.5" lengthAdjust="spacingAndGlyphs" textLength="440">[...]ServerUtils.getSyncNode ()</text><path fill="#FBFB77" d="M1580,551.4063 L1580,796.4063 A12.5,12.5 0 0 0 1592.5,808.9063 L2152.5,808.9063 A12.5,12.5 0 0 0 2165,796.4063 L2165,563.9063 L2140,538.9063 L1592.5,538.9063 A12.5,12.5 0 0 0 1580,551.4063" style="stroke:#a80036;stroke-width:2.5"/><path fill="#FBFB77" d="M2140,538.9063 L2140,557.6563 A6.25,6.25 0 0 0 2146.25,563.9063 L2165,563.9063 L2140,538.9063" style="stroke:#a80036;stroke-width:2.5"/><text x="1595" y="585.144" fill="#000" font-family="sans-serif" font-size="32.5" lengthAdjust="spacingAndGlyphs" textLength="507.5">To access the node it is necessary</text><text x="1595" y="626.023" fill="#000" font-family="sans-serif" font-size="32.5" lengthAdjust="spacingAndGlyphs" textLength="532.5">to use the utility class corresponding</text><text x="1595" y="666.902" fill="#000" font-family="sans-serif" font-size="32.5" lengthAdjust="spacingAndGlyphs" textLength="390">to the server configuration :</text><ellipse cx="1608.75" cy="696.172" fill="#000" rx="6.25" ry="6.25" style="stroke:#000;stroke-width:0"/><text x="1627.5" y="707.781" fill="#000" font-family="sans-serif" font-size="32.5" font-weight="bold" lengthAdjust="spacingAndGlyphs" textLength="225">RemotePlugin</text><text x="1852.5" y="707.781" fill="#000" font-family="sans-serif" font-size="32.5" lengthAdjust="spacingAndGlyphs" textLength="155">ServerUtils</text><ellipse cx="1608.75" cy="737.051" fill="#000" rx="6.25" ry="6.25" style="stroke:#000;stroke-width:0"/><text x="1627.5" y="748.66" fill="#000" font-family="sans-serif" font-size="32.5" font-weight="bold" lengthAdjust="spacingAndGlyphs" textLength="207.5">LocalService</text><text x="1835" y="748.66" fill="#000" font-family="sans-serif" font-size="32.5" lengthAdjust="spacingAndGlyphs" textLength="155">ServerUtils</text><ellipse cx="1608.75" cy="777.93" fill="#000" rx="6.25" ry="6.25" style="stroke:#000;stroke-width:0"/><text x="1627.5" y="789.539" fill="#000" font-family="sans-serif" font-size="32.5" font-weight="bold" lengthAdjust="spacingAndGlyphs" textLength="280">PoolLocalService</text><text x="1907.5" y="789.539" fill="#000" font-family="sans-serif" font-size="32.5" lengthAdjust="spacingAndGlyphs" textLength="155">ServerUtils</text><polygon fill="#A80036" points="1538.75 867.559 1563.75 877.559 1538.75 887.559 1548.75 877.559" style="stroke:#a80036;stroke-width:2.5"/><line style="stroke:#a80036;stroke-width:2.5" x1="1093.75" x2="1553.75" y1="877.559" y2="877.559"/><text x="1111.25" y="865.418" fill="#000" font-family="sans-serif" font-size="32.5" lengthAdjust="spacingAndGlyphs" textLength="175">onRequest (</text><text x="1286.25" y="865.418" fill="red" font-family="sans-serif" font-size="32.5" lengthAdjust="spacingAndGlyphs" textLength="67.5">dtoA</text><text x="1353.75" y="865.418" fill="#000" font-family="sans-serif" font-size="32.5" lengthAdjust="spacingAndGlyphs" textLength="10">)</text><polygon fill="#A80036" points="1121.25 943.438 1096.25 953.438 1121.25 963.438 1111.25 953.438" style="stroke:#a80036;stroke-width:2.5"/><line style="stroke:#a80036;stroke-width:2.5;stroke-dasharray:2,2" x1="1106.25" x2="1578.75" y1="953.438" y2="953.438"/><text x="1136.25" y="941.296" fill="#00F" font-family="sans-serif" font-size="32.5" lengthAdjust="spacingAndGlyphs" textLength="67.5">dtoB</text><polygon fill="#A80036" points="568.75 1019.316 543.75 1029.316 568.75 1039.316 558.75 1029.316" style="stroke:#a80036;stroke-width:2.5"/><line style="stroke:#a80036;stroke-width:2.5;stroke-dasharray:2,2" x1="553.75" x2="1078.75" y1="1029.316" y2="1029.316"/><text x="583.75" y="1017.175" fill="#00F" font-family="sans-serif" font-size="32.5" lengthAdjust="spacingAndGlyphs" textLength="67.5">dtoB</text><polygon fill="#A80036" points="208.75 1095.195 183.75 1105.195 208.75 1115.195 198.75 1105.195" style="stroke:#a80036;stroke-width:2.5"/><line style="stroke:#a80036;stroke-width:2.5;stroke-dasharray:2,2" x1="193.75" x2="526.25" y1="1105.195" y2="1105.195"/><text x="223.75" y="1093.054" fill="#00F" font-family="sans-serif" font-size="32.5" lengthAdjust="spacingAndGlyphs" textLength="67.5">dtoB</text></g></svg>