<svg xmlns="http://www.w3.org/2000/svg" xmlns:xlink="http://www.w3.org/1999/xlink" width="2865" height="4425" contentScriptType="application/ecmascript" contentStyleType="text/css" style="width:2865px;height:4425px" preserveAspectRatio="none" version="1.1" viewBox="0 0 2865 4425" zoomAndPan="magnify"><g><text x="930" y="46.714" fill="#000" font-family="sans-serif" font-size="45" lengthAdjust="spacingAndGlyphs" textLength="972.5">Keyple Distributed Local API - 1.0.0 (23/11/2020)</text><polygon fill="#FFF" points="240 71.602 387.5 71.602 405 130.625 2620 130.625 2620 599.102 240 599.102 240 71.602" style="stroke:#000;stroke-width:3.75"/><line style="stroke:#000;stroke-width:3.75" x1="240" x2="405" y1="130.625" y2="130.625"/><text x="250" y="112.935" fill="#000" font-family="sans-serif" font-size="35" font-weight="bold" lengthAdjust="spacingAndGlyphs" textLength="132.5">Legend</text><polygon fill="#F8F9F9" points="40 681.602 580 681.602 597.5 740.625 2822.5 740.625 2822.5 4409.102 40 4409.102 40 681.602" style="stroke:#000;stroke-width:3.75"/><line style="stroke:#000;stroke-width:3.75" x1="40" x2="597.5" y1="740.625" y2="740.625"/><text x="50" y="722.935" fill="#000" font-family="sans-serif" font-size="35" font-weight="bold" lengthAdjust="spacingAndGlyphs" textLength="525">org.eclipse.keyple.distributed</text><polygon fill="#E5E7E9" points="822.5 791.602 890 791.602 907.5 850.625 1602.5 850.625 1602.5 1146.602 822.5 1146.602 822.5 791.602" style="stroke:#000;stroke-width:3.75"/><line style="stroke:#000;stroke-width:3.75" x1="822.5" x2="907.5" y1="850.625" y2="850.625"/><text x="832.5" y="832.935" fill="#000" font-family="sans-serif" font-size="35" font-weight="bold" lengthAdjust="spacingAndGlyphs" textLength="52.5">spi</text><polygon fill="#F2F3F4" points="100 1956.602 187.5 1956.602 205 2015.625 2762.5 2015.625 2762.5 4349.102 100 4349.102 100 1956.602" style="stroke:#000;stroke-width:3.75"/><line style="stroke:#000;stroke-width:3.75" x1="100" x2="205" y1="2015.625" y2="2015.625"/><text x="110" y="1997.935" fill="#000" font-family="sans-serif" font-size="35" font-weight="bold" lengthAdjust="spacingAndGlyphs" textLength="72.5">impl</text><rect id="serverApi" width="87.5" height="120" x="446.25" y="430.352" fill="#E9F7EF" codeLine="48" style="stroke:#27ae60;stroke-width:3.75"/><ellipse cx="483.75" cy="470.352" fill="#B4A7E5" rx="27.5" ry="27.5" style="stroke:#b4a7e5;stroke-width:2.5"/><path fill="#000" d="M486.25,462.8516 L486.25,477.8516 L491.25,477.8516 L492.4609,477.8516 L493.75,479.4141 L493.75,480.3516 L493.75,481.2891 L492.4609,482.8516 L491.25,482.8516 L476.25,482.8516 L475.0391,482.8516 L473.75,481.2891 L473.75,480.3516 L473.75,479.4141 L475.0391,477.8516 L476.25,477.8516 L481.25,477.8516 L481.25,462.8516 L476.25,462.8516 L475.0391,462.8516 L473.75,461.2891 L473.75,460.3516 L473.75,459.4141 L475.0391,457.8516 L476.25,457.8516 L491.25,457.8516 L492.4609,457.8516 L493.75,459.4141 L493.75,460.3516 L493.75,461.2891 L492.4609,462.8516 L491.25,462.8516 L486.25,462.8516 Z"/><line style="stroke:#27ae60;stroke-width:3.75" x1="448.75" x2="531.25" y1="510.352" y2="510.352"/><line style="stroke:#27ae60;stroke-width:3.75" x1="448.75" x2="531.25" y1="530.352" y2="530.352"/><path fill="#FBFB77" d="M281.25,182.8516 L281.25,248.7305 A0,0 0 0 0 281.25,248.7305 L480,248.7305 L490,429.8766 L500,248.7305 L698.75,248.7305 A0,0 0 0 0 698.75,248.7305 L698.75,207.8516 L673.75,182.8516 L281.25,182.8516 A0,0 0 0 0 281.25,182.8516" style="stroke:#a80036;stroke-width:2.5"/><path fill="#FBFB77" d="M673.75,182.8516 L673.75,207.8516 L698.75,207.8516 L673.75,182.8516" style="stroke:#a80036;stroke-width:2.5"/><text x="296.25" y="229.089" fill="#000" font-family="sans-serif" font-size="32.5" font-weight="bold" lengthAdjust="spacingAndGlyphs" textLength="365">Reader Client Side API</text><rect id="clientApi" width="87.5" height="120" x="1668.75" y="430.352" fill="#F4ECF7" codeLine="50" style="stroke:#8e44ad;stroke-width:3.75"/><ellipse cx="1706.25" cy="470.352" fill="#B4A7E5" rx="27.5" ry="27.5" style="stroke:#b4a7e5;stroke-width:2.5"/><path fill="#000" d="M1708.75,462.8516 L1708.75,477.8516 L1713.75,477.8516 L1714.9609,477.8516 L1716.25,479.4141 L1716.25,480.3516 L1716.25,481.2891 L1714.9609,482.8516 L1713.75,482.8516 L1698.75,482.8516 L1697.5391,482.8516 L1696.25,481.2891 L1696.25,480.3516 L1696.25,479.4141 L1697.5391,477.8516 L1698.75,477.8516 L1703.75,477.8516 L1703.75,462.8516 L1698.75,462.8516 L1697.5391,462.8516 L1696.25,461.2891 L1696.25,460.3516 L1696.25,459.4141 L1697.5391,457.8516 L1698.75,457.8516 L1713.75,457.8516 L1714.9609,457.8516 L1716.25,459.4141 L1716.25,460.3516 L1716.25,461.2891 L1714.9609,462.8516 L1713.75,462.8516 L1708.75,462.8516 Z"/><line style="stroke:#8e44ad;stroke-width:3.75" x1="1671.25" x2="1753.75" y1="510.352" y2="510.352"/><line style="stroke:#8e44ad;stroke-width:3.75" x1="1671.25" x2="1753.75" y1="530.352" y2="530.352"/><path fill="#FBFB77" d="M1547.5,182.8516 L1547.5,248.7305 A0,0 0 0 0 1547.5,248.7305 L1746.765,248.7305 L1723.235,429.8766 L1766.765,248.7305 L1977.5,248.7305 A0,0 0 0 0 1977.5,248.7305 L1977.5,207.8516 L1952.5,182.8516 L1547.5,182.8516 A0,0 0 0 0 1547.5,182.8516" style="stroke:#a80036;stroke-width:2.5"/><path fill="#FBFB77" d="M1952.5,182.8516 L1952.5,207.8516 L1977.5,207.8516 L1952.5,182.8516" style="stroke:#a80036;stroke-width:2.5"/><text x="1562.5" y="229.089" fill="#000" font-family="sans-serif" font-size="32.5" font-weight="bold" lengthAdjust="spacingAndGlyphs" textLength="377.5">Reader Server Side API</text><rect id="poolClientApi" width="87.5" height="120" x="2278.75" y="430.352" fill="#EBF5FB" codeLine="52" style="stroke:#3498db;stroke-width:3.75"/><ellipse cx="2316.25" cy="470.352" fill="#B4A7E5" rx="27.5" ry="27.5" style="stroke:#b4a7e5;stroke-width:2.5"/><path fill="#000" d="M2318.75,462.8516 L2318.75,477.8516 L2323.75,477.8516 L2324.9609,477.8516 L2326.25,479.4141 L2326.25,480.3516 L2326.25,481.2891 L2324.9609,482.8516 L2323.75,482.8516 L2308.75,482.8516 L2307.5391,482.8516 L2306.25,481.2891 L2306.25,480.3516 L2306.25,479.4141 L2307.5391,477.8516 L2308.75,477.8516 L2313.75,477.8516 L2313.75,462.8516 L2308.75,462.8516 L2307.5391,462.8516 L2306.25,461.2891 L2306.25,460.3516 L2306.25,459.4141 L2307.5391,457.8516 L2308.75,457.8516 L2323.75,457.8516 L2324.9609,457.8516 L2326.25,459.4141 L2326.25,460.3516 L2326.25,461.2891 L2324.9609,462.8516 L2323.75,462.8516 L2318.75,462.8516 Z"/><line style="stroke:#3498db;stroke-width:3.75" x1="2281.25" x2="2363.75" y1="510.352" y2="510.352"/><line style="stroke:#3498db;stroke-width:3.75" x1="2281.25" x2="2363.75" y1="530.352" y2="530.352"/><path fill="#FBFB77" d="M2066.25,182.8516 L2066.25,248.7305 A0,0 0 0 0 2066.25,248.7305 L2312.5,248.7305 L2322.5,429.8766 L2332.5,248.7305 L2578.75,248.7305 A0,0 0 0 0 2578.75,248.7305 L2578.75,207.8516 L2553.75,182.8516 L2066.25,182.8516 A0,0 0 0 0 2066.25,182.8516" style="stroke:#a80036;stroke-width:2.5"/><path fill="#FBFB77" d="M2553.75,182.8516 L2553.75,207.8516 L2578.75,207.8516 L2553.75,182.8516" style="stroke:#a80036;stroke-width:2.5"/><text x="2081.25" y="229.089" fill="#000" font-family="sans-serif" font-size="32.5" font-weight="bold" lengthAdjust="spacingAndGlyphs" textLength="460">Pool Reader Server Side API</text><path fill="#FBFB77" d="M786.25,161.6016 L786.25,268.3594 L1458.75,268.3594 L1458.75,186.6016 L1433.75,161.6016 L786.25,161.6016" style="stroke:#a80036;stroke-width:2.5"/><path fill="#FBFB77" d="M1433.75,161.6016 L1433.75,186.6016 L1458.75,186.6016 L1433.75,161.6016" style="stroke:#a80036;stroke-width:2.5"/><text x="801.25" y="207.839" fill="#000" font-family="sans-serif" font-size="32.5" lengthAdjust="spacingAndGlyphs" textLength="127.5">Contains</text><text x="938.75" y="207.839" fill="#000" font-family="sans-serif" font-size="32.5" font-weight="bold" lengthAdjust="spacingAndGlyphs" textLength="55">SPI</text><text x="993.75" y="207.839" fill="#000" font-family="sans-serif" font-size="32.5" lengthAdjust="spacingAndGlyphs" textLength="427.5">s (Service Provider Interfaces)</text><text x="811.25" y="248.718" fill="#000" font-family="sans-serif" font-size="32.5" lengthAdjust="spacingAndGlyphs" textLength="577.5">which must be implemented by the user</text><polygon fill="#E5E7E9" points="1106.25 421.602 1173.75 421.602 1191.25 480.625 1208.75 480.625 1208.75 559.648 1106.25 559.648 1106.25 421.602" style="stroke:#000;stroke-width:3.75"/><line style="stroke:#000;stroke-width:3.75" x1="1106.25" x2="1191.25" y1="480.625" y2="480.625"/><text x="1116.25" y="462.935" fill="#000" font-family="sans-serif" font-size="35" font-weight="bold" lengthAdjust="spacingAndGlyphs" textLength="52.5">spi</text><rect id="LocalServiceClient" width="567.5" height="223.769" x="206.25" y="881.602" fill="#E9F7EF" codeLine="208" style="stroke:#27ae60;stroke-width:3.75"/><ellipse cx="336.875" cy="921.602" fill="#B4A7E5" rx="27.5" ry="27.5" style="stroke:#b4a7e5;stroke-width:2.5"/><path fill="#000" d="M339.375,914.1016 L339.375,929.1016 L344.375,929.1016 L345.5859,929.1016 L346.875,930.6641 L346.875,931.6016 L346.875,932.5391 L345.5859,934.1016 L344.375,934.1016 L329.375,934.1016 L328.1641,934.1016 L326.875,932.5391 L326.875,931.6016 L326.875,930.6641 L328.1641,929.1016 L329.375,929.1016 L334.375,929.1016 L334.375,914.1016 L329.375,914.1016 L328.1641,914.1016 L326.875,912.5391 L326.875,911.6016 L326.875,910.6641 L328.1641,909.1016 L329.375,909.1016 L344.375,909.1016 L345.5859,909.1016 L346.875,910.6641 L346.875,911.6016 L346.875,912.5391 L345.5859,914.1016 L344.375,914.1016 L339.375,914.1016 Z"/><ellipse cx="400.625" cy="920.352" fill="#84BE84" rx="7.5" ry="7.5" style="stroke:#038048;stroke-width:2.5"/><text x="415.625" y="933.877" fill="#000" font-family="sans-serif" font-size="30" font-style="italic" lengthAdjust="spacingAndGlyphs" textLength="257.5">LocalServiceClient</text><line style="stroke:#27ae60;stroke-width:3.75" x1="208.75" x2="771.25" y1="961.602" y2="961.602"/><line style="stroke:#27ae60;stroke-width:3.75" x1="208.75" x2="771.25" y1="981.602" y2="981.602"/><ellipse cx="233.75" cy="1009.102" fill="#84BE84" rx="7.5" ry="7.5" style="stroke:#038048;stroke-width:2.5"/><text x="256.25" y="1020.149" fill="#000" font-family="sans-serif" font-size="27.5" lengthAdjust="spacingAndGlyphs" textLength="372.5">&lt;T&gt; T executeRemoteService (</text><text x="286.25" y="1054.739" fill="#000" font-family="sans-serif" font-size="27.5" lengthAdjust="spacingAndGlyphs" textLength="472.5">RemoteServiceParameters parameters,</text><text x="286.25" y="1089.329" fill="#000" font-family="sans-serif" font-size="27.5" lengthAdjust="spacingAndGlyphs" textLength="240">Class&lt;T&gt; classOfT)</text><rect id="RemoteServiceParameters" width="702.5" height="154.59" x="143.75" y="1306.602" fill="#E9F7EF" codeLine="215" style="stroke:#27ae60;stroke-width:3.75"/><ellipse cx="284.375" cy="1346.602" fill="#ADD1B2" rx="27.5" ry="27.5" style="stroke:#add1b2;stroke-width:2.5"/><path fill="#000" d="M289.375,1337.8516 Q289.8828,1336.6016 290.4688,1335.9766 Q291.0547,1335.3516 291.7188,1335.3516 Q292.8906,1335.3516 293.6328,1336.0547 Q294.375,1336.7578 294.375,1338.3984 L294.375,1342.3047 Q294.375,1343.9453 293.6719,1344.6484 Q292.9688,1345.3516 291.875,1345.3516 Q290.8984,1345.3516 290.2734,1344.9219 Q289.6484,1344.4922 289.375,1343.3594 Q289.2578,1342.5781 288.8281,1342.1484 Q288.0469,1341.3281 286.6406,1340.8594 Q285.2344,1340.3516 283.8281,1340.3516 Q282.0703,1340.3516 280.5859,1341.0547 Q279.1406,1341.7578 278.0078,1343.3203 Q276.875,1344.8828 276.875,1347.0313 L276.875,1349.3359 Q276.875,1351.9141 278.9844,1353.6328 Q281.0938,1355.3516 284.8438,1355.3516 Q287.0703,1355.3516 288.6328,1354.8438 Q289.5313,1354.5703 290.5469,1353.6719 Q291.2109,1353.1641 291.5625,1353.0078 Q291.9141,1352.8516 292.3438,1352.8516 Q293.1641,1352.8516 293.75,1353.5156 Q294.375,1354.1406 294.375,1355.0391 Q294.375,1355.8984 293.5156,1356.9141 Q292.2656,1358.3984 290.2734,1359.2188 Q287.6563,1360.3516 284.4531,1360.3516 Q280.7031,1360.3516 277.6953,1358.8672 Q275.2734,1357.6953 273.5547,1355.1563 Q271.875,1352.6172 271.875,1349.6094 L271.875,1346.875 Q271.875,1343.75 273.3594,1341.0156 Q274.8828,1338.2813 277.5,1336.8359 Q280.1563,1335.3516 283.125,1335.3516 Q284.9219,1335.3516 286.4844,1335.9766 Q288.0469,1336.6016 289.375,1337.8516 Z"/><ellipse cx="348.125" cy="1345.352" fill="#84BE84" rx="7.5" ry="7.5" style="stroke:#038048;stroke-width:2.5"/><text x="363.125" y="1358.877" fill="#000" font-family="sans-serif" font-size="30" font-style="italic" lengthAdjust="spacingAndGlyphs" textLength="372.5">RemoteServiceParameters</text><line style="stroke:#27ae60;stroke-width:3.75" x1="146.25" x2="843.75" y1="1386.602" y2="1386.602"/><line style="stroke:#27ae60;stroke-width:3.75" x1="146.25" x2="843.75" y1="1406.602" y2="1406.602"/><ellipse cx="171.25" cy="1434.102" fill="#84BE84" rx="7.5" ry="7.5" style="stroke:#038048;stroke-width:2.5"/><text x="193.75" y="1445.149" fill="#000" font-family="sans-serif" font-size="27.5" lengthAdjust="spacingAndGlyphs" text-decoration="underline" textLength="637.5">Builder builder (String serviceId, Reader localReader)</text><rect id="RemoteServiceParametersBuilder" width="807.5" height="223.769" x="126.25" y="1614.102" fill="#E9F7EF" codeLine="216" style="stroke:#27ae60;stroke-width:3.75"/><ellipse cx="456.875" cy="1654.102" fill="#ADD1B2" rx="27.5" ry="27.5" style="stroke:#add1b2;stroke-width:2.5"/><path fill="#000" d="M461.875,1645.3516 Q462.3828,1644.1016 462.9688,1643.4766 Q463.5547,1642.8516 464.2188,1642.8516 Q465.3906,1642.8516 466.1328,1643.5547 Q466.875,1644.2578 466.875,1645.8984 L466.875,1649.8047 Q466.875,1651.4453 466.1719,1652.1484 Q465.4688,1652.8516 464.375,1652.8516 Q463.3984,1652.8516 462.7734,1652.4219 Q462.1484,1651.9922 461.875,1650.8594 Q461.7578,1650.0781 461.3281,1649.6484 Q460.5469,1648.8281 459.1406,1648.3594 Q457.7344,1647.8516 456.3281,1647.8516 Q454.5703,1647.8516 453.0859,1648.5547 Q451.6406,1649.2578 450.5078,1650.8203 Q449.375,1652.3828 449.375,1654.5313 L449.375,1656.8359 Q449.375,1659.4141 451.4844,1661.1328 Q453.5938,1662.8516 457.3438,1662.8516 Q459.5703,1662.8516 461.1328,1662.3438 Q462.0313,1662.0703 463.0469,1661.1719 Q463.7109,1660.6641 464.0625,1660.5078 Q464.4141,1660.3516 464.8438,1660.3516 Q465.6641,1660.3516 466.25,1661.0156 Q466.875,1661.6406 466.875,1662.5391 Q466.875,1663.3984 466.0156,1664.4141 Q464.7656,1665.8984 462.7734,1666.7188 Q460.1563,1667.8516 456.9531,1667.8516 Q453.2031,1667.8516 450.1953,1666.3672 Q447.7734,1665.1953 446.0547,1662.6563 Q444.375,1660.1172 444.375,1657.1094 L444.375,1654.375 Q444.375,1651.25 445.8594,1648.5156 Q447.3828,1645.7813 450,1644.3359 Q452.6563,1642.8516 455.625,1642.8516 Q457.4219,1642.8516 458.9844,1643.4766 Q460.5469,1644.1016 461.875,1645.3516 Z"/><ellipse cx="520.625" cy="1652.852" fill="#84BE84" rx="7.5" ry="7.5" style="stroke:#038048;stroke-width:2.5"/><text x="535.625" y="1666.377" fill="#000" font-family="sans-serif" font-size="30" font-style="italic" lengthAdjust="spacingAndGlyphs" textLength="97.5">Builder</text><line style="stroke:#27ae60;stroke-width:3.75" x1="128.75" x2="931.25" y1="1694.102" y2="1694.102"/><line style="stroke:#27ae60;stroke-width:3.75" x1="128.75" x2="931.25" y1="1714.102" y2="1714.102"/><ellipse cx="153.75" cy="1741.602" fill="#84BE84" rx="7.5" ry="7.5" style="stroke:#038048;stroke-width:2.5"/><text x="176.25" y="1752.649" fill="#000" font-family="sans-serif" font-size="27.5" lengthAdjust="spacingAndGlyphs" textLength="592.5">Builder withUserInputData (Object userInputData)</text><ellipse cx="153.75" cy="1776.191" fill="#84BE84" rx="7.5" ry="7.5" style="stroke:#038048;stroke-width:2.5"/><text x="176.25" y="1787.239" fill="#000" font-family="sans-serif" font-size="27.5" lengthAdjust="spacingAndGlyphs" textLength="742.5">Builder withInitialCardContent (AbstractSmartCard smartCard)</text><ellipse cx="153.75" cy="1810.781" fill="#84BE84" rx="7.5" ry="7.5" style="stroke:#038048;stroke-width:2.5"/><text x="176.25" y="1821.829" fill="#000" font-family="sans-serif" font-size="27.5" lengthAdjust="spacingAndGlyphs" textLength="410">RemoteServiceParameters build ()</text><rect id="LocalServiceServer" width="375" height="120" x="1467.5" y="1666.602" fill="#F4ECF7" codeLine="220" style="stroke:#8e44ad;stroke-width:3.75"/><ellipse cx="1505" cy="1706.602" fill="#B4A7E5" rx="27.5" ry="27.5" style="stroke:#b4a7e5;stroke-width:2.5"/><path fill="#000" d="M1507.5,1699.1016 L1507.5,1714.1016 L1512.5,1714.1016 L1513.7109,1714.1016 L1515,1715.6641 L1515,1716.6016 L1515,1717.5391 L1513.7109,1719.1016 L1512.5,1719.1016 L1497.5,1719.1016 L1496.2891,1719.1016 L1495,1717.5391 L1495,1716.6016 L1495,1715.6641 L1496.2891,1714.1016 L1497.5,1714.1016 L1502.5,1714.1016 L1502.5,1699.1016 L1497.5,1699.1016 L1496.2891,1699.1016 L1495,1697.5391 L1495,1696.6016 L1495,1695.6641 L1496.2891,1694.1016 L1497.5,1694.1016 L1512.5,1694.1016 L1513.7109,1694.1016 L1515,1695.6641 L1515,1696.6016 L1515,1697.5391 L1513.7109,1699.1016 L1512.5,1699.1016 L1507.5,1699.1016 Z"/><ellipse cx="1552.5" cy="1705.352" fill="#84BE84" rx="7.5" ry="7.5" style="stroke:#038048;stroke-width:2.5"/><text x="1567.5" y="1718.877" fill="#000" font-family="sans-serif" font-size="30" font-style="italic" lengthAdjust="spacingAndGlyphs" textLength="267.5">LocalServiceServer</text><line style="stroke:#8e44ad;stroke-width:3.75" x1="1470" x2="1840" y1="1746.602" y2="1746.602"/><line style="stroke:#8e44ad;stroke-width:3.75" x1="1470" x2="1840" y1="1766.602" y2="1766.602"/><rect id="PoolLocalServiceServer" width="437.5" height="120" x="2103.75" y="1666.602" fill="#EBF5FB" codeLine="227" style="stroke:#3498db;stroke-width:3.75"/><ellipse cx="2141.25" cy="1706.602" fill="#B4A7E5" rx="27.5" ry="27.5" style="stroke:#b4a7e5;stroke-width:2.5"/><path fill="#000" d="M2143.75,1699.1016 L2143.75,1714.1016 L2148.75,1714.1016 L2149.9609,1714.1016 L2151.25,1715.6641 L2151.25,1716.6016 L2151.25,1717.5391 L2149.9609,1719.1016 L2148.75,1719.1016 L2133.75,1719.1016 L2132.5391,1719.1016 L2131.25,1717.5391 L2131.25,1716.6016 L2131.25,1715.6641 L2132.5391,1714.1016 L2133.75,1714.1016 L2138.75,1714.1016 L2138.75,1699.1016 L2133.75,1699.1016 L2132.5391,1699.1016 L2131.25,1697.5391 L2131.25,1696.6016 L2131.25,1695.6641 L2132.5391,1694.1016 L2133.75,1694.1016 L2148.75,1694.1016 L2149.9609,1694.1016 L2151.25,1695.6641 L2151.25,1696.6016 L2151.25,1697.5391 L2149.9609,1699.1016 L2148.75,1699.1016 L2143.75,1699.1016 Z"/><ellipse cx="2188.75" cy="1705.352" fill="#84BE84" rx="7.5" ry="7.5" style="stroke:#038048;stroke-width:2.5"/><text x="2203.75" y="1718.877" fill="#000" font-family="sans-serif" font-size="30" font-style="italic" lengthAdjust="spacingAndGlyphs" textLength="330">PoolLocalServiceServer</text><line style="stroke:#3498db;stroke-width:3.75" x1="2106.25" x2="2538.75" y1="1746.602" y2="1746.602"/><line style="stroke:#3498db;stroke-width:3.75" x1="2106.25" x2="2538.75" y1="1766.602" y2="1766.602"/><rect id="ObservableReaderEventFilter" width="700" height="223.769" x="862.5" y="881.602" fill="#E9F7EF" codeLine="218" style="stroke:#27ae60;stroke-width:3.75"/><ellipse cx="983.125" cy="921.602" fill="#B4A7E5" rx="27.5" ry="27.5" style="stroke:#b4a7e5;stroke-width:2.5"/><path fill="#000" d="M985.625,914.1016 L985.625,929.1016 L990.625,929.1016 L991.8359,929.1016 L993.125,930.6641 L993.125,931.6016 L993.125,932.5391 L991.8359,934.1016 L990.625,934.1016 L975.625,934.1016 L974.4141,934.1016 L973.125,932.5391 L973.125,931.6016 L973.125,930.6641 L974.4141,929.1016 L975.625,929.1016 L980.625,929.1016 L980.625,914.1016 L975.625,914.1016 L974.4141,914.1016 L973.125,912.5391 L973.125,911.6016 L973.125,910.6641 L974.4141,909.1016 L975.625,909.1016 L990.625,909.1016 L991.8359,909.1016 L993.125,910.6641 L993.125,911.6016 L993.125,912.5391 L991.8359,914.1016 L990.625,914.1016 L985.625,914.1016 Z"/><ellipse cx="1046.875" cy="920.352" fill="#84BE84" rx="7.5" ry="7.5" style="stroke:#038048;stroke-width:2.5"/><text x="1061.875" y="933.877" fill="#000" font-family="sans-serif" font-size="30" font-style="italic" lengthAdjust="spacingAndGlyphs" textLength="410">ObservableReaderEventFilter</text><line style="stroke:#27ae60;stroke-width:3.75" x1="865" x2="1560" y1="961.602" y2="961.602"/><line style="stroke:#27ae60;stroke-width:3.75" x1="865" x2="1560" y1="981.602" y2="981.602"/><ellipse cx="890" cy="1009.102" fill="#84BE84" rx="7.5" ry="7.5" style="stroke:#038048;stroke-width:2.5"/><text x="912.5" y="1020.149" fill="#000" font-family="sans-serif" font-size="27.5" lengthAdjust="spacingAndGlyphs" textLength="565">Object beforePropagation (ReaderEvent event)</text><ellipse cx="890" cy="1043.691" fill="#84BE84" rx="7.5" ry="7.5" style="stroke:#038048;stroke-width:2.5"/><text x="912.5" y="1054.739" fill="#000" font-family="sans-serif" font-size="27.5" lengthAdjust="spacingAndGlyphs" textLength="635">Class&lt;? extends Object&gt; getUserOutputDataClass ()</text><ellipse cx="890" cy="1078.281" fill="#84BE84" rx="7.5" ry="7.5" style="stroke:#038048;stroke-width:2.5"/><text x="912.5" y="1089.329" fill="#000" font-family="sans-serif" font-size="27.5" lengthAdjust="spacingAndGlyphs" textLength="560">void afterPropagation (Object userOutputData)</text><rect id="LocalServiceClientUtils" width="810" height="278.359" x="140" y="2046.602" fill="#E9F7EF" codeLine="217" style="stroke:#27ae60;stroke-width:3.75"/><ellipse cx="328.125" cy="2086.602" fill="#ADD1B2" rx="27.5" ry="27.5" style="stroke:#add1b2;stroke-width:2.5"/><path fill="#000" d="M333.125,2077.8516 Q333.6328,2076.6016 334.2188,2075.9766 Q334.8047,2075.3516 335.4688,2075.3516 Q336.6406,2075.3516 337.3828,2076.0547 Q338.125,2076.7578 338.125,2078.3984 L338.125,2082.3047 Q338.125,2083.9453 337.4219,2084.6484 Q336.7188,2085.3516 335.625,2085.3516 Q334.6484,2085.3516 334.0234,2084.9219 Q333.3984,2084.4922 333.125,2083.3594 Q333.0078,2082.5781 332.5781,2082.1484 Q331.7969,2081.3281 330.3906,2080.8594 Q328.9844,2080.3516 327.5781,2080.3516 Q325.8203,2080.3516 324.3359,2081.0547 Q322.8906,2081.7578 321.7578,2083.3203 Q320.625,2084.8828 320.625,2087.0313 L320.625,2089.3359 Q320.625,2091.9141 322.7344,2093.6328 Q324.8438,2095.3516 328.5938,2095.3516 Q330.8203,2095.3516 332.3828,2094.8438 Q333.2813,2094.5703 334.2969,2093.6719 Q334.9609,2093.1641 335.3125,2093.0078 Q335.6641,2092.8516 336.0938,2092.8516 Q336.9141,2092.8516 337.5,2093.5156 Q338.125,2094.1406 338.125,2095.0391 Q338.125,2095.8984 337.2656,2096.9141 Q336.0156,2098.3984 334.0234,2099.2188 Q331.4063,2100.3516 328.2031,2100.3516 Q324.4531,2100.3516 321.4453,2098.8672 Q319.0234,2097.6953 317.3047,2095.1563 Q315.625,2092.6172 315.625,2089.6094 L315.625,2086.875 Q315.625,2083.75 317.1094,2081.0156 Q318.6328,2078.2813 321.25,2076.8359 Q323.9063,2075.3516 326.875,2075.3516 Q328.6719,2075.3516 330.2344,2075.9766 Q331.7969,2076.6016 333.125,2077.8516 Z"/><ellipse cx="391.875" cy="2085.352" fill="#84BE84" rx="7.5" ry="7.5" style="stroke:#038048;stroke-width:2.5"/><text x="406.875" y="2098.877" fill="#000" font-family="sans-serif" font-size="30" font-style="italic" font-weight="bold" lengthAdjust="spacingAndGlyphs" textLength="60">final</text><text x="474.375" y="2098.877" fill="#000" font-family="sans-serif" font-size="30" font-style="italic" lengthAdjust="spacingAndGlyphs" textLength="317.5">LocalServiceClientUtils</text><line style="stroke:#27ae60;stroke-width:3.75" x1="142.5" x2="947.5" y1="2126.602" y2="2126.602"/><line style="stroke:#27ae60;stroke-width:2.5" x1="142.5" x2="947.5" y1="2146.602" y2="2146.602"/><ellipse cx="167.5" cy="2174.102" fill="#84BE84" rx="7.5" ry="7.5" style="stroke:#038048;stroke-width:2.5"/><text x="190" y="2185.149" fill="#000" font-family="sans-serif" font-size="27.5" lengthAdjust="spacingAndGlyphs" text-decoration="underline" textLength="452.5">LocalServiceClient getLocalService ()</text><ellipse cx="167.5" cy="2208.691" fill="#84BE84" rx="7.5" ry="7.5" style="stroke:#038048;stroke-width:2.5"/><text x="190" y="2219.739" fill="#000" font-family="sans-serif" font-size="27.5" lengthAdjust="spacingAndGlyphs" text-decoration="underline" textLength="745">LocalServiceClient getLocalService (String localServiceName)</text><line style="stroke:#27ae60;stroke-width:2.5;stroke-dasharray:1,2" x1="142.5" x2="947.5" y1="2235.781" y2="2235.781"/><ellipse cx="167.5" cy="2263.281" fill="#84BE84" rx="7.5" ry="7.5" style="stroke:#038048;stroke-width:2.5"/><text x="190" y="2274.329" fill="#000" font-family="sans-serif" font-size="27.5" lengthAdjust="spacingAndGlyphs" text-decoration="underline" textLength="422.5">AsyncNodeClient getAsyncNode ()</text><ellipse cx="167.5" cy="2297.871" fill="#84BE84" rx="7.5" ry="7.5" style="stroke:#038048;stroke-width:2.5"/><text x="190" y="2308.919" fill="#000" font-family="sans-serif" font-size="27.5" lengthAdjust="spacingAndGlyphs" text-decoration="underline" textLength="715">AsyncNodeClient getAsyncNode (String localServiceName)</text><rect id="LocalServiceServerUtils" width="797.5" height="278.359" x="1038.75" y="2046.602" fill="#F4ECF7" codeLine="225" style="stroke:#8e44ad;stroke-width:3.75"/><ellipse cx="1215.625" cy="2086.602" fill="#ADD1B2" rx="27.5" ry="27.5" style="stroke:#add1b2;stroke-width:2.5"/><path fill="#000" d="M1220.625,2077.8516 Q1221.1328,2076.6016 1221.7188,2075.9766 Q1222.3047,2075.3516 1222.9688,2075.3516 Q1224.1406,2075.3516 1224.8828,2076.0547 Q1225.625,2076.7578 1225.625,2078.3984 L1225.625,2082.3047 Q1225.625,2083.9453 1224.9219,2084.6484 Q1224.2188,2085.3516 1223.125,2085.3516 Q1222.1484,2085.3516 1221.5234,2084.9219 Q1220.8984,2084.4922 1220.625,2083.3594 Q1220.5078,2082.5781 1220.0781,2082.1484 Q1219.2969,2081.3281 1217.8906,2080.8594 Q1216.4844,2080.3516 1215.0781,2080.3516 Q1213.3203,2080.3516 1211.8359,2081.0547 Q1210.3906,2081.7578 1209.2578,2083.3203 Q1208.125,2084.8828 1208.125,2087.0313 L1208.125,2089.3359 Q1208.125,2091.9141 1210.2344,2093.6328 Q1212.3438,2095.3516 1216.0938,2095.3516 Q1218.3203,2095.3516 1219.8828,2094.8438 Q1220.7813,2094.5703 1221.7969,2093.6719 Q1222.4609,2093.1641 1222.8125,2093.0078 Q1223.1641,2092.8516 1223.5938,2092.8516 Q1224.4141,2092.8516 1225,2093.5156 Q1225.625,2094.1406 1225.625,2095.0391 Q1225.625,2095.8984 1224.7656,2096.9141 Q1223.5156,2098.3984 1221.5234,2099.2188 Q1218.9063,2100.3516 1215.7031,2100.3516 Q1211.9531,2100.3516 1208.9453,2098.8672 Q1206.5234,2097.6953 1204.8047,2095.1563 Q1203.125,2092.6172 1203.125,2089.6094 L1203.125,2086.875 Q1203.125,2083.75 1204.6094,2081.0156 Q1206.1328,2078.2813 1208.75,2076.8359 Q1211.4063,2075.3516 1214.375,2075.3516 Q1216.1719,2075.3516 1217.7344,2075.9766 Q1219.2969,2076.6016 1220.625,2077.8516 Z"/><ellipse cx="1279.375" cy="2085.352" fill="#84BE84" rx="7.5" ry="7.5" style="stroke:#038048;stroke-width:2.5"/><text x="1294.375" y="2098.877" fill="#000" font-family="sans-serif" font-size="30" font-style="italic" font-weight="bold" lengthAdjust="spacingAndGlyphs" textLength="60">final</text><text x="1361.875" y="2098.877" fill="#000" font-family="sans-serif" font-size="30" font-style="italic" lengthAdjust="spacingAndGlyphs" textLength="327.5">LocalServiceServerUtils</text><line style="stroke:#8e44ad;stroke-width:3.75" x1="1041.25" x2="1833.75" y1="2126.602" y2="2126.602"/><line style="stroke:#8e44ad;stroke-width:2.5" x1="1041.25" x2="1833.75" y1="2146.602" y2="2146.602"/><ellipse cx="1066.25" cy="2174.102" fill="#84BE84" rx="7.5" ry="7.5" style="stroke:#038048;stroke-width:2.5"/><text x="1088.75" y="2185.149" fill="#000" font-family="sans-serif" font-size="27.5" lengthAdjust="spacingAndGlyphs" text-decoration="underline" textLength="440">AsyncNodeServer getAsyncNode ()</text><ellipse cx="1066.25" cy="2208.691" fill="#84BE84" rx="7.5" ry="7.5" style="stroke:#038048;stroke-width:2.5"/><text x="1088.75" y="2219.739" fill="#000" font-family="sans-serif" font-size="27.5" lengthAdjust="spacingAndGlyphs" text-decoration="underline" textLength="732.5">AsyncNodeServer getAsyncNode (String localServiceName)</text><line style="stroke:#8e44ad;stroke-width:2.5;stroke-dasharray:1,2" x1="1041.25" x2="1833.75" y1="2235.781" y2="2235.781"/><ellipse cx="1066.25" cy="2263.281" fill="#84BE84" rx="7.5" ry="7.5" style="stroke:#038048;stroke-width:2.5"/><text x="1088.75" y="2274.329" fill="#000" font-family="sans-serif" font-size="27.5" lengthAdjust="spacingAndGlyphs" text-decoration="underline" textLength="405">SyncNodeServer getSyncNode ()</text><ellipse cx="1066.25" cy="2297.871" fill="#84BE84" rx="7.5" ry="7.5" style="stroke:#038048;stroke-width:2.5"/><text x="1088.75" y="2308.919" fill="#000" font-family="sans-serif" font-size="27.5" lengthAdjust="spacingAndGlyphs" text-decoration="underline" textLength="697.5">SyncNodeServer getSyncNode (String localServiceName)</text><rect id="PoolLocalServiceServerUtils" width="797.5" height="278.359" x="1923.75" y="2046.602" fill="#EBF5FB" codeLine="233" style="stroke:#3498db;stroke-width:3.75"/><ellipse cx="2069.375" cy="2086.602" fill="#ADD1B2" rx="27.5" ry="27.5" style="stroke:#add1b2;stroke-width:2.5"/><path fill="#000" d="M2074.375,2077.8516 Q2074.8828,2076.6016 2075.4688,2075.9766 Q2076.0547,2075.3516 2076.7188,2075.3516 Q2077.8906,2075.3516 2078.6328,2076.0547 Q2079.375,2076.7578 2079.375,2078.3984 L2079.375,2082.3047 Q2079.375,2083.9453 2078.6719,2084.6484 Q2077.9688,2085.3516 2076.875,2085.3516 Q2075.8984,2085.3516 2075.2734,2084.9219 Q2074.6484,2084.4922 2074.375,2083.3594 Q2074.2578,2082.5781 2073.8281,2082.1484 Q2073.0469,2081.3281 2071.6406,2080.8594 Q2070.2344,2080.3516 2068.8281,2080.3516 Q2067.0703,2080.3516 2065.5859,2081.0547 Q2064.1406,2081.7578 2063.0078,2083.3203 Q2061.875,2084.8828 2061.875,2087.0313 L2061.875,2089.3359 Q2061.875,2091.9141 2063.9844,2093.6328 Q2066.0938,2095.3516 2069.8438,2095.3516 Q2072.0703,2095.3516 2073.6328,2094.8438 Q2074.5313,2094.5703 2075.5469,2093.6719 Q2076.2109,2093.1641 2076.5625,2093.0078 Q2076.9141,2092.8516 2077.3438,2092.8516 Q2078.1641,2092.8516 2078.75,2093.5156 Q2079.375,2094.1406 2079.375,2095.0391 Q2079.375,2095.8984 2078.5156,2096.9141 Q2077.2656,2098.3984 2075.2734,2099.2188 Q2072.6563,2100.3516 2069.4531,2100.3516 Q2065.7031,2100.3516 2062.6953,2098.8672 Q2060.2734,2097.6953 2058.5547,2095.1563 Q2056.875,2092.6172 2056.875,2089.6094 L2056.875,2086.875 Q2056.875,2083.75 2058.3594,2081.0156 Q2059.8828,2078.2813 2062.5,2076.8359 Q2065.1563,2075.3516 2068.125,2075.3516 Q2069.9219,2075.3516 2071.4844,2075.9766 Q2073.0469,2076.6016 2074.375,2077.8516 Z"/><ellipse cx="2133.125" cy="2085.352" fill="#84BE84" rx="7.5" ry="7.5" style="stroke:#038048;stroke-width:2.5"/><text x="2148.125" y="2098.877" fill="#000" font-family="sans-serif" font-size="30" font-style="italic" font-weight="bold" lengthAdjust="spacingAndGlyphs" textLength="60">final</text><text x="2215.625" y="2098.877" fill="#000" font-family="sans-serif" font-size="30" font-style="italic" lengthAdjust="spacingAndGlyphs" textLength="390">PoolLocalServiceServerUtils</text><line style="stroke:#3498db;stroke-width:3.75" x1="1926.25" x2="2718.75" y1="2126.602" y2="2126.602"/><line style="stroke:#3498db;stroke-width:2.5" x1="1926.25" x2="2718.75" y1="2146.602" y2="2146.602"/><ellipse cx="1951.25" cy="2174.102" fill="#84BE84" rx="7.5" ry="7.5" style="stroke:#038048;stroke-width:2.5"/><text x="1973.75" y="2185.149" fill="#000" font-family="sans-serif" font-size="27.5" lengthAdjust="spacingAndGlyphs" text-decoration="underline" textLength="440">AsyncNodeServer getAsyncNode ()</text><ellipse cx="1951.25" cy="2208.691" fill="#84BE84" rx="7.5" ry="7.5" style="stroke:#038048;stroke-width:2.5"/><text x="1973.75" y="2219.739" fill="#000" font-family="sans-serif" font-size="27.5" lengthAdjust="spacingAndGlyphs" text-decoration="underline" textLength="732.5">AsyncNodeServer getAsyncNode (String localServiceName)</text><line style="stroke:#3498db;stroke-width:2.5;stroke-dasharray:1,2" x1="1926.25" x2="2718.75" y1="2235.781" y2="2235.781"/><ellipse cx="1951.25" cy="2263.281" fill="#84BE84" rx="7.5" ry="7.5" style="stroke:#038048;stroke-width:2.5"/><text x="1973.75" y="2274.329" fill="#000" font-family="sans-serif" font-size="27.5" lengthAdjust="spacingAndGlyphs" text-decoration="underline" textLength="405">SyncNodeServer getSyncNode ()</text><ellipse cx="1951.25" cy="2297.871" fill="#84BE84" rx="7.5" ry="7.5" style="stroke:#038048;stroke-width:2.5"/><text x="1973.75" y="2308.919" fill="#000" font-family="sans-serif" font-size="27.5" lengthAdjust="spacingAndGlyphs" text-decoration="underline" textLength="697.5">SyncNodeServer getSyncNode (String localServiceName)</text><rect id="LocalServiceClientFactory" width="532.5" height="154.59" x="276.25" y="2476.602" fill="#E9F7EF" codeLine="209" style="stroke:#27ae60;stroke-width:3.75"/><ellipse cx="313.75" cy="2516.602" fill="#ADD1B2" rx="27.5" ry="27.5" style="stroke:#add1b2;stroke-width:2.5"/><path fill="#000" d="M318.75,2507.8516 Q319.2578,2506.6016 319.8438,2505.9766 Q320.4297,2505.3516 321.0938,2505.3516 Q322.2656,2505.3516 323.0078,2506.0547 Q323.75,2506.7578 323.75,2508.3984 L323.75,2512.3047 Q323.75,2513.9453 323.0469,2514.6484 Q322.3438,2515.3516 321.25,2515.3516 Q320.2734,2515.3516 319.6484,2514.9219 Q319.0234,2514.4922 318.75,2513.3594 Q318.6328,2512.5781 318.2031,2512.1484 Q317.4219,2511.3281 316.0156,2510.8594 Q314.6094,2510.3516 313.2031,2510.3516 Q311.4453,2510.3516 309.9609,2511.0547 Q308.5156,2511.7578 307.3828,2513.3203 Q306.25,2514.8828 306.25,2517.0313 L306.25,2519.3359 Q306.25,2521.9141 308.3594,2523.6328 Q310.4688,2525.3516 314.2188,2525.3516 Q316.4453,2525.3516 318.0078,2524.8438 Q318.9063,2524.5703 319.9219,2523.6719 Q320.5859,2523.1641 320.9375,2523.0078 Q321.2891,2522.8516 321.7188,2522.8516 Q322.5391,2522.8516 323.125,2523.5156 Q323.75,2524.1406 323.75,2525.0391 Q323.75,2525.8984 322.8906,2526.9141 Q321.6406,2528.3984 319.6484,2529.2188 Q317.0313,2530.3516 313.8281,2530.3516 Q310.0781,2530.3516 307.0703,2528.8672 Q304.6484,2527.6953 302.9297,2525.1563 Q301.25,2522.6172 301.25,2519.6094 L301.25,2516.875 Q301.25,2513.75 302.7344,2511.0156 Q304.2578,2508.2813 306.875,2506.8359 Q309.5313,2505.3516 312.5,2505.3516 Q314.2969,2505.3516 315.8594,2505.9766 Q317.4219,2506.6016 318.75,2507.8516 Z"/><ellipse cx="361.25" cy="2515.352" fill="#84BE84" rx="7.5" ry="7.5" style="stroke:#038048;stroke-width:2.5"/><text x="376.25" y="2528.877" fill="#000" font-family="sans-serif" font-size="30" font-style="italic" font-weight="bold" lengthAdjust="spacingAndGlyphs" textLength="60">final</text><text x="443.75" y="2528.877" fill="#000" font-family="sans-serif" font-size="30" font-style="italic" lengthAdjust="spacingAndGlyphs" textLength="357.5">LocalServiceClientFactory</text><line style="stroke:#27ae60;stroke-width:3.75" x1="278.75" x2="806.25" y1="2556.602" y2="2556.602"/><line style="stroke:#27ae60;stroke-width:3.75" x1="278.75" x2="806.25" y1="2576.602" y2="2576.602"/><ellipse cx="303.75" cy="2604.102" fill="#84BE84" rx="7.5" ry="7.5" style="stroke:#038048;stroke-width:2.5"/><text x="326.25" y="2615.149" fill="#000" font-family="sans-serif" font-size="27.5" lengthAdjust="spacingAndGlyphs" text-decoration="underline" textLength="237.5">NameStep builder ()</text><rect id="LocalServiceClientFactoryNameStep" width="722.5" height="189.18" x="181.25" y="2784.102" fill="#E9F7EF" codeLine="210" style="stroke:#27ae60;stroke-width:3.75"/><ellipse cx="444.375" cy="2824.102" fill="#B4A7E5" rx="27.5" ry="27.5" style="stroke:#b4a7e5;stroke-width:2.5"/><path fill="#000" d="M446.875,2816.6016 L446.875,2831.6016 L451.875,2831.6016 L453.0859,2831.6016 L454.375,2833.1641 L454.375,2834.1016 L454.375,2835.0391 L453.0859,2836.6016 L451.875,2836.6016 L436.875,2836.6016 L435.6641,2836.6016 L434.375,2835.0391 L434.375,2834.1016 L434.375,2833.1641 L435.6641,2831.6016 L436.875,2831.6016 L441.875,2831.6016 L441.875,2816.6016 L436.875,2816.6016 L435.6641,2816.6016 L434.375,2815.0391 L434.375,2814.1016 L434.375,2813.1641 L435.6641,2811.6016 L436.875,2811.6016 L451.875,2811.6016 L453.0859,2811.6016 L454.375,2813.1641 L454.375,2814.1016 L454.375,2815.0391 L453.0859,2816.6016 L451.875,2816.6016 L446.875,2816.6016 Z"/><ellipse cx="508.125" cy="2822.852" fill="#84BE84" rx="7.5" ry="7.5" style="stroke:#038048;stroke-width:2.5"/><text x="523.125" y="2836.377" fill="#000" font-family="sans-serif" font-size="30" font-style="italic" lengthAdjust="spacingAndGlyphs" textLength="147.5">NameStep</text><line style="stroke:#27ae60;stroke-width:3.75" x1="183.75" x2="901.25" y1="2864.102" y2="2864.102"/><line style="stroke:#27ae60;stroke-width:3.75" x1="183.75" x2="901.25" y1="2884.102" y2="2884.102"/><ellipse cx="208.75" cy="2911.602" fill="#84BE84" rx="7.5" ry="7.5" style="stroke:#038048;stroke-width:2.5"/><text x="231.25" y="2922.649" fill="#000" font-family="sans-serif" font-size="27.5" lengthAdjust="spacingAndGlyphs" textLength="450">NodeStep withDefaultServiceName ()</text><ellipse cx="208.75" cy="2946.191" fill="#84BE84" rx="7.5" ry="7.5" style="stroke:#038048;stroke-width:2.5"/><text x="231.25" y="2957.239" fill="#000" font-family="sans-serif" font-size="27.5" lengthAdjust="spacingAndGlyphs" textLength="657.5">NodeStep withServiceName (String localServiceName)</text><rect id="LocalServiceClientFactoryNodeStep" width="800" height="189.18" x="142.5" y="3126.602" fill="#E9F7EF" codeLine="211" style="stroke:#27ae60;stroke-width:3.75"/><ellipse cx="449.375" cy="3166.602" fill="#B4A7E5" rx="27.5" ry="27.5" style="stroke:#b4a7e5;stroke-width:2.5"/><path fill="#000" d="M451.875,3159.1016 L451.875,3174.1016 L456.875,3174.1016 L458.0859,3174.1016 L459.375,3175.6641 L459.375,3176.6016 L459.375,3177.5391 L458.0859,3179.1016 L456.875,3179.1016 L441.875,3179.1016 L440.6641,3179.1016 L439.375,3177.5391 L439.375,3176.6016 L439.375,3175.6641 L440.6641,3174.1016 L441.875,3174.1016 L446.875,3174.1016 L446.875,3159.1016 L441.875,3159.1016 L440.6641,3159.1016 L439.375,3157.5391 L439.375,3156.6016 L439.375,3155.6641 L440.6641,3154.1016 L441.875,3154.1016 L456.875,3154.1016 L458.0859,3154.1016 L459.375,3155.6641 L459.375,3156.6016 L459.375,3157.5391 L458.0859,3159.1016 L456.875,3159.1016 L451.875,3159.1016 Z"/><ellipse cx="513.125" cy="3165.352" fill="#84BE84" rx="7.5" ry="7.5" style="stroke:#038048;stroke-width:2.5"/><text x="528.125" y="3178.877" fill="#000" font-family="sans-serif" font-size="30" font-style="italic" lengthAdjust="spacingAndGlyphs" textLength="137.5">NodeStep</text><line style="stroke:#27ae60;stroke-width:3.75" x1="145" x2="940" y1="3206.602" y2="3206.602"/><line style="stroke:#27ae60;stroke-width:3.75" x1="145" x2="940" y1="3226.602" y2="3226.602"/><ellipse cx="170" cy="3254.102" fill="#84BE84" rx="7.5" ry="7.5" style="stroke:#038048;stroke-width:2.5"/><text x="192.5" y="3265.149" fill="#000" font-family="sans-serif" font-size="27.5" lengthAdjust="spacingAndGlyphs" textLength="735">TimeoutStep withAsyncNode (AsyncEndpointClient endpoint)</text><ellipse cx="170" cy="3288.691" fill="#84BE84" rx="7.5" ry="7.5" style="stroke:#038048;stroke-width:2.5"/><text x="192.5" y="3299.739" fill="#000" font-family="sans-serif" font-size="27.5" lengthAdjust="spacingAndGlyphs" textLength="695">ReaderStep withSyncNode (SyncEndpointClient endpoint)</text><rect id="LocalServiceClientFactoryTimeoutStep" width="647.5" height="189.18" x="161.25" y="3469.102" fill="#E9F7EF" codeLine="212" style="stroke:#27ae60;stroke-width:3.75"/><ellipse cx="373.125" cy="3509.102" fill="#B4A7E5" rx="27.5" ry="27.5" style="stroke:#b4a7e5;stroke-width:2.5"/><path fill="#000" d="M375.625,3501.6016 L375.625,3516.6016 L380.625,3516.6016 L381.8359,3516.6016 L383.125,3518.1641 L383.125,3519.1016 L383.125,3520.0391 L381.8359,3521.6016 L380.625,3521.6016 L365.625,3521.6016 L364.4141,3521.6016 L363.125,3520.0391 L363.125,3519.1016 L363.125,3518.1641 L364.4141,3516.6016 L365.625,3516.6016 L370.625,3516.6016 L370.625,3501.6016 L365.625,3501.6016 L364.4141,3501.6016 L363.125,3500.0391 L363.125,3499.1016 L363.125,3498.1641 L364.4141,3496.6016 L365.625,3496.6016 L380.625,3496.6016 L381.8359,3496.6016 L383.125,3498.1641 L383.125,3499.1016 L383.125,3500.0391 L381.8359,3501.6016 L380.625,3501.6016 L375.625,3501.6016 Z"/><ellipse cx="436.875" cy="3507.852" fill="#84BE84" rx="7.5" ry="7.5" style="stroke:#038048;stroke-width:2.5"/><text x="451.875" y="3521.377" fill="#000" font-family="sans-serif" font-size="30" font-style="italic" lengthAdjust="spacingAndGlyphs" textLength="175">TimeoutStep</text><line style="stroke:#27ae60;stroke-width:3.75" x1="163.75" x2="806.25" y1="3549.102" y2="3549.102"/><line style="stroke:#27ae60;stroke-width:3.75" x1="163.75" x2="806.25" y1="3569.102" y2="3569.102"/><ellipse cx="188.75" cy="3596.602" fill="#84BE84" rx="7.5" ry="7.5" style="stroke:#038048;stroke-width:2.5"/><text x="211.25" y="3607.649" fill="#000" font-family="sans-serif" font-size="27.5" lengthAdjust="spacingAndGlyphs" textLength="420">ReaderStep usingDefaultTimeout ()</text><ellipse cx="188.75" cy="3631.191" fill="#84BE84" rx="7.5" ry="7.5" style="stroke:#038048;stroke-width:2.5"/><text x="211.25" y="3642.239" fill="#000" font-family="sans-serif" font-size="27.5" lengthAdjust="spacingAndGlyphs" textLength="582.5">ReaderStep usingTimeout (int timeoutInSeconds)</text><rect id="LocalServiceClientFactoryReaderStep" width="937.5" height="189.18" x="286.25" y="3811.602" fill="#E9F7EF" codeLine="213" style="stroke:#27ae60;stroke-width:3.75"/><ellipse cx="648.125" cy="3851.602" fill="#B4A7E5" rx="27.5" ry="27.5" style="stroke:#b4a7e5;stroke-width:2.5"/><path fill="#000" d="M650.625,3844.1016 L650.625,3859.1016 L655.625,3859.1016 L656.8359,3859.1016 L658.125,3860.6641 L658.125,3861.6016 L658.125,3862.5391 L656.8359,3864.1016 L655.625,3864.1016 L640.625,3864.1016 L639.4141,3864.1016 L638.125,3862.5391 L638.125,3861.6016 L638.125,3860.6641 L639.4141,3859.1016 L640.625,3859.1016 L645.625,3859.1016 L645.625,3844.1016 L640.625,3844.1016 L639.4141,3844.1016 L638.125,3842.5391 L638.125,3841.6016 L638.125,3840.6641 L639.4141,3839.1016 L640.625,3839.1016 L655.625,3839.1016 L656.8359,3839.1016 L658.125,3840.6641 L658.125,3841.6016 L658.125,3842.5391 L656.8359,3844.1016 L655.625,3844.1016 L650.625,3844.1016 Z"/><ellipse cx="711.875" cy="3850.352" fill="#84BE84" rx="7.5" ry="7.5" style="stroke:#038048;stroke-width:2.5"/><text x="726.875" y="3863.877" fill="#000" font-family="sans-serif" font-size="30" font-style="italic" lengthAdjust="spacingAndGlyphs" textLength="165">ReaderStep</text><line style="stroke:#27ae60;stroke-width:3.75" x1="288.75" x2="1221.25" y1="3891.602" y2="3891.602"/><line style="stroke:#27ae60;stroke-width:3.75" x1="288.75" x2="1221.25" y1="3911.602" y2="3911.602"/><ellipse cx="313.75" cy="3939.102" fill="#84BE84" rx="7.5" ry="7.5" style="stroke:#038048;stroke-width:2.5"/><text x="336.25" y="3950.149" fill="#000" font-family="sans-serif" font-size="27.5" lengthAdjust="spacingAndGlyphs" textLength="872.5">BuilderStep withReaderObservation (ObservableReaderEventFilter filter)</text><ellipse cx="313.75" cy="3973.691" fill="#84BE84" rx="7.5" ry="7.5" style="stroke:#038048;stroke-width:2.5"/><text x="336.25" y="3984.739" fill="#000" font-family="sans-serif" font-size="27.5" lengthAdjust="spacingAndGlyphs" textLength="497.5">BuilderStep withoutReaderObservation ()</text><rect id="LocalServiceClientFactoryBuilderStep" width="452.5" height="154.59" x="528.75" y="4154.102" fill="#E9F7EF" codeLine="214" style="stroke:#27ae60;stroke-width:3.75"/><ellipse cx="650.625" cy="4194.102" fill="#B4A7E5" rx="27.5" ry="27.5" style="stroke:#b4a7e5;stroke-width:2.5"/><path fill="#000" d="M653.125,4186.6016 L653.125,4201.6016 L658.125,4201.6016 L659.3359,4201.6016 L660.625,4203.1641 L660.625,4204.1016 L660.625,4205.0391 L659.3359,4206.6016 L658.125,4206.6016 L643.125,4206.6016 L641.9141,4206.6016 L640.625,4205.0391 L640.625,4204.1016 L640.625,4203.1641 L641.9141,4201.6016 L643.125,4201.6016 L648.125,4201.6016 L648.125,4186.6016 L643.125,4186.6016 L641.9141,4186.6016 L640.625,4185.0391 L640.625,4184.1016 L640.625,4183.1641 L641.9141,4181.6016 L643.125,4181.6016 L658.125,4181.6016 L659.3359,4181.6016 L660.625,4183.1641 L660.625,4184.1016 L660.625,4185.0391 L659.3359,4186.6016 L658.125,4186.6016 L653.125,4186.6016 Z"/><ellipse cx="714.375" cy="4192.852" fill="#84BE84" rx="7.5" ry="7.5" style="stroke:#038048;stroke-width:2.5"/><text x="729.375" y="4206.377" fill="#000" font-family="sans-serif" font-size="30" font-style="italic" lengthAdjust="spacingAndGlyphs" textLength="160">BuilderStep</text><line style="stroke:#27ae60;stroke-width:3.75" x1="531.25" x2="978.75" y1="4234.102" y2="4234.102"/><line style="stroke:#27ae60;stroke-width:3.75" x1="531.25" x2="978.75" y1="4254.102" y2="4254.102"/><ellipse cx="556.25" cy="4281.602" fill="#84BE84" rx="7.5" ry="7.5" style="stroke:#038048;stroke-width:2.5"/><text x="578.75" y="4292.649" fill="#000" font-family="sans-serif" font-size="27.5" lengthAdjust="spacingAndGlyphs" textLength="387.5">LocalServiceClient getService ()</text><rect id="LocalServiceServerFactory" width="542.5" height="154.59" x="1163.75" y="2476.602" fill="#F4ECF7" codeLine="221" style="stroke:#8e44ad;stroke-width:3.75"/><ellipse cx="1201.25" cy="2516.602" fill="#ADD1B2" rx="27.5" ry="27.5" style="stroke:#add1b2;stroke-width:2.5"/><path fill="#000" d="M1206.25,2507.8516 Q1206.7578,2506.6016 1207.3438,2505.9766 Q1207.9297,2505.3516 1208.5938,2505.3516 Q1209.7656,2505.3516 1210.5078,2506.0547 Q1211.25,2506.7578 1211.25,2508.3984 L1211.25,2512.3047 Q1211.25,2513.9453 1210.5469,2514.6484 Q1209.8438,2515.3516 1208.75,2515.3516 Q1207.7734,2515.3516 1207.1484,2514.9219 Q1206.5234,2514.4922 1206.25,2513.3594 Q1206.1328,2512.5781 1205.7031,2512.1484 Q1204.9219,2511.3281 1203.5156,2510.8594 Q1202.1094,2510.3516 1200.7031,2510.3516 Q1198.9453,2510.3516 1197.4609,2511.0547 Q1196.0156,2511.7578 1194.8828,2513.3203 Q1193.75,2514.8828 1193.75,2517.0313 L1193.75,2519.3359 Q1193.75,2521.9141 1195.8594,2523.6328 Q1197.9688,2525.3516 1201.7188,2525.3516 Q1203.9453,2525.3516 1205.5078,2524.8438 Q1206.4063,2524.5703 1207.4219,2523.6719 Q1208.0859,2523.1641 1208.4375,2523.0078 Q1208.7891,2522.8516 1209.2188,2522.8516 Q1210.0391,2522.8516 1210.625,2523.5156 Q1211.25,2524.1406 1211.25,2525.0391 Q1211.25,2525.8984 1210.3906,2526.9141 Q1209.1406,2528.3984 1207.1484,2529.2188 Q1204.5313,2530.3516 1201.3281,2530.3516 Q1197.5781,2530.3516 1194.5703,2528.8672 Q1192.1484,2527.6953 1190.4297,2525.1563 Q1188.75,2522.6172 1188.75,2519.6094 L1188.75,2516.875 Q1188.75,2513.75 1190.2344,2511.0156 Q1191.7578,2508.2813 1194.375,2506.8359 Q1197.0313,2505.3516 1200,2505.3516 Q1201.7969,2505.3516 1203.3594,2505.9766 Q1204.9219,2506.6016 1206.25,2507.8516 Z"/><ellipse cx="1248.75" cy="2515.352" fill="#84BE84" rx="7.5" ry="7.5" style="stroke:#038048;stroke-width:2.5"/><text x="1263.75" y="2528.877" fill="#000" font-family="sans-serif" font-size="30" font-style="italic" font-weight="bold" lengthAdjust="spacingAndGlyphs" textLength="60">final</text><text x="1331.25" y="2528.877" fill="#000" font-family="sans-serif" font-size="30" font-style="italic" lengthAdjust="spacingAndGlyphs" textLength="367.5">LocalServiceServerFactory</text><line style="stroke:#8e44ad;stroke-width:3.75" x1="1166.25" x2="1703.75" y1="2556.602" y2="2556.602"/><line style="stroke:#8e44ad;stroke-width:3.75" x1="1166.25" x2="1703.75" y1="2576.602" y2="2576.602"/><ellipse cx="1191.25" cy="2604.102" fill="#84BE84" rx="7.5" ry="7.5" style="stroke:#038048;stroke-width:2.5"/><text x="1213.75" y="2615.149" fill="#000" font-family="sans-serif" font-size="27.5" lengthAdjust="spacingAndGlyphs" text-decoration="underline" textLength="237.5">NameStep builder ()</text><rect id="LocalServiceServerFactoryNameStep" width="722.5" height="189.18" x="1073.75" y="2784.102" fill="#F4ECF7" codeLine="222" style="stroke:#8e44ad;stroke-width:3.75"/><ellipse cx="1336.875" cy="2824.102" fill="#B4A7E5" rx="27.5" ry="27.5" style="stroke:#b4a7e5;stroke-width:2.5"/><path fill="#000" d="M1339.375,2816.6016 L1339.375,2831.6016 L1344.375,2831.6016 L1345.5859,2831.6016 L1346.875,2833.1641 L1346.875,2834.1016 L1346.875,2835.0391 L1345.5859,2836.6016 L1344.375,2836.6016 L1329.375,2836.6016 L1328.1641,2836.6016 L1326.875,2835.0391 L1326.875,2834.1016 L1326.875,2833.1641 L1328.1641,2831.6016 L1329.375,2831.6016 L1334.375,2831.6016 L1334.375,2816.6016 L1329.375,2816.6016 L1328.1641,2816.6016 L1326.875,2815.0391 L1326.875,2814.1016 L1326.875,2813.1641 L1328.1641,2811.6016 L1329.375,2811.6016 L1344.375,2811.6016 L1345.5859,2811.6016 L1346.875,2813.1641 L1346.875,2814.1016 L1346.875,2815.0391 L1345.5859,2816.6016 L1344.375,2816.6016 L1339.375,2816.6016 Z"/><ellipse cx="1400.625" cy="2822.852" fill="#84BE84" rx="7.5" ry="7.5" style="stroke:#038048;stroke-width:2.5"/><text x="1415.625" y="2836.377" fill="#000" font-family="sans-serif" font-size="30" font-style="italic" lengthAdjust="spacingAndGlyphs" textLength="147.5">NameStep</text><line style="stroke:#8e44ad;stroke-width:3.75" x1="1076.25" x2="1793.75" y1="2864.102" y2="2864.102"/><line style="stroke:#8e44ad;stroke-width:3.75" x1="1076.25" x2="1793.75" y1="2884.102" y2="2884.102"/><ellipse cx="1101.25" cy="2911.602" fill="#84BE84" rx="7.5" ry="7.5" style="stroke:#038048;stroke-width:2.5"/><text x="1123.75" y="2922.649" fill="#000" font-family="sans-serif" font-size="27.5" lengthAdjust="spacingAndGlyphs" textLength="450">NodeStep withDefaultServiceName ()</text><ellipse cx="1101.25" cy="2946.191" fill="#84BE84" rx="7.5" ry="7.5" style="stroke:#038048;stroke-width:2.5"/><text x="1123.75" y="2957.239" fill="#000" font-family="sans-serif" font-size="27.5" lengthAdjust="spacingAndGlyphs" textLength="657.5">NodeStep withServiceName (String localServiceName)</text><rect id="LocalServiceServerFactoryNodeStep" width="807.5" height="189.18" x="1031.25" y="3126.602" fill="#F4ECF7" codeLine="223" style="stroke:#8e44ad;stroke-width:3.75"/><ellipse cx="1341.875" cy="3166.602" fill="#B4A7E5" rx="27.5" ry="27.5" style="stroke:#b4a7e5;stroke-width:2.5"/><path fill="#000" d="M1344.375,3159.1016 L1344.375,3174.1016 L1349.375,3174.1016 L1350.5859,3174.1016 L1351.875,3175.6641 L1351.875,3176.6016 L1351.875,3177.5391 L1350.5859,3179.1016 L1349.375,3179.1016 L1334.375,3179.1016 L1333.1641,3179.1016 L1331.875,3177.5391 L1331.875,3176.6016 L1331.875,3175.6641 L1333.1641,3174.1016 L1334.375,3174.1016 L1339.375,3174.1016 L1339.375,3159.1016 L1334.375,3159.1016 L1333.1641,3159.1016 L1331.875,3157.5391 L1331.875,3156.6016 L1331.875,3155.6641 L1333.1641,3154.1016 L1334.375,3154.1016 L1349.375,3154.1016 L1350.5859,3154.1016 L1351.875,3155.6641 L1351.875,3156.6016 L1351.875,3157.5391 L1350.5859,3159.1016 L1349.375,3159.1016 L1344.375,3159.1016 Z"/><ellipse cx="1405.625" cy="3165.352" fill="#84BE84" rx="7.5" ry="7.5" style="stroke:#038048;stroke-width:2.5"/><text x="1420.625" y="3178.877" fill="#000" font-family="sans-serif" font-size="30" font-style="italic" lengthAdjust="spacingAndGlyphs" textLength="137.5">NodeStep</text><line style="stroke:#8e44ad;stroke-width:3.75" x1="1033.75" x2="1836.25" y1="3206.602" y2="3206.602"/><line style="stroke:#8e44ad;stroke-width:3.75" x1="1033.75" x2="1836.25" y1="3226.602" y2="3226.602"/><ellipse cx="1058.75" cy="3254.102" fill="#84BE84" rx="7.5" ry="7.5" style="stroke:#038048;stroke-width:2.5"/><text x="1081.25" y="3265.149" fill="#000" font-family="sans-serif" font-size="27.5" lengthAdjust="spacingAndGlyphs" textLength="742.5">BuilderStep withAsyncNode (AsyncEndpointServer endpoint)</text><ellipse cx="1058.75" cy="3288.691" fill="#84BE84" rx="7.5" ry="7.5" style="stroke:#038048;stroke-width:2.5"/><text x="1081.25" y="3299.739" fill="#000" font-family="sans-serif" font-size="27.5" lengthAdjust="spacingAndGlyphs" textLength="350">BuilderStep withSyncNode ()</text><rect id="LocalServiceServerFactoryBuilderStep" width="470" height="154.59" x="1200" y="3486.602" fill="#F4ECF7" codeLine="224" style="stroke:#8e44ad;stroke-width:3.75"/><ellipse cx="1330.625" cy="3526.602" fill="#B4A7E5" rx="27.5" ry="27.5" style="stroke:#b4a7e5;stroke-width:2.5"/><path fill="#000" d="M1333.125,3519.1016 L1333.125,3534.1016 L1338.125,3534.1016 L1339.3359,3534.1016 L1340.625,3535.6641 L1340.625,3536.6016 L1340.625,3537.5391 L1339.3359,3539.1016 L1338.125,3539.1016 L1323.125,3539.1016 L1321.9141,3539.1016 L1320.625,3537.5391 L1320.625,3536.6016 L1320.625,3535.6641 L1321.9141,3534.1016 L1323.125,3534.1016 L1328.125,3534.1016 L1328.125,3519.1016 L1323.125,3519.1016 L1321.9141,3519.1016 L1320.625,3517.5391 L1320.625,3516.6016 L1320.625,3515.6641 L1321.9141,3514.1016 L1323.125,3514.1016 L1338.125,3514.1016 L1339.3359,3514.1016 L1340.625,3515.6641 L1340.625,3516.6016 L1340.625,3517.5391 L1339.3359,3519.1016 L1338.125,3519.1016 L1333.125,3519.1016 Z"/><ellipse cx="1394.375" cy="3525.352" fill="#84BE84" rx="7.5" ry="7.5" style="stroke:#038048;stroke-width:2.5"/><text x="1409.375" y="3538.877" fill="#000" font-family="sans-serif" font-size="30" font-style="italic" lengthAdjust="spacingAndGlyphs" textLength="160">BuilderStep</text><line style="stroke:#8e44ad;stroke-width:3.75" x1="1202.5" x2="1667.5" y1="3566.602" y2="3566.602"/><line style="stroke:#8e44ad;stroke-width:3.75" x1="1202.5" x2="1667.5" y1="3586.602" y2="3586.602"/><ellipse cx="1227.5" cy="3614.102" fill="#84BE84" rx="7.5" ry="7.5" style="stroke:#038048;stroke-width:2.5"/><text x="1250" y="3625.149" fill="#000" font-family="sans-serif" font-size="27.5" lengthAdjust="spacingAndGlyphs" textLength="405">LocalServiceServer getService ()</text><rect id="PoolLocalServiceServerFactory" width="605" height="154.59" x="2020" y="2476.602" fill="#EBF5FB" codeLine="228" style="stroke:#3498db;stroke-width:3.75"/><ellipse cx="2057.5" cy="2516.602" fill="#ADD1B2" rx="27.5" ry="27.5" style="stroke:#add1b2;stroke-width:2.5"/><path fill="#000" d="M2062.5,2507.8516 Q2063.0078,2506.6016 2063.5938,2505.9766 Q2064.1797,2505.3516 2064.8438,2505.3516 Q2066.0156,2505.3516 2066.7578,2506.0547 Q2067.5,2506.7578 2067.5,2508.3984 L2067.5,2512.3047 Q2067.5,2513.9453 2066.7969,2514.6484 Q2066.0938,2515.3516 2065,2515.3516 Q2064.0234,2515.3516 2063.3984,2514.9219 Q2062.7734,2514.4922 2062.5,2513.3594 Q2062.3828,2512.5781 2061.9531,2512.1484 Q2061.1719,2511.3281 2059.7656,2510.8594 Q2058.3594,2510.3516 2056.9531,2510.3516 Q2055.1953,2510.3516 2053.7109,2511.0547 Q2052.2656,2511.7578 2051.1328,2513.3203 Q2050,2514.8828 2050,2517.0313 L2050,2519.3359 Q2050,2521.9141 2052.1094,2523.6328 Q2054.2188,2525.3516 2057.9688,2525.3516 Q2060.1953,2525.3516 2061.7578,2524.8438 Q2062.6563,2524.5703 2063.6719,2523.6719 Q2064.3359,2523.1641 2064.6875,2523.0078 Q2065.0391,2522.8516 2065.4688,2522.8516 Q2066.2891,2522.8516 2066.875,2523.5156 Q2067.5,2524.1406 2067.5,2525.0391 Q2067.5,2525.8984 2066.6406,2526.9141 Q2065.3906,2528.3984 2063.3984,2529.2188 Q2060.7813,2530.3516 2057.5781,2530.3516 Q2053.8281,2530.3516 2050.8203,2528.8672 Q2048.3984,2527.6953 2046.6797,2525.1563 Q2045,2522.6172 2045,2519.6094 L2045,2516.875 Q2045,2513.75 2046.4844,2511.0156 Q2048.0078,2508.2813 2050.625,2506.8359 Q2053.2813,2505.3516 2056.25,2505.3516 Q2058.0469,2505.3516 2059.6094,2505.9766 Q2061.1719,2506.6016 2062.5,2507.8516 Z"/><ellipse cx="2105" cy="2515.352" fill="#84BE84" rx="7.5" ry="7.5" style="stroke:#038048;stroke-width:2.5"/><text x="2120" y="2528.877" fill="#000" font-family="sans-serif" font-size="30" font-style="italic" font-weight="bold" lengthAdjust="spacingAndGlyphs" textLength="60">final</text><text x="2187.5" y="2528.877" fill="#000" font-family="sans-serif" font-size="30" font-style="italic" lengthAdjust="spacingAndGlyphs" textLength="430">PoolLocalServiceServerFactory</text><line style="stroke:#3498db;stroke-width:3.75" x1="2022.5" x2="2622.5" y1="2556.602" y2="2556.602"/><line style="stroke:#3498db;stroke-width:3.75" x1="2022.5" x2="2622.5" y1="2576.602" y2="2576.602"/><ellipse cx="2047.5" cy="2604.102" fill="#84BE84" rx="7.5" ry="7.5" style="stroke:#038048;stroke-width:2.5"/><text x="2070" y="2615.149" fill="#000" font-family="sans-serif" font-size="27.5" lengthAdjust="spacingAndGlyphs" text-decoration="underline" textLength="237.5">NameStep builder ()</text><rect id="PoolLocalServiceServerFactoryNameStep" width="722.5" height="189.18" x="1961.25" y="2784.102" fill="#EBF5FB" codeLine="229" style="stroke:#3498db;stroke-width:3.75"/><ellipse cx="2224.375" cy="2824.102" fill="#B4A7E5" rx="27.5" ry="27.5" style="stroke:#b4a7e5;stroke-width:2.5"/><path fill="#000" d="M2226.875,2816.6016 L2226.875,2831.6016 L2231.875,2831.6016 L2233.0859,2831.6016 L2234.375,2833.1641 L2234.375,2834.1016 L2234.375,2835.0391 L2233.0859,2836.6016 L2231.875,2836.6016 L2216.875,2836.6016 L2215.6641,2836.6016 L2214.375,2835.0391 L2214.375,2834.1016 L2214.375,2833.1641 L2215.6641,2831.6016 L2216.875,2831.6016 L2221.875,2831.6016 L2221.875,2816.6016 L2216.875,2816.6016 L2215.6641,2816.6016 L2214.375,2815.0391 L2214.375,2814.1016 L2214.375,2813.1641 L2215.6641,2811.6016 L2216.875,2811.6016 L2231.875,2811.6016 L2233.0859,2811.6016 L2234.375,2813.1641 L2234.375,2814.1016 L2234.375,2815.0391 L2233.0859,2816.6016 L2231.875,2816.6016 L2226.875,2816.6016 Z"/><ellipse cx="2288.125" cy="2822.852" fill="#84BE84" rx="7.5" ry="7.5" style="stroke:#038048;stroke-width:2.5"/><text x="2303.125" y="2836.377" fill="#000" font-family="sans-serif" font-size="30" font-style="italic" lengthAdjust="spacingAndGlyphs" textLength="147.5">NameStep</text><line style="stroke:#3498db;stroke-width:3.75" x1="1963.75" x2="2681.25" y1="2864.102" y2="2864.102"/><line style="stroke:#3498db;stroke-width:3.75" x1="1963.75" x2="2681.25" y1="2884.102" y2="2884.102"/><ellipse cx="1988.75" cy="2911.602" fill="#84BE84" rx="7.5" ry="7.5" style="stroke:#038048;stroke-width:2.5"/><text x="2011.25" y="2922.649" fill="#000" font-family="sans-serif" font-size="27.5" lengthAdjust="spacingAndGlyphs" textLength="450">NodeStep withDefaultServiceName ()</text><ellipse cx="1988.75" cy="2946.191" fill="#84BE84" rx="7.5" ry="7.5" style="stroke:#038048;stroke-width:2.5"/><text x="2011.25" y="2957.239" fill="#000" font-family="sans-serif" font-size="27.5" lengthAdjust="spacingAndGlyphs" textLength="657.5">NodeStep withServiceName (String localServiceName)</text><rect id="PoolLocalServiceServerFactoryNodeStep" width="795" height="189.18" x="1927.5" y="3126.602" fill="#EBF5FB" codeLine="230" style="stroke:#3498db;stroke-width:3.75"/><ellipse cx="2231.875" cy="3166.602" fill="#B4A7E5" rx="27.5" ry="27.5" style="stroke:#b4a7e5;stroke-width:2.5"/><path fill="#000" d="M2234.375,3159.1016 L2234.375,3174.1016 L2239.375,3174.1016 L2240.5859,3174.1016 L2241.875,3175.6641 L2241.875,3176.6016 L2241.875,3177.5391 L2240.5859,3179.1016 L2239.375,3179.1016 L2224.375,3179.1016 L2223.1641,3179.1016 L2221.875,3177.5391 L2221.875,3176.6016 L2221.875,3175.6641 L2223.1641,3174.1016 L2224.375,3174.1016 L2229.375,3174.1016 L2229.375,3159.1016 L2224.375,3159.1016 L2223.1641,3159.1016 L2221.875,3157.5391 L2221.875,3156.6016 L2221.875,3155.6641 L2223.1641,3154.1016 L2224.375,3154.1016 L2239.375,3154.1016 L2240.5859,3154.1016 L2241.875,3155.6641 L2241.875,3156.6016 L2241.875,3157.5391 L2240.5859,3159.1016 L2239.375,3159.1016 L2234.375,3159.1016 Z"/><ellipse cx="2295.625" cy="3165.352" fill="#84BE84" rx="7.5" ry="7.5" style="stroke:#038048;stroke-width:2.5"/><text x="2310.625" y="3178.877" fill="#000" font-family="sans-serif" font-size="30" font-style="italic" lengthAdjust="spacingAndGlyphs" textLength="137.5">NodeStep</text><line style="stroke:#3498db;stroke-width:3.75" x1="1930" x2="2720" y1="3206.602" y2="3206.602"/><line style="stroke:#3498db;stroke-width:3.75" x1="1930" x2="2720" y1="3226.602" y2="3226.602"/><ellipse cx="1955" cy="3254.102" fill="#84BE84" rx="7.5" ry="7.5" style="stroke:#038048;stroke-width:2.5"/><text x="1977.5" y="3265.149" fill="#000" font-family="sans-serif" font-size="27.5" lengthAdjust="spacingAndGlyphs" textLength="730">PluginStep withAsyncNode (AsyncEndpointServer endpoint)</text><ellipse cx="1955" cy="3288.691" fill="#84BE84" rx="7.5" ry="7.5" style="stroke:#038048;stroke-width:2.5"/><text x="1977.5" y="3299.739" fill="#000" font-family="sans-serif" font-size="27.5" lengthAdjust="spacingAndGlyphs" textLength="337.5">PluginStep withSyncNode ()</text><rect id="PoolLocalServiceServerFactoryPluginStep" width="727.5" height="154.59" x="1961.25" y="3486.602" fill="#EBF5FB" codeLine="231" style="stroke:#3498db;stroke-width:3.75"/><ellipse cx="2225.625" cy="3526.602" fill="#B4A7E5" rx="27.5" ry="27.5" style="stroke:#b4a7e5;stroke-width:2.5"/><path fill="#000" d="M2228.125,3519.1016 L2228.125,3534.1016 L2233.125,3534.1016 L2234.3359,3534.1016 L2235.625,3535.6641 L2235.625,3536.6016 L2235.625,3537.5391 L2234.3359,3539.1016 L2233.125,3539.1016 L2218.125,3539.1016 L2216.9141,3539.1016 L2215.625,3537.5391 L2215.625,3536.6016 L2215.625,3535.6641 L2216.9141,3534.1016 L2218.125,3534.1016 L2223.125,3534.1016 L2223.125,3519.1016 L2218.125,3519.1016 L2216.9141,3519.1016 L2215.625,3517.5391 L2215.625,3516.6016 L2215.625,3515.6641 L2216.9141,3514.1016 L2218.125,3514.1016 L2233.125,3514.1016 L2234.3359,3514.1016 L2235.625,3515.6641 L2235.625,3516.6016 L2235.625,3517.5391 L2234.3359,3519.1016 L2233.125,3519.1016 L2228.125,3519.1016 Z"/><ellipse cx="2289.375" cy="3525.352" fill="#84BE84" rx="7.5" ry="7.5" style="stroke:#038048;stroke-width:2.5"/><text x="2304.375" y="3538.877" fill="#000" font-family="sans-serif" font-size="30" font-style="italic" lengthAdjust="spacingAndGlyphs" textLength="150">PluginStep</text><line style="stroke:#3498db;stroke-width:3.75" x1="1963.75" x2="2686.25" y1="3566.602" y2="3566.602"/><line style="stroke:#3498db;stroke-width:3.75" x1="1963.75" x2="2686.25" y1="3586.602" y2="3586.602"/><ellipse cx="1988.75" cy="3614.102" fill="#84BE84" rx="7.5" ry="7.5" style="stroke:#038048;stroke-width:2.5"/><text x="2011.25" y="3625.149" fill="#000" font-family="sans-serif" font-size="27.5" lengthAdjust="spacingAndGlyphs" textLength="662.5">BuilderStep withPoolPlugins (String... poolPluginNames)</text><rect id="PoolLocalServiceServerFactoryBuilderStep" width="520" height="154.59" x="2065" y="3829.102" fill="#EBF5FB" codeLine="232" style="stroke:#3498db;stroke-width:3.75"/><ellipse cx="2220.625" cy="3869.102" fill="#B4A7E5" rx="27.5" ry="27.5" style="stroke:#b4a7e5;stroke-width:2.5"/><path fill="#000" d="M2223.125,3861.6016 L2223.125,3876.6016 L2228.125,3876.6016 L2229.3359,3876.6016 L2230.625,3878.1641 L2230.625,3879.1016 L2230.625,3880.0391 L2229.3359,3881.6016 L2228.125,3881.6016 L2213.125,3881.6016 L2211.9141,3881.6016 L2210.625,3880.0391 L2210.625,3879.1016 L2210.625,3878.1641 L2211.9141,3876.6016 L2213.125,3876.6016 L2218.125,3876.6016 L2218.125,3861.6016 L2213.125,3861.6016 L2211.9141,3861.6016 L2210.625,3860.0391 L2210.625,3859.1016 L2210.625,3858.1641 L2211.9141,3856.6016 L2213.125,3856.6016 L2228.125,3856.6016 L2229.3359,3856.6016 L2230.625,3858.1641 L2230.625,3859.1016 L2230.625,3860.0391 L2229.3359,3861.6016 L2228.125,3861.6016 L2223.125,3861.6016 Z"/><ellipse cx="2284.375" cy="3867.852" fill="#84BE84" rx="7.5" ry="7.5" style="stroke:#038048;stroke-width:2.5"/><text x="2299.375" y="3881.377" fill="#000" font-family="sans-serif" font-size="30" font-style="italic" lengthAdjust="spacingAndGlyphs" textLength="160">BuilderStep</text><line style="stroke:#3498db;stroke-width:3.75" x1="2067.5" x2="2582.5" y1="3909.102" y2="3909.102"/><line style="stroke:#3498db;stroke-width:3.75" x1="2067.5" x2="2582.5" y1="3929.102" y2="3929.102"/><ellipse cx="2092.5" cy="3956.602" fill="#84BE84" rx="7.5" ry="7.5" style="stroke:#038048;stroke-width:2.5"/><text x="2115" y="3967.649" fill="#000" font-family="sans-serif" font-size="27.5" lengthAdjust="spacingAndGlyphs" textLength="455">PoolLocalServiceServer getService ()</text><path id="GMN22383-legendSpi" fill="none" d="M1129.165,269.2766 C1134.76,312.4266 1142.785,374.3516 1148.87,421.2766" style="stroke:#a80036;stroke-width:2.5;stroke-dasharray:7,7"/><path id="LocalServiceClient-to-RemoteServiceParameters" fill="none" d="M491.4325,1106.9266 C492.1975,1165.7516 493.125,1237.2016 493.8425,1292.4766" codeLine="168" style="stroke:#27ae60;stroke-width:2.5;stroke-dasharray:7,7"/><polygon fill="#27AE60" points="494.01 1305.452 503.688 1282.811 493.831 1292.953 483.69 1283.097 494.01 1305.452" style="stroke:#27ae60;stroke-width:2.5"/><polygon fill="#000" points="505.162 1222.04 512.215 1199.334 497.522 1199.525 505.162 1222.04" style="stroke:#000;stroke-width:2.5"/><text x="527.5" y="1222.839" fill="#000" font-family="sans-serif" font-size="32.5" lengthAdjust="spacingAndGlyphs" textLength="52.5">use</text><path id="RemoteServiceParameters-backto-RemoteServiceParametersBuilder" fill="none" d="M506.7875,1500.2516 C510.595,1536.9766 514.805,1577.5766 518.585,1614.0266" codeLine="169" style="stroke:#3498db;stroke-width:2.5"/><ellipse cx="504.912" cy="1482.245" fill="#FFF" rx="20" ry="20" style="stroke:#3498db;stroke-width:2.5"/><line style="stroke:#3498db;stroke-width:2.5" x1="506.969" x2="502.855" y1="1502.139" y2="1462.352"/><line style="stroke:#3498db;stroke-width:2.5" x1="485.018" x2="524.806" y1="1484.303" y2="1480.188"/><path id="LocalServiceClientFactory-to-LocalServiceClientFactoryNameStep" fill="none" d="M542.5,2631.6266 C542.5,2673.1666 542.5,2725.4691 542.5,2771.0691" codeLine="171" style="stroke:#27ae60;stroke-width:2.5;stroke-dasharray:7,7"/><polygon fill="#27AE60" points="542.5 2783.739 552.5 2761.239 542.5 2771.239 532.5 2761.239 542.5 2783.739" style="stroke:#27ae60;stroke-width:2.5"/><path id="LocalServiceClientFactoryNameStep-to-LocalServiceClientFactoryNodeStep" fill="none" d="M542.5,2974.7191 C542.5,3017.5091 542.5,3068.4816 542.5,3112.7741" codeLine="172" style="stroke:#27ae60;stroke-width:2.5;stroke-dasharray:7,7"/><polygon fill="#27AE60" points="542.5 3126.289 552.5 3103.789 542.5 3113.789 532.5 3103.789 542.5 3126.289" style="stroke:#27ae60;stroke-width:2.5"/><path id="LocalServiceClientFactoryNodeStep-to-LocalServiceClientFactoryTimeoutStep" fill="none" d="M526.635,3317.2191 C519.2825,3360.3791 510.5125,3411.8591 502.92,3456.4166" codeLine="173" style="stroke:#27ae60;stroke-width:2.5;stroke-dasharray:7,7"/><polygon fill="#27AE60" points="500.813 3468.789 514.451 3448.289 502.913 3456.467 494.735 3444.929 500.813 3468.789" style="stroke:#27ae60;stroke-width:2.5"/><path id="LocalServiceClientFactoryNodeStep-to-LocalServiceClientFactoryReaderStep" fill="none" d="M713.4225,3316.7916 C768.22,3355.9641 822.4525,3407.0541 852.5,3469.1016 C903.67,3574.7641 859.9675,3707.9366 815.8575,3798.9191" codeLine="174" style="stroke:#27ae60;stroke-width:2.5;stroke-dasharray:7,7"/><polygon fill="#27AE60" points="809.923 3810.914 828.867 3795.186 815.468 3799.712 810.943 3786.313 809.923 3810.914" style="stroke:#27ae60;stroke-width:2.5"/><path id="LocalServiceClientFactoryTimeoutStep-to-LocalServiceClientFactoryReaderStep" fill="none" d="M559.4925,3659.7191 C594.6125,3703.6166 636.6175,3756.1216 672.675,3801.1966" codeLine="175" style="stroke:#27ae60;stroke-width:2.5;stroke-dasharray:7,7"/><polygon fill="#27AE60" points="680.75 3811.289 674.5 3787.473 672.94 3801.529 658.884 3799.969 680.75 3811.289" style="stroke:#27ae60;stroke-width:2.5"/><path id="LocalServiceClientFactoryReaderStep-to-LocalServiceClientFactoryBuilderStep" fill="none" d="M755,4001.6591 C755,4045.4866 755,4097.5791 755,4140.8441" codeLine="176" style="stroke:#27ae60;stroke-width:2.5;stroke-dasharray:7,7"/><polygon fill="#27AE60" points="755 4153.969 765 4131.469 755 4141.469 745 4131.469 755 4153.969" style="stroke:#27ae60;stroke-width:2.5"/><path id="LocalServiceServerFactory-to-LocalServiceServerFactoryNameStep" fill="none" d="M1435,2631.6266 C1435,2673.1666 1435,2725.4691 1435,2771.0691" codeLine="178" style="stroke:#27ae60;stroke-width:2.5;stroke-dasharray:7,7"/><polygon fill="#27AE60" points="1435 2783.739 1445 2761.239 1435 2771.239 1425 2761.239 1435 2783.739" style="stroke:#27ae60;stroke-width:2.5"/><path id="LocalServiceServerFactoryNameStep-to-LocalServiceServerFactoryNodeStep" fill="none" d="M1435,2974.7191 C1435,3017.5091 1435,3068.4816 1435,3112.7741" codeLine="179" style="stroke:#27ae60;stroke-width:2.5;stroke-dasharray:7,7"/><polygon fill="#27AE60" points="1435 3126.289 1445 3103.789 1435 3113.789 1425 3103.789 1435 3126.289" style="stroke:#27ae60;stroke-width:2.5"/><path id="LocalServiceServerFactoryNodeStep-to-LocalServiceServerFactoryBuilderStep" fill="none" d="M1435,3317.2191 C1435,3365.7291 1435,3424.7516 1435,3472.6391" codeLine="180" style="stroke:#27ae60;stroke-width:2.5;stroke-dasharray:7,7"/><polygon fill="#27AE60" points="1435 3485.834 1445 3463.334 1435 3473.334 1425 3463.334 1435 3485.834" style="stroke:#27ae60;stroke-width:2.5"/><path id="PoolLocalServiceServerFactory-to-PoolLocalServiceServerFactoryNameStep" fill="none" d="M2322.5,2631.6266 C2322.5,2673.1666 2322.5,2725.4691 2322.5,2771.0691" codeLine="182" style="stroke:#27ae60;stroke-width:2.5;stroke-dasharray:7,7"/><polygon fill="#27AE60" points="2322.5 2783.739 2332.5 2761.239 2322.5 2771.239 2312.5 2761.239 2322.5 2783.739" style="stroke:#27ae60;stroke-width:2.5"/><path id="PoolLocalServiceServerFactoryNameStep-to-PoolLocalServiceServerFactoryNodeStep" fill="none" d="M2323.19,2974.7191 C2323.5075,3017.5091 2323.885,3068.4816 2324.2125,3112.7741" codeLine="183" style="stroke:#27ae60;stroke-width:2.5;stroke-dasharray:7,7"/><polygon fill="#27AE60" points="2324.313 3126.289 2334.145 3103.715 2324.22 3113.789 2314.146 3103.864 2324.313 3126.289" style="stroke:#27ae60;stroke-width:2.5"/><path id="PoolLocalServiceServerFactoryNodeStep-to-PoolLocalServiceServerFactoryPluginStep" fill="none" d="M2325,3317.2191 C2325,3365.7291 2325,3424.7516 2325,3472.6391" codeLine="184" style="stroke:#27ae60;stroke-width:2.5;stroke-dasharray:7,7"/><polygon fill="#27AE60" points="2325 3485.834 2335 3463.334 2325 3473.334 2315 3463.334 2325 3485.834" style="stroke:#27ae60;stroke-width:2.5"/><path id="PoolLocalServiceServerFactoryPluginStep-to-PoolLocalServiceServerFactoryBuilderStep" fill="none" d="M2325,3642.3441 C2325,3693.8016 2325,3762.0391 2325,3815.9416" codeLine="185" style="stroke:#27ae60;stroke-width:2.5;stroke-dasharray:7,7"/><polygon fill="#27AE60" points="2325 3828.612 2335 3806.112 2325 3816.112 2315 3806.112 2325 3828.612" style="stroke:#27ae60;stroke-width:2.5"/></g></svg>