<svg xmlns="http://www.w3.org/2000/svg" xmlns:xlink="http://www.w3.org/1999/xlink" width="2705" height="1712.5" contentScriptType="application/ecmascript" contentStyleType="text/css" style="width:2705px;height:1712px" preserveAspectRatio="none" version="1.1" viewBox="0 0 2705 1712" zoomAndPan="magnify"><g><text x="821.25" y="46.714" fill="#000" font-family="sans-serif" font-size="45" lengthAdjust="spacingAndGlyphs" textLength="1030">Keyple Distributed Network API - 1.0.0 (03/11/2020)</text><polygon fill="#FFF" points="387.5 71.602 535 71.602 552.5 130.625 2442.5 130.625 2442.5 599.102 387.5 599.102 387.5 71.602" style="stroke:#000;stroke-width:3.75"/><line style="stroke:#000;stroke-width:3.75" x1="387.5" x2="552.5" y1="130.625" y2="130.625"/><text x="397.5" y="112.935" fill="#000" font-family="sans-serif" font-size="35" font-weight="bold" lengthAdjust="spacingAndGlyphs" textLength="132.5">Legend</text><polygon fill="#F8F9F9" points="40 681.602 580 681.602 597.5 740.625 2662.5 740.625 2662.5 1696.602 40 1696.602 40 681.602" style="stroke:#000;stroke-width:3.75"/><line style="stroke:#000;stroke-width:3.75" x1="40" x2="597.5" y1="740.625" y2="740.625"/><text x="50" y="722.935" fill="#000" font-family="sans-serif" font-size="35" font-weight="bold" lengthAdjust="spacingAndGlyphs" textLength="525">org.eclipse.keyple.distributed</text><polygon fill="#E5E7E9" points="100 1237.852 167.5 1237.852 185 1296.875 2102.5 1296.875 2102.5 1592.852 100 1592.852 100 1237.852" style="stroke:#000;stroke-width:3.75"/><line style="stroke:#000;stroke-width:3.75" x1="100" x2="185" y1="1296.875" y2="1296.875"/><text x="110" y="1279.185" fill="#000" font-family="sans-serif" font-size="35" font-weight="bold" lengthAdjust="spacingAndGlyphs" textLength="52.5">spi</text><rect id="syncNodeApi" width="87.5" height="120" x="1678.75" y="430.352" fill="#FEFECE" codeLine="48" style="stroke:#d4ac0d;stroke-width:3.75"/><ellipse cx="1716.25" cy="470.352" fill="#B4A7E5" rx="27.5" ry="27.5" style="stroke:#b4a7e5;stroke-width:2.5"/><path fill="#000" d="M1718.75,462.8516 L1718.75,477.8516 L1723.75,477.8516 L1724.9609,477.8516 L1726.25,479.4141 L1726.25,480.3516 L1726.25,481.2891 L1724.9609,482.8516 L1723.75,482.8516 L1708.75,482.8516 L1707.5391,482.8516 L1706.25,481.2891 L1706.25,480.3516 L1706.25,479.4141 L1707.5391,477.8516 L1708.75,477.8516 L1713.75,477.8516 L1713.75,462.8516 L1708.75,462.8516 L1707.5391,462.8516 L1706.25,461.2891 L1706.25,460.3516 L1706.25,459.4141 L1707.5391,457.8516 L1708.75,457.8516 L1723.75,457.8516 L1724.9609,457.8516 L1726.25,459.4141 L1726.25,460.3516 L1726.25,461.2891 L1724.9609,462.8516 L1723.75,462.8516 L1718.75,462.8516 Z"/><line style="stroke:#d4ac0d;stroke-width:3.75" x1="1681.25" x2="1763.75" y1="510.352" y2="510.352"/><line style="stroke:#d4ac0d;stroke-width:3.75" x1="1681.25" x2="1763.75" y1="530.352" y2="530.352"/><path fill="#FBFB77" d="M1578.75,182.8516 L1578.75,248.7305 A0,0 0 0 0 1578.75,248.7305 L1712.5,248.7305 L1722.5,429.8791 L1732.5,248.7305 L1866.25,248.7305 A0,0 0 0 0 1866.25,248.7305 L1866.25,207.8516 L1841.25,182.8516 L1578.75,182.8516 A0,0 0 0 0 1578.75,182.8516" style="stroke:#a80036;stroke-width:2.5"/><path fill="#FBFB77" d="M1841.25,182.8516 L1841.25,207.8516 L1866.25,207.8516 L1841.25,182.8516" style="stroke:#a80036;stroke-width:2.5"/><text x="1593.75" y="229.089" fill="#000" font-family="sans-serif" font-size="32.5" font-weight="bold" lengthAdjust="spacingAndGlyphs" textLength="235">Sync Node API</text><rect id="asyncNodeApi" width="87.5" height="120" x="1091.25" y="430.352" fill="#FDEDEC" codeLine="50" style="stroke:#e74c3c;stroke-width:3.75"/><ellipse cx="1128.75" cy="470.352" fill="#B4A7E5" rx="27.5" ry="27.5" style="stroke:#b4a7e5;stroke-width:2.5"/><path fill="#000" d="M1131.25,462.8516 L1131.25,477.8516 L1136.25,477.8516 L1137.4609,477.8516 L1138.75,479.4141 L1138.75,480.3516 L1138.75,481.2891 L1137.4609,482.8516 L1136.25,482.8516 L1121.25,482.8516 L1120.0391,482.8516 L1118.75,481.2891 L1118.75,480.3516 L1118.75,479.4141 L1120.0391,477.8516 L1121.25,477.8516 L1126.25,477.8516 L1126.25,462.8516 L1121.25,462.8516 L1120.0391,462.8516 L1118.75,461.2891 L1118.75,460.3516 L1118.75,459.4141 L1120.0391,457.8516 L1121.25,457.8516 L1136.25,457.8516 L1137.4609,457.8516 L1138.75,459.4141 L1138.75,460.3516 L1138.75,461.2891 L1137.4609,462.8516 L1136.25,462.8516 L1131.25,462.8516 Z"/><line style="stroke:#e74c3c;stroke-width:3.75" x1="1093.75" x2="1176.25" y1="510.352" y2="510.352"/><line style="stroke:#e74c3c;stroke-width:3.75" x1="1093.75" x2="1176.25" y1="530.352" y2="530.352"/><path fill="#FBFB77" d="M1188.75,182.8516 L1188.75,248.7305 A0,0 0 0 0 1188.75,248.7305 L1306.485,248.7305 L1179.0175,429.8791 L1326.485,248.7305 L1491.25,248.7305 A0,0 0 0 0 1491.25,248.7305 L1491.25,207.8516 L1466.25,182.8516 L1188.75,182.8516 A0,0 0 0 0 1188.75,182.8516" style="stroke:#a80036;stroke-width:2.5"/><path fill="#FBFB77" d="M1466.25,182.8516 L1466.25,207.8516 L1491.25,207.8516 L1466.25,182.8516" style="stroke:#a80036;stroke-width:2.5"/><text x="1203.75" y="229.089" fill="#000" font-family="sans-serif" font-size="32.5" font-weight="bold" lengthAdjust="spacingAndGlyphs" textLength="250">Async Node API</text><rect id="dtoApi" width="87.5" height="120" x="2228.75" y="430.352" fill="#EAECEE" codeLine="52" style="stroke:#2c3e50;stroke-width:3.75"/><ellipse cx="2266.25" cy="470.352" fill="#B4A7E5" rx="27.5" ry="27.5" style="stroke:#b4a7e5;stroke-width:2.5"/><path fill="#000" d="M2268.75,462.8516 L2268.75,477.8516 L2273.75,477.8516 L2274.9609,477.8516 L2276.25,479.4141 L2276.25,480.3516 L2276.25,481.2891 L2274.9609,482.8516 L2273.75,482.8516 L2258.75,482.8516 L2257.5391,482.8516 L2256.25,481.2891 L2256.25,480.3516 L2256.25,479.4141 L2257.5391,477.8516 L2258.75,477.8516 L2263.75,477.8516 L2263.75,462.8516 L2258.75,462.8516 L2257.5391,462.8516 L2256.25,461.2891 L2256.25,460.3516 L2256.25,459.4141 L2257.5391,457.8516 L2258.75,457.8516 L2273.75,457.8516 L2274.9609,457.8516 L2276.25,459.4141 L2276.25,460.3516 L2276.25,461.2891 L2274.9609,462.8516 L2273.75,462.8516 L2268.75,462.8516 Z"/><line style="stroke:#2c3e50;stroke-width:3.75" x1="2231.25" x2="2313.75" y1="510.352" y2="510.352"/><line style="stroke:#2c3e50;stroke-width:3.75" x1="2231.25" x2="2313.75" y1="530.352" y2="530.352"/><path fill="#FBFB77" d="M1953.75,182.8516 L1953.75,248.7305 A0,0 0 0 0 1953.75,248.7305 L2178.3975,248.7305 L2252.1025,429.8791 L2198.3975,248.7305 L2401.25,248.7305 A0,0 0 0 0 2401.25,248.7305 L2401.25,207.8516 L2376.25,182.8516 L1953.75,182.8516 A0,0 0 0 0 1953.75,182.8516" style="stroke:#a80036;stroke-width:2.5"/><path fill="#FBFB77" d="M2376.25,182.8516 L2376.25,207.8516 L2401.25,207.8516 L2376.25,182.8516" style="stroke:#a80036;stroke-width:2.5"/><text x="1968.75" y="229.089" fill="#000" font-family="sans-serif" font-size="32.5" font-weight="bold" lengthAdjust="spacingAndGlyphs" textLength="67.5">DTO</text><text x="2046.25" y="229.089" fill="#000" font-family="sans-serif" font-size="32.5" lengthAdjust="spacingAndGlyphs" textLength="317.5">(Data Transfer Object)</text><path fill="#FBFB77" d="M428.75,161.6016 L428.75,268.3594 L1101.25,268.3594 L1101.25,186.6016 L1076.25,161.6016 L428.75,161.6016" style="stroke:#a80036;stroke-width:2.5"/><path fill="#FBFB77" d="M1076.25,161.6016 L1076.25,186.6016 L1101.25,186.6016 L1076.25,161.6016" style="stroke:#a80036;stroke-width:2.5"/><text x="443.75" y="207.839" fill="#000" font-family="sans-serif" font-size="32.5" lengthAdjust="spacingAndGlyphs" textLength="127.5">Contains</text><text x="581.25" y="207.839" fill="#000" font-family="sans-serif" font-size="32.5" font-weight="bold" lengthAdjust="spacingAndGlyphs" textLength="55">SPI</text><text x="636.25" y="207.839" fill="#000" font-family="sans-serif" font-size="32.5" lengthAdjust="spacingAndGlyphs" textLength="427.5">s (Service Provider Interfaces)</text><text x="453.75" y="248.718" fill="#000" font-family="sans-serif" font-size="32.5" lengthAdjust="spacingAndGlyphs" textLength="577.5">which must be implemented by the user</text><polygon fill="#E5E7E9" points="713.75 421.602 781.25 421.602 798.75 480.625 816.25 480.625 816.25 559.648 713.75 559.648 713.75 421.602" style="stroke:#000;stroke-width:3.75"/><line style="stroke:#000;stroke-width:3.75" x1="713.75" x2="798.75" y1="480.625" y2="480.625"/><text x="723.75" y="462.935" fill="#000" font-family="sans-serif" font-size="35" font-weight="bold" lengthAdjust="spacingAndGlyphs" textLength="52.5">spi</text><rect id="AsyncNodeClient" width="645" height="258.359" x="812.5" y="771.602" fill="#FDEDEC" codeLine="60" style="stroke:#e74c3c;stroke-width:3.75"/><ellipse cx="991.875" cy="811.602" fill="#B4A7E5" rx="27.5" ry="27.5" style="stroke:#b4a7e5;stroke-width:2.5"/><path fill="#000" d="M994.375,804.1016 L994.375,819.1016 L999.375,819.1016 L1000.5859,819.1016 L1001.875,820.6641 L1001.875,821.6016 L1001.875,822.5391 L1000.5859,824.1016 L999.375,824.1016 L984.375,824.1016 L983.1641,824.1016 L981.875,822.5391 L981.875,821.6016 L981.875,820.6641 L983.1641,819.1016 L984.375,819.1016 L989.375,819.1016 L989.375,804.1016 L984.375,804.1016 L983.1641,804.1016 L981.875,802.5391 L981.875,801.6016 L981.875,800.6641 L983.1641,799.1016 L984.375,799.1016 L999.375,799.1016 L1000.5859,799.1016 L1001.875,800.6641 L1001.875,801.6016 L1001.875,802.5391 L1000.5859,804.1016 L999.375,804.1016 L994.375,804.1016 Z"/><ellipse cx="1055.625" cy="810.352" fill="#84BE84" rx="7.5" ry="7.5" style="stroke:#038048;stroke-width:2.5"/><text x="1070.625" y="823.877" fill="#000" font-family="sans-serif" font-size="30" font-style="italic" lengthAdjust="spacingAndGlyphs" textLength="237.5">AsyncNodeClient</text><line style="stroke:#e74c3c;stroke-width:3.75" x1="815" x2="1455" y1="851.602" y2="851.602"/><line style="stroke:#e74c3c;stroke-width:3.75" x1="815" x2="1455" y1="871.602" y2="871.602"/><ellipse cx="840" cy="899.102" fill="#84BE84" rx="7.5" ry="7.5" style="stroke:#038048;stroke-width:2.5"/><text x="862.5" y="910.149" fill="#000" font-family="sans-serif" font-size="27.5" lengthAdjust="spacingAndGlyphs" textLength="372.5">void onOpen (String sessionId)</text><ellipse cx="840" cy="933.691" fill="#84BE84" rx="7.5" ry="7.5" style="stroke:#038048;stroke-width:2.5"/><text x="862.5" y="944.739" fill="#000" font-family="sans-serif" font-size="27.5" lengthAdjust="spacingAndGlyphs" textLength="432.5">void onMessage (MessageDto msg)</text><ellipse cx="840" cy="968.281" fill="#84BE84" rx="7.5" ry="7.5" style="stroke:#038048;stroke-width:2.5"/><text x="862.5" y="979.329" fill="#000" font-family="sans-serif" font-size="27.5" lengthAdjust="spacingAndGlyphs" textLength="375">void onClose (String sessionId)</text><ellipse cx="840" cy="1002.871" fill="#84BE84" rx="7.5" ry="7.5" style="stroke:#038048;stroke-width:2.5"/><text x="862.5" y="1013.918" fill="#000" font-family="sans-serif" font-size="27.5" lengthAdjust="spacingAndGlyphs" textLength="580">void onError (String sessionId, Throwable error)</text><rect id="AsyncNodeServer" width="645" height="189.18" x="80" y="805.352" fill="#FDEDEC" codeLine="66" style="stroke:#e74c3c;stroke-width:3.75"/><ellipse cx="254.375" cy="845.352" fill="#B4A7E5" rx="27.5" ry="27.5" style="stroke:#b4a7e5;stroke-width:2.5"/><path fill="#000" d="M256.875,837.8516 L256.875,852.8516 L261.875,852.8516 L263.0859,852.8516 L264.375,854.4141 L264.375,855.3516 L264.375,856.2891 L263.0859,857.8516 L261.875,857.8516 L246.875,857.8516 L245.6641,857.8516 L244.375,856.2891 L244.375,855.3516 L244.375,854.4141 L245.6641,852.8516 L246.875,852.8516 L251.875,852.8516 L251.875,837.8516 L246.875,837.8516 L245.6641,837.8516 L244.375,836.2891 L244.375,835.3516 L244.375,834.4141 L245.6641,832.8516 L246.875,832.8516 L261.875,832.8516 L263.0859,832.8516 L264.375,834.4141 L264.375,835.3516 L264.375,836.2891 L263.0859,837.8516 L261.875,837.8516 L256.875,837.8516 Z"/><ellipse cx="318.125" cy="844.102" fill="#84BE84" rx="7.5" ry="7.5" style="stroke:#038048;stroke-width:2.5"/><text x="333.125" y="857.627" fill="#000" font-family="sans-serif" font-size="30" font-style="italic" lengthAdjust="spacingAndGlyphs" textLength="247.5">AsyncNodeServer</text><line style="stroke:#e74c3c;stroke-width:3.75" x1="82.5" x2="722.5" y1="885.352" y2="885.352"/><line style="stroke:#e74c3c;stroke-width:3.75" x1="82.5" x2="722.5" y1="905.352" y2="905.352"/><ellipse cx="107.5" cy="932.852" fill="#84BE84" rx="7.5" ry="7.5" style="stroke:#038048;stroke-width:2.5"/><text x="130" y="943.899" fill="#000" font-family="sans-serif" font-size="27.5" lengthAdjust="spacingAndGlyphs" textLength="432.5">void onMessage (MessageDto msg)</text><ellipse cx="107.5" cy="967.441" fill="#84BE84" rx="7.5" ry="7.5" style="stroke:#038048;stroke-width:2.5"/><text x="130" y="978.489" fill="#000" font-family="sans-serif" font-size="27.5" lengthAdjust="spacingAndGlyphs" textLength="580">void onError (String sessionId, Throwable error)</text><rect id="SyncNodeClient" width="330" height="120" x="1545" y="840.352" fill="#FEFECE" codeLine="70" style="stroke:#d4ac0d;stroke-width:3.75"/><ellipse cx="1582.5" cy="880.352" fill="#B4A7E5" rx="27.5" ry="27.5" style="stroke:#b4a7e5;stroke-width:2.5"/><path fill="#000" d="M1585,872.8516 L1585,887.8516 L1590,887.8516 L1591.2109,887.8516 L1592.5,889.4141 L1592.5,890.3516 L1592.5,891.2891 L1591.2109,892.8516 L1590,892.8516 L1575,892.8516 L1573.7891,892.8516 L1572.5,891.2891 L1572.5,890.3516 L1572.5,889.4141 L1573.7891,887.8516 L1575,887.8516 L1580,887.8516 L1580,872.8516 L1575,872.8516 L1573.7891,872.8516 L1572.5,871.2891 L1572.5,870.3516 L1572.5,869.4141 L1573.7891,867.8516 L1575,867.8516 L1590,867.8516 L1591.2109,867.8516 L1592.5,869.4141 L1592.5,870.3516 L1592.5,871.2891 L1591.2109,872.8516 L1590,872.8516 L1585,872.8516 Z"/><ellipse cx="1630" cy="879.102" fill="#84BE84" rx="7.5" ry="7.5" style="stroke:#038048;stroke-width:2.5"/><text x="1645" y="892.627" fill="#000" font-family="sans-serif" font-size="30" font-style="italic" lengthAdjust="spacingAndGlyphs" textLength="222.5">SyncNodeClient</text><line style="stroke:#d4ac0d;stroke-width:3.75" x1="1547.5" x2="1872.5" y1="920.352" y2="920.352"/><line style="stroke:#d4ac0d;stroke-width:3.75" x1="1547.5" x2="1872.5" y1="940.352" y2="940.352"/><rect id="SyncNodeServer" width="660" height="154.59" x="1962.5" y="822.852" fill="#FEFECE" codeLine="72" style="stroke:#d4ac0d;stroke-width:3.75"/><ellipse cx="2151.875" cy="862.852" fill="#B4A7E5" rx="27.5" ry="27.5" style="stroke:#b4a7e5;stroke-width:2.5"/><path fill="#000" d="M2154.375,855.3516 L2154.375,870.3516 L2159.375,870.3516 L2160.5859,870.3516 L2161.875,871.9141 L2161.875,872.8516 L2161.875,873.7891 L2160.5859,875.3516 L2159.375,875.3516 L2144.375,875.3516 L2143.1641,875.3516 L2141.875,873.7891 L2141.875,872.8516 L2141.875,871.9141 L2143.1641,870.3516 L2144.375,870.3516 L2149.375,870.3516 L2149.375,855.3516 L2144.375,855.3516 L2143.1641,855.3516 L2141.875,853.7891 L2141.875,852.8516 L2141.875,851.9141 L2143.1641,850.3516 L2144.375,850.3516 L2159.375,850.3516 L2160.5859,850.3516 L2161.875,851.9141 L2161.875,852.8516 L2161.875,853.7891 L2160.5859,855.3516 L2159.375,855.3516 L2154.375,855.3516 Z"/><ellipse cx="2215.625" cy="861.602" fill="#84BE84" rx="7.5" ry="7.5" style="stroke:#038048;stroke-width:2.5"/><text x="2230.625" y="875.127" fill="#000" font-family="sans-serif" font-size="30" font-style="italic" lengthAdjust="spacingAndGlyphs" textLength="232.5">SyncNodeServer</text><line style="stroke:#d4ac0d;stroke-width:3.75" x1="1965" x2="2620" y1="902.852" y2="902.852"/><line style="stroke:#d4ac0d;stroke-width:3.75" x1="1965" x2="2620" y1="922.852" y2="922.852"/><ellipse cx="1990" cy="950.352" fill="#84BE84" rx="7.5" ry="7.5" style="stroke:#038048;stroke-width:2.5"/><text x="2012.5" y="961.399" fill="#000" font-family="sans-serif" font-size="27.5" lengthAdjust="spacingAndGlyphs" textLength="595">List&lt;MessageDto&gt; onRequest (MessageDto msg)</text><rect id="MessageDto" width="380" height="431.309" x="2150" y="1224.102" fill="#EAECEE" codeLine="90" style="stroke:#2c3e50;stroke-width:3.75"/><ellipse cx="2233.625" cy="1264.102" fill="#ADD1B2" rx="27.5" ry="27.5" style="stroke:#add1b2;stroke-width:2.5"/><path fill="#000" d="M2238.625,1255.3516 Q2239.1328,1254.1016 2239.7188,1253.4766 Q2240.3047,1252.8516 2240.9688,1252.8516 Q2242.1406,1252.8516 2242.8828,1253.5547 Q2243.625,1254.2578 2243.625,1255.8984 L2243.625,1259.8047 Q2243.625,1261.4453 2242.9219,1262.1484 Q2242.2188,1262.8516 2241.125,1262.8516 Q2240.1484,1262.8516 2239.5234,1262.4219 Q2238.8984,1261.9922 2238.625,1260.8594 Q2238.5078,1260.0781 2238.0781,1259.6484 Q2237.2969,1258.8281 2235.8906,1258.3594 Q2234.4844,1257.8516 2233.0781,1257.8516 Q2231.3203,1257.8516 2229.8359,1258.5547 Q2228.3906,1259.2578 2227.2578,1260.8203 Q2226.125,1262.3828 2226.125,1264.5313 L2226.125,1266.8359 Q2226.125,1269.4141 2228.2344,1271.1328 Q2230.3438,1272.8516 2234.0938,1272.8516 Q2236.3203,1272.8516 2237.8828,1272.3438 Q2238.7813,1272.0703 2239.7969,1271.1719 Q2240.4609,1270.6641 2240.8125,1270.5078 Q2241.1641,1270.3516 2241.5938,1270.3516 Q2242.4141,1270.3516 2243,1271.0156 Q2243.625,1271.6406 2243.625,1272.5391 Q2243.625,1273.3984 2242.7656,1274.4141 Q2241.5156,1275.8984 2239.5234,1276.7188 Q2236.9063,1277.8516 2233.7031,1277.8516 Q2229.9531,1277.8516 2226.9453,1276.3672 Q2224.5234,1275.1953 2222.8047,1272.6563 Q2221.125,1270.1172 2221.125,1267.1094 L2221.125,1264.375 Q2221.125,1261.25 2222.6094,1258.5156 Q2224.1328,1255.7813 2226.75,1254.3359 Q2229.4063,1252.8516 2232.375,1252.8516 Q2234.1719,1252.8516 2235.7344,1253.4766 Q2237.2969,1254.1016 2238.625,1255.3516 Z"/><ellipse cx="2291.375" cy="1262.852" fill="#84BE84" rx="7.5" ry="7.5" style="stroke:#038048;stroke-width:2.5"/><text x="2306.375" y="1276.377" fill="#000" font-family="sans-serif" font-size="30" font-style="italic" lengthAdjust="spacingAndGlyphs" textLength="170">MessageDto</text><line style="stroke:#2c3e50;stroke-width:3.75" x1="2152.5" x2="2527.5" y1="1304.102" y2="1304.102"/><ellipse cx="2177.5" cy="1331.602" fill="none" rx="7.5" ry="7.5" style="stroke:#038048;stroke-width:2.5"/><text x="2200" y="1342.649" fill="#000" font-family="sans-serif" font-size="27.5" lengthAdjust="spacingAndGlyphs" textLength="192.5">String sessionId</text><ellipse cx="2177.5" cy="1366.191" fill="none" rx="7.5" ry="7.5" style="stroke:#038048;stroke-width:2.5"/><text x="2200" y="1377.239" fill="#000" font-family="sans-serif" font-size="27.5" lengthAdjust="spacingAndGlyphs" textLength="150">String action</text><ellipse cx="2177.5" cy="1400.781" fill="none" rx="7.5" ry="7.5" style="stroke:#038048;stroke-width:2.5"/><text x="2200" y="1411.829" fill="#000" font-family="sans-serif" font-size="27.5" lengthAdjust="spacingAndGlyphs" textLength="222.5">String clientNodeId</text><ellipse cx="2177.5" cy="1435.371" fill="none" rx="7.5" ry="7.5" style="stroke:#038048;stroke-width:2.5"/><text x="2200" y="1446.418" fill="#000" font-family="sans-serif" font-size="27.5" lengthAdjust="spacingAndGlyphs" textLength="240">String serverNodeId</text><ellipse cx="2177.5" cy="1469.961" fill="none" rx="7.5" ry="7.5" style="stroke:#038048;stroke-width:2.5"/><text x="2200" y="1481.008" fill="#000" font-family="sans-serif" font-size="27.5" lengthAdjust="spacingAndGlyphs" textLength="287.5">String localReaderName</text><ellipse cx="2177.5" cy="1504.551" fill="none" rx="7.5" ry="7.5" style="stroke:#038048;stroke-width:2.5"/><text x="2200" y="1515.598" fill="#000" font-family="sans-serif" font-size="27.5" lengthAdjust="spacingAndGlyphs" textLength="315">String remoteReaderName</text><ellipse cx="2177.5" cy="1539.141" fill="none" rx="7.5" ry="7.5" style="stroke:#038048;stroke-width:2.5"/><text x="2200" y="1550.188" fill="#000" font-family="sans-serif" font-size="27.5" lengthAdjust="spacingAndGlyphs" textLength="137.5">String body</text><line style="stroke:#2c3e50;stroke-width:3.75" x1="2152.5" x2="2527.5" y1="1566.23" y2="1566.23"/><ellipse cx="2177.5" cy="1593.73" fill="#84BE84" rx="7.5" ry="7.5" style="stroke:#038048;stroke-width:2.5"/><text x="2200" y="1604.778" fill="#000" font-family="sans-serif" font-size="27.5" lengthAdjust="spacingAndGlyphs" textLength="127.5">getters()...</text><ellipse cx="2177.5" cy="1628.32" fill="#84BE84" rx="7.5" ry="7.5" style="stroke:#038048;stroke-width:2.5"/><text x="2200" y="1639.368" fill="#000" font-family="sans-serif" font-size="27.5" lengthAdjust="spacingAndGlyphs" textLength="127.5">setters()...</text><rect id="AsyncEndpointClient" width="527.5" height="223.769" x="756.25" y="1327.852" fill="#FDEDEC" codeLine="77" style="stroke:#e74c3c;stroke-width:3.75"/><ellipse cx="854.5" cy="1367.852" fill="#B4A7E5" rx="27.5" ry="27.5" style="stroke:#b4a7e5;stroke-width:2.5"/><path fill="#000" d="M857,1360.3516 L857,1375.3516 L862,1375.3516 L863.2109,1375.3516 L864.5,1376.9141 L864.5,1377.8516 L864.5,1378.7891 L863.2109,1380.3516 L862,1380.3516 L847,1380.3516 L845.7891,1380.3516 L844.5,1378.7891 L844.5,1377.8516 L844.5,1376.9141 L845.7891,1375.3516 L847,1375.3516 L852,1375.3516 L852,1360.3516 L847,1360.3516 L845.7891,1360.3516 L844.5,1358.7891 L844.5,1357.8516 L844.5,1356.9141 L845.7891,1355.3516 L847,1355.3516 L862,1355.3516 L863.2109,1355.3516 L864.5,1356.9141 L864.5,1357.8516 L864.5,1358.7891 L863.2109,1360.3516 L862,1360.3516 L857,1360.3516 Z"/><ellipse cx="915.5" cy="1366.602" fill="#84BE84" rx="7.5" ry="7.5" style="stroke:#038048;stroke-width:2.5"/><text x="930.5" y="1380.127" fill="#000" font-family="sans-serif" font-size="30" font-style="italic" lengthAdjust="spacingAndGlyphs" textLength="285">AsyncEndpointClient</text><line style="stroke:#e74c3c;stroke-width:3.75" x1="758.75" x2="1281.25" y1="1407.852" y2="1407.852"/><line style="stroke:#e74c3c;stroke-width:3.75" x1="758.75" x2="1281.25" y1="1427.852" y2="1427.852"/><ellipse cx="783.75" cy="1455.352" fill="#84BE84" rx="7.5" ry="7.5" style="stroke:#038048;stroke-width:2.5"/><text x="806.25" y="1466.399" fill="#000" font-family="sans-serif" font-size="27.5" lengthAdjust="spacingAndGlyphs" textLength="435">void openSession (String sessionId)</text><ellipse cx="783.75" cy="1489.941" fill="#84BE84" rx="7.5" ry="7.5" style="stroke:#038048;stroke-width:2.5"/><text x="806.25" y="1500.989" fill="#000" font-family="sans-serif" font-size="27.5" lengthAdjust="spacingAndGlyphs" textLength="462.5">void sendMessage (MessageDto msg)</text><ellipse cx="783.75" cy="1524.531" fill="#84BE84" rx="7.5" ry="7.5" style="stroke:#038048;stroke-width:2.5"/><text x="806.25" y="1535.579" fill="#000" font-family="sans-serif" font-size="27.5" lengthAdjust="spacingAndGlyphs" textLength="440">void closeSession (String sessionId)</text><rect id="AsyncEndpointServer" width="527.5" height="154.59" x="141.25" y="1362.852" fill="#FDEDEC" codeLine="82" style="stroke:#e74c3c;stroke-width:3.75"/><ellipse cx="235" cy="1402.852" fill="#B4A7E5" rx="27.5" ry="27.5" style="stroke:#b4a7e5;stroke-width:2.5"/><path fill="#000" d="M237.5,1395.3516 L237.5,1410.3516 L242.5,1410.3516 L243.7109,1410.3516 L245,1411.9141 L245,1412.8516 L245,1413.7891 L243.7109,1415.3516 L242.5,1415.3516 L227.5,1415.3516 L226.2891,1415.3516 L225,1413.7891 L225,1412.8516 L225,1411.9141 L226.2891,1410.3516 L227.5,1410.3516 L232.5,1410.3516 L232.5,1395.3516 L227.5,1395.3516 L226.2891,1395.3516 L225,1393.7891 L225,1392.8516 L225,1391.9141 L226.2891,1390.3516 L227.5,1390.3516 L242.5,1390.3516 L243.7109,1390.3516 L245,1391.9141 L245,1392.8516 L245,1393.7891 L243.7109,1395.3516 L242.5,1395.3516 L237.5,1395.3516 Z"/><ellipse cx="295" cy="1401.602" fill="#84BE84" rx="7.5" ry="7.5" style="stroke:#038048;stroke-width:2.5"/><text x="310" y="1415.127" fill="#000" font-family="sans-serif" font-size="30" font-style="italic" lengthAdjust="spacingAndGlyphs" textLength="295">AsyncEndpointServer</text><line style="stroke:#e74c3c;stroke-width:3.75" x1="143.75" x2="666.25" y1="1442.852" y2="1442.852"/><line style="stroke:#e74c3c;stroke-width:3.75" x1="143.75" x2="666.25" y1="1462.852" y2="1462.852"/><ellipse cx="168.75" cy="1490.352" fill="#84BE84" rx="7.5" ry="7.5" style="stroke:#038048;stroke-width:2.5"/><text x="191.25" y="1501.399" fill="#000" font-family="sans-serif" font-size="27.5" lengthAdjust="spacingAndGlyphs" textLength="462.5">void sendMessage (MessageDto msg)</text><rect id="SyncEndpointClient" width="690" height="154.59" x="1372.5" y="1362.852" fill="#FEFECE" codeLine="85" style="stroke:#d4ac0d;stroke-width:3.75"/><ellipse cx="1558.125" cy="1402.852" fill="#B4A7E5" rx="27.5" ry="27.5" style="stroke:#b4a7e5;stroke-width:2.5"/><path fill="#000" d="M1560.625,1395.3516 L1560.625,1410.3516 L1565.625,1410.3516 L1566.8359,1410.3516 L1568.125,1411.9141 L1568.125,1412.8516 L1568.125,1413.7891 L1566.8359,1415.3516 L1565.625,1415.3516 L1550.625,1415.3516 L1549.4141,1415.3516 L1548.125,1413.7891 L1548.125,1412.8516 L1548.125,1411.9141 L1549.4141,1410.3516 L1550.625,1410.3516 L1555.625,1410.3516 L1555.625,1395.3516 L1550.625,1395.3516 L1549.4141,1395.3516 L1548.125,1393.7891 L1548.125,1392.8516 L1548.125,1391.9141 L1549.4141,1390.3516 L1550.625,1390.3516 L1565.625,1390.3516 L1566.8359,1390.3516 L1568.125,1391.9141 L1568.125,1392.8516 L1568.125,1393.7891 L1566.8359,1395.3516 L1565.625,1395.3516 L1560.625,1395.3516 Z"/><ellipse cx="1621.875" cy="1401.602" fill="#84BE84" rx="7.5" ry="7.5" style="stroke:#038048;stroke-width:2.5"/><text x="1636.875" y="1415.127" fill="#000" font-family="sans-serif" font-size="30" font-style="italic" lengthAdjust="spacingAndGlyphs" textLength="270">SyncEndpointClient</text><line style="stroke:#d4ac0d;stroke-width:3.75" x1="1375" x2="2060" y1="1442.852" y2="1442.852"/><line style="stroke:#d4ac0d;stroke-width:3.75" x1="1375" x2="2060" y1="1462.852" y2="1462.852"/><ellipse cx="1400" cy="1490.352" fill="#84BE84" rx="7.5" ry="7.5" style="stroke:#038048;stroke-width:2.5"/><text x="1422.5" y="1501.399" fill="#000" font-family="sans-serif" font-size="27.5" lengthAdjust="spacingAndGlyphs" textLength="625">List&lt;MessageDto&gt; sendRequest (MessageDto msg)</text><path id="GMN22632-legendSpi" fill="none" d="M765,269.2716 C765,312.4191 765,374.3441 765,421.2741" style="stroke:#a80036;stroke-width:2.5;stroke-dasharray:7,7"/><path id="SyncNodeClient-to-SyncEndpointClient" fill="none" d="M1710.8175,961.1241 C1712.13,1054.8116 1714.72,1239.5316 1716.2625,1349.4991" codeLine="104" style="stroke:#3498db;stroke-width:2.5"/><polygon fill="#3498DB" points="1716.445 1362.529 1726.129 1339.891 1716.27 1350.03 1706.131 1340.171 1716.445 1362.529" style="stroke:#3498db;stroke-width:2.5"/><polygon fill="#000" points="1725.175 1139.54 1732.205 1116.826 1717.512 1117.032 1725.175 1139.54" style="stroke:#000;stroke-width:2.5"/><text x="1747.5" y="1140.339" fill="#000" font-family="sans-serif" font-size="32.5" lengthAdjust="spacingAndGlyphs" textLength="52.5">use</text><path id="AsyncNodeClient-to-AsyncEndpointClient" fill="none" d="M1107.7475,1029.6391 C1089.1975,1115.9316 1064.7775,1229.5341 1046.41,1314.9841" codeLine="105" style="stroke:#3498db;stroke-width:2.5"/><polygon fill="#3498DB" points="1043.747 1327.379 1058.255 1307.485 1046.376 1315.159 1038.702 1303.279 1043.747 1327.379" style="stroke:#3498db;stroke-width:2.5"/><polygon fill="#000" points="1099.873 1139.262 1111.809 1118.698 1097.442 1115.61 1099.873 1139.262" style="stroke:#000;stroke-width:2.5"/><text x="1125" y="1140.339" fill="#000" font-family="sans-serif" font-size="32.5" lengthAdjust="spacingAndGlyphs" textLength="52.5">use</text><path id="AsyncNodeServer-to-AsyncEndpointServer" fill="none" d="M402.935,996.0416 C403.4,1095.4616 404.13,1251.7791 404.5875,1349.3616" codeLine="106" style="stroke:#3498db;stroke-width:2.5"/><polygon fill="#3498DB" points="404.645 1362.139 414.542 1339.594 404.588 1349.639 394.542 1339.685 404.645 1362.139" style="stroke:#3498db;stroke-width:2.5"/><polygon fill="#000" points="417.558 1139.541 424.8 1116.894 410.106 1116.963 417.558 1139.541" style="stroke:#000;stroke-width:2.5"/><text x="440" y="1140.339" fill="#000" font-family="sans-serif" font-size="32.5" lengthAdjust="spacingAndGlyphs" textLength="52.5">use</text></g></svg>