<svg xmlns="http://www.w3.org/2000/svg" xmlns:xlink="http://www.w3.org/1999/xlink" width="1890" height="1220" contentScriptType="application/ecmascript" contentStyleType="text/css" style="width:1890px;height:1220px" preserveAspectRatio="none" version="1.1" viewBox="0 0 1890 1220" zoomAndPan="magnify"><g><polygon fill="#FFF" points="457.5 15 940 15 957.5 74.023 1122.5 74.023 1122.5 1160 457.5 1160 457.5 15" style="stroke:#000;stroke-width:3.75"/><line style="stroke:#000;stroke-width:3.75" x1="457.5" x2="957.5" y1="74.023" y2="74.023"/><text x="467.5" y="56.333" fill="#000" font-family="sans-serif" font-size="35" font-weight="bold" lengthAdjust="spacingAndGlyphs" textLength="467.5">Terminal with &apos;local&apos; reader</text><polygon fill="#FFF" points="517.5 306.25 652.5 306.25 670 365.273 1062.5 365.273 1062.5 890 517.5 890 517.5 306.25" style="stroke:#000;stroke-width:3.75"/><line style="stroke:#000;stroke-width:3.75" x1="517.5" x2="670" y1="365.273" y2="365.273"/><text x="527.5" y="347.583" fill="#000" font-family="sans-serif" font-size="35" font-weight="bold" lengthAdjust="spacingAndGlyphs" textLength="120">Keyple</text><polygon fill="#FFF" points="1182.5 15 1707.5 15 1725 74.023 1847.5 74.023 1847.5 1160 1182.5 1160 1182.5 15" style="stroke:#000;stroke-width:3.75"/><line style="stroke:#000;stroke-width:3.75" x1="1182.5" x2="1725" y1="74.023" y2="74.023"/><text x="1192.5" y="56.333" fill="#000" font-family="sans-serif" font-size="35" font-weight="bold" lengthAdjust="spacingAndGlyphs" textLength="510">Terminal with &apos;remote&apos; reader</text><polygon fill="#FFF" points="1242.5 306.25 1377.5 306.25 1395 365.273 1787.5 365.273 1787.5 890 1242.5 890 1242.5 306.25" style="stroke:#000;stroke-width:3.75"/><line style="stroke:#000;stroke-width:3.75" x1="1242.5" x2="1395" y1="365.273" y2="365.273"/><text x="1252.5" y="347.583" fill="#000" font-family="sans-serif" font-size="35" font-weight="bold" lengthAdjust="spacingAndGlyphs" textLength="120">Keyple</text><rect style="stroke:#d4ac0d;stroke-width:3.75" width="272.5" height="119.023" x="653.75" y="105" fill="#FEFECE"/><rect style="stroke:#d4ac0d;stroke-width:3.75" width="37.5" height="25" x="876.25" y="117.5" fill="#FEFECE"/><rect style="stroke:#d4ac0d;stroke-width:3.75" width="10" height="5" x="871.25" y="122.5" fill="#FEFECE"/><rect style="stroke:#d4ac0d;stroke-width:3.75" width="10" height="5" x="871.25" y="132.5" fill="#FEFECE"/><text x="691.25" y="191.333" fill="#000" font-family="sans-serif" font-size="35" lengthAdjust="spacingAndGlyphs" textLength="172.5">Application</text><rect style="stroke:#27ae60;stroke-width:3.75" width="375" height="119.023" x="660" y="1000" fill="#E9F7EF"/><rect style="stroke:#27ae60;stroke-width:3.75" width="37.5" height="25" x="985" y="1012.5" fill="#E9F7EF"/><rect style="stroke:#27ae60;stroke-width:3.75" width="10" height="5" x="980" y="1017.5" fill="#E9F7EF"/><rect style="stroke:#27ae60;stroke-width:3.75" width="10" height="5" x="980" y="1027.5" fill="#E9F7EF"/><text x="697.5" y="1086.333" fill="#000" font-family="sans-serif" font-size="35" lengthAdjust="spacingAndGlyphs" textLength="275">Network Endpoint</text><rect style="stroke:#3498db;stroke-width:3.75" width="425" height="163.047" x="587.5" y="687.5" fill="#EBF5FB"/><rect style="stroke:#3498db;stroke-width:3.75" width="37.5" height="25" x="962.5" y="700" fill="#EBF5FB"/><rect style="stroke:#3498db;stroke-width:3.75" width="10" height="5" x="957.5" y="705" fill="#EBF5FB"/><rect style="stroke:#3498db;stroke-width:3.75" width="10" height="5" x="957.5" y="715" fill="#EBF5FB"/><text x="625" y="773.833" fill="#000" font-family="sans-serif" font-size="35" font-weight="bold" lengthAdjust="spacingAndGlyphs" textLength="325">Keyple Distributed</text><text x="625" y="817.856" fill="#000" font-family="sans-serif" font-size="35" lengthAdjust="spacingAndGlyphs" textLength="325">(&quot;local&quot; components)</text><rect style="stroke:#8e44ad;stroke-width:3.75" width="465" height="119.023" x="557.5" y="396.25" fill="#F4ECF7"/><rect style="stroke:#8e44ad;stroke-width:3.75" width="37.5" height="25" x="972.5" y="408.75" fill="#F4ECF7"/><rect style="stroke:#8e44ad;stroke-width:3.75" width="10" height="5" x="967.5" y="413.75" fill="#F4ECF7"/><rect style="stroke:#8e44ad;stroke-width:3.75" width="10" height="5" x="967.5" y="423.75" fill="#F4ECF7"/><text x="595" y="482.583" fill="#000" font-family="sans-serif" font-size="35" lengthAdjust="spacingAndGlyphs" textLength="365">Keyple Core &amp; Solution</text><rect style="stroke:#d4ac0d;stroke-width:3.75" width="272.5" height="119.023" x="1378.75" y="105" fill="#FEFECE"/><rect style="stroke:#d4ac0d;stroke-width:3.75" width="37.5" height="25" x="1601.25" y="117.5" fill="#FEFECE"/><rect style="stroke:#d4ac0d;stroke-width:3.75" width="10" height="5" x="1596.25" y="122.5" fill="#FEFECE"/><rect style="stroke:#d4ac0d;stroke-width:3.75" width="10" height="5" x="1596.25" y="132.5" fill="#FEFECE"/><text x="1416.25" y="191.333" fill="#000" font-family="sans-serif" font-size="35" lengthAdjust="spacingAndGlyphs" textLength="172.5">Application</text><rect style="stroke:#27ae60;stroke-width:3.75" width="375" height="119.023" x="1275" y="1000" fill="#E9F7EF"/><rect style="stroke:#27ae60;stroke-width:3.75" width="37.5" height="25" x="1600" y="1012.5" fill="#E9F7EF"/><rect style="stroke:#27ae60;stroke-width:3.75" width="10" height="5" x="1595" y="1017.5" fill="#E9F7EF"/><rect style="stroke:#27ae60;stroke-width:3.75" width="10" height="5" x="1595" y="1027.5" fill="#E9F7EF"/><text x="1312.5" y="1086.333" fill="#000" font-family="sans-serif" font-size="35" lengthAdjust="spacingAndGlyphs" textLength="275">Network Endpoint</text><rect style="stroke:#8e44ad;stroke-width:3.75" width="465" height="119.023" x="1282.5" y="396.25" fill="#F4ECF7"/><rect style="stroke:#8e44ad;stroke-width:3.75" width="37.5" height="25" x="1697.5" y="408.75" fill="#F4ECF7"/><rect style="stroke:#8e44ad;stroke-width:3.75" width="10" height="5" x="1692.5" y="413.75" fill="#F4ECF7"/><rect style="stroke:#8e44ad;stroke-width:3.75" width="10" height="5" x="1692.5" y="423.75" fill="#F4ECF7"/><text x="1320" y="482.583" fill="#000" font-family="sans-serif" font-size="35" lengthAdjust="spacingAndGlyphs" textLength="365">Keyple Core &amp; Solution</text><rect style="stroke:#3498db;stroke-width:3.75" width="462.5" height="163.047" x="1283.75" y="687.5" fill="#EBF5FB"/><rect style="stroke:#3498db;stroke-width:3.75" width="37.5" height="25" x="1696.25" y="700" fill="#EBF5FB"/><rect style="stroke:#3498db;stroke-width:3.75" width="10" height="5" x="1691.25" y="705" fill="#EBF5FB"/><rect style="stroke:#3498db;stroke-width:3.75" width="10" height="5" x="1691.25" y="715" fill="#EBF5FB"/><text x="1321.25" y="773.833" fill="#000" font-family="sans-serif" font-size="35" font-weight="bold" lengthAdjust="spacingAndGlyphs" textLength="325">Keyple Distributed</text><text x="1321.25" y="817.856" fill="#000" font-family="sans-serif" font-size="35" lengthAdjust="spacingAndGlyphs" textLength="362.5">(&quot;remote&quot; components)</text><rect style="stroke:#e74c3c;stroke-width:3.75" width="400" height="163.047" x="17.5" y="375" fill="#FDEDEC"/><rect style="stroke:#e74c3c;stroke-width:3.75" width="37.5" height="25" x="367.5" y="387.5" fill="#FDEDEC"/><rect style="stroke:#e74c3c;stroke-width:3.75" width="10" height="5" x="362.5" y="392.5" fill="#FDEDEC"/><rect style="stroke:#e74c3c;stroke-width:3.75" width="10" height="5" x="362.5" y="402.5" fill="#FDEDEC"/><text x="55" y="461.333" fill="#000" font-family="sans-serif" font-size="35" lengthAdjust="spacingAndGlyphs" textLength="277.5">Hardware Reader</text><text x="55" y="505.356" fill="#000" font-family="sans-serif" font-size="35" lengthAdjust="spacingAndGlyphs" textLength="300">(PO, SAM, HSM,...)</text><path id="reader-localKeypleLibs" fill="none" d="M417.6525,456.25 C464.195,456.25 510.7375,456.25 557.2825,456.25" style="stroke:#a80036;stroke-width:2.5"/><path id="appA-localKeypleLibs" fill="none" d="M790,225.4275 C790,275.09 790,346.27 790,395.91" style="stroke:#a80036;stroke-width:2.5"/><path id="localKeypleLibs-localLib" fill="none" d="M791.88,516.5875 C793.4425,564.605 795.68,633.4025 797.41,686.6225" style="stroke:#a80036;stroke-width:2.5"/><path id="localLib-endpointA" fill="none" d="M813.105,850.2275 C820.96,897.555 830.77,956.684 837.9025,999.662" style="stroke:#a80036;stroke-width:2.5"/><path id="endpointA-endpointB" fill="none" d="M1036.085,1060 C1115.4825,1060 1194.88,1060 1274.2775,1060" style="stroke:#a80036;stroke-width:2.5"/><path id="appB-remoteKeypleLibs" fill="none" d="M1515,225.4275 C1515,275.09 1515,346.27 1515,395.91" style="stroke:#a80036;stroke-width:2.5"/><path id="remoteKeypleLibs-remoteLib" fill="none" d="M1515,516.5875 C1515,564.605 1515,633.4025 1515,686.6225" style="stroke:#a80036;stroke-width:2.5"/><path id="remoteLib-endpointB" fill="none" d="M1500.515,850.2275 C1491.835,897.555 1480.99,956.684 1473.1075,999.662" style="stroke:#a80036;stroke-width:2.5"/><text x="677.5" y="1200.952" fill="#888" font-family="sans-serif" font-size="25" lengthAdjust="spacingAndGlyphs" textLength="502.5">Keyple Distributed - Overview (03/11/2020)</text></g></svg>