<svg xmlns="http://www.w3.org/2000/svg" xmlns:xlink="http://www.w3.org/1999/xlink" width="2820" height="1492.5" contentScriptType="application/ecmascript" contentStyleType="text/css" style="width:2820px;height:1492px" preserveAspectRatio="none" version="1.1" viewBox="0 0 2820 1492" zoomAndPan="magnify"><g><polygon fill="#FFF" points="40 15 555 15 572.5 74.023 645 74.023 645 1160 40 1160 40 15" style="stroke:#000;stroke-width:3.75"/><line style="stroke:#000;stroke-width:3.75" x1="40" x2="572.5" y1="74.023" y2="74.023"/><text x="50" y="56.333" fill="#000" font-family="sans-serif" font-size="35" font-weight="bold" lengthAdjust="spacingAndGlyphs" textLength="500">Terminal A with &apos;local&apos; reader</text><polygon fill="#FFF" points="705 15 1230 15 1247.5 74.023 1715 74.023 1715 847.5 705 847.5 705 15" style="stroke:#000;stroke-width:3.75"/><line style="stroke:#000;stroke-width:3.75" x1="705" x2="1247.5" y1="74.023" y2="74.023"/><text x="715" y="56.333" fill="#000" font-family="sans-serif" font-size="35" font-weight="bold" lengthAdjust="spacingAndGlyphs" textLength="510">Terminal with &apos;remote&apos; reader</text><polygon fill="#FFF" points="1775 15 2292.5 15 2310 74.023 2777.5 74.023 2777.5 1160 1775 1160 1775 15" style="stroke:#000;stroke-width:3.75"/><line style="stroke:#000;stroke-width:3.75" x1="1775" x2="2310" y1="74.023" y2="74.023"/><text x="1785" y="56.333" fill="#000" font-family="sans-serif" font-size="35" font-weight="bold" lengthAdjust="spacingAndGlyphs" textLength="502.5">Terminal B with &apos;local&apos; reader</text><rect style="stroke:#d4ac0d;stroke-width:3.75" width="272.5" height="119.023" x="331.25" y="105" fill="#FEFECE"/><rect style="stroke:#d4ac0d;stroke-width:3.75" width="37.5" height="25" x="553.75" y="117.5" fill="#FEFECE"/><rect style="stroke:#d4ac0d;stroke-width:3.75" width="10" height="5" x="548.75" y="122.5" fill="#FEFECE"/><rect style="stroke:#d4ac0d;stroke-width:3.75" width="10" height="5" x="548.75" y="132.5" fill="#FEFECE"/><text x="368.75" y="191.333" fill="#000" font-family="sans-serif" font-size="35" lengthAdjust="spacingAndGlyphs" textLength="172.5">Application</text><rect style="stroke:#e74c3c;stroke-width:3.75" width="337.5" height="119.023" x="81.25" y="375" fill="#FDEDEC"/><rect style="stroke:#e74c3c;stroke-width:3.75" width="37.5" height="25" x="368.75" y="387.5" fill="#FDEDEC"/><rect style="stroke:#e74c3c;stroke-width:3.75" width="10" height="5" x="363.75" y="392.5" fill="#FDEDEC"/><rect style="stroke:#e74c3c;stroke-width:3.75" width="10" height="5" x="363.75" y="402.5" fill="#FDEDEC"/><text x="118.75" y="461.333" fill="#000" font-family="sans-serif" font-size="35" font-weight="bold" lengthAdjust="spacingAndGlyphs" textLength="237.5">Local Service</text><rect style="stroke:#27ae60;stroke-width:3.75" width="230" height="163.047" x="282.5" y="645" fill="#E9F7EF"/><rect style="stroke:#27ae60;stroke-width:3.75" width="37.5" height="25" x="462.5" y="657.5" fill="#E9F7EF"/><rect style="stroke:#27ae60;stroke-width:3.75" width="10" height="5" x="457.5" y="662.5" fill="#E9F7EF"/><rect style="stroke:#27ae60;stroke-width:3.75" width="10" height="5" x="457.5" y="672.5" fill="#E9F7EF"/><text x="320" y="731.333" fill="#000" font-family="sans-serif" font-size="35" lengthAdjust="spacingAndGlyphs" textLength="85">Local</text><text x="320" y="775.356" fill="#000" font-family="sans-serif" font-size="35" lengthAdjust="spacingAndGlyphs" textLength="130">Plugin A</text><rect style="stroke:#27ae60;stroke-width:3.75" width="250" height="163.047" x="272.5" y="957.5" fill="#E9F7EF"/><rect style="stroke:#27ae60;stroke-width:3.75" width="37.5" height="25" x="472.5" y="970" fill="#E9F7EF"/><rect style="stroke:#27ae60;stroke-width:3.75" width="10" height="5" x="467.5" y="975" fill="#E9F7EF"/><rect style="stroke:#27ae60;stroke-width:3.75" width="10" height="5" x="467.5" y="985" fill="#E9F7EF"/><text x="310" y="1043.833" fill="#000" font-family="sans-serif" font-size="35" lengthAdjust="spacingAndGlyphs" textLength="85">Local</text><text x="310" y="1087.856" fill="#000" font-family="sans-serif" font-size="35" lengthAdjust="spacingAndGlyphs" textLength="150">Reader A</text><rect style="stroke:#d4ac0d;stroke-width:3.75" width="272.5" height="119.023" x="1163.75" y="105" fill="#FEFECE"/><rect style="stroke:#d4ac0d;stroke-width:3.75" width="37.5" height="25" x="1386.25" y="117.5" fill="#FEFECE"/><rect style="stroke:#d4ac0d;stroke-width:3.75" width="10" height="5" x="1381.25" y="122.5" fill="#FEFECE"/><rect style="stroke:#d4ac0d;stroke-width:3.75" width="10" height="5" x="1381.25" y="132.5" fill="#FEFECE"/><text x="1201.25" y="191.333" fill="#000" font-family="sans-serif" font-size="35" lengthAdjust="spacingAndGlyphs" textLength="172.5">Application</text><rect style="stroke:#e74c3c;stroke-width:3.75" width="355" height="119.023" x="990" y="375" fill="#FDEDEC"/><rect style="stroke:#e74c3c;stroke-width:3.75" width="37.5" height="25" x="1295" y="387.5" fill="#FDEDEC"/><rect style="stroke:#e74c3c;stroke-width:3.75" width="10" height="5" x="1290" y="392.5" fill="#FDEDEC"/><rect style="stroke:#e74c3c;stroke-width:3.75" width="10" height="5" x="1290" y="402.5" fill="#FDEDEC"/><text x="1027.5" y="461.333" fill="#000" font-family="sans-serif" font-size="35" font-weight="bold" lengthAdjust="spacingAndGlyphs" textLength="255">Remote Plugin</text><rect style="stroke:#27ae60;stroke-width:3.75" width="250" height="163.047" x="745" y="645" fill="#E9F7EF"/><rect style="stroke:#27ae60;stroke-width:3.75" width="37.5" height="25" x="945" y="657.5" fill="#E9F7EF"/><rect style="stroke:#27ae60;stroke-width:3.75" width="10" height="5" x="940" y="662.5" fill="#E9F7EF"/><rect style="stroke:#27ae60;stroke-width:3.75" width="10" height="5" x="940" y="672.5" fill="#E9F7EF"/><text x="782.5" y="731.333" fill="#000" font-family="sans-serif" font-size="35" lengthAdjust="spacingAndGlyphs" textLength="122.5">Remote</text><text x="782.5" y="775.356" fill="#000" font-family="sans-serif" font-size="35" lengthAdjust="spacingAndGlyphs" textLength="150">Reader A</text><rect style="stroke:#3498db;stroke-width:3.75" width="250" height="163.047" x="1082.5" y="645" fill="#EBF5FB"/><rect style="stroke:#3498db;stroke-width:3.75" width="37.5" height="25" x="1282.5" y="657.5" fill="#EBF5FB"/><rect style="stroke:#3498db;stroke-width:3.75" width="10" height="5" x="1277.5" y="662.5" fill="#EBF5FB"/><rect style="stroke:#3498db;stroke-width:3.75" width="10" height="5" x="1277.5" y="672.5" fill="#EBF5FB"/><text x="1120" y="731.333" fill="#000" font-family="sans-serif" font-size="35" lengthAdjust="spacingAndGlyphs" textLength="122.5">Remote</text><text x="1120" y="775.356" fill="#000" font-family="sans-serif" font-size="35" lengthAdjust="spacingAndGlyphs" textLength="150">Reader B</text><rect style="stroke:#8e44ad;stroke-width:3.75" width="252.5" height="163.047" x="1421.25" y="645" fill="#F4ECF7"/><rect style="stroke:#8e44ad;stroke-width:3.75" width="37.5" height="25" x="1623.75" y="657.5" fill="#F4ECF7"/><rect style="stroke:#8e44ad;stroke-width:3.75" width="10" height="5" x="1618.75" y="662.5" fill="#F4ECF7"/><rect style="stroke:#8e44ad;stroke-width:3.75" width="10" height="5" x="1618.75" y="672.5" fill="#F4ECF7"/><text x="1458.75" y="731.333" fill="#000" font-family="sans-serif" font-size="35" lengthAdjust="spacingAndGlyphs" textLength="122.5">Remote</text><text x="1458.75" y="775.356" fill="#000" font-family="sans-serif" font-size="35" lengthAdjust="spacingAndGlyphs" textLength="152.5">Reader C</text><rect style="stroke:#d4ac0d;stroke-width:3.75" width="272.5" height="119.023" x="2131.25" y="105" fill="#FEFECE"/><rect style="stroke:#d4ac0d;stroke-width:3.75" width="37.5" height="25" x="2353.75" y="117.5" fill="#FEFECE"/><rect style="stroke:#d4ac0d;stroke-width:3.75" width="10" height="5" x="2348.75" y="122.5" fill="#FEFECE"/><rect style="stroke:#d4ac0d;stroke-width:3.75" width="10" height="5" x="2348.75" y="132.5" fill="#FEFECE"/><text x="2168.75" y="191.333" fill="#000" font-family="sans-serif" font-size="35" lengthAdjust="spacingAndGlyphs" textLength="172.5">Application</text><rect style="stroke:#e74c3c;stroke-width:3.75" width="337.5" height="119.023" x="2098.75" y="375" fill="#FDEDEC"/><rect style="stroke:#e74c3c;stroke-width:3.75" width="37.5" height="25" x="2386.25" y="387.5" fill="#FDEDEC"/><rect style="stroke:#e74c3c;stroke-width:3.75" width="10" height="5" x="2381.25" y="392.5" fill="#FDEDEC"/><rect style="stroke:#e74c3c;stroke-width:3.75" width="10" height="5" x="2381.25" y="402.5" fill="#FDEDEC"/><text x="2136.25" y="461.333" fill="#000" font-family="sans-serif" font-size="35" font-weight="bold" lengthAdjust="spacingAndGlyphs" textLength="237.5">Local Service</text><rect style="stroke:#3498db;stroke-width:3.75" width="230" height="163.047" x="1907.5" y="645" fill="#EBF5FB"/><rect style="stroke:#3498db;stroke-width:3.75" width="37.5" height="25" x="2087.5" y="657.5" fill="#EBF5FB"/><rect style="stroke:#3498db;stroke-width:3.75" width="10" height="5" x="2082.5" y="662.5" fill="#EBF5FB"/><rect style="stroke:#3498db;stroke-width:3.75" width="10" height="5" x="2082.5" y="672.5" fill="#EBF5FB"/><text x="1945" y="731.333" fill="#000" font-family="sans-serif" font-size="35" lengthAdjust="spacingAndGlyphs" textLength="85">Local</text><text x="1945" y="775.356" fill="#000" font-family="sans-serif" font-size="35" lengthAdjust="spacingAndGlyphs" textLength="130">Plugin B</text><rect style="stroke:#3498db;stroke-width:3.75" width="250" height="163.047" x="1897.5" y="957.5" fill="#EBF5FB"/><rect style="stroke:#3498db;stroke-width:3.75" width="37.5" height="25" x="2097.5" y="970" fill="#EBF5FB"/><rect style="stroke:#3498db;stroke-width:3.75" width="10" height="5" x="2092.5" y="975" fill="#EBF5FB"/><rect style="stroke:#3498db;stroke-width:3.75" width="10" height="5" x="2092.5" y="985" fill="#EBF5FB"/><text x="1935" y="1043.833" fill="#000" font-family="sans-serif" font-size="35" lengthAdjust="spacingAndGlyphs" textLength="85">Local</text><text x="1935" y="1087.856" fill="#000" font-family="sans-serif" font-size="35" lengthAdjust="spacingAndGlyphs" textLength="150">Reader B</text><rect style="stroke:#8e44ad;stroke-width:3.75" width="232.5" height="163.047" x="2411.25" y="645" fill="#F4ECF7"/><rect style="stroke:#8e44ad;stroke-width:3.75" width="37.5" height="25" x="2593.75" y="657.5" fill="#F4ECF7"/><rect style="stroke:#8e44ad;stroke-width:3.75" width="10" height="5" x="2588.75" y="662.5" fill="#F4ECF7"/><rect style="stroke:#8e44ad;stroke-width:3.75" width="10" height="5" x="2588.75" y="672.5" fill="#F4ECF7"/><text x="2448.75" y="731.333" fill="#000" font-family="sans-serif" font-size="35" lengthAdjust="spacingAndGlyphs" textLength="85">Local</text><text x="2448.75" y="775.356" fill="#000" font-family="sans-serif" font-size="35" lengthAdjust="spacingAndGlyphs" textLength="132.5">Plugin C</text><rect style="stroke:#8e44ad;stroke-width:3.75" width="252.5" height="163.047" x="2401.25" y="957.5" fill="#F4ECF7"/><rect style="stroke:#8e44ad;stroke-width:3.75" width="37.5" height="25" x="2603.75" y="970" fill="#F4ECF7"/><rect style="stroke:#8e44ad;stroke-width:3.75" width="10" height="5" x="2598.75" y="975" fill="#F4ECF7"/><rect style="stroke:#8e44ad;stroke-width:3.75" width="10" height="5" x="2598.75" y="985" fill="#F4ECF7"/><text x="2438.75" y="1043.833" fill="#000" font-family="sans-serif" font-size="35" lengthAdjust="spacingAndGlyphs" textLength="85">Local</text><text x="2438.75" y="1087.856" fill="#000" font-family="sans-serif" font-size="35" lengthAdjust="spacingAndGlyphs" textLength="152.5">Reader C</text><rect style="stroke:#27ae60;stroke-width:3.75" width="410" height="163.047" x="192.5" y="1270" fill="#E9F7EF"/><rect style="stroke:#27ae60;stroke-width:3.75" width="37.5" height="25" x="552.5" y="1282.5" fill="#E9F7EF"/><rect style="stroke:#27ae60;stroke-width:3.75" width="10" height="5" x="547.5" y="1287.5" fill="#E9F7EF"/><rect style="stroke:#27ae60;stroke-width:3.75" width="10" height="5" x="547.5" y="1297.5" fill="#E9F7EF"/><text x="230" y="1356.333" fill="#000" font-family="sans-serif" font-size="35" lengthAdjust="spacingAndGlyphs" textLength="310">Hardware Reader A</text><text x="230" y="1400.356" fill="#000" font-family="sans-serif" font-size="35" lengthAdjust="spacingAndGlyphs" textLength="75">(PO)</text><rect style="stroke:#3498db;stroke-width:3.75" width="410" height="163.047" x="1817.5" y="1270" fill="#EBF5FB"/><rect style="stroke:#3498db;stroke-width:3.75" width="37.5" height="25" x="2177.5" y="1282.5" fill="#EBF5FB"/><rect style="stroke:#3498db;stroke-width:3.75" width="10" height="5" x="2172.5" y="1287.5" fill="#EBF5FB"/><rect style="stroke:#3498db;stroke-width:3.75" width="10" height="5" x="2172.5" y="1297.5" fill="#EBF5FB"/><text x="1855" y="1356.333" fill="#000" font-family="sans-serif" font-size="35" lengthAdjust="spacingAndGlyphs" textLength="310">Hardware Reader B</text><text x="1855" y="1400.356" fill="#000" font-family="sans-serif" font-size="35" lengthAdjust="spacingAndGlyphs" textLength="75">(PO)</text><rect style="stroke:#8e44ad;stroke-width:3.75" width="412.5" height="163.047" x="2321.25" y="1270" fill="#F4ECF7"/><rect style="stroke:#8e44ad;stroke-width:3.75" width="37.5" height="25" x="2683.75" y="1282.5" fill="#F4ECF7"/><rect style="stroke:#8e44ad;stroke-width:3.75" width="10" height="5" x="2678.75" y="1287.5" fill="#F4ECF7"/><rect style="stroke:#8e44ad;stroke-width:3.75" width="10" height="5" x="2678.75" y="1297.5" fill="#F4ECF7"/><text x="2358.75" y="1356.333" fill="#000" font-family="sans-serif" font-size="35" lengthAdjust="spacingAndGlyphs" textLength="312.5">Hardware Reader C</text><text x="2358.75" y="1400.356" fill="#000" font-family="sans-serif" font-size="35" lengthAdjust="spacingAndGlyphs" textLength="75">(PO)</text><path id="appA-localPluginA" fill="none" d="M471.175,225.845 C474.2625,291.63 476.2375,401.61 462.5,495 C455.05,545.65 439.565,600.9 425.58,644.4125" style="stroke:#d3d3d3;stroke-width:2.5"/><path id="appA-localReaderA" fill="none" d="M493.015,225.2 C543.46,348.02 643.7,642.465 555,867.5 C541.92,900.6825 518.9,931.1875 494.43,956.8675" style="stroke:#d3d3d3;stroke-width:2.5"/><path id="appA-localServiceA" fill="none" d="M420.305,225 C384.0725,269.145 334.25,329.8525 297.8525,374.195" style="stroke:#a80036;stroke-width:2.5"/><path id="localPluginA-localReaderA" fill="none" d="M397.5,807.94 C397.5,853.85 397.5,911.465 397.5,957.33" style="stroke:#27ae60;stroke-width:2.5"/><path id="localServiceA-localPluginA" fill="none" d="M279.85,495.4275 C301.905,538.2275 332.195,597.0125 356.5175,644.215" style="stroke:#27ae60;stroke-width:2.5"/><path id="localServiceA-localReaderA" fill="none" d="M234.185,495.675 C214.1183,580.7725 187.7123,742.6275 237.5,867.5 C250.8075,900.875 274.2,931.4425 299.0575,957.115" style="stroke:#27ae60;stroke-width:2.5"/><path id="localReaderA-readerA" fill="none" d="M397.5,1120.44 C397.5,1166.35 397.5,1223.9643 397.5,1269.8295" style="stroke:#27ae60;stroke-width:2.5"/><path id="localServiceA-remotePlugin" fill="none" d="M419.3425,435 C609.5475,435 799.7525,435 989.96,435" style="stroke:#a80036;stroke-width:2.5"/><path id="app-remotePlugin" fill="none" d="M1271.25,225 C1249.1775,269.145 1218.825,329.8525 1196.6525,374.195" style="stroke:#a80036;stroke-width:2.5"/><path id="app-remoteReaderA" fill="none" d="M1163.5825,215.355 C1088.045,248.715 998.81,300.705 945,375 C887.6025,454.2475 872.485,568.52 869.3225,644.3975" style="stroke:#d3d3d3;stroke-width:2.5"/><path id="app-remoteReaderB" fill="none" d="M1336.035,225.0525 C1372.625,291.055 1419.66,402.1275 1387.5,495 C1368.155,550.87 1328.8925,603.4525 1291.9625,644.0825" style="stroke:#d3d3d3;stroke-width:2.5"/><path id="app-remoteReaderC" fill="none" d="M1335.965,225.2225 C1360.645,266.1475 1393.1975,322.84 1417.5,375 C1459.5275,465.2 1498.035,573.0825 1522.0475,644.7325" style="stroke:#d3d3d3;stroke-width:2.5"/><path id="remotePlugin-remoteReaderA" fill="none" d="M1107.2975,495.4275 C1062.8125,538.2275 1001.7175,597.0125 952.66,644.215" style="stroke:#27ae60;stroke-width:2.5"/><path id="remotePlugin-remoteReaderB" fill="none" d="M1175.595,495.4275 C1181.575,538.2275 1189.79,597.0125 1196.385,644.215" style="stroke:#3498db;stroke-width:2.5"/><path id="remotePlugin-remoteReaderC" fill="none" d="M1244.3975,495.4275 C1301.435,538.3925 1379.8525,597.4625 1442.635,644.755" style="stroke:#8e44ad;stroke-width:2.5"/><path id="remotePlugin-localServiceB" fill="none" d="M1345.82,435 C1596.6425,435 1847.4625,435 2098.285,435" style="stroke:#a80036;stroke-width:2.5"/><path id="appB-localPluginB" fill="none" d="M2183.64,225.7075 C2137.375,262.745 2083.64,314.965 2055,375 C2014.155,460.62 2011.0225,571.395 2014.805,644.8725" style="stroke:#d3d3d3;stroke-width:2.5"/><path id="appB-localReaderB" fill="none" d="M2175.24,225.03 C2120.135,262.7225 2051.555,315.8575 2002.5,375 C1916.205,479.0425 1894.5225,513.675 1862.5,645 C1839.0725,741.075 1825.875,775.6425 1862.5,867.5 C1875.8075,900.875 1899.2,931.4425 1924.0575,957.115" style="stroke:#d3d3d3;stroke-width:2.5"/><path id="appB-localServiceB" fill="none" d="M2267.5,225 C2267.5,269.145 2267.5,329.8525 2267.5,374.195" style="stroke:#a80036;stroke-width:2.5"/><path id="localPluginB-localReaderB" fill="none" d="M2022.5,807.94 C2022.5,853.85 2022.5,911.465 2022.5,957.33" style="stroke:#3498db;stroke-width:2.5"/><path id="localServiceB-localPluginB" fill="none" d="M2217.92,495.4275 C2181.2875,538.2275 2130.9725,597.0125 2090.5725,644.215" style="stroke:#3498db;stroke-width:2.5"/><path id="localServiceB-localReaderB" fill="none" d="M2265.635,495.035 C2260.7525,580.725 2243.165,744.9275 2180,867.5 C2163.295,899.9175 2138.565,930.61 2113.625,956.71" style="stroke:#3498db;stroke-width:2.5"/><path id="localReaderB-readerB" fill="none" d="M2022.5,1120.44 C2022.5,1166.35 2022.5,1223.9643 2022.5,1269.8295" style="stroke:#3498db;stroke-width:2.5"/><path id="appB-localPluginC" fill="none" d="M2349.3575,225.305 C2395.535,262.5525 2449.86,315.125 2480,375 C2522.85,460.1475 2531.125,571.025 2531.05,644.655" style="stroke:#d3d3d3;stroke-width:2.5"/><path id="appB-localReaderC" fill="none" d="M2352.94,225.585 C2405.675,264.0625 2472.5525,317.8375 2522.5,375 C2615.025,480.9 2649.4,509.6225 2687.5,645 C2714.275,740.1925 2724.125,775.6425 2687.5,867.5 C2674.2,900.875 2650.8,931.4425 2625.95,957.115" style="stroke:#d3d3d3;stroke-width:2.5"/><path id="localServiceB-localPluginC" fill="none" d="M2320.115,495.4275 C2358.9925,538.2275 2412.385,597.0125 2455.26,644.215" style="stroke:#8e44ad;stroke-width:2.5"/><path id="localServiceB-localReaderC" fill="none" d="M2271.295,495.14 C2278.995,580.965 2301.765,745.335 2367.5,867.5 C2385.1,900.2075 2410.7125,931.2025 2436.3075,957.4875" style="stroke:#8e44ad;stroke-width:2.5"/><path id="localPluginC-localReaderC" fill="none" d="M2527.5,807.94 C2527.5,853.85 2527.5,911.465 2527.5,957.33" style="stroke:#8e44ad;stroke-width:2.5"/><path id="localReaderC-readerC" fill="none" d="M2527.5,1120.44 C2527.5,1166.35 2527.5,1223.9643 2527.5,1269.8295" style="stroke:#8e44ad;stroke-width:2.5"/><text x="802.5" y="1471.499" fill="#888" font-family="sans-serif" font-size="25" lengthAdjust="spacingAndGlyphs" textLength="1182.5">Keyple Distributed - Concepts - One Remote Plugin connected to many Local Services (03/11/2020)</text></g></svg>