<svg xmlns="http://www.w3.org/2000/svg" xmlns:xlink="http://www.w3.org/1999/xlink" width="2425" height="637.5" contentScriptType="application/ecmascript" contentStyleType="text/css" style="width:2425px;height:637px" preserveAspectRatio="none" version="1.1" viewBox="0 0 2425 637" zoomAndPan="magnify"><g><polygon fill="#FFF" points="475 15 990 15 1007.5 74.023 1550 74.023 1550 577.5 475 577.5 475 15" style="stroke:#000;stroke-width:3.75"/><line style="stroke:#000;stroke-width:3.75" x1="475" x2="1007.5" y1="74.023" y2="74.023"/><text x="485" y="56.333" fill="#000" font-family="sans-serif" font-size="35" font-weight="bold" lengthAdjust="spacingAndGlyphs" textLength="500">Terminal A with &apos;local&apos; reader</text><polygon fill="#FFF" points="1610 15 2170 15 2187.5 74.023 2382.5 74.023 2382.5 577.5 1610 577.5 1610 15" style="stroke:#000;stroke-width:3.75"/><line style="stroke:#000;stroke-width:3.75" x1="1610" x2="2187.5" y1="74.023" y2="74.023"/><text x="1620" y="56.333" fill="#000" font-family="sans-serif" font-size="35" font-weight="bold" lengthAdjust="spacingAndGlyphs" textLength="545">Terminal B with &apos;remote&apos; reader</text><rect style="stroke:#d4ac0d;stroke-width:3.75" width="272.5" height="119.023" x="831.25" y="105" fill="#FEFECE"/><rect style="stroke:#d4ac0d;stroke-width:3.75" width="37.5" height="25" x="1053.75" y="117.5" fill="#FEFECE"/><rect style="stroke:#d4ac0d;stroke-width:3.75" width="10" height="5" x="1048.75" y="122.5" fill="#FEFECE"/><rect style="stroke:#d4ac0d;stroke-width:3.75" width="10" height="5" x="1048.75" y="132.5" fill="#FEFECE"/><text x="868.75" y="191.333" fill="#000" font-family="sans-serif" font-size="35" lengthAdjust="spacingAndGlyphs" textLength="172.5">Application</text><rect style="stroke:#e74c3c;stroke-width:3.75" width="337.5" height="119.023" x="1171.25" y="396.25" fill="#FDEDEC"/><rect style="stroke:#e74c3c;stroke-width:3.75" width="37.5" height="25" x="1458.75" y="408.75" fill="#FDEDEC"/><rect style="stroke:#e74c3c;stroke-width:3.75" width="10" height="5" x="1453.75" y="413.75" fill="#FDEDEC"/><rect style="stroke:#e74c3c;stroke-width:3.75" width="10" height="5" x="1453.75" y="423.75" fill="#FDEDEC"/><text x="1208.75" y="482.583" fill="#000" font-family="sans-serif" font-size="35" font-weight="bold" lengthAdjust="spacingAndGlyphs" textLength="237.5">Local Service</text><rect style="stroke:#27ae60;stroke-width:3.75" width="230" height="163.047" x="852.5" y="375" fill="#E9F7EF"/><rect style="stroke:#27ae60;stroke-width:3.75" width="37.5" height="25" x="1032.5" y="387.5" fill="#E9F7EF"/><rect style="stroke:#27ae60;stroke-width:3.75" width="10" height="5" x="1027.5" y="392.5" fill="#E9F7EF"/><rect style="stroke:#27ae60;stroke-width:3.75" width="10" height="5" x="1027.5" y="402.5" fill="#E9F7EF"/><text x="890" y="461.333" fill="#000" font-family="sans-serif" font-size="35" lengthAdjust="spacingAndGlyphs" textLength="85">Local</text><text x="890" y="505.356" fill="#000" font-family="sans-serif" font-size="35" lengthAdjust="spacingAndGlyphs" textLength="130">Plugin A</text><rect style="stroke:#27ae60;stroke-width:3.75" width="250" height="163.047" x="515" y="375" fill="#E9F7EF"/><rect style="stroke:#27ae60;stroke-width:3.75" width="37.5" height="25" x="715" y="387.5" fill="#E9F7EF"/><rect style="stroke:#27ae60;stroke-width:3.75" width="10" height="5" x="710" y="392.5" fill="#E9F7EF"/><rect style="stroke:#27ae60;stroke-width:3.75" width="10" height="5" x="710" y="402.5" fill="#E9F7EF"/><text x="552.5" y="461.333" fill="#000" font-family="sans-serif" font-size="35" lengthAdjust="spacingAndGlyphs" textLength="85">Local</text><text x="552.5" y="505.356" fill="#000" font-family="sans-serif" font-size="35" lengthAdjust="spacingAndGlyphs" textLength="150">Reader A</text><rect style="stroke:#d4ac0d;stroke-width:3.75" width="272.5" height="119.023" x="1878.75" y="105" fill="#FEFECE"/><rect style="stroke:#d4ac0d;stroke-width:3.75" width="37.5" height="25" x="2101.25" y="117.5" fill="#FEFECE"/><rect style="stroke:#d4ac0d;stroke-width:3.75" width="10" height="5" x="2096.25" y="122.5" fill="#FEFECE"/><rect style="stroke:#d4ac0d;stroke-width:3.75" width="10" height="5" x="2096.25" y="132.5" fill="#FEFECE"/><text x="1916.25" y="191.333" fill="#000" font-family="sans-serif" font-size="35" lengthAdjust="spacingAndGlyphs" textLength="172.5">Application</text><rect style="stroke:#e74c3c;stroke-width:3.75" width="355" height="119.023" x="1650" y="396.25" fill="#FDEDEC"/><rect style="stroke:#e74c3c;stroke-width:3.75" width="37.5" height="25" x="1955" y="408.75" fill="#FDEDEC"/><rect style="stroke:#e74c3c;stroke-width:3.75" width="10" height="5" x="1950" y="413.75" fill="#FDEDEC"/><rect style="stroke:#e74c3c;stroke-width:3.75" width="10" height="5" x="1950" y="423.75" fill="#FDEDEC"/><text x="1687.5" y="482.583" fill="#000" font-family="sans-serif" font-size="35" font-weight="bold" lengthAdjust="spacingAndGlyphs" textLength="255">Remote Plugin</text><rect style="stroke:#27ae60;stroke-width:3.75" width="250" height="163.047" x="2092.5" y="375" fill="#E9F7EF"/><rect style="stroke:#27ae60;stroke-width:3.75" width="37.5" height="25" x="2292.5" y="387.5" fill="#E9F7EF"/><rect style="stroke:#27ae60;stroke-width:3.75" width="10" height="5" x="2287.5" y="392.5" fill="#E9F7EF"/><rect style="stroke:#27ae60;stroke-width:3.75" width="10" height="5" x="2287.5" y="402.5" fill="#E9F7EF"/><text x="2130" y="461.333" fill="#000" font-family="sans-serif" font-size="35" lengthAdjust="spacingAndGlyphs" textLength="122.5">Remote</text><text x="2130" y="505.356" fill="#000" font-family="sans-serif" font-size="35" lengthAdjust="spacingAndGlyphs" textLength="150">Reader A</text><rect style="stroke:#27ae60;stroke-width:3.75" width="410" height="163.047" x="17.5" y="375" fill="#E9F7EF"/><rect style="stroke:#27ae60;stroke-width:3.75" width="37.5" height="25" x="377.5" y="387.5" fill="#E9F7EF"/><rect style="stroke:#27ae60;stroke-width:3.75" width="10" height="5" x="372.5" y="392.5" fill="#E9F7EF"/><rect style="stroke:#27ae60;stroke-width:3.75" width="10" height="5" x="372.5" y="402.5" fill="#E9F7EF"/><text x="55" y="461.333" fill="#000" font-family="sans-serif" font-size="35" lengthAdjust="spacingAndGlyphs" textLength="310">Hardware Reader A</text><text x="55" y="505.356" fill="#000" font-family="sans-serif" font-size="35" lengthAdjust="spacingAndGlyphs" textLength="300">(PO, SAM, HSM,...)</text><path id="appA-localPluginA" fill="none" d="M967.5,225.4275 C967.5,268.2275 967.5,327.0125 967.5,374.2155" style="stroke:#d3d3d3;stroke-width:2.5"/><path id="appA-localReaderA" fill="none" d="M901.225,225.4275 C852.255,268.2275 785,327.0125 730.995,374.2155" style="stroke:#d3d3d3;stroke-width:2.5"/><path id="appA-localServiceA" fill="none" d="M1042.88,225.4275 C1107.5075,275.09 1200.1375,346.27 1264.73,395.9093" style="stroke:#a80036;stroke-width:2.5"/><path id="localReaderA-localPluginA" fill="none" d="M765.37,456.25 C794.3225,456.25 823.2725,456.25 852.2225,456.25" style="stroke:#27ae60;stroke-width:2.5"/><path id="localPluginA-localServiceA" fill="none" d="M1083.1775,456.25 C1112.2725,456.25 1141.365,456.25 1170.4575,456.25" style="stroke:#27ae60;stroke-width:2.5"/><path id="localReaderA-localServiceA" fill="none" d="M724.275,374.6013 C760.3825,345.085 804.8925,315.28 851.25,300 C948.3325,267.9975 982.775,272.5725 1081.25,300 C1148.485,318.725 1215.7,360.1675 1264.765,395.669" style="stroke:#27ae60;stroke-width:2.5"/><path id="readerA-localReaderA" fill="none" d="M427.9875,456.25 C456.975,456.25 485.96,456.25 514.945,456.25" style="stroke:#27ae60;stroke-width:2.5"/><path id="localServiceA-remotePlugin" fill="none" d="M1509.4825,497.0725 C1556.275,502.3365 1603.065,502.6258 1649.8575,497.94" style="stroke:#a80036;stroke-width:2.5"/><path id="app-remotePlugin" fill="none" d="M1977.0575,225.4275 C1944.525,275.09 1897.9,346.27 1865.3875,395.9093" style="stroke:#a80036;stroke-width:2.5"/><path id="app-remoteReaderA" fill="none" d="M2055.98,225.4275 C2086.2575,268.2275 2127.8425,327.0125 2161.235,374.2155" style="stroke:#d3d3d3;stroke-width:2.5"/><path id="remotePlugin-remoteReaderA" fill="none" d="M2005.7425,456.25 C2034.4175,456.25 2063.0925,456.25 2091.77,456.25" style="stroke:#27ae60;stroke-width:2.5"/><text x="845" y="618.452" fill="#888" font-family="sans-serif" font-size="25" lengthAdjust="spacingAndGlyphs" textLength="702.5">Keyple Distributed - Concepts - Main Use Case (03/11/2020)</text></g></svg>