<svg xmlns="http://www.w3.org/2000/svg" xmlns:xlink="http://www.w3.org/1999/xlink" width="2687.5" height="1535" contentScriptType="application/ecmascript" contentStyleType="text/css" style="width:2687px;height:1535px" preserveAspectRatio="none" version="1.1" viewBox="0 0 2687 1535" zoomAndPan="magnify"><g><polygon fill="#FFF" points="40 15 800 15 817.5 74.023 977.5 74.023 977.5 890 40 890 40 15" style="stroke:#000;stroke-width:3.75"/><line style="stroke:#000;stroke-width:3.75" x1="40" x2="817.5" y1="74.023" y2="74.023"/><text x="50" y="56.333" fill="#000" font-family="sans-serif" font-size="35" font-weight="bold" lengthAdjust="spacingAndGlyphs" textLength="745">Terminal A with &apos;local&apos; and &apos;remote&apos; readers</text><polygon fill="#FFF" points="1037.5 15 1555 15 1572.5 74.023 1642.5 74.023 1642.5 1202.5 1037.5 1202.5 1037.5 15" style="stroke:#000;stroke-width:3.75"/><line style="stroke:#000;stroke-width:3.75" x1="1037.5" x2="1572.5" y1="74.023" y2="74.023"/><text x="1047.5" y="56.333" fill="#000" font-family="sans-serif" font-size="35" font-weight="bold" lengthAdjust="spacingAndGlyphs" textLength="502.5">Terminal B with &apos;local&apos; reader</text><polygon fill="#FFF" points="1702.5 15 2465 15 2482.5 74.023 2645 74.023 2645 890 1702.5 890 1702.5 15" style="stroke:#000;stroke-width:3.75"/><line style="stroke:#000;stroke-width:3.75" x1="1702.5" x2="2482.5" y1="74.023" y2="74.023"/><text x="1712.5" y="56.333" fill="#000" font-family="sans-serif" font-size="35" font-weight="bold" lengthAdjust="spacingAndGlyphs" textLength="747.5">Terminal C with &apos;local&apos; and &apos;remote&apos; readers</text><rect style="stroke:#d4ac0d;stroke-width:3.75" width="272.5" height="119.023" x="491.25" y="105" fill="#FEFECE"/><rect style="stroke:#d4ac0d;stroke-width:3.75" width="37.5" height="25" x="713.75" y="117.5" fill="#FEFECE"/><rect style="stroke:#d4ac0d;stroke-width:3.75" width="10" height="5" x="708.75" y="122.5" fill="#FEFECE"/><rect style="stroke:#d4ac0d;stroke-width:3.75" width="10" height="5" x="708.75" y="132.5" fill="#FEFECE"/><text x="528.75" y="191.333" fill="#000" font-family="sans-serif" font-size="35" lengthAdjust="spacingAndGlyphs" textLength="172.5">Application</text><rect style="stroke:#e74c3c;stroke-width:3.75" width="355" height="119.023" x="80" y="396.25" fill="#FDEDEC"/><rect style="stroke:#e74c3c;stroke-width:3.75" width="37.5" height="25" x="385" y="408.75" fill="#FDEDEC"/><rect style="stroke:#e74c3c;stroke-width:3.75" width="10" height="5" x="380" y="413.75" fill="#FDEDEC"/><rect style="stroke:#e74c3c;stroke-width:3.75" width="10" height="5" x="380" y="423.75" fill="#FDEDEC"/><text x="117.5" y="482.583" fill="#000" font-family="sans-serif" font-size="35" font-weight="bold" lengthAdjust="spacingAndGlyphs" textLength="255">Remote Plugin</text><rect style="stroke:#3498db;stroke-width:3.75" width="250" height="163.047" x="215" y="687.5" fill="#EBF5FB"/><rect style="stroke:#3498db;stroke-width:3.75" width="37.5" height="25" x="415" y="700" fill="#EBF5FB"/><rect style="stroke:#3498db;stroke-width:3.75" width="10" height="5" x="410" y="705" fill="#EBF5FB"/><rect style="stroke:#3498db;stroke-width:3.75" width="10" height="5" x="410" y="715" fill="#EBF5FB"/><text x="252.5" y="773.833" fill="#000" font-family="sans-serif" font-size="35" lengthAdjust="spacingAndGlyphs" textLength="122.5">Remote</text><text x="252.5" y="817.856" fill="#000" font-family="sans-serif" font-size="35" lengthAdjust="spacingAndGlyphs" textLength="150">Reader B</text><rect style="stroke:#27ae60;stroke-width:3.75" width="230" height="163.047" x="615" y="375" fill="#E9F7EF"/><rect style="stroke:#27ae60;stroke-width:3.75" width="37.5" height="25" x="795" y="387.5" fill="#E9F7EF"/><rect style="stroke:#27ae60;stroke-width:3.75" width="10" height="5" x="790" y="392.5" fill="#E9F7EF"/><rect style="stroke:#27ae60;stroke-width:3.75" width="10" height="5" x="790" y="402.5" fill="#E9F7EF"/><text x="652.5" y="461.333" fill="#000" font-family="sans-serif" font-size="35" lengthAdjust="spacingAndGlyphs" textLength="85">Local</text><text x="652.5" y="505.356" fill="#000" font-family="sans-serif" font-size="35" lengthAdjust="spacingAndGlyphs" textLength="130">Plugin A</text><rect style="stroke:#27ae60;stroke-width:3.75" width="250" height="163.047" x="635" y="687.5" fill="#E9F7EF"/><rect style="stroke:#27ae60;stroke-width:3.75" width="37.5" height="25" x="835" y="700" fill="#E9F7EF"/><rect style="stroke:#27ae60;stroke-width:3.75" width="10" height="5" x="830" y="705" fill="#E9F7EF"/><rect style="stroke:#27ae60;stroke-width:3.75" width="10" height="5" x="830" y="715" fill="#E9F7EF"/><text x="672.5" y="773.833" fill="#000" font-family="sans-serif" font-size="35" lengthAdjust="spacingAndGlyphs" textLength="85">Local</text><text x="672.5" y="817.856" fill="#000" font-family="sans-serif" font-size="35" lengthAdjust="spacingAndGlyphs" textLength="150">Reader A</text><rect style="stroke:#d4ac0d;stroke-width:3.75" width="272.5" height="119.023" x="1328.75" y="105" fill="#FEFECE"/><rect style="stroke:#d4ac0d;stroke-width:3.75" width="37.5" height="25" x="1551.25" y="117.5" fill="#FEFECE"/><rect style="stroke:#d4ac0d;stroke-width:3.75" width="10" height="5" x="1546.25" y="122.5" fill="#FEFECE"/><rect style="stroke:#d4ac0d;stroke-width:3.75" width="10" height="5" x="1546.25" y="132.5" fill="#FEFECE"/><text x="1366.25" y="191.333" fill="#000" font-family="sans-serif" font-size="35" lengthAdjust="spacingAndGlyphs" textLength="172.5">Application</text><rect style="stroke:#e74c3c;stroke-width:3.75" width="337.5" height="119.023" x="1078.75" y="396.25" fill="#FDEDEC"/><rect style="stroke:#e74c3c;stroke-width:3.75" width="37.5" height="25" x="1366.25" y="408.75" fill="#FDEDEC"/><rect style="stroke:#e74c3c;stroke-width:3.75" width="10" height="5" x="1361.25" y="413.75" fill="#FDEDEC"/><rect style="stroke:#e74c3c;stroke-width:3.75" width="10" height="5" x="1361.25" y="423.75" fill="#FDEDEC"/><text x="1116.25" y="482.583" fill="#000" font-family="sans-serif" font-size="35" font-weight="bold" lengthAdjust="spacingAndGlyphs" textLength="237.5">Local Service</text><rect style="stroke:#3498db;stroke-width:3.75" width="230" height="163.047" x="1280" y="687.5" fill="#EBF5FB"/><rect style="stroke:#3498db;stroke-width:3.75" width="37.5" height="25" x="1460" y="700" fill="#EBF5FB"/><rect style="stroke:#3498db;stroke-width:3.75" width="10" height="5" x="1455" y="705" fill="#EBF5FB"/><rect style="stroke:#3498db;stroke-width:3.75" width="10" height="5" x="1455" y="715" fill="#EBF5FB"/><text x="1317.5" y="773.833" fill="#000" font-family="sans-serif" font-size="35" lengthAdjust="spacingAndGlyphs" textLength="85">Local</text><text x="1317.5" y="817.856" fill="#000" font-family="sans-serif" font-size="35" lengthAdjust="spacingAndGlyphs" textLength="130">Plugin B</text><rect style="stroke:#3498db;stroke-width:3.75" width="250" height="163.047" x="1270" y="1000" fill="#EBF5FB"/><rect style="stroke:#3498db;stroke-width:3.75" width="37.5" height="25" x="1470" y="1012.5" fill="#EBF5FB"/><rect style="stroke:#3498db;stroke-width:3.75" width="10" height="5" x="1465" y="1017.5" fill="#EBF5FB"/><rect style="stroke:#3498db;stroke-width:3.75" width="10" height="5" x="1465" y="1027.5" fill="#EBF5FB"/><text x="1307.5" y="1086.333" fill="#000" font-family="sans-serif" font-size="35" lengthAdjust="spacingAndGlyphs" textLength="85">Local</text><text x="1307.5" y="1130.356" fill="#000" font-family="sans-serif" font-size="35" lengthAdjust="spacingAndGlyphs" textLength="150">Reader B</text><rect style="stroke:#d4ac0d;stroke-width:3.75" width="272.5" height="119.023" x="2153.75" y="105" fill="#FEFECE"/><rect style="stroke:#d4ac0d;stroke-width:3.75" width="37.5" height="25" x="2376.25" y="117.5" fill="#FEFECE"/><rect style="stroke:#d4ac0d;stroke-width:3.75" width="10" height="5" x="2371.25" y="122.5" fill="#FEFECE"/><rect style="stroke:#d4ac0d;stroke-width:3.75" width="10" height="5" x="2371.25" y="132.5" fill="#FEFECE"/><text x="2191.25" y="191.333" fill="#000" font-family="sans-serif" font-size="35" lengthAdjust="spacingAndGlyphs" textLength="172.5">Application</text><rect style="stroke:#e74c3c;stroke-width:3.75" width="355" height="119.023" x="1742.5" y="396.25" fill="#FDEDEC"/><rect style="stroke:#e74c3c;stroke-width:3.75" width="37.5" height="25" x="2047.5" y="408.75" fill="#FDEDEC"/><rect style="stroke:#e74c3c;stroke-width:3.75" width="10" height="5" x="2042.5" y="413.75" fill="#FDEDEC"/><rect style="stroke:#e74c3c;stroke-width:3.75" width="10" height="5" x="2042.5" y="423.75" fill="#FDEDEC"/><text x="1780" y="482.583" fill="#000" font-family="sans-serif" font-size="35" font-weight="bold" lengthAdjust="spacingAndGlyphs" textLength="255">Remote Plugin</text><rect style="stroke:#3498db;stroke-width:3.75" width="250" height="163.047" x="1882.5" y="687.5" fill="#EBF5FB"/><rect style="stroke:#3498db;stroke-width:3.75" width="37.5" height="25" x="2082.5" y="700" fill="#EBF5FB"/><rect style="stroke:#3498db;stroke-width:3.75" width="10" height="5" x="2077.5" y="705" fill="#EBF5FB"/><rect style="stroke:#3498db;stroke-width:3.75" width="10" height="5" x="2077.5" y="715" fill="#EBF5FB"/><text x="1920" y="773.833" fill="#000" font-family="sans-serif" font-size="35" lengthAdjust="spacingAndGlyphs" textLength="122.5">Remote</text><text x="1920" y="817.856" fill="#000" font-family="sans-serif" font-size="35" lengthAdjust="spacingAndGlyphs" textLength="150">Reader B</text><rect style="stroke:#8e44ad;stroke-width:3.75" width="232.5" height="163.047" x="2278.75" y="375" fill="#F4ECF7"/><rect style="stroke:#8e44ad;stroke-width:3.75" width="37.5" height="25" x="2461.25" y="387.5" fill="#F4ECF7"/><rect style="stroke:#8e44ad;stroke-width:3.75" width="10" height="5" x="2456.25" y="392.5" fill="#F4ECF7"/><rect style="stroke:#8e44ad;stroke-width:3.75" width="10" height="5" x="2456.25" y="402.5" fill="#F4ECF7"/><text x="2316.25" y="461.333" fill="#000" font-family="sans-serif" font-size="35" lengthAdjust="spacingAndGlyphs" textLength="85">Local</text><text x="2316.25" y="505.356" fill="#000" font-family="sans-serif" font-size="35" lengthAdjust="spacingAndGlyphs" textLength="132.5">Plugin C</text><rect style="stroke:#8e44ad;stroke-width:3.75" width="252.5" height="163.047" x="2308.75" y="687.5" fill="#F4ECF7"/><rect style="stroke:#8e44ad;stroke-width:3.75" width="37.5" height="25" x="2511.25" y="700" fill="#F4ECF7"/><rect style="stroke:#8e44ad;stroke-width:3.75" width="10" height="5" x="2506.25" y="705" fill="#F4ECF7"/><rect style="stroke:#8e44ad;stroke-width:3.75" width="10" height="5" x="2506.25" y="715" fill="#F4ECF7"/><text x="2346.25" y="773.833" fill="#000" font-family="sans-serif" font-size="35" lengthAdjust="spacingAndGlyphs" textLength="85">Local</text><text x="2346.25" y="817.856" fill="#000" font-family="sans-serif" font-size="35" lengthAdjust="spacingAndGlyphs" textLength="152.5">Reader C</text><rect style="stroke:#27ae60;stroke-width:3.75" width="410" height="163.047" x="555" y="1000" fill="#E9F7EF"/><rect style="stroke:#27ae60;stroke-width:3.75" width="37.5" height="25" x="915" y="1012.5" fill="#E9F7EF"/><rect style="stroke:#27ae60;stroke-width:3.75" width="10" height="5" x="910" y="1017.5" fill="#E9F7EF"/><rect style="stroke:#27ae60;stroke-width:3.75" width="10" height="5" x="910" y="1027.5" fill="#E9F7EF"/><text x="592.5" y="1086.333" fill="#000" font-family="sans-serif" font-size="35" lengthAdjust="spacingAndGlyphs" textLength="310">Hardware Reader A</text><text x="592.5" y="1130.356" fill="#000" font-family="sans-serif" font-size="35" lengthAdjust="spacingAndGlyphs" textLength="75">(PO)</text><rect style="stroke:#3498db;stroke-width:3.75" width="410" height="163.047" x="1190" y="1312.5" fill="#EBF5FB"/><rect style="stroke:#3498db;stroke-width:3.75" width="37.5" height="25" x="1550" y="1325" fill="#EBF5FB"/><rect style="stroke:#3498db;stroke-width:3.75" width="10" height="5" x="1545" y="1330" fill="#EBF5FB"/><rect style="stroke:#3498db;stroke-width:3.75" width="10" height="5" x="1545" y="1340" fill="#EBF5FB"/><text x="1227.5" y="1398.833" fill="#000" font-family="sans-serif" font-size="35" lengthAdjust="spacingAndGlyphs" textLength="310">Hardware Reader B</text><text x="1227.5" y="1442.856" fill="#000" font-family="sans-serif" font-size="35" lengthAdjust="spacingAndGlyphs" textLength="97.5">(SAM)</text><rect style="stroke:#8e44ad;stroke-width:3.75" width="412.5" height="163.047" x="2228.75" y="1000" fill="#F4ECF7"/><rect style="stroke:#8e44ad;stroke-width:3.75" width="37.5" height="25" x="2591.25" y="1012.5" fill="#F4ECF7"/><rect style="stroke:#8e44ad;stroke-width:3.75" width="10" height="5" x="2586.25" y="1017.5" fill="#F4ECF7"/><rect style="stroke:#8e44ad;stroke-width:3.75" width="10" height="5" x="2586.25" y="1027.5" fill="#F4ECF7"/><text x="2266.25" y="1086.333" fill="#000" font-family="sans-serif" font-size="35" lengthAdjust="spacingAndGlyphs" textLength="312.5">Hardware Reader C</text><text x="2266.25" y="1130.356" fill="#000" font-family="sans-serif" font-size="35" lengthAdjust="spacingAndGlyphs" textLength="75">(PO)</text><path id="appA-remotePluginA" fill="none" d="M552.625,225.4275 C488.4325,275.09 396.425,346.27 332.2625,395.91" style="stroke:#a80036;stroke-width:2.5"/><path id="appA-remoteReaderA" fill="none" d="M607.3175,225.13 C580.745,298.965 531.0775,430.2225 477.5,537.5 C452.035,588.4875 419.2975,643.2875 392.1575,686.4625" style="stroke:#d3d3d3;stroke-width:2.5"/><path id="appA-localPluginA" fill="none" d="M648.2425,225.4275 C663.57,268.2275 684.6175,327.0125 701.52,374.215" style="stroke:#d3d3d3;stroke-width:2.5"/><path id="appA-localReaderA" fill="none" d="M739.4925,225.07 C794.9675,260.1825 856.565,310.735 887.5,375 C937.3875,478.64 874.095,606.6675 820.2525,687.4175" style="stroke:#d3d3d3;stroke-width:2.5"/><path id="remotePluginA-remoteReaderA" fill="none" d="M273.0175,516.5875 C285.9,564.605 304.3575,633.4025 318.6375,686.6225" style="stroke:#3498db;stroke-width:2.5"/><path id="localPluginA-localReaderA" fill="none" d="M737.725,537.94 C742.205,583.85 747.825,641.465 752.3,687.33" style="stroke:#27ae60;stroke-width:2.5"/><path id="localReaderA-readerA" fill="none" d="M760,850.44 C760,896.35 760,953.965 760,999.83" style="stroke:#27ae60;stroke-width:2.5"/><path id="remotePluginA-localServiceB" fill="none" d="M363.535,395.865 C432.4175,360.1975 525.5075,318.5 613.75,300 C752.945,270.8175 795.3075,267.435 933.75,300 C1012.8275,318.6025 1094.7525,360.2925 1155.0525,395.935" style="stroke:#a80036;stroke-width:2.5"/><path id="appB-localServiceB" fill="none" d="M1420.985,225.4275 C1383.25,275.09 1329.165,346.27 1291.45,395.91" style="stroke:#a80036;stroke-width:2.5"/><path id="appB-localPluginB" fill="none" d="M1468.9025,225.5525 C1472.7475,298.725 1475.985,428.1675 1460,537.5 C1452.5925,588.155 1437.1125,643.4075 1423.115,686.92" style="stroke:#d3d3d3;stroke-width:2.5"/><path id="appB-localReaderB" fill="none" d="M1490.17,225.7975 C1541.8075,354.325 1647.22,669.695 1552.5,910 C1539.42,943.1825 1516.4,973.6875 1491.93,999.3675" style="stroke:#d3d3d3;stroke-width:2.5"/><path id="localServiceB-localPluginB" fill="none" d="M1275.2425,516.5875 C1298.275,564.605 1331.2775,633.4025 1356.805,686.6225" style="stroke:#3498db;stroke-width:2.5"/><path id="localServiceB-localReaderB" fill="none" d="M1231.7275,516.855 C1210.7775,605.325 1182.1725,777.505 1235,910 C1248.3075,943.375 1271.7,973.9425 1296.5575,999.615" style="stroke:#3498db;stroke-width:2.5"/><path id="localPluginB-localReaderB" fill="none" d="M1395,850.44 C1395,896.35 1395,953.965 1395,999.83" style="stroke:#3498db;stroke-width:2.5"/><path id="localReaderB-readerB" fill="none" d="M1395,1162.94 C1395,1208.85 1395,1266.4643 1395,1312.3295" style="stroke:#3498db;stroke-width:2.5"/><path id="localServiceB-remotePluginC" fill="none" d="M1416.2825,456.25 C1524.83,456.25 1633.38,456.25 1741.9275,456.25" style="stroke:#a80036;stroke-width:2.5"/><path id="appC-remotePluginC" fill="none" d="M2215.125,225.4275 C2150.9325,275.09 2058.925,346.27 1994.7625,395.91" style="stroke:#a80036;stroke-width:2.5"/><path id="appC-remoteReaderC" fill="none" d="M2269.31,225.635 C2242.39,299.4425 2192.555,430.1025 2140,537.5 C2114.985,588.6175 2083.1175,643.885 2056.9025,687.2875" style="stroke:#d3d3d3;stroke-width:2.5"/><path id="appC-localPluginC" fill="none" d="M2311.2475,225.4275 C2326.9475,268.2275 2348.5125,327.0125 2365.825,374.215" style="stroke:#d3d3d3;stroke-width:2.5"/><path id="appC-localReaderC" fill="none" d="M2404.775,225.005 C2461.1225,259.96 2523.525,310.385 2555,375 C2605.1,477.8375 2544.725,606.0725 2493.005,687.0875" style="stroke:#d3d3d3;stroke-width:2.5"/><path id="remotePluginC-remoteReaderC" fill="none" d="M1936.4575,516.5875 C1950.1225,564.605 1969.6975,633.4025 1984.8425,686.6225" style="stroke:#3498db;stroke-width:2.5"/><path id="localPluginC-localReaderC" fill="none" d="M2405.3,537.94 C2411.2725,583.85 2418.7675,641.465 2424.735,687.33" style="stroke:#8e44ad;stroke-width:2.5"/><path id="localReaderC-readerC" fill="none" d="M2435,850.44 C2435,896.35 2435,953.965 2435,999.83" style="stroke:#8e44ad;stroke-width:2.5"/><text x="738.75" y="1513.999" fill="#888" font-family="sans-serif" font-size="25" lengthAdjust="spacingAndGlyphs" textLength="1177.5">Keyple Distributed - Concepts - Many Remote Plugins connected to one Local Service (30/10/2020)</text></g></svg>