<svg xmlns="http://www.w3.org/2000/svg" xmlns:xlink="http://www.w3.org/1999/xlink" width="770" height="1242" contentScriptType="application/ecmascript" contentStyleType="text/css" style="width:770px;height:1242px" preserveAspectRatio="none" version="1.1" viewBox="0 0 770 1242" zoomAndPan="magnify"><g><text x="127.5" y="17.402" fill="#000" font-family="sans-serif" font-size="18" lengthAdjust="spacingAndGlyphs" textLength="527">Keyple Plugin - Abstract Reader classes- 1.0.0 (10/11/2020)</text><polygon fill="#FFF" points="22 93.199 237 93.199 244 115.688 748 115.688 748 1230.199 22 1230.199 22 93.199" style="stroke:#000;stroke-width:1.5"/><line style="stroke:#000;stroke-width:1.5" x1="22" x2="244" y1="115.688" y2="115.688"/><text x="26" y="108.734" fill="#000" font-family="sans-serif" font-size="14" font-weight="bold" lengthAdjust="spacingAndGlyphs" textLength="209">org.eclipse.keyple.core.plugin</text><polygon fill="#FFF" points="46 136.199 97 136.199 104 158.688 724 158.688 724 1206.199 46 1206.199 46 136.199" style="stroke:#000;stroke-width:1.5"/><line style="stroke:#000;stroke-width:1.5" x1="46" x2="104" y1="158.688" y2="158.688"/><text x="50" y="151.734" fill="#000" font-family="sans-serif" font-size="14" font-weight="bold" lengthAdjust="spacingAndGlyphs" textLength="45">reader</text><rect id="AbstractReader" width="645" height="203.461" x="62.5" y="171.199" fill="#FEFECE" style="stroke:#d4ac0d;stroke-width:1.5"/><ellipse cx="330.25" cy="187.199" fill="#A9DCDF" rx="11" ry="11" style="stroke:#a9dcdf;stroke-width:1"/><path d="M330.3633,182.7974 L329.2095,187.8691 L331.5254,187.8691 Z M328.8691,180.5562 L331.8657,180.5562 L335.2109,192.9492 L332.7622,192.9492 L331.9985,189.8862 L328.7197,189.8862 L327.9727,192.9492 L325.5239,192.9492 Z"/><ellipse cx="355.75" cy="186.699" fill="#84BE84" rx="3" ry="3" style="stroke:#038048;stroke-width:1"/><text x="361.75" y="191.734" fill="#000" font-family="sans-serif" font-size="12" font-style="italic" lengthAdjust="spacingAndGlyphs" textLength="90">AbstractReader</text><line style="stroke:#d4ac0d;stroke-width:1.5" x1="63.5" x2="706.5" y1="203.199" y2="203.199"/><line style="stroke:#d4ac0d;stroke-width:1.5" x1="63.5" x2="706.5" y1="211.199" y2="211.199"/><ellipse cx="73.5" cy="222.199" fill="#84BE84" rx="3" ry="3" style="stroke:#038048;stroke-width:1"/><text x="82.5" y="225.834" fill="#000" font-family="sans-serif" font-size="11" lengthAdjust="spacingAndGlyphs" textLength="90">String getName()</text><ellipse cx="73.5" cy="235.154" fill="#84BE84" rx="3" ry="3" style="stroke:#038048;stroke-width:1"/><text x="82.5" y="238.789" fill="#000" font-family="sans-serif" font-size="11" lengthAdjust="spacingAndGlyphs" textLength="123">String getPluginName()</text><ellipse cx="73.5" cy="248.109" fill="#84BE84" rx="3" ry="3" style="stroke:#038048;stroke-width:1"/><text x="82.5" y="251.744" fill="#000" font-family="sans-serif" font-size="11" lengthAdjust="spacingAndGlyphs" textLength="619">List&lt;CardSelectionResponse&gt; transmitCardSelectionRequests(List&lt;CardSelectionRequest&gt; cardSelectionRequests,</text><text x="82.5" y="264.699" fill="#000" font-family="sans-serif" font-size="11" lengthAdjust="spacingAndGlyphs" textLength="451">MultiSelectionProcessing multiSelectionProcessing, ChannelControl channelControl)</text><ellipse cx="73.5" cy="274.019" fill="#84BE84" rx="3" ry="3" style="stroke:#038048;stroke-width:1"/><text x="82.5" y="277.654" fill="#000" font-family="sans-serif" font-size="11" lengthAdjust="spacingAndGlyphs" textLength="341">CardResponse transmitCardRequest(CardRequest cardRequest,</text><text x="82.5" y="290.609" fill="#000" font-family="sans-serif" font-size="11" lengthAdjust="spacingAndGlyphs" textLength="175">ChannelControl channelControl)</text><ellipse cx="73.5" cy="299.93" fill="#84BE84" rx="3" ry="3" style="stroke:#038048;stroke-width:1"/><text x="82.5" y="303.565" fill="#000" font-family="sans-serif" font-size="11" lengthAdjust="spacingAndGlyphs" textLength="76">void register()</text><ellipse cx="73.5" cy="312.885" fill="#84BE84" rx="3" ry="3" style="stroke:#038048;stroke-width:1"/><text x="82.5" y="316.519" fill="#000" font-family="sans-serif" font-size="11" lengthAdjust="spacingAndGlyphs" textLength="90">void unregister()</text><polygon fill="#FF4" points="73.5 320.84 77.5 324.84 73.5 328.84 69.5 324.84" style="stroke:#b38d22;stroke-width:1"/><text x="82.5" y="329.475" fill="#000" font-family="sans-serif" font-size="11" lengthAdjust="spacingAndGlyphs" textLength="98">void checkStatus()</text><polygon fill="#FF4" points="73.5 333.795 77.5 337.795 73.5 341.795 69.5 337.795" style="stroke:#b38d22;stroke-width:1"/><text x="82.5" y="342.43" fill="#000" font-family="sans-serif" font-size="11" font-style="italic" lengthAdjust="spacingAndGlyphs" textLength="617">List&lt;CardSelectionResponse&gt; processCardSelectionRequests(List&lt;CardSelectionRequest&gt; cardSelectionRequests,</text><text x="82.5" y="355.385" fill="#000" font-family="sans-serif" font-size="11" lengthAdjust="spacingAndGlyphs" textLength="448">MultiSelectionProcessing multiSelectionProcessing,ChannelControl channelControl)</text><polygon fill="#FF4" points="73.5 359.705 77.5 363.705 73.5 367.705 69.5 363.705" style="stroke:#b38d22;stroke-width:1"/><text x="82.5" y="368.34" fill="#000" font-family="sans-serif" font-size="11" font-style="italic" lengthAdjust="spacingAndGlyphs" textLength="517">CardResponse processCardRequest(CardRequest cardRequest, ChannelControl channelControl)</text><rect id="AbstractLocalReader" width="643" height="268.236" x="63.5" y="434.199" fill="#FEFECE" style="stroke:#d4ac0d;stroke-width:1.5"/><ellipse cx="315.75" cy="450.199" fill="#A9DCDF" rx="11" ry="11" style="stroke:#a9dcdf;stroke-width:1"/><path d="M315.8633,445.7974 L314.7095,450.8691 L317.0254,450.8691 Z M314.3691,443.5562 L317.3657,443.5562 L320.7109,455.9492 L318.2622,455.9492 L317.4985,452.8862 L314.2197,452.8862 L313.4727,455.9492 L311.0239,455.9492 Z"/><ellipse cx="341.25" cy="449.699" fill="#84BE84" rx="3" ry="3" style="stroke:#038048;stroke-width:1"/><text x="347.25" y="454.734" fill="#000" font-family="sans-serif" font-size="12" font-style="italic" lengthAdjust="spacingAndGlyphs" textLength="119">AbstractLocalReader</text><line style="stroke:#d4ac0d;stroke-width:1.5" x1="64.5" x2="705.5" y1="466.199" y2="466.199"/><line style="stroke:#d4ac0d;stroke-width:1.5" x1="64.5" x2="705.5" y1="474.199" y2="474.199"/><ellipse cx="74.5" cy="485.199" fill="#84BE84" rx="3" ry="3" style="stroke:#038048;stroke-width:1"/><text x="83.5" y="488.834" fill="#000" font-family="sans-serif" font-size="11" lengthAdjust="spacingAndGlyphs" textLength="129">boolean isCardPresent()</text><ellipse cx="74.5" cy="498.154" fill="#84BE84" rx="3" ry="3" style="stroke:#038048;stroke-width:1"/><text x="83.5" y="501.789" fill="#000" font-family="sans-serif" font-size="11" lengthAdjust="spacingAndGlyphs" textLength="116">void releaseChannel()</text><ellipse cx="74.5" cy="511.109" fill="#84BE84" rx="3" ry="3" style="stroke:#038048;stroke-width:1"/><text x="83.5" y="514.744" fill="#000" font-family="sans-serif" font-size="11" lengthAdjust="spacingAndGlyphs" textLength="440">void activateProtocol(String readerProtocolName, String applicationProtocolName)</text><ellipse cx="74.5" cy="524.064" fill="#84BE84" rx="3" ry="3" style="stroke:#038048;stroke-width:1"/><text x="83.5" y="527.699" fill="#000" font-family="sans-serif" font-size="11" lengthAdjust="spacingAndGlyphs" textLength="278">void deactivateProtocol(String readerProtocolName)</text><polygon fill="#FF4" points="74.5 532.019 78.5 536.019 74.5 540.019 70.5 536.019" style="stroke:#b38d22;stroke-width:1"/><text x="83.5" y="540.654" fill="#000" font-family="sans-serif" font-size="11" lengthAdjust="spacingAndGlyphs" textLength="215">void closeLogicalAndPhysicalChannels()</text><polygon fill="#FF4" points="74.5 544.975 78.5 548.975 74.5 552.975 70.5 548.975" style="stroke:#b38d22;stroke-width:1"/><text x="83.5" y="553.609" fill="#000" font-family="sans-serif" font-size="11" lengthAdjust="spacingAndGlyphs" textLength="617">List&lt;CardSelectionResponse&gt; processCardSelectionRequests(List&lt;CardSelectionRequest&gt; cardSelectionRequests,</text><text x="83.5" y="566.564" fill="#000" font-family="sans-serif" font-size="11" lengthAdjust="spacingAndGlyphs" textLength="448">MultiSelectionProcessing multiSelectionProcessing,ChannelControl channelControl)</text><polygon fill="#FF4" points="74.5 570.885 78.5 574.885 74.5 578.885 70.5 574.885" style="stroke:#b38d22;stroke-width:1"/><text x="83.5" y="579.519" fill="#000" font-family="sans-serif" font-size="11" lengthAdjust="spacingAndGlyphs" textLength="201">CardResponse processCardRequest()</text><polygon fill="#FF4" points="74.5 583.84 78.5 587.84 74.5 591.84 70.5 587.84" style="stroke:#b38d22;stroke-width:1"/><text x="83.5" y="592.475" fill="#000" font-family="sans-serif" font-size="11" font-style="italic" lengthAdjust="spacingAndGlyphs" textLength="159">boolean checkCardPresence()</text><polygon fill="#FF4" points="74.5 596.795 78.5 600.795 74.5 604.795 70.5 600.795" style="stroke:#b38d22;stroke-width:1"/><text x="83.5" y="605.43" fill="#000" font-family="sans-serif" font-size="11" font-style="italic" lengthAdjust="spacingAndGlyphs" textLength="81">byte[] getATR()</text><polygon fill="#FF4" points="74.5 609.75 78.5 613.75 74.5 617.75 70.5 613.75" style="stroke:#b38d22;stroke-width:1"/><text x="83.5" y="618.385" fill="#000" font-family="sans-serif" font-size="11" font-style="italic" lengthAdjust="spacingAndGlyphs" textLength="148">void openPhysicalChannel()</text><polygon fill="#FF4" points="74.5 622.705 78.5 626.705 74.5 630.705 70.5 626.705" style="stroke:#b38d22;stroke-width:1"/><text x="83.5" y="631.34" fill="#000" font-family="sans-serif" font-size="11" font-style="italic" lengthAdjust="spacingAndGlyphs" textLength="149">void closePhysicalChannel()</text><polygon fill="#FF4" points="74.5 635.66 78.5 639.66 74.5 643.66 70.5 639.66" style="stroke:#b38d22;stroke-width:1"/><text x="83.5" y="644.295" fill="#000" font-family="sans-serif" font-size="11" font-style="italic" lengthAdjust="spacingAndGlyphs" textLength="179">boolean isPhysicalChannelOpen()</text><polygon fill="#FF4" points="74.5 648.615 78.5 652.615 74.5 656.615 70.5 652.615" style="stroke:#b38d22;stroke-width:1"/><text x="83.5" y="657.25" fill="#000" font-family="sans-serif" font-size="11" font-style="italic" lengthAdjust="spacingAndGlyphs" textLength="295">boolean isCurrentProtocol(String readerProtocolName)</text><polygon fill="#FF4" points="74.5 661.57 78.5 665.57 74.5 669.57 70.5 665.57" style="stroke:#b38d22;stroke-width:1"/><text x="83.5" y="670.205" fill="#000" font-family="sans-serif" font-size="11" font-style="italic" lengthAdjust="spacingAndGlyphs" textLength="187">byte[] transmitApdu(byte[] apduIn)</text><polygon fill="#FF4" points="74.5 674.525 78.5 678.525 74.5 682.525 70.5 678.525" style="stroke:#b38d22;stroke-width:1"/><text x="83.5" y="683.16" fill="#000" font-family="sans-serif" font-size="11" font-style="italic" lengthAdjust="spacingAndGlyphs" textLength="302">void activateReaderProtocol(String readerProtocolName)</text><polygon fill="#FF4" points="74.5 687.481 78.5 691.481 74.5 695.481 70.5 691.481" style="stroke:#b38d22;stroke-width:1"/><text x="83.5" y="696.115" fill="#000" font-family="sans-serif" font-size="11" font-style="italic" lengthAdjust="spacingAndGlyphs" textLength="315">void deactivateReaderProtocol(String readerProtocolName)</text><rect id="AbstractObservableLocalReader" width="553" height="294.147" x="108.5" y="762.199" fill="#FEFECE" style="stroke:#d4ac0d;stroke-width:1.5"/><ellipse cx="282.75" cy="778.199" fill="#A9DCDF" rx="11" ry="11" style="stroke:#a9dcdf;stroke-width:1"/><path d="M282.8633,773.7974 L281.7095,778.8691 L284.0254,778.8691 Z M281.3691,771.5562 L284.3657,771.5562 L287.7109,783.9492 L285.2622,783.9492 L284.4985,780.8862 L281.2197,780.8862 L280.4727,783.9492 L278.0239,783.9492 Z"/><ellipse cx="308.25" cy="777.699" fill="#84BE84" rx="3" ry="3" style="stroke:#038048;stroke-width:1"/><text x="314.25" y="782.734" fill="#000" font-family="sans-serif" font-size="12" font-style="italic" lengthAdjust="spacingAndGlyphs" textLength="185">AbstractObservableLocalReader</text><line style="stroke:#d4ac0d;stroke-width:1.5" x1="109.5" x2="660.5" y1="794.199" y2="794.199"/><line style="stroke:#d4ac0d;stroke-width:1.5" x1="109.5" x2="660.5" y1="802.199" y2="802.199"/><polygon fill="#FF4" points="119.5 808.199 123.5 812.199 119.5 816.199 115.5 812.199" style="stroke:#b38d22;stroke-width:1"/><text x="128.5" y="816.834" fill="#000" font-family="sans-serif" font-size="11" font-style="italic" lengthAdjust="spacingAndGlyphs" textLength="124">void onStartDetection()</text><polygon fill="#FF4" points="119.5 821.154 123.5 825.154 119.5 829.154 115.5 825.154" style="stroke:#b38d22;stroke-width:1"/><text x="128.5" y="829.789" fill="#000" font-family="sans-serif" font-size="11" font-style="italic" lengthAdjust="spacingAndGlyphs" textLength="123">void onStopDetection()</text><polygon fill="#FF4" points="119.5 834.109 123.5 838.109 119.5 842.109 115.5 838.109" style="stroke:#b38d22;stroke-width:1"/><text x="128.5" y="842.744" fill="#000" font-family="sans-serif" font-size="11" font-style="italic" lengthAdjust="spacingAndGlyphs" textLength="387">ReaderObservationExceptionHandler getObservationExceptionHandler()</text><ellipse cx="119.5" cy="852.064" fill="#84BE84" rx="3" ry="3" style="stroke:#038048;stroke-width:1"/><text x="128.5" y="855.699" fill="#000" font-family="sans-serif" font-size="11" lengthAdjust="spacingAndGlyphs" textLength="369">void addObserver(final ObservableReader.ReaderObserver observer)</text><ellipse cx="119.5" cy="865.019" fill="#84BE84" rx="3" ry="3" style="stroke:#038048;stroke-width:1"/><text x="128.5" y="868.654" fill="#000" font-family="sans-serif" font-size="11" lengthAdjust="spacingAndGlyphs" textLength="389">void removeObserver(final ObservableReader.ReaderObserver observer)</text><ellipse cx="119.5" cy="877.975" fill="#84BE84" rx="3" ry="3" style="stroke:#038048;stroke-width:1"/><text x="128.5" y="881.609" fill="#000" font-family="sans-serif" font-size="11" lengthAdjust="spacingAndGlyphs" textLength="245">void notifyObservers(final ReaderEvent event)</text><ellipse cx="119.5" cy="890.93" fill="#84BE84" rx="3" ry="3" style="stroke:#038048;stroke-width:1"/><text x="128.5" y="894.564" fill="#000" font-family="sans-serif" font-size="11" lengthAdjust="spacingAndGlyphs" textLength="112">int countObservers()</text><ellipse cx="119.5" cy="903.885" fill="#84BE84" rx="3" ry="3" style="stroke:#038048;stroke-width:1"/><text x="128.5" y="907.519" fill="#000" font-family="sans-serif" font-size="11" lengthAdjust="spacingAndGlyphs" textLength="116">void clearObservers()</text><ellipse cx="119.5" cy="916.84" fill="#84BE84" rx="3" ry="3" style="stroke:#038048;stroke-width:1"/><text x="128.5" y="920.475" fill="#000" font-family="sans-serif" font-size="11" lengthAdjust="spacingAndGlyphs" textLength="129">boolean isCardPresent()</text><ellipse cx="119.5" cy="929.795" fill="#84BE84" rx="3" ry="3" style="stroke:#038048;stroke-width:1"/><text x="128.5" y="933.43" fill="#000" font-family="sans-serif" font-size="11" lengthAdjust="spacingAndGlyphs" textLength="371">void startCardDetection(ObservableReader.PollingMode pollingMode)</text><ellipse cx="119.5" cy="942.75" fill="#84BE84" rx="3" ry="3" style="stroke:#038048;stroke-width:1"/><text x="128.5" y="946.385" fill="#000" font-family="sans-serif" font-size="11" lengthAdjust="spacingAndGlyphs" textLength="135">void stopCardDetection()</text><ellipse cx="119.5" cy="955.705" fill="#84BE84" rx="3" ry="3" style="stroke:#038048;stroke-width:1"/><text x="128.5" y="959.34" fill="#000" font-family="sans-serif" font-size="11" lengthAdjust="spacingAndGlyphs" textLength="496">void setDefaultSelectionRequest(AbstractDefaultSelectionsRequest defaultSelectionsRequest,</text><text x="128.5" y="972.295" fill="#000" font-family="sans-serif" font-size="11" lengthAdjust="spacingAndGlyphs" textLength="289">ObservableReader.NotificationMode notificationMode)</text><ellipse cx="119.5" cy="981.615" fill="#84BE84" rx="3" ry="3" style="stroke:#038048;stroke-width:1"/><text x="128.5" y="985.25" fill="#000" font-family="sans-serif" font-size="11" lengthAdjust="spacingAndGlyphs" textLength="496">void setDefaultSelectionRequest(AbstractDefaultSelectionsRequest defaultSelectionsRequest,</text><text x="128.5" y="998.205" fill="#000" font-family="sans-serif" font-size="11" lengthAdjust="spacingAndGlyphs" textLength="527">ObservableReader.NotificationMode notificationMode,ObservableReader.PollingMode pollingMode)</text><ellipse cx="119.5" cy="1007.525" fill="#84BE84" rx="3" ry="3" style="stroke:#038048;stroke-width:1"/><text x="128.5" y="1011.16" fill="#000" font-family="sans-serif" font-size="11" lengthAdjust="spacingAndGlyphs" textLength="196">void terminateCardCommunication()</text><ellipse cx="119.5" cy="1020.481" fill="#84BE84" rx="3" ry="3" style="stroke:#038048;stroke-width:1"/><text x="128.5" y="1024.115" fill="#000" font-family="sans-serif" font-size="11" lengthAdjust="spacingAndGlyphs" textLength="157">void finalizeCardProcessing()</text><ellipse cx="119.5" cy="1033.436" fill="#84BE84" rx="3" ry="3" style="stroke:#038048;stroke-width:1"/><text x="128.5" y="1037.07" fill="#000" font-family="sans-serif" font-size="11" lengthAdjust="spacingAndGlyphs" textLength="90">void unregister()</text><polygon fill="#FF4" points="119.5 1041.391 123.5 1045.391 119.5 1049.391 115.5 1045.391" style="stroke:#b38d22;stroke-width:1"/><text x="128.5" y="1050.025" fill="#000" font-family="sans-serif" font-size="11" lengthAdjust="spacingAndGlyphs" textLength="179">void onEvent(InternalEvent event)</text><rect id="AbstractObservableLocalAutonomousReader" width="299" height="73.91" x="235.5" y="1116.199" fill="#FEFECE" style="stroke:#d4ac0d;stroke-width:1.5"/><ellipse cx="250.5" cy="1132.199" fill="#A9DCDF" rx="11" ry="11" style="stroke:#a9dcdf;stroke-width:1"/><path d="M250.6133,1127.7974 L249.4595,1132.8691 L251.7754,1132.8691 Z M249.1191,1125.5562 L252.1157,1125.5562 L255.4609,1137.9492 L253.0122,1137.9492 L252.2485,1134.8862 L248.9697,1134.8862 L248.2227,1137.9492 L245.7739,1137.9492 Z"/><ellipse cx="269.5" cy="1131.699" fill="#84BE84" rx="3" ry="3" style="stroke:#038048;stroke-width:1"/><text x="275.5" y="1136.734" fill="#000" font-family="sans-serif" font-size="12" font-style="italic" lengthAdjust="spacingAndGlyphs" textLength="256">AbstractObservableLocalAutonomousReader</text><line style="stroke:#d4ac0d;stroke-width:1.5" x1="236.5" x2="533.5" y1="1148.199" y2="1148.199"/><line style="stroke:#d4ac0d;stroke-width:1.5" x1="236.5" x2="533.5" y1="1156.199" y2="1156.199"/><polygon fill="#FF4" points="246.5 1162.199 250.5 1166.199 246.5 1170.199 242.5 1166.199" style="stroke:#b38d22;stroke-width:1"/><text x="255.5" y="1170.834" fill="#000" font-family="sans-serif" font-size="11" lengthAdjust="spacingAndGlyphs" textLength="144">void void onCardInserted()</text><polygon fill="#FF4" points="246.5 1175.154 250.5 1179.154 246.5 1183.154 242.5 1179.154" style="stroke:#b38d22;stroke-width:1"/><text x="255.5" y="1183.789" fill="#000" font-family="sans-serif" font-size="11" lengthAdjust="spacingAndGlyphs" textLength="149">void void onCardRemoved()</text><rect id="ProxyReader" width="117" height="48" x="326.5" y="29.199" fill="#FEFECE" style="stroke:#d4ac0d;stroke-width:1.5"/><ellipse cx="341.5" cy="45.199" fill="#B4A7E5" rx="11" ry="11" style="stroke:#b4a7e5;stroke-width:1"/><path d="M337.9277,41.4644 L337.9277,39.3062 L345.3071,39.3062 L345.3071,41.4644 L342.8418,41.4644 L342.8418,49.541 L345.3071,49.541 L345.3071,51.6992 L337.9277,51.6992 L337.9277,49.541 L340.3931,49.541 L340.3931,41.4644 Z"/><ellipse cx="360.5" cy="44.699" fill="#84BE84" rx="3" ry="3" style="stroke:#038048;stroke-width:1"/><text x="366.5" y="49.734" fill="#000" font-family="sans-serif" font-size="12" font-style="italic" lengthAdjust="spacingAndGlyphs" textLength="74">ProxyReader</text><line style="stroke:#d4ac0d;stroke-width:1.5" x1="327.5" x2="442.5" y1="61.199" y2="61.199"/><line style="stroke:#d4ac0d;stroke-width:1.5" x1="327.5" x2="442.5" y1="69.199" y2="69.199"/><path id="ProxyReader&lt;-AbstractReader" fill="none" d="M385,97.7792 C385,118.9692 385,145.3992 385,171.1992" style="stroke:#27ae60;stroke-width:1"/><polygon fill="none" points="378 97.479 385 77.479 392 97.479 378 97.479" style="stroke:#27ae60;stroke-width:1"/><path id="AbstractReader&lt;-AbstractLocalReader" fill="none" d="M385,394.4992 C385,407.5492 385,420.8792 385,434.0592" style="stroke:#27ae60;stroke-width:1"/><polygon fill="none" points="378 394.299 385 374.299 392 394.299 378 394.299" style="stroke:#27ae60;stroke-width:1"/><path id="AbstractLocalReader&lt;-AbstractObservableLocalReader" fill="none" d="M385,722.2092 C385,735.4892 385,748.9092 385,762.1292" style="stroke:#27ae60;stroke-width:1"/><polygon fill="none" points="378 722.209 385 702.209 392 722.209 378 722.209" style="stroke:#27ae60;stroke-width:1"/><path id="AbstractObservableLocalReader&lt;-AbstractObservableLocalAutonomousReader" fill="none" d="M385,1076.5392 C385,1091.0592 385,1104.5692 385,1116.0292" style="stroke:#27ae60;stroke-width:1"/><polygon fill="none" points="378 1076.209 385 1056.209 392 1076.209 378 1076.209" style="stroke:#27ae60;stroke-width:1"/></g></svg>