<svg xmlns="http://www.w3.org/2000/svg" xmlns:xlink="http://www.w3.org/1999/xlink" width="549" height="797" contentScriptType="application/ecmascript" contentStyleType="text/css" style="width:549px;height:797px" preserveAspectRatio="none" version="1.1" viewBox="0 0 549 797" zoomAndPan="magnify"><g><text x="16.5" y="17.402" fill="#000" font-family="sans-serif" font-size="18" lengthAdjust="spacingAndGlyphs" textLength="521">Keyple Plugin - Abstract Plugin classes- 1.0.0 (10/11/2020)</text><polygon fill="#FFF" points="22 210.199 237 210.199 244 232.688 520 232.688 520 785.199 22 785.199 22 210.199" style="stroke:#000;stroke-width:1.5"/><line style="stroke:#000;stroke-width:1.5" x1="22" x2="244" y1="232.688" y2="232.688"/><text x="26" y="225.734" fill="#000" font-family="sans-serif" font-size="14" font-weight="bold" lengthAdjust="spacingAndGlyphs" textLength="209">org.eclipse.keyple.core.plugin</text><rect id="ObservablePluginNotifier" width="185" height="48" x="38.5" y="297.199" fill="#FEFECE" style="stroke:#d4ac0d;stroke-width:1.5"/><ellipse cx="53.5" cy="313.199" fill="#B4A7E5" rx="11" ry="11" style="stroke:#b4a7e5;stroke-width:1"/><path d="M49.9277,309.4644 L49.9277,307.3062 L57.3071,307.3062 L57.3071,309.4644 L54.8418,309.4644 L54.8418,317.541 L57.3071,317.541 L57.3071,319.6992 L49.9277,319.6992 L49.9277,317.541 L52.3931,317.541 L52.3931,309.4644 Z"/><ellipse cx="72.5" cy="312.699" fill="#84BE84" rx="3" ry="3" style="stroke:#038048;stroke-width:1"/><text x="78.5" y="317.734" fill="#000" font-family="sans-serif" font-size="12" font-style="italic" lengthAdjust="spacingAndGlyphs" textLength="142">ObservablePluginNotifier</text><line style="stroke:#d4ac0d;stroke-width:1.5" x1="39.5" x2="222.5" y1="329.199" y2="329.199"/><line style="stroke:#d4ac0d;stroke-width:1.5" x1="39.5" x2="222.5" y1="337.199" y2="337.199"/><rect id="AbstractPlugin" width="245" height="151.641" x="258.5" y="245.199" fill="#FEFECE" style="stroke:#d4ac0d;stroke-width:1.5"/><ellipse cx="330.25" cy="261.199" fill="#A9DCDF" rx="11" ry="11" style="stroke:#a9dcdf;stroke-width:1"/><path d="M330.3633,256.7974 L329.2095,261.8691 L331.5254,261.8691 Z M328.8691,254.5562 L331.8657,254.5562 L335.2109,266.9492 L332.7622,266.9492 L331.9985,263.8862 L328.7197,263.8862 L327.9727,266.9492 L325.5239,266.9492 Z"/><ellipse cx="355.75" cy="260.699" fill="#84BE84" rx="3" ry="3" style="stroke:#038048;stroke-width:1"/><text x="361.75" y="265.734" fill="#000" font-family="sans-serif" font-size="12" font-style="italic" lengthAdjust="spacingAndGlyphs" textLength="82">AbstractPlugin</text><line style="stroke:#d4ac0d;stroke-width:1.5" x1="259.5" x2="502.5" y1="277.199" y2="277.199"/><line style="stroke:#d4ac0d;stroke-width:1.5" x1="259.5" x2="502.5" y1="285.199" y2="285.199"/><ellipse cx="269.5" cy="296.199" fill="#84BE84" rx="3" ry="3" style="stroke:#038048;stroke-width:1"/><text x="278.5" y="299.834" fill="#000" font-family="sans-serif" font-size="11" lengthAdjust="spacingAndGlyphs" textLength="116">final String getName()</text><ellipse cx="269.5" cy="309.154" fill="#84BE84" rx="3" ry="3" style="stroke:#038048;stroke-width:1"/><text x="278.5" y="312.789" fill="#000" font-family="sans-serif" font-size="11" lengthAdjust="spacingAndGlyphs" textLength="212">final Map&lt;String, Reader&gt; getReaders()</text><ellipse cx="269.5" cy="322.109" fill="#84BE84" rx="3" ry="3" style="stroke:#038048;stroke-width:1"/><text x="278.5" y="325.744" fill="#000" font-family="sans-serif" font-size="11" lengthAdjust="spacingAndGlyphs" textLength="193">final Set&lt;String&gt; getReaderNames()</text><ellipse cx="269.5" cy="335.065" fill="#84BE84" rx="3" ry="3" style="stroke:#038048;stroke-width:1"/><text x="278.5" y="338.699" fill="#000" font-family="sans-serif" font-size="11" lengthAdjust="spacingAndGlyphs" textLength="192">final Reader getReader(String name)</text><ellipse cx="269.5" cy="348.019" fill="#84BE84" rx="3" ry="3" style="stroke:#038048;stroke-width:1"/><text x="278.5" y="351.654" fill="#000" font-family="sans-serif" font-size="11" lengthAdjust="spacingAndGlyphs" textLength="76">void register()</text><ellipse cx="269.5" cy="360.975" fill="#84BE84" rx="3" ry="3" style="stroke:#038048;stroke-width:1"/><text x="278.5" y="364.609" fill="#000" font-family="sans-serif" font-size="11" lengthAdjust="spacingAndGlyphs" textLength="90">void unregister()</text><polygon fill="#FF4" points="269.5 368.93 273.5 372.93 269.5 376.93 265.5 372.93" style="stroke:#b38d22;stroke-width:1"/><text x="278.5" y="377.565" fill="#000" font-family="sans-serif" font-size="11" lengthAdjust="spacingAndGlyphs" textLength="98">void checkStatus()</text><polygon fill="#FF4" points="269.5 381.885 273.5 385.885 269.5 389.885 265.5 385.885" style="stroke:#b38d22;stroke-width:1"/><text x="278.5" y="390.519" fill="#000" font-family="sans-serif" font-size="11" font-style="italic" lengthAdjust="spacingAndGlyphs" textLength="219">Map&lt;String, Reader&gt; initNativeReaders()</text><rect id="AbstractObservablePlugin" width="407" height="125.731" x="67.5" y="457.199" fill="#FEFECE" style="stroke:#d4ac0d;stroke-width:1.5"/><ellipse cx="187.25" cy="473.199" fill="#A9DCDF" rx="11" ry="11" style="stroke:#a9dcdf;stroke-width:1"/><path d="M187.3633,468.7974 L186.2095,473.8691 L188.5254,473.8691 Z M185.8691,466.5562 L188.8657,466.5562 L192.2109,478.9492 L189.7622,478.9492 L188.9985,475.8862 L185.7197,475.8862 L184.9727,478.9492 L182.5239,478.9492 Z"/><ellipse cx="212.75" cy="472.699" fill="#84BE84" rx="3" ry="3" style="stroke:#038048;stroke-width:1"/><text x="218.75" y="477.734" fill="#000" font-family="sans-serif" font-size="12" font-style="italic" lengthAdjust="spacingAndGlyphs" textLength="148">AbstractObservablePlugin</text><line style="stroke:#d4ac0d;stroke-width:1.5" x1="68.5" x2="473.5" y1="489.199" y2="489.199"/><line style="stroke:#d4ac0d;stroke-width:1.5" x1="68.5" x2="473.5" y1="497.199" y2="497.199"/><ellipse cx="78.5" cy="508.199" fill="#84BE84" rx="3" ry="3" style="stroke:#038048;stroke-width:1"/><text x="87.5" y="511.834" fill="#000" font-family="sans-serif" font-size="11" lengthAdjust="spacingAndGlyphs" textLength="361">void addObserver(final ObservablePlugin.PluginObserver observer)</text><ellipse cx="78.5" cy="521.154" fill="#84BE84" rx="3" ry="3" style="stroke:#038048;stroke-width:1"/><text x="87.5" y="524.789" fill="#000" font-family="sans-serif" font-size="11" lengthAdjust="spacingAndGlyphs" textLength="381">void removeObserver(final ObservablePlugin.PluginObserver observer)</text><ellipse cx="78.5" cy="534.109" fill="#84BE84" rx="3" ry="3" style="stroke:#038048;stroke-width:1"/><text x="87.5" y="537.744" fill="#000" font-family="sans-serif" font-size="11" lengthAdjust="spacingAndGlyphs" textLength="116">void clearObservers()</text><ellipse cx="78.5" cy="547.064" fill="#84BE84" rx="3" ry="3" style="stroke:#038048;stroke-width:1"/><text x="87.5" y="550.699" fill="#000" font-family="sans-serif" font-size="11" lengthAdjust="spacingAndGlyphs" textLength="112">int countObservers()</text><ellipse cx="78.5" cy="560.019" fill="#84BE84" rx="3" ry="3" style="stroke:#038048;stroke-width:1"/><text x="87.5" y="563.654" fill="#000" font-family="sans-serif" font-size="11" lengthAdjust="spacingAndGlyphs" textLength="241">void notifyObservers(final PluginEvent event)</text><ellipse cx="78.5" cy="572.975" fill="#84BE84" rx="3" ry="3" style="stroke:#038048;stroke-width:1"/><text x="87.5" y="576.609" fill="#000" font-family="sans-serif" font-size="11" lengthAdjust="spacingAndGlyphs" textLength="90">void unregister()</text><rect id="AbstractThreadedObservablePlugin" width="407" height="125.731" x="67.5" y="643.199" fill="#FEFECE" style="stroke:#d4ac0d;stroke-width:1.5"/><ellipse cx="158.75" cy="659.199" fill="#A9DCDF" rx="11" ry="11" style="stroke:#a9dcdf;stroke-width:1"/><path d="M158.8633,654.7974 L157.7095,659.8691 L160.0254,659.8691 Z M157.3691,652.5562 L160.3657,652.5562 L163.7109,664.9492 L161.2622,664.9492 L160.4985,661.8862 L157.2197,661.8862 L156.4727,664.9492 L154.0239,664.9492 Z"/><ellipse cx="184.25" cy="658.699" fill="#84BE84" rx="3" ry="3" style="stroke:#038048;stroke-width:1"/><text x="190.25" y="663.734" fill="#000" font-family="sans-serif" font-size="12" font-style="italic" lengthAdjust="spacingAndGlyphs" textLength="205">AbstractThreadedObservablePlugin</text><line style="stroke:#d4ac0d;stroke-width:1.5" x1="68.5" x2="473.5" y1="675.199" y2="675.199"/><line style="stroke:#d4ac0d;stroke-width:1.5" x1="68.5" x2="473.5" y1="683.199" y2="683.199"/><ellipse cx="78.5" cy="694.199" fill="#84BE84" rx="3" ry="3" style="stroke:#038048;stroke-width:1"/><text x="87.5" y="697.834" fill="#000" font-family="sans-serif" font-size="11" lengthAdjust="spacingAndGlyphs" textLength="361">void addObserver(final ObservablePlugin.PluginObserver observer)</text><ellipse cx="78.5" cy="707.154" fill="#84BE84" rx="3" ry="3" style="stroke:#038048;stroke-width:1"/><text x="87.5" y="710.789" fill="#000" font-family="sans-serif" font-size="11" lengthAdjust="spacingAndGlyphs" textLength="381">void removeObserver(final ObservablePlugin.PluginObserver observer)</text><ellipse cx="78.5" cy="720.109" fill="#84BE84" rx="3" ry="3" style="stroke:#038048;stroke-width:1"/><text x="87.5" y="723.744" fill="#000" font-family="sans-serif" font-size="11" lengthAdjust="spacingAndGlyphs" textLength="142">void void clearObservers()</text><polygon fill="#FF4" points="78.5 728.064 82.5 732.064 78.5 736.064 74.5 732.064" style="stroke:#b38d22;stroke-width:1"/><text x="87.5" y="736.699" fill="#000" font-family="sans-serif" font-size="11" lengthAdjust="spacingAndGlyphs" textLength="147">void Boolean isMonitoring()</text><polygon fill="#FF4" points="78.5 741.019 82.5 745.019 78.5 749.019 74.5 745.019" style="stroke:#b38d22;stroke-width:1"/><text x="87.5" y="749.654" fill="#000" font-family="sans-serif" font-size="11" font-style="italic" lengthAdjust="spacingAndGlyphs" textLength="251">SortedSet&lt;String&gt; fetchNativeReadersNames()</text><polygon fill="#FF4" points="78.5 753.975 82.5 757.975 78.5 761.975 74.5 757.975" style="stroke:#b38d22;stroke-width:1"/><text x="87.5" y="762.609" fill="#000" font-family="sans-serif" font-size="11" font-style="italic" lengthAdjust="spacingAndGlyphs" textLength="209">Reader fetchNativeReader(String name)</text><rect id="Plugin" width="77" height="48" x="216.5" y="29.199" fill="#FEFECE" style="stroke:#d4ac0d;stroke-width:1.5"/><ellipse cx="231.5" cy="45.199" fill="#B4A7E5" rx="11" ry="11" style="stroke:#b4a7e5;stroke-width:1"/><path d="M227.9277,41.4644 L227.9277,39.3062 L235.3071,39.3062 L235.3071,41.4644 L232.8418,41.4644 L232.8418,49.541 L235.3071,49.541 L235.3071,51.6992 L227.9277,51.6992 L227.9277,49.541 L230.3931,49.541 L230.3931,41.4644 Z"/><ellipse cx="250.5" cy="44.699" fill="#84BE84" rx="3" ry="3" style="stroke:#038048;stroke-width:1"/><text x="256.5" y="49.734" fill="#000" font-family="sans-serif" font-size="12" font-style="italic" lengthAdjust="spacingAndGlyphs" textLength="34">Plugin</text><line style="stroke:#d4ac0d;stroke-width:1.5" x1="217.5" x2="292.5" y1="61.199" y2="61.199"/><line style="stroke:#d4ac0d;stroke-width:1.5" x1="217.5" x2="292.5" y1="69.199" y2="69.199"/><rect id="ObservablePlugin" width="143" height="48" x="121.5" y="137.199" fill="#FEFECE" style="stroke:#d4ac0d;stroke-width:1.5"/><ellipse cx="136.5" cy="153.199" fill="#B4A7E5" rx="11" ry="11" style="stroke:#b4a7e5;stroke-width:1"/><path d="M132.9277,149.4644 L132.9277,147.3062 L140.3071,147.3062 L140.3071,149.4644 L137.8418,149.4644 L137.8418,157.541 L140.3071,157.541 L140.3071,159.6992 L132.9277,159.6992 L132.9277,157.541 L135.3931,157.541 L135.3931,149.4644 Z"/><ellipse cx="155.5" cy="152.699" fill="#84BE84" rx="3" ry="3" style="stroke:#038048;stroke-width:1"/><text x="161.5" y="157.734" fill="#000" font-family="sans-serif" font-size="12" font-style="italic" lengthAdjust="spacingAndGlyphs" textLength="100">ObservablePlugin</text><line style="stroke:#d4ac0d;stroke-width:1.5" x1="122.5" x2="263.5" y1="169.199" y2="169.199"/><line style="stroke:#d4ac0d;stroke-width:1.5" x1="122.5" x2="263.5" y1="177.199" y2="177.199"/><path id="Plugin&lt;-AbstractPlugin" fill="none" d="M274.58,95.5292 C293.43,135.3392 322.4,196.4892 345.36,244.9492" style="stroke:#27ae60;stroke-width:1"/><polygon fill="none" points="268.2 98.409 265.96 77.339 280.85 92.419 268.2 98.409" style="stroke:#27ae60;stroke-width:1"/><path id="AbstractPlugin&lt;-AbstractObservablePlugin" fill="none" d="M329.11,415.1292 C321.15,429.3892 313.1,443.8092 305.63,457.1792" style="stroke:#27ae60;stroke-width:1"/><polygon fill="none" points="323.24 411.289 339.1 397.239 335.46 418.109 323.24 411.289" style="stroke:#27ae60;stroke-width:1"/><path id="AbstractObservablePlugin&lt;-AbstractThreadedObservablePlugin" fill="none" d="M271,603.6792 C271,616.9292 271,630.4492 271,643.1192" style="stroke:#27ae60;stroke-width:1"/><polygon fill="none" points="264 603.239 271 583.239 278 603.239 264 603.239" style="stroke:#27ae60;stroke-width:1"/><path id="Plugin&lt;-ObservablePlugin" fill="none" d="M231.25,94.8092 C222.92,109.0492 213.85,124.5492 206.64,136.8792" style="stroke:#27ae60;stroke-width:1"/><polygon fill="none" points="225.41 90.929 241.55 77.199 237.49 97.999 225.41 90.929" style="stroke:#27ae60;stroke-width:1"/><path id="ObservablePlugin&lt;-ObservablePluginNotifier" fill="none" d="M176.45,204.3692 C164.79,234.0892 149.61,272.7692 140.08,297.0492" style="stroke:#27ae60;stroke-width:1"/><polygon fill="none" points="170.03 201.569 183.85 185.509 183.06 206.689 170.03 201.569" style="stroke:#27ae60;stroke-width:1"/><path id="ObservablePluginNotifier&lt;-AbstractObservablePlugin" fill="none" d="M159.27,361.9792 C178.65,389.2492 204.76,425.9892 226.87,457.0992" style="stroke:#27ae60;stroke-width:1"/><polygon fill="none" points="153.49 365.929 147.61 345.569 164.9 357.819 153.49 365.929" style="stroke:#27ae60;stroke-width:1"/></g></svg>