<svg xmlns="http://www.w3.org/2000/svg" xmlns:xlink="http://www.w3.org/1999/xlink" width="2276" height="526" contentScriptType="application/ecmascript" contentStyleType="text/css" style="width:2276px;height:526px" preserveAspectRatio="none" version="1.1" viewBox="0 0 2276 526" zoomAndPan="magnify"><g><text x="862" y="17.402" fill="#000" font-family="sans-serif" font-size="18" lengthAdjust="spacingAndGlyphs" textLength="564">Keyple Plugin - Observable Reader Notifiers- 1.0.0 (10/11/2020)</text><polygon fill="#FFF" points="22 201.199 237 201.199 244 223.688 2254 223.688 2254 514.199 22 514.199 22 201.199" style="stroke:#000;stroke-width:1.5"/><line style="stroke:#000;stroke-width:1.5" x1="22" x2="244" y1="223.688" y2="223.688"/><text x="26" y="216.734" fill="#000" font-family="sans-serif" font-size="14" font-weight="bold" lengthAdjust="spacingAndGlyphs" textLength="209">org.eclipse.keyple.core.plugin</text><polygon fill="#FFF" points="46 244.199 97 244.199 104 266.688 2230 266.688 2230 490.199 46 490.199 46 244.199" style="stroke:#000;stroke-width:1.5"/><line style="stroke:#000;stroke-width:1.5" x1="46" x2="104" y1="266.688" y2="266.688"/><text x="50" y="259.734" fill="#000" font-family="sans-serif" font-size="14" font-weight="bold" lengthAdjust="spacingAndGlyphs" textLength="45">reader</text><rect id="ObservableReaderNotifier" width="245" height="60.955" x="966.5" y="279.199" fill="#FEFECE" style="stroke:#d4ac0d;stroke-width:1.5"/><ellipse cx="1004.9" cy="295.199" fill="#B4A7E5" rx="11" ry="11" style="stroke:#b4a7e5;stroke-width:1"/><path d="M1001.3277,291.4644 L1001.3277,289.3062 L1008.7071,289.3062 L1008.7071,291.4644 L1006.2418,291.4644 L1006.2418,299.541 L1008.7071,299.541 L1008.7071,301.6992 L1001.3277,301.6992 L1001.3277,299.541 L1003.7931,299.541 L1003.7931,291.4644 Z"/><ellipse cx="1029.1" cy="294.699" fill="#84BE84" rx="3" ry="3" style="stroke:#038048;stroke-width:1"/><text x="1035.1" y="299.734" fill="#000" font-family="sans-serif" font-size="12" font-style="italic" lengthAdjust="spacingAndGlyphs" textLength="150">ObservableReaderNotifier</text><line style="stroke:#d4ac0d;stroke-width:1.5" x1="967.5" x2="1210.5" y1="311.199" y2="311.199"/><line style="stroke:#d4ac0d;stroke-width:1.5" x1="967.5" x2="1210.5" y1="319.199" y2="319.199"/><polygon fill="#4177AF" points="977.5 326.199 973.5 332.199 981.5 332.199" style="stroke:#1963a0;stroke-width:1"/><text x="986.5" y="333.834" fill="#000" font-family="sans-serif" font-size="11" lengthAdjust="spacingAndGlyphs" textLength="219">notifyObservers(final ReaderEvent event)</text><rect id="WaitForCardInsertionAutonomous" width="233" height="48" x="62.5" y="413.199" fill="#FEFECE" style="stroke:#d4ac0d;stroke-width:1.5"/><ellipse cx="77.5" cy="429.199" fill="#B4A7E5" rx="11" ry="11" style="stroke:#b4a7e5;stroke-width:1"/><path d="M73.9277,425.4644 L73.9277,423.3062 L81.3071,423.3062 L81.3071,425.4644 L78.8418,425.4644 L78.8418,433.541 L81.3071,433.541 L81.3071,435.6992 L73.9277,435.6992 L73.9277,433.541 L76.3931,433.541 L76.3931,425.4644 Z"/><ellipse cx="96.5" cy="428.699" fill="#84BE84" rx="3" ry="3" style="stroke:#038048;stroke-width:1"/><text x="102.5" y="433.734" fill="#000" font-family="sans-serif" font-size="12" font-style="italic" lengthAdjust="spacingAndGlyphs" textLength="190">WaitForCardInsertionAutonomous</text><line style="stroke:#d4ac0d;stroke-width:1.5" x1="63.5" x2="294.5" y1="445.199" y2="445.199"/><line style="stroke:#d4ac0d;stroke-width:1.5" x1="63.5" x2="294.5" y1="453.199" y2="453.199"/><rect id="WaitForCardInsertionBlocking" width="209" height="73.91" x="330.5" y="400.199" fill="#FEFECE" style="stroke:#d4ac0d;stroke-width:1.5"/><ellipse cx="345.5" cy="416.199" fill="#B4A7E5" rx="11" ry="11" style="stroke:#b4a7e5;stroke-width:1"/><path d="M341.9277,412.4644 L341.9277,410.3062 L349.3071,410.3062 L349.3071,412.4644 L346.8418,412.4644 L346.8418,420.541 L349.3071,420.541 L349.3071,422.6992 L341.9277,422.6992 L341.9277,420.541 L344.3931,420.541 L344.3931,412.4644 Z"/><ellipse cx="364.5" cy="415.699" fill="#84BE84" rx="3" ry="3" style="stroke:#038048;stroke-width:1"/><text x="370.5" y="420.734" fill="#000" font-family="sans-serif" font-size="12" font-style="italic" lengthAdjust="spacingAndGlyphs" textLength="166">WaitForCardInsertionBlocking</text><line style="stroke:#d4ac0d;stroke-width:1.5" x1="331.5" x2="538.5" y1="432.199" y2="432.199"/><line style="stroke:#d4ac0d;stroke-width:1.5" x1="331.5" x2="538.5" y1="440.199" y2="440.199"/><polygon fill="#4177AF" points="341.5 447.199 337.5 453.199 345.5 453.199" style="stroke:#1963a0;stroke-width:1"/><text x="350.5" y="454.834" fill="#000" font-family="sans-serif" font-size="11" lengthAdjust="spacingAndGlyphs" textLength="159">boolean waitForCardPresent()</text><polygon fill="#4177AF" points="341.5 460.154 337.5 466.154 345.5 466.154" style="stroke:#1963a0;stroke-width:1"/><text x="350.5" y="467.789" fill="#000" font-family="sans-serif" font-size="11" lengthAdjust="spacingAndGlyphs" textLength="124">void stopWaitForCard()</text><rect id="WaitForCardInsertionNonBlocking" width="232" height="48" x="575" y="413.199" fill="#FEFECE" style="stroke:#d4ac0d;stroke-width:1.5"/><ellipse cx="590" cy="429.199" fill="#B4A7E5" rx="11" ry="11" style="stroke:#b4a7e5;stroke-width:1"/><path d="M586.4277,425.4644 L586.4277,423.3062 L593.8071,423.3062 L593.8071,425.4644 L591.3418,425.4644 L591.3418,433.541 L593.8071,433.541 L593.8071,435.6992 L586.4277,435.6992 L586.4277,433.541 L588.8931,433.541 L588.8931,425.4644 Z"/><ellipse cx="609" cy="428.699" fill="#84BE84" rx="3" ry="3" style="stroke:#038048;stroke-width:1"/><text x="615" y="433.734" fill="#000" font-family="sans-serif" font-size="12" font-style="italic" lengthAdjust="spacingAndGlyphs" textLength="189">WaitForCardInsertionNonBlocking</text><line style="stroke:#d4ac0d;stroke-width:1.5" x1="576" x2="806" y1="445.199" y2="445.199"/><line style="stroke:#d4ac0d;stroke-width:1.5" x1="576" x2="806" y1="453.199" y2="453.199"/><rect id="WaitForCardRemovalAutonomous" width="233" height="48" x="842.5" y="413.199" fill="#FEFECE" style="stroke:#d4ac0d;stroke-width:1.5"/><ellipse cx="857.5" cy="429.199" fill="#B4A7E5" rx="11" ry="11" style="stroke:#b4a7e5;stroke-width:1"/><path d="M853.9277,425.4644 L853.9277,423.3062 L861.3071,423.3062 L861.3071,425.4644 L858.8418,425.4644 L858.8418,433.541 L861.3071,433.541 L861.3071,435.6992 L853.9277,435.6992 L853.9277,433.541 L856.3931,433.541 L856.3931,425.4644 Z"/><ellipse cx="876.5" cy="428.699" fill="#84BE84" rx="3" ry="3" style="stroke:#038048;stroke-width:1"/><text x="882.5" y="433.734" fill="#000" font-family="sans-serif" font-size="12" font-style="italic" lengthAdjust="spacingAndGlyphs" textLength="190">WaitForCardRemovalAutonomous</text><line style="stroke:#d4ac0d;stroke-width:1.5" x1="843.5" x2="1074.5" y1="445.199" y2="445.199"/><line style="stroke:#d4ac0d;stroke-width:1.5" x1="843.5" x2="1074.5" y1="453.199" y2="453.199"/><rect id="WaitForCardRemovalBlocking" width="216" height="73.91" x="1111" y="400.199" fill="#FEFECE" style="stroke:#d4ac0d;stroke-width:1.5"/><ellipse cx="1129.15" cy="416.199" fill="#B4A7E5" rx="11" ry="11" style="stroke:#b4a7e5;stroke-width:1"/><path d="M1125.5777,412.4644 L1125.5777,410.3062 L1132.9571,410.3062 L1132.9571,412.4644 L1130.4918,412.4644 L1130.4918,420.541 L1132.9571,420.541 L1132.9571,422.6992 L1125.5777,422.6992 L1125.5777,420.541 L1128.0431,420.541 L1128.0431,412.4644 Z"/><ellipse cx="1148.85" cy="415.699" fill="#84BE84" rx="3" ry="3" style="stroke:#038048;stroke-width:1"/><text x="1154.85" y="420.734" fill="#000" font-family="sans-serif" font-size="12" font-style="italic" lengthAdjust="spacingAndGlyphs" textLength="166">WaitForCardRemovalBlocking</text><line style="stroke:#d4ac0d;stroke-width:1.5" x1="1112" x2="1326" y1="432.199" y2="432.199"/><line style="stroke:#d4ac0d;stroke-width:1.5" x1="1112" x2="1326" y1="440.199" y2="440.199"/><polygon fill="#4177AF" points="1122 447.199 1118 453.199 1126 453.199" style="stroke:#1963a0;stroke-width:1"/><text x="1131" y="454.834" fill="#000" font-family="sans-serif" font-size="11" lengthAdjust="spacingAndGlyphs" textLength="190">boolean waitForCardAbsentNative()</text><polygon fill="#4177AF" points="1122 460.154 1118 466.154 1126 466.154" style="stroke:#1963a0;stroke-width:1"/><text x="1131" y="467.789" fill="#000" font-family="sans-serif" font-size="11" lengthAdjust="spacingAndGlyphs" textLength="169">void stopWaitForCardRemoval()</text><rect id="WaitForCardRemovalNonBlocking" width="232" height="48" x="1362" y="413.199" fill="#FEFECE" style="stroke:#d4ac0d;stroke-width:1.5"/><ellipse cx="1377" cy="429.199" fill="#B4A7E5" rx="11" ry="11" style="stroke:#b4a7e5;stroke-width:1"/><path d="M1373.4277,425.4644 L1373.4277,423.3062 L1380.8071,423.3062 L1380.8071,425.4644 L1378.3418,425.4644 L1378.3418,433.541 L1380.8071,433.541 L1380.8071,435.6992 L1373.4277,435.6992 L1373.4277,433.541 L1375.8931,433.541 L1375.8931,425.4644 Z"/><ellipse cx="1396" cy="428.699" fill="#84BE84" rx="3" ry="3" style="stroke:#038048;stroke-width:1"/><text x="1402" y="433.734" fill="#000" font-family="sans-serif" font-size="12" font-style="italic" lengthAdjust="spacingAndGlyphs" textLength="189">WaitForCardRemovalNonBlocking</text><line style="stroke:#d4ac0d;stroke-width:1.5" x1="1363" x2="1593" y1="445.199" y2="445.199"/><line style="stroke:#d4ac0d;stroke-width:1.5" x1="1363" x2="1593" y1="453.199" y2="453.199"/><rect id="DontWaitForCardRemovalDuringProcessing" width="288" height="48" x="1629" y="413.199" fill="#FEFECE" style="stroke:#d4ac0d;stroke-width:1.5"/><ellipse cx="1644" cy="429.199" fill="#B4A7E5" rx="11" ry="11" style="stroke:#b4a7e5;stroke-width:1"/><path d="M1640.4277,425.4644 L1640.4277,423.3062 L1647.8071,423.3062 L1647.8071,425.4644 L1645.3418,425.4644 L1645.3418,433.541 L1647.8071,433.541 L1647.8071,435.6992 L1640.4277,435.6992 L1640.4277,433.541 L1642.8931,433.541 L1642.8931,425.4644 Z"/><ellipse cx="1663" cy="428.699" fill="#84BE84" rx="3" ry="3" style="stroke:#038048;stroke-width:1"/><text x="1669" y="433.734" fill="#000" font-family="sans-serif" font-size="12" font-style="italic" lengthAdjust="spacingAndGlyphs" textLength="245">DontWaitForCardRemovalDuringProcessing</text><line style="stroke:#d4ac0d;stroke-width:1.5" x1="1630" x2="1916" y1="445.199" y2="445.199"/><line style="stroke:#d4ac0d;stroke-width:1.5" x1="1630" x2="1916" y1="453.199" y2="453.199"/><rect id="WaitForCardRemovalDuringProcessing" width="261" height="48" x="1952.5" y="413.199" fill="#FEFECE" style="stroke:#d4ac0d;stroke-width:1.5"/><ellipse cx="1967.5" cy="429.199" fill="#B4A7E5" rx="11" ry="11" style="stroke:#b4a7e5;stroke-width:1"/><path d="M1963.9277,425.4644 L1963.9277,423.3062 L1971.3071,423.3062 L1971.3071,425.4644 L1968.8418,425.4644 L1968.8418,433.541 L1971.3071,433.541 L1971.3071,435.6992 L1963.9277,435.6992 L1963.9277,433.541 L1966.3931,433.541 L1966.3931,425.4644 Z"/><ellipse cx="1986.5" cy="428.699" fill="#84BE84" rx="3" ry="3" style="stroke:#038048;stroke-width:1"/><text x="1992.5" y="433.734" fill="#000" font-family="sans-serif" font-size="12" font-style="italic" lengthAdjust="spacingAndGlyphs" textLength="218">WaitForCardRemovalDuringProcessing</text><line style="stroke:#d4ac0d;stroke-width:1.5" x1="1953.5" x2="2212.5" y1="445.199" y2="445.199"/><line style="stroke:#d4ac0d;stroke-width:1.5" x1="1953.5" x2="2212.5" y1="453.199" y2="453.199"/><rect id="Reader" width="85" height="48" x="1046.5" y="29.199" fill="#FEFECE" style="stroke:#d4ac0d;stroke-width:1.5"/><ellipse cx="1061.5" cy="45.199" fill="#B4A7E5" rx="11" ry="11" style="stroke:#b4a7e5;stroke-width:1"/><path d="M1057.9277,41.4644 L1057.9277,39.3062 L1065.3071,39.3062 L1065.3071,41.4644 L1062.8418,41.4644 L1062.8418,49.541 L1065.3071,49.541 L1065.3071,51.6992 L1057.9277,51.6992 L1057.9277,49.541 L1060.3931,49.541 L1060.3931,41.4644 Z"/><ellipse cx="1080.5" cy="44.699" fill="#84BE84" rx="3" ry="3" style="stroke:#038048;stroke-width:1"/><text x="1086.5" y="49.734" fill="#000" font-family="sans-serif" font-size="12" font-style="italic" lengthAdjust="spacingAndGlyphs" textLength="42">Reader</text><line style="stroke:#d4ac0d;stroke-width:1.5" x1="1047.5" x2="1130.5" y1="61.199" y2="61.199"/><line style="stroke:#d4ac0d;stroke-width:1.5" x1="1047.5" x2="1130.5" y1="69.199" y2="69.199"/><rect id="ObservableReader" width="151" height="48" x="1013.5" y="137.199" fill="#FEFECE" style="stroke:#d4ac0d;stroke-width:1.5"/><ellipse cx="1028.5" cy="153.199" fill="#B4A7E5" rx="11" ry="11" style="stroke:#b4a7e5;stroke-width:1"/><path d="M1024.9277,149.4644 L1024.9277,147.3062 L1032.3071,147.3062 L1032.3071,149.4644 L1029.8418,149.4644 L1029.8418,157.541 L1032.3071,157.541 L1032.3071,159.6992 L1024.9277,159.6992 L1024.9277,157.541 L1027.3931,157.541 L1027.3931,149.4644 Z"/><ellipse cx="1047.5" cy="152.699" fill="#84BE84" rx="3" ry="3" style="stroke:#038048;stroke-width:1"/><text x="1053.5" y="157.734" fill="#000" font-family="sans-serif" font-size="12" font-style="italic" lengthAdjust="spacingAndGlyphs" textLength="108">ObservableReader</text><line style="stroke:#d4ac0d;stroke-width:1.5" x1="1014.5" x2="1163.5" y1="169.199" y2="169.199"/><line style="stroke:#d4ac0d;stroke-width:1.5" x1="1014.5" x2="1163.5" y1="177.199" y2="177.199"/><path id="Reader&lt;-ObservableReader" fill="none" d="M1089,97.2192 C1089,110.7792 1089,125.2392 1089,136.8792" style="stroke:#27ae60;stroke-width:1"/><polygon fill="none" points="1082 97.199 1089 77.199 1096 97.199 1082 97.199" style="stroke:#27ae60;stroke-width:1"/><path id="ObservableReader&lt;-ObservableReaderNotifier" fill="none" d="M1089,205.7492 C1089,229.3692 1089,257.9592 1089,279.0092" style="stroke:#27ae60;stroke-width:1"/><polygon fill="none" points="1082 205.409 1089 185.409 1096 205.409 1082 205.409" style="stroke:#27ae60;stroke-width:1"/><path id="ObservableReaderNotifier&lt;-WaitForCardInsertionAutonomous" fill="none" d="M946.21,320.8092 C789.8,333.3592 532.02,358.3892 313,400.1992 C294.78,403.6792 275.4,408.3192 257.2,413.1092" style="stroke:#27ae60;stroke-width:1"/><polygon fill="none" points="945.69 313.829 966.18 319.229 946.8 327.789 945.69 313.829" style="stroke:#27ae60;stroke-width:1"/><path id="ObservableReaderNotifier&lt;-WaitForCardInsertionBlocking" fill="none" d="M946.52,330.0592 C839.09,345.7792 688.46,370.2192 558,400.1992 C552.04,401.5692 545.94,403.0592 539.79,404.6292" style="stroke:#27ae60;stroke-width:1"/><polygon fill="none" points="945.6 323.119 966.4 327.179 947.61 336.979 945.6 323.119" style="stroke:#27ae60;stroke-width:1"/><path id="ObservableReaderNotifier&lt;-WaitForCardInsertionNonBlocking" fill="none" d="M976.26,346.2492 C908.21,367.7092 823.46,394.4292 764.09,413.1492" style="stroke:#27ae60;stroke-width:1"/><polygon fill="none" points="974.26 339.539 995.44 340.199 978.47 352.889 974.26 339.539" style="stroke:#27ae60;stroke-width:1"/><path id="ObservableReaderNotifier&lt;-WaitForCardRemovalAutonomous" fill="none" d="M1043.65,354.4792 C1023.27,374.1492 1000.05,396.5692 983.09,412.9392" style="stroke:#27ae60;stroke-width:1"/><polygon fill="none" points="1038.94 349.299 1058.19 340.439 1048.66 359.369 1038.94 349.299" style="stroke:#27ae60;stroke-width:1"/><path id="ObservableReaderNotifier&lt;-WaitForCardRemovalBlocking" fill="none" d="M1134.48,354.6092 C1149.83,369.4292 1166.79,385.7992 1181.46,399.9592" style="stroke:#27ae60;stroke-width:1"/><polygon fill="none" points="1129.34 359.369 1119.81 340.439 1139.06 349.299 1129.34 359.369" style="stroke:#27ae60;stroke-width:1"/><path id="ObservableReaderNotifier&lt;-WaitForCardRemovalNonBlocking" fill="none" d="M1199.86,346.4692 C1266.3,367.8992 1348.82,394.5192 1406.66,413.1792" style="stroke:#27ae60;stroke-width:1"/><polygon fill="none" points="1197.58 353.089 1180.69 340.279 1201.88 339.759 1197.58 353.089" style="stroke:#27ae60;stroke-width:1"/><path id="ObservableReaderNotifier&lt;-DontWaitForCardRemovalDuringProcessing" fill="none" d="M1231.48,333.0892 C1336.84,350.1292 1483.69,374.8892 1612,400.1992 C1631.95,404.1392 1653.22,408.6592 1673.54,413.1392" style="stroke:#27ae60;stroke-width:1"/><polygon fill="none" points="1230.27 339.979 1211.64 329.889 1232.5 326.159 1230.27 339.979" style="stroke:#27ae60;stroke-width:1"/><path id="ObservableReaderNotifier&lt;-WaitForCardRemovalDuringProcessing" fill="none" d="M1231.57,319.9592 C1400.38,332.2592 1689.6,357.5692 1935,400.1992 C1955.06,403.6892 1976.44,408.3292 1996.54,413.1192" style="stroke:#27ae60;stroke-width:1"/><polygon fill="none" points="1231.04 326.939 1211.59 318.519 1232.04 312.979 1231.04 326.939" style="stroke:#27ae60;stroke-width:1"/></g></svg>