<svg xmlns="http://www.w3.org/2000/svg" xmlns:xlink="http://www.w3.org/1999/xlink" width="185" height="226" contentScriptType="application/ecmascript" contentStyleType="text/css" style="width:185px;height:226px" preserveAspectRatio="none" version="1.1" viewBox="0 0 185 226" zoomAndPan="magnify"><g><rect id="Wait for Card Insertion" width="154" height="48" x="6.5" y="8" fill="#FEFECE" style="stroke:#d4ac0d;stroke-width:1.5"/><ellipse cx="21.5" cy="24" fill="#ADD1B2" rx="11" ry="11" style="stroke:#add1b2;stroke-width:1"/><path d="M23.5,20.5 Q23.7031,20 23.9375,19.75 Q24.1719,19.5 24.4375,19.5 Q24.9063,19.5 25.2031,19.7813 Q25.5,20.0625 25.5,20.7188 L25.5,22.2813 Q25.5,22.9375 25.2188,23.2188 Q24.9375,23.5 24.5,23.5 Q24.1094,23.5 23.8594,23.3281 Q23.6094,23.1563 23.5,22.7031 Q23.4531,22.3906 23.2813,22.2188 Q22.9688,21.8906 22.4063,21.7031 Q21.8438,21.5 21.2813,21.5 Q20.5781,21.5 19.9844,21.7813 Q19.4063,22.0625 18.9531,22.6875 Q18.5,23.3125 18.5,24.1719 L18.5,25.0938 Q18.5,26.125 19.3438,26.8125 Q20.1875,27.5 21.6875,27.5 Q22.5781,27.5 23.2031,27.2969 Q23.5625,27.1875 23.9688,26.8281 Q24.2344,26.625 24.375,26.5625 Q24.5156,26.5 24.6875,26.5 Q25.0156,26.5 25.25,26.7656 Q25.5,27.0156 25.5,27.375 Q25.5,27.7188 25.1563,28.125 Q24.6563,28.7188 23.8594,29.0469 Q22.8125,29.5 21.5313,29.5 Q20.0313,29.5 18.8281,28.9063 Q17.8594,28.4375 17.1719,27.4219 Q16.5,26.4063 16.5,25.2031 L16.5,24.1094 Q16.5,22.8594 17.0938,21.7656 Q17.7031,20.6719 18.75,20.0938 Q19.8125,19.5 21,19.5 Q21.7188,19.5 22.3438,19.75 Q22.9688,20 23.5,20.5 Z"/><text x="35.5" y="28.91" fill="#000" font-family="sans-serif" font-size="12" lengthAdjust="spacingAndGlyphs" textLength="122">Wait for Card Insertion</text><line style="stroke:#d4ac0d;stroke-width:1.5" x1="7.5" x2="159.5" y1="40" y2="40"/><line style="stroke:#d4ac0d;stroke-width:1.5" x1="7.5" x2="159.5" y1="48" y2="48"/><rect id="Wait for Card Removal" width="155" height="48" x="6" y="167" fill="#FEFECE" style="stroke:#d4ac0d;stroke-width:1.5"/><ellipse cx="21" cy="183" fill="#ADD1B2" rx="11" ry="11" style="stroke:#add1b2;stroke-width:1"/><path d="M23,179.5 Q23.2031,179 23.4375,178.75 Q23.6719,178.5 23.9375,178.5 Q24.4063,178.5 24.7031,178.7813 Q25,179.0625 25,179.7188 L25,181.2813 Q25,181.9375 24.7188,182.2188 Q24.4375,182.5 24,182.5 Q23.6094,182.5 23.3594,182.3281 Q23.1094,182.1563 23,181.7031 Q22.9531,181.3906 22.7813,181.2188 Q22.4688,180.8906 21.9063,180.7031 Q21.3438,180.5 20.7813,180.5 Q20.0781,180.5 19.4844,180.7813 Q18.9063,181.0625 18.4531,181.6875 Q18,182.3125 18,183.1719 L18,184.0938 Q18,185.125 18.8438,185.8125 Q19.6875,186.5 21.1875,186.5 Q22.0781,186.5 22.7031,186.2969 Q23.0625,186.1875 23.4688,185.8281 Q23.7344,185.625 23.875,185.5625 Q24.0156,185.5 24.1875,185.5 Q24.5156,185.5 24.75,185.7656 Q25,186.0156 25,186.375 Q25,186.7188 24.6563,187.125 Q24.1563,187.7188 23.3594,188.0469 Q22.3125,188.5 21.0313,188.5 Q19.5313,188.5 18.3281,187.9063 Q17.3594,187.4375 16.6719,186.4219 Q16,185.4063 16,184.2031 L16,183.1094 Q16,181.8594 16.5938,180.7656 Q17.2031,179.6719 18.25,179.0938 Q19.3125,178.5 20.5,178.5 Q21.2188,178.5 21.8438,178.75 Q22.4688,179 23,179.5 Z"/><text x="35" y="187.91" fill="#000" font-family="sans-serif" font-size="12" lengthAdjust="spacingAndGlyphs" textLength="123">Wait for Card Removal</text><line style="stroke:#d4ac0d;stroke-width:1.5" x1="7" x2="160" y1="199" y2="199"/><line style="stroke:#d4ac0d;stroke-width:1.5" x1="7" x2="160" y1="207" y2="207"/><path id="Wait for Card Insertion-&gt;Wait for Card Removal" fill="none" d="M48.2347,56.141 C38.7299,64.332 29.659,74.431 24.5,86 C15.2686,106.702 15.2686,116.2983 24.5,137 C28.9336,146.9424 36.2561,155.7988 44.2603,163.2917" style="stroke:red;stroke-width:1"/><polygon fill="red" points="48.235 166.859 44.209 157.871 44.514 163.519 38.865 163.824 48.235 166.859" style="stroke:red;stroke-width:1"/><text x="25.5" y="100.495" fill="#000" font-family="sans-serif" font-size="13" lengthAdjust="spacingAndGlyphs" textLength="70">notifies card</text><text x="37.5" y="116.847" fill="#000" font-family="sans-serif" font-size="13" lengthAdjust="spacingAndGlyphs" textLength="46">inserted</text><text x="28.5" y="133.198" fill="#000" font-family="sans-serif" font-size="13" lengthAdjust="spacingAndGlyphs" textLength="64">or selected</text><path id="Wait for Card Insertion&lt;-Wait for Card Removal" fill="none" d="M94.2495,60.951 C96.8235,68.922 99.2012,77.699 100.5,86 C104.0036,108.394 104.0036,114.606 100.5,137 C98.9317,147.0244 95.79,157.7417 92.6294,166.8972" style="stroke:red;stroke-width:1"/><polygon fill="red" points="92.629 56.103 91.69 65.907 94.215 60.845 99.277 63.37 92.629 56.103" style="stroke:red;stroke-width:1"/><text x="103.5" y="108.995" fill="#000" font-family="sans-serif" font-size="13" lengthAdjust="spacingAndGlyphs" textLength="70">notifies card</text><text x="114.5" y="125.347" fill="#000" font-family="sans-serif" font-size="13" lengthAdjust="spacingAndGlyphs" textLength="48">removed</text></g></svg>