<svg xmlns="http://www.w3.org/2000/svg" xmlns:xlink="http://www.w3.org/1999/xlink" width="1088" height="866" contentScriptType="application/ecmascript" contentStyleType="text/css" style="width:1088px;height:866px" preserveAspectRatio="none" version="1.1" viewBox="0 0 1088 866" zoomAndPan="magnify"><g><polygon fill="#FFF" points="22 24 242 24 249 47.609 580 47.609 580 854 22 854 22 24" style="stroke:#000;stroke-width:1.5"/><line style="stroke:#000;stroke-width:1.5" x1="22" x2="249" y1="47.609" y2="47.609"/><text x="26" y="40.533" fill="#000" font-family="sans-serif" font-size="14" font-weight="bold" lengthAdjust="spacingAndGlyphs" textLength="214">org.keyple.calypso.transaction</text><polygon fill="#FFF" points="630 45 894 45 901 68.609 1066 68.609 1066 771 630 771 630 45" style="stroke:#000;stroke-width:1.5"/><line style="stroke:#000;stroke-width:1.5" x1="630" x2="901" y1="68.609" y2="68.609"/><text x="634" y="61.533" fill="#000" font-family="sans-serif" font-size="14" font-weight="bold" lengthAdjust="spacingAndGlyphs" textLength="258">ticketing.operator.specificdatamodel</text><rect id="PoSelectionRequest" width="299" height="172.523" x="262.5" y="60" fill="#FEFECE" style="stroke:#d4ac0d;stroke-width:1.5"/><ellipse cx="345.75" cy="76" fill="#ADD1B2" rx="11" ry="11" style="stroke:#add1b2;stroke-width:1"/><path d="M347.75,72.5 Q347.9531,72 348.1875,71.75 Q348.4219,71.5 348.6875,71.5 Q349.1563,71.5 349.4531,71.7813 Q349.75,72.0625 349.75,72.7188 L349.75,74.2813 Q349.75,74.9375 349.4688,75.2188 Q349.1875,75.5 348.75,75.5 Q348.3594,75.5 348.1094,75.3281 Q347.8594,75.1563 347.75,74.7031 Q347.7031,74.3906 347.5313,74.2188 Q347.2188,73.8906 346.6563,73.7031 Q346.0938,73.5 345.5313,73.5 Q344.8281,73.5 344.2344,73.7813 Q343.6563,74.0625 343.2031,74.6875 Q342.75,75.3125 342.75,76.1719 L342.75,77.0938 Q342.75,78.125 343.5938,78.8125 Q344.4375,79.5 345.9375,79.5 Q346.8281,79.5 347.4531,79.2969 Q347.8125,79.1875 348.2188,78.8281 Q348.4844,78.625 348.625,78.5625 Q348.7656,78.5 348.9375,78.5 Q349.2656,78.5 349.5,78.7656 Q349.75,79.0156 349.75,79.375 Q349.75,79.7188 349.4063,80.125 Q348.9063,80.7188 348.1094,81.0469 Q347.0625,81.5 345.7813,81.5 Q344.2813,81.5 343.0781,80.9063 Q342.1094,80.4375 341.4219,79.4219 Q340.75,78.4063 340.75,77.2031 L340.75,76.1094 Q340.75,74.8594 341.3438,73.7656 Q341.9531,72.6719 343,72.0938 Q344.0625,71.5 345.25,71.5 Q345.9688,71.5 346.5938,71.75 Q347.2188,72 347.75,72.5 Z"/><ellipse cx="371.25" cy="75.5" fill="#84BE84" rx="3" ry="3" style="stroke:#038048;stroke-width:1"/><text x="377.25" y="80.91" fill="#000" font-family="sans-serif" font-size="12" lengthAdjust="spacingAndGlyphs" textLength="113">PoSelectionRequest</text><line style="stroke:#d4ac0d;stroke-width:1.5" x1="263.5" x2="560.5" y1="92" y2="92"/><line style="stroke:#d4ac0d;stroke-width:1.5" x1="263.5" x2="560.5" y1="100" y2="100"/><ellipse cx="273.5" cy="111" fill="#84BE84" rx="3" ry="3" style="stroke:#038048;stroke-width:1"/><text x="282.5" y="115.419" fill="#000" font-family="sans-serif" font-size="11" lengthAdjust="spacingAndGlyphs" textLength="211">PoSelectionRequest(PoSelector seSelector)</text><ellipse cx="273.5" cy="138.672" fill="#84BE84" rx="3" ry="3" style="stroke:#038048;stroke-width:1"/><text x="282.5" y="143.091" fill="#000" font-family="sans-serif" font-size="11" font-weight="bold" lengthAdjust="spacingAndGlyphs" textLength="23">final</text><text x="308.5" y="143.091" fill="#000" font-family="sans-serif" font-size="11" lengthAdjust="spacingAndGlyphs" textLength="143">prepareSelectFile(byte[] path)</text><ellipse cx="273.5" cy="152.508" fill="#84BE84" rx="3" ry="3" style="stroke:#038048;stroke-width:1"/><text x="282.5" y="156.927" fill="#000" font-family="sans-serif" font-size="11" font-weight="bold" lengthAdjust="spacingAndGlyphs" textLength="23">final</text><text x="308.5" y="156.927" fill="#000" font-family="sans-serif" font-size="11" lengthAdjust="spacingAndGlyphs" textLength="133">prepareSelectFile(shord lid)</text><ellipse cx="273.5" cy="166.344" fill="#84BE84" rx="3" ry="3" style="stroke:#038048;stroke-width:1"/><text x="282.5" y="170.763" fill="#000" font-family="sans-serif" font-size="11" font-weight="bold" lengthAdjust="spacingAndGlyphs" textLength="23">final</text><text x="308.5" y="170.763" fill="#000" font-family="sans-serif" font-size="11" lengthAdjust="spacingAndGlyphs" textLength="222">prepareSelectFile(SelectControl selectControl)</text><ellipse cx="273.5" cy="194.016" fill="#84BE84" rx="3" ry="3" style="stroke:#038048;stroke-width:1"/><text x="282.5" y="198.435" fill="#000" font-family="sans-serif" font-size="11" font-weight="bold" lengthAdjust="spacingAndGlyphs" textLength="23">final</text><text x="308.5" y="198.435" fill="#000" font-family="sans-serif" font-size="11" lengthAdjust="spacingAndGlyphs" textLength="247">prepareReadRecordFile(byte sfi, int recordNumber)</text><polygon fill="#FF4" points="273.5 216.688 277.5 220.688 273.5 224.688 269.5 220.688" style="stroke:#b38d22;stroke-width:1"/><text x="282.5" y="226.106" fill="#000" font-family="sans-serif" font-size="11" lengthAdjust="spacingAndGlyphs" textLength="216">CalypsoPo parse(SeResponse seResponse)</text><rect id="CalypsoPo" width="309" height="131.016" x="254.5" y="294" fill="#FEFECE" style="stroke:#d4ac0d;stroke-width:1.5"/><ellipse cx="369.25" cy="310" fill="#ADD1B2" rx="11" ry="11" style="stroke:#add1b2;stroke-width:1"/><path d="M371.25,306.5 Q371.4531,306 371.6875,305.75 Q371.9219,305.5 372.1875,305.5 Q372.6563,305.5 372.9531,305.7813 Q373.25,306.0625 373.25,306.7188 L373.25,308.2813 Q373.25,308.9375 372.9688,309.2188 Q372.6875,309.5 372.25,309.5 Q371.8594,309.5 371.6094,309.3281 Q371.3594,309.1563 371.25,308.7031 Q371.2031,308.3906 371.0313,308.2188 Q370.7188,307.8906 370.1563,307.7031 Q369.5938,307.5 369.0313,307.5 Q368.3281,307.5 367.7344,307.7813 Q367.1563,308.0625 366.7031,308.6875 Q366.25,309.3125 366.25,310.1719 L366.25,311.0938 Q366.25,312.125 367.0938,312.8125 Q367.9375,313.5 369.4375,313.5 Q370.3281,313.5 370.9531,313.2969 Q371.3125,313.1875 371.7188,312.8281 Q371.9844,312.625 372.125,312.5625 Q372.2656,312.5 372.4375,312.5 Q372.7656,312.5 373,312.7656 Q373.25,313.0156 373.25,313.375 Q373.25,313.7188 372.9063,314.125 Q372.4063,314.7188 371.6094,315.0469 Q370.5625,315.5 369.2813,315.5 Q367.7813,315.5 366.5781,314.9063 Q365.6094,314.4375 364.9219,313.4219 Q364.25,312.4063 364.25,311.2031 L364.25,310.1094 Q364.25,308.8594 364.8438,307.7656 Q365.4531,306.6719 366.5,306.0938 Q367.5625,305.5 368.75,305.5 Q369.4688,305.5 370.0938,305.75 Q370.7188,306 371.25,306.5 Z"/><ellipse cx="394.75" cy="309.5" fill="#84BE84" rx="3" ry="3" style="stroke:#038048;stroke-width:1"/><text x="400.75" y="314.91" fill="#000" font-family="sans-serif" font-size="12" lengthAdjust="spacingAndGlyphs" textLength="60">CalypsoPo</text><line style="stroke:#d4ac0d;stroke-width:1.5" x1="255.5" x2="562.5" y1="326" y2="326"/><line style="stroke:#d4ac0d;stroke-width:1.5" x1="255.5" x2="562.5" y1="334" y2="334"/><polygon fill="#4177AF" points="265.5 341 261.5 347 269.5 347" style="stroke:#1963a0;stroke-width:1"/><text x="274.5" y="349.419" fill="#000" font-family="sans-serif" font-size="11" lengthAdjust="spacingAndGlyphs" textLength="55">CalypsoPo(</text><text x="329.5" y="349.419" fill="red" font-family="sans-serif" font-size="11" lengthAdjust="spacingAndGlyphs" textLength="116">CardSelectionResponse</text><text x="448.5" y="349.419" fill="#000" font-family="sans-serif" font-size="11" lengthAdjust="spacingAndGlyphs" textLength="109">poSelectionResponse)</text><ellipse cx="265.5" cy="372.672" fill="#84BE84" rx="3" ry="3" style="stroke:#038048;stroke-width:1"/><text x="274.5" y="377.091" fill="#000" font-family="sans-serif" font-size="11" font-weight="bold" lengthAdjust="spacingAndGlyphs" textLength="23">final</text><text x="300.5" y="377.091" fill="#000" font-family="sans-serif" font-size="11" lengthAdjust="spacingAndGlyphs" textLength="184">DirectoryHeader getDirectoryHeader()</text><ellipse cx="265.5" cy="386.508" fill="#84BE84" rx="3" ry="3" style="stroke:#038048;stroke-width:1"/><text x="274.5" y="390.927" fill="#000" font-family="sans-serif" font-size="11" font-weight="bold" lengthAdjust="spacingAndGlyphs" textLength="23">final</text><text x="300.5" y="390.927" fill="#000" font-family="sans-serif" font-size="11" lengthAdjust="spacingAndGlyphs" textLength="173">ElementaryFile getFileBySfi(byte sfi)</text><ellipse cx="265.5" cy="400.344" fill="#84BE84" rx="3" ry="3" style="stroke:#038048;stroke-width:1"/><text x="274.5" y="404.763" fill="#000" font-family="sans-serif" font-size="11" font-weight="bold" lengthAdjust="spacingAndGlyphs" textLength="23">final</text><text x="300.5" y="404.763" fill="#000" font-family="sans-serif" font-size="11" lengthAdjust="spacingAndGlyphs" textLength="176">ElementaryFile getFileByLid(short lid)</text><ellipse cx="265.5" cy="414.18" fill="#84BE84" rx="3" ry="3" style="stroke:#038048;stroke-width:1"/><text x="274.5" y="418.599" fill="#000" font-family="sans-serif" font-size="11" font-weight="bold" lengthAdjust="spacingAndGlyphs" textLength="23">final</text><text x="300.5" y="418.599" fill="#000" font-family="sans-serif" font-size="11" lengthAdjust="spacingAndGlyphs" textLength="189">Map&lt;Byte, ElementaryFile&gt; getAllFiles()</text><rect id="PoTransaction" width="525" height="352.391" x="38.5" y="486" fill="#FEFECE" style="stroke:#d4ac0d;stroke-width:1.5"/><ellipse cx="251.25" cy="502" fill="#ADD1B2" rx="11" ry="11" style="stroke:#add1b2;stroke-width:1"/><path d="M253.25,498.5 Q253.4531,498 253.6875,497.75 Q253.9219,497.5 254.1875,497.5 Q254.6563,497.5 254.9531,497.7813 Q255.25,498.0625 255.25,498.7188 L255.25,500.2813 Q255.25,500.9375 254.9688,501.2188 Q254.6875,501.5 254.25,501.5 Q253.8594,501.5 253.6094,501.3281 Q253.3594,501.1563 253.25,500.7031 Q253.2031,500.3906 253.0313,500.2188 Q252.7188,499.8906 252.1563,499.7031 Q251.5938,499.5 251.0313,499.5 Q250.3281,499.5 249.7344,499.7813 Q249.1563,500.0625 248.7031,500.6875 Q248.25,501.3125 248.25,502.1719 L248.25,503.0938 Q248.25,504.125 249.0938,504.8125 Q249.9375,505.5 251.4375,505.5 Q252.3281,505.5 252.9531,505.2969 Q253.3125,505.1875 253.7188,504.8281 Q253.9844,504.625 254.125,504.5625 Q254.2656,504.5 254.4375,504.5 Q254.7656,504.5 255,504.7656 Q255.25,505.0156 255.25,505.375 Q255.25,505.7188 254.9063,506.125 Q254.4063,506.7188 253.6094,507.0469 Q252.5625,507.5 251.2813,507.5 Q249.7813,507.5 248.5781,506.9063 Q247.6094,506.4375 246.9219,505.4219 Q246.25,504.4063 246.25,503.2031 L246.25,502.1094 Q246.25,500.8594 246.8438,499.7656 Q247.4531,498.6719 248.5,498.0938 Q249.5625,497.5 250.75,497.5 Q251.4688,497.5 252.0938,497.75 Q252.7188,498 253.25,498.5 Z"/><ellipse cx="276.75" cy="501.5" fill="#84BE84" rx="3" ry="3" style="stroke:#038048;stroke-width:1"/><text x="282.75" y="506.91" fill="#000" font-family="sans-serif" font-size="12" lengthAdjust="spacingAndGlyphs" textLength="80">PoTransaction</text><line style="stroke:#d4ac0d;stroke-width:1.5" x1="39.5" x2="562.5" y1="518" y2="518"/><line style="stroke:#d4ac0d;stroke-width:1.5" x1="39.5" x2="562.5" y1="526" y2="526"/><ellipse cx="49.5" cy="537" fill="#84BE84" rx="3" ry="3" style="stroke:#038048;stroke-width:1"/><text x="58.5" y="541.419" fill="#000" font-family="sans-serif" font-size="11" lengthAdjust="spacingAndGlyphs" textLength="452">PoTransaction(SeResource&lt;CalypsoPo&gt; poResource, PoSecuritySetting[0..1] securitySetting)</text><ellipse cx="49.5" cy="564.672" fill="#84BE84" rx="3" ry="3" style="stroke:#038048;stroke-width:1"/><text x="58.5" y="569.091" fill="#000" font-family="sans-serif" font-size="11" font-weight="bold" lengthAdjust="spacingAndGlyphs" textLength="23">final</text><text x="84.5" y="569.091" fill="#000" font-family="sans-serif" font-size="11" lengthAdjust="spacingAndGlyphs" textLength="130">prepareSelectFile(short lid)</text><ellipse cx="49.5" cy="578.508" fill="#84BE84" rx="3" ry="3" style="stroke:#038048;stroke-width:1"/><text x="58.5" y="582.927" fill="#000" font-family="sans-serif" font-size="11" font-weight="bold" lengthAdjust="spacingAndGlyphs" textLength="23">final</text><text x="84.5" y="582.927" fill="#000" font-family="sans-serif" font-size="11" lengthAdjust="spacingAndGlyphs" textLength="132">prepareSelectFile(byte[] lid)</text><ellipse cx="49.5" cy="592.344" fill="#84BE84" rx="3" ry="3" style="stroke:#038048;stroke-width:1"/><text x="58.5" y="596.763" fill="#000" font-family="sans-serif" font-size="11" font-weight="bold" lengthAdjust="spacingAndGlyphs" textLength="23">final</text><text x="84.5" y="596.763" fill="#000" font-family="sans-serif" font-size="11" lengthAdjust="spacingAndGlyphs" textLength="208">prepareSelectFile(SelectFileControl control)</text><ellipse cx="49.5" cy="606.18" fill="#84BE84" rx="3" ry="3" style="stroke:#038048;stroke-width:1"/><text x="58.5" y="610.599" fill="#000" font-family="sans-serif" font-size="11" font-weight="bold" lengthAdjust="spacingAndGlyphs" textLength="23">final</text><text x="84.5" y="610.599" fill="#000" font-family="sans-serif" font-size="11" lengthAdjust="spacingAndGlyphs" textLength="247">prepareReadRecordFile(byte sfi, int recordNumber)</text><ellipse cx="49.5" cy="620.016" fill="#84BE84" rx="3" ry="3" style="stroke:#038048;stroke-width:1"/><text x="58.5" y="624.435" fill="#000" font-family="sans-serif" font-size="11" font-weight="bold" lengthAdjust="spacingAndGlyphs" textLength="23">final</text><text x="84.5" y="624.435" fill="#000" font-family="sans-serif" font-size="11" lengthAdjust="spacingAndGlyphs" textLength="455">prepareReadRecordFile(byte sfi, int firstRecordNumber, int numberOfRecords, int recordSize))</text><ellipse cx="49.5" cy="633.852" fill="#84BE84" rx="3" ry="3" style="stroke:#038048;stroke-width:1"/><text x="58.5" y="638.27" fill="#000" font-family="sans-serif" font-size="11" font-weight="bold" lengthAdjust="spacingAndGlyphs" textLength="23">final</text><text x="84.5" y="638.27" fill="#000" font-family="sans-serif" font-size="11" lengthAdjust="spacingAndGlyphs" textLength="473">prepareReadSubRecordFile(byte sfi, int firstRecordNumber, int numberOfRecord, int recordOffset,</text><text x="58.5" y="652.106" fill="#000" font-family="sans-serif" font-size="11" lengthAdjust="spacingAndGlyphs" textLength="83">int recordLength)</text><ellipse cx="49.5" cy="661.523" fill="#84BE84" rx="3" ry="3" style="stroke:#038048;stroke-width:1"/><text x="58.5" y="665.942" fill="#000" font-family="sans-serif" font-size="11" font-weight="bold" lengthAdjust="spacingAndGlyphs" textLength="23">final</text><text x="84.5" y="665.942" fill="#000" font-family="sans-serif" font-size="11" lengthAdjust="spacingAndGlyphs" textLength="324">prepareReadBinaryFile(byte sfi, int dataLength, int[0..1] dataOffset)</text><ellipse cx="49.5" cy="675.359" fill="#84BE84" rx="3" ry="3" style="stroke:#038048;stroke-width:1"/><text x="58.5" y="679.778" fill="#000" font-family="sans-serif" font-size="11" font-weight="bold" lengthAdjust="spacingAndGlyphs" textLength="23">final</text><text x="84.5" y="679.778" fill="#000" font-family="sans-serif" font-size="11" lengthAdjust="spacingAndGlyphs" textLength="261">prepareReadCounterFile(byte sfi, int countersNumber)</text><ellipse cx="49.5" cy="689.195" fill="#84BE84" rx="3" ry="3" style="stroke:#038048;stroke-width:1"/><text x="58.5" y="693.614" fill="#000" font-family="sans-serif" font-size="11" font-weight="bold" lengthAdjust="spacingAndGlyphs" textLength="23">final</text><text x="84.5" y="693.614" fill="#000" font-family="sans-serif" font-size="11" lengthAdjust="spacingAndGlyphs" textLength="245">prepareAppendRecord(byte sfi, byte[] recordData)</text><ellipse cx="49.5" cy="703.031" fill="#84BE84" rx="3" ry="3" style="stroke:#038048;stroke-width:1"/><text x="58.5" y="707.45" fill="#000" font-family="sans-serif" font-size="11" font-weight="bold" lengthAdjust="spacingAndGlyphs" textLength="23">final</text><text x="84.5" y="707.45" fill="#000" font-family="sans-serif" font-size="11" lengthAdjust="spacingAndGlyphs" textLength="330">prepareUpdateRecord(byte sfi, int recordNumber, byte[] recordData)</text><ellipse cx="49.5" cy="716.867" fill="#84BE84" rx="3" ry="3" style="stroke:#038048;stroke-width:1"/><text x="58.5" y="721.286" fill="#000" font-family="sans-serif" font-size="11" font-weight="bold" lengthAdjust="spacingAndGlyphs" textLength="23">final</text><text x="84.5" y="721.286" fill="#000" font-family="sans-serif" font-size="11" lengthAdjust="spacingAndGlyphs" textLength="321">prepareWriteRecord(byte sfi, int recordNumber, byte[] recordData)</text><ellipse cx="49.5" cy="730.703" fill="#84BE84" rx="3" ry="3" style="stroke:#038048;stroke-width:1"/><text x="58.5" y="735.122" fill="#000" font-family="sans-serif" font-size="11" font-weight="bold" lengthAdjust="spacingAndGlyphs" textLength="23">final</text><text x="84.5" y="735.122" fill="#000" font-family="sans-serif" font-size="11" lengthAdjust="spacingAndGlyphs" textLength="331">prepareUpdateBinaryFile(byte sfi, byte[] fileData, int[0..1] dataOffset)</text><ellipse cx="49.5" cy="744.539" fill="#84BE84" rx="3" ry="3" style="stroke:#038048;stroke-width:1"/><text x="58.5" y="748.958" fill="#000" font-family="sans-serif" font-size="11" font-weight="bold" lengthAdjust="spacingAndGlyphs" textLength="23">final</text><text x="84.5" y="748.958" fill="#000" font-family="sans-serif" font-size="11" lengthAdjust="spacingAndGlyphs" textLength="322">prepareWriteBinaryFile(byte sfi, byte[] fileData, int[0..1] dataOffset)</text><ellipse cx="49.5" cy="758.375" fill="#84BE84" rx="3" ry="3" style="stroke:#038048;stroke-width:1"/><text x="58.5" y="762.794" fill="#000" font-family="sans-serif" font-size="11" font-weight="bold" lengthAdjust="spacingAndGlyphs" textLength="23">final</text><text x="84.5" y="762.794" fill="#000" font-family="sans-serif" font-size="11" lengthAdjust="spacingAndGlyphs" textLength="318">prepareIncreaseCounter(byte sfi, int counterNumber, int incValue)</text><ellipse cx="49.5" cy="772.211" fill="#84BE84" rx="3" ry="3" style="stroke:#038048;stroke-width:1"/><text x="58.5" y="776.63" fill="#000" font-family="sans-serif" font-size="11" font-weight="bold" lengthAdjust="spacingAndGlyphs" textLength="23">final</text><text x="84.5" y="776.63" fill="#000" font-family="sans-serif" font-size="11" lengthAdjust="spacingAndGlyphs" textLength="327">prepareDecreaseCounter(byte sfi, int counterNumber, int decValue)</text><ellipse cx="49.5" cy="786.047" fill="#84BE84" rx="3" ry="3" style="stroke:#038048;stroke-width:1"/><text x="58.5" y="790.466" fill="#000" font-family="sans-serif" font-size="11" font-weight="bold" lengthAdjust="spacingAndGlyphs" textLength="23">final</text><text x="84.5" y="790.466" fill="#000" font-family="sans-serif" font-size="11" lengthAdjust="spacingAndGlyphs" textLength="300">prepareSetCounter(byte sfi, int counterNumber, int newValue)</text><ellipse cx="49.5" cy="799.883" fill="#84BE84" rx="3" ry="3" style="stroke:#038048;stroke-width:1"/><text x="58.5" y="804.302" fill="#000" font-family="sans-serif" font-size="11" font-weight="bold" lengthAdjust="spacingAndGlyphs" textLength="23">final</text><text x="84.5" y="804.302" fill="#000" font-family="sans-serif" font-size="11" lengthAdjust="spacingAndGlyphs" textLength="472">int prepareSearchRecord(byte sfi, byte offset, SearchOffsetMode offsetMode, byte[] searchData,</text><text x="58.5" y="818.138" fill="#000" font-family="sans-serif" font-size="11" lengthAdjust="spacingAndGlyphs" textLength="237">Byte[] searchMask, SearchReadMode readMode)</text><ellipse cx="49.5" cy="827.555" fill="#84BE84" rx="3" ry="3" style="stroke:#038048;stroke-width:1"/><text x="58.5" y="831.974" fill="#000" font-family="sans-serif" font-size="11" font-weight="bold" lengthAdjust="spacingAndGlyphs" textLength="23">final</text><text x="84.5" y="831.974" fill="#000" font-family="sans-serif" font-size="11" lengthAdjust="spacingAndGlyphs" textLength="233">int[] getSearchResult(int searchRequestNumber)</text><rect id="SpecificPoSelectionRequest" width="281" height="131.016" x="646.5" y="81" fill="#FEFECE" style="stroke:#d4ac0d;stroke-width:1.5"/><ellipse cx="686.25" cy="97" fill="#ADD1B2" rx="11" ry="11" style="stroke:#add1b2;stroke-width:1"/><path d="M688.25,93.5 Q688.4531,93 688.6875,92.75 Q688.9219,92.5 689.1875,92.5 Q689.6563,92.5 689.9531,92.7813 Q690.25,93.0625 690.25,93.7188 L690.25,95.2813 Q690.25,95.9375 689.9688,96.2188 Q689.6875,96.5 689.25,96.5 Q688.8594,96.5 688.6094,96.3281 Q688.3594,96.1563 688.25,95.7031 Q688.2031,95.3906 688.0313,95.2188 Q687.7188,94.8906 687.1563,94.7031 Q686.5938,94.5 686.0313,94.5 Q685.3281,94.5 684.7344,94.7813 Q684.1563,95.0625 683.7031,95.6875 Q683.25,96.3125 683.25,97.1719 L683.25,98.0938 Q683.25,99.125 684.0938,99.8125 Q684.9375,100.5 686.4375,100.5 Q687.3281,100.5 687.9531,100.2969 Q688.3125,100.1875 688.7188,99.8281 Q688.9844,99.625 689.125,99.5625 Q689.2656,99.5 689.4375,99.5 Q689.7656,99.5 690,99.7656 Q690.25,100.0156 690.25,100.375 Q690.25,100.7188 689.9063,101.125 Q689.4063,101.7188 688.6094,102.0469 Q687.5625,102.5 686.2813,102.5 Q684.7813,102.5 683.5781,101.9063 Q682.6094,101.4375 681.9219,100.4219 Q681.25,99.4063 681.25,98.2031 L681.25,97.1094 Q681.25,95.8594 681.8438,94.7656 Q682.4531,93.6719 683.5,93.0938 Q684.5625,92.5 685.75,92.5 Q686.4688,92.5 687.0938,92.75 Q687.7188,93 688.25,93.5 Z"/><ellipse cx="710.75" cy="96.5" fill="#84BE84" rx="3" ry="3" style="stroke:#038048;stroke-width:1"/><text x="716.75" y="101.91" fill="#000" font-family="sans-serif" font-size="12" font-weight="bold" lengthAdjust="spacingAndGlyphs" textLength="24">final</text><text x="743.75" y="101.91" fill="#000" font-family="sans-serif" font-size="12" lengthAdjust="spacingAndGlyphs" textLength="156">SpecificPoSelectionRequest</text><line style="stroke:#d4ac0d;stroke-width:1.5" x1="647.5" x2="926.5" y1="113" y2="113"/><line style="stroke:#d4ac0d;stroke-width:1.5" x1="647.5" x2="926.5" y1="121" y2="121"/><ellipse cx="657.5" cy="132" fill="#84BE84" rx="3" ry="3" style="stroke:#038048;stroke-width:1"/><text x="666.5" y="136.419" fill="#000" font-family="sans-serif" font-size="11" lengthAdjust="spacingAndGlyphs" textLength="250">SpecificPoSelectionRequest(PoSelector seSelector)</text><ellipse cx="657.5" cy="159.672" fill="#84BE84" rx="3" ry="3" style="stroke:#038048;stroke-width:1"/><text x="666.5" y="164.091" fill="#000" font-family="sans-serif" font-size="11" lengthAdjust="spacingAndGlyphs" textLength="130">prepareReadEnvironment()</text><ellipse cx="657.5" cy="173.508" fill="#84BE84" rx="3" ry="3" style="stroke:#038048;stroke-width:1"/><text x="666.5" y="177.927" fill="#000" font-family="sans-serif" font-size="11" lengthAdjust="spacingAndGlyphs" textLength="116">prepareReadEventLog()</text><polygon fill="#FF4" points="657.5 196.18 661.5 200.18 657.5 204.18 653.5 200.18" style="stroke:#b38d22;stroke-width:1"/><text x="666.5" y="205.599" fill="#000" font-family="sans-serif" font-size="11" lengthAdjust="spacingAndGlyphs" textLength="255">SpecificCalypsoPo parse(SeResponse seResponse)</text><rect id="SpecificCalypsoPo" width="173" height="103.344" x="700.5" y="308" fill="#FEFECE" style="stroke:#d4ac0d;stroke-width:1.5"/><ellipse cx="715.5" cy="324" fill="#ADD1B2" rx="11" ry="11" style="stroke:#add1b2;stroke-width:1"/><path d="M717.5,320.5 Q717.7031,320 717.9375,319.75 Q718.1719,319.5 718.4375,319.5 Q718.9063,319.5 719.2031,319.7813 Q719.5,320.0625 719.5,320.7188 L719.5,322.2813 Q719.5,322.9375 719.2188,323.2188 Q718.9375,323.5 718.5,323.5 Q718.1094,323.5 717.8594,323.3281 Q717.6094,323.1563 717.5,322.7031 Q717.4531,322.3906 717.2813,322.2188 Q716.9688,321.8906 716.4063,321.7031 Q715.8438,321.5 715.2813,321.5 Q714.5781,321.5 713.9844,321.7813 Q713.4063,322.0625 712.9531,322.6875 Q712.5,323.3125 712.5,324.1719 L712.5,325.0938 Q712.5,326.125 713.3438,326.8125 Q714.1875,327.5 715.6875,327.5 Q716.5781,327.5 717.2031,327.2969 Q717.5625,327.1875 717.9688,326.8281 Q718.2344,326.625 718.375,326.5625 Q718.5156,326.5 718.6875,326.5 Q719.0156,326.5 719.25,326.7656 Q719.5,327.0156 719.5,327.375 Q719.5,327.7188 719.1563,328.125 Q718.6563,328.7188 717.8594,329.0469 Q716.8125,329.5 715.5313,329.5 Q714.0313,329.5 712.8281,328.9063 Q711.8594,328.4375 711.1719,327.4219 Q710.5,326.4063 710.5,325.2031 L710.5,324.1094 Q710.5,322.8594 711.0938,321.7656 Q711.7031,320.6719 712.75,320.0938 Q713.8125,319.5 715,319.5 Q715.7188,319.5 716.3438,319.75 Q716.9688,320 717.5,320.5 Z"/><ellipse cx="734.5" cy="323.5" fill="#84BE84" rx="3" ry="3" style="stroke:#038048;stroke-width:1"/><text x="740.5" y="328.91" fill="#000" font-family="sans-serif" font-size="12" font-weight="bold" lengthAdjust="spacingAndGlyphs" textLength="24">final</text><text x="767.5" y="328.91" fill="#000" font-family="sans-serif" font-size="12" lengthAdjust="spacingAndGlyphs" textLength="103">SpecificCalypsoPo</text><line style="stroke:#d4ac0d;stroke-width:1.5" x1="701.5" x2="872.5" y1="340" y2="340"/><line style="stroke:#d4ac0d;stroke-width:1.5" x1="701.5" x2="872.5" y1="348" y2="348"/><ellipse cx="711.5" cy="359" fill="#84BE84" rx="3" ry="3" style="stroke:#038048;stroke-width:1"/><text x="720.5" y="363.419" fill="#000" font-family="sans-serif" font-size="11" lengthAdjust="spacingAndGlyphs" textLength="113">String getEnvironment()</text><ellipse cx="711.5" cy="372.836" fill="#84BE84" rx="3" ry="3" style="stroke:#038048;stroke-width:1"/><text x="720.5" y="377.255" fill="#000" font-family="sans-serif" font-size="11" lengthAdjust="spacingAndGlyphs" textLength="99">String getEventLog()</text><ellipse cx="711.5" cy="386.672" fill="#84BE84" rx="3" ry="3" style="stroke:#038048;stroke-width:1"/><text x="720.5" y="391.091" fill="#000" font-family="sans-serif" font-size="11" lengthAdjust="spacingAndGlyphs" textLength="114">String getContractTitle()</text><ellipse cx="711.5" cy="400.508" fill="#84BE84" rx="3" ry="3" style="stroke:#038048;stroke-width:1"/><text x="720.5" y="404.927" fill="#000" font-family="sans-serif" font-size="11" lengthAdjust="spacingAndGlyphs" textLength="114">int getNumberOfTicket()</text><rect id="SpecificPoTransaction" width="403" height="186.359" x="646.5" y="569" fill="#FEFECE" style="stroke:#d4ac0d;stroke-width:1.5"/><ellipse cx="763.25" cy="585" fill="#ADD1B2" rx="11" ry="11" style="stroke:#add1b2;stroke-width:1"/><path d="M765.25,581.5 Q765.4531,581 765.6875,580.75 Q765.9219,580.5 766.1875,580.5 Q766.6563,580.5 766.9531,580.7813 Q767.25,581.0625 767.25,581.7188 L767.25,583.2813 Q767.25,583.9375 766.9688,584.2188 Q766.6875,584.5 766.25,584.5 Q765.8594,584.5 765.6094,584.3281 Q765.3594,584.1563 765.25,583.7031 Q765.2031,583.3906 765.0313,583.2188 Q764.7188,582.8906 764.1563,582.7031 Q763.5938,582.5 763.0313,582.5 Q762.3281,582.5 761.7344,582.7813 Q761.1563,583.0625 760.7031,583.6875 Q760.25,584.3125 760.25,585.1719 L760.25,586.0938 Q760.25,587.125 761.0938,587.8125 Q761.9375,588.5 763.4375,588.5 Q764.3281,588.5 764.9531,588.2969 Q765.3125,588.1875 765.7188,587.8281 Q765.9844,587.625 766.125,587.5625 Q766.2656,587.5 766.4375,587.5 Q766.7656,587.5 767,587.7656 Q767.25,588.0156 767.25,588.375 Q767.25,588.7188 766.9063,589.125 Q766.4063,589.7188 765.6094,590.0469 Q764.5625,590.5 763.2813,590.5 Q761.7813,590.5 760.5781,589.9063 Q759.6094,589.4375 758.9219,588.4219 Q758.25,587.4063 758.25,586.2031 L758.25,585.1094 Q758.25,583.8594 758.8438,582.7656 Q759.4531,581.6719 760.5,581.0938 Q761.5625,580.5 762.75,580.5 Q763.4688,580.5 764.0938,580.75 Q764.7188,581 765.25,581.5 Z"/><ellipse cx="788.75" cy="584.5" fill="#84BE84" rx="3" ry="3" style="stroke:#038048;stroke-width:1"/><text x="794.75" y="589.91" fill="#000" font-family="sans-serif" font-size="12" font-weight="bold" lengthAdjust="spacingAndGlyphs" textLength="24">final</text><text x="821.75" y="589.91" fill="#000" font-family="sans-serif" font-size="12" lengthAdjust="spacingAndGlyphs" textLength="123">SpecificPoTransaction</text><line style="stroke:#d4ac0d;stroke-width:1.5" x1="647.5" x2="1048.5" y1="601" y2="601"/><line style="stroke:#d4ac0d;stroke-width:1.5" x1="647.5" x2="1048.5" y1="609" y2="609"/><ellipse cx="657.5" cy="620" fill="#84BE84" rx="3" ry="3" style="stroke:#038048;stroke-width:1"/><text x="666.5" y="624.419" fill="#000" font-family="sans-serif" font-size="11" lengthAdjust="spacingAndGlyphs" textLength="377">SpecificPoTransaction(SeResource&lt;SpecificCalypsoPo&gt; specificPoResource,</text><text x="666.5" y="638.255" fill="#000" font-family="sans-serif" font-size="11" lengthAdjust="spacingAndGlyphs" textLength="188">PoSecuritySetting[0..1] securitySetting)</text><ellipse cx="657.5" cy="661.508" fill="#84BE84" rx="3" ry="3" style="stroke:#038048;stroke-width:1"/><text x="666.5" y="665.927" fill="#000" font-family="sans-serif" font-size="11" lengthAdjust="spacingAndGlyphs" textLength="130">prepareReadEnvironment()</text><ellipse cx="657.5" cy="675.344" fill="#84BE84" rx="3" ry="3" style="stroke:#038048;stroke-width:1"/><text x="666.5" y="679.763" fill="#000" font-family="sans-serif" font-size="11" lengthAdjust="spacingAndGlyphs" textLength="245">preparePersoEnvironment(String environmentData)</text><ellipse cx="657.5" cy="689.18" fill="#84BE84" rx="3" ry="3" style="stroke:#038048;stroke-width:1"/><text x="666.5" y="693.599" fill="#000" font-family="sans-serif" font-size="11" lengthAdjust="spacingAndGlyphs" textLength="116">prepareReadEventLog()</text><ellipse cx="657.5" cy="703.016" fill="#84BE84" rx="3" ry="3" style="stroke:#038048;stroke-width:1"/><text x="666.5" y="707.435" fill="#000" font-family="sans-serif" font-size="11" lengthAdjust="spacingAndGlyphs" textLength="205">prepareUpdateEventLog(String eventData)</text><ellipse cx="657.5" cy="716.852" fill="#84BE84" rx="3" ry="3" style="stroke:#038048;stroke-width:1"/><text x="666.5" y="721.27" fill="#000" font-family="sans-serif" font-size="11" lengthAdjust="spacingAndGlyphs" textLength="112">prepareReadContract()</text><ellipse cx="657.5" cy="730.688" fill="#84BE84" rx="3" ry="3" style="stroke:#038048;stroke-width:1"/><text x="666.5" y="735.106" fill="#000" font-family="sans-serif" font-size="11" lengthAdjust="spacingAndGlyphs" textLength="303">prepareLoadContract(String contractTitle, int numberOfTickets)</text><ellipse cx="657.5" cy="744.523" fill="#84BE84" rx="3" ry="3" style="stroke:#038048;stroke-width:1"/><text x="666.5" y="748.942" fill="#000" font-family="sans-serif" font-size="11" lengthAdjust="spacingAndGlyphs" textLength="290">prepareDebitTicket(String contractTitle, int numberOfTickets)</text><path id="PoSelectionRequest-CalypsoPo" fill="none" d="M410.784,233.018 C410.495,253.352 410.191,274.713 409.918,293.931" style="stroke:#a80036;stroke-width:1"/><path id="CalypsoPo-PoTransaction" fill="none" d="M385.699,425.334 C379.126,443.623 371.644,464.44 363.911,485.955" style="stroke:#a80036;stroke-width:1"/><path id="SpecificPoSelectionRequest-SpecificCalypsoPo" fill="none" d="M787,212.241 C787,243.011 787,279.247 787,307.953" style="stroke:#a80036;stroke-width:1"/><path id="SpecificCalypsoPo-SpecificPoTransaction" fill="none" d="M797.279,411.136 C806.005,454.123 818.751,516.91 829.282,568.789" style="stroke:#a80036;stroke-width:1"/><path id="PoSelectionRequest&lt;-SpecificPoSelectionRequest" fill="none" d="M581.713,146.5 C603.327,146.5 625.26,146.5 646.349,146.5" style="stroke:#a80036;stroke-width:1"/><polygon fill="none" points="581.557 153.5 561.557 146.5 581.557 139.5 581.557 153.5" style="stroke:#a80036;stroke-width:1"/><text x="581" y="139.995" fill="#000" font-family="sans-serif" font-size="13" lengthAdjust="spacingAndGlyphs" textLength="46">extends</text><path id="CalypsoPo&lt;-SpecificCalypsoPo" fill="none" d="M583.691,359.5 C624.251,359.5 665.696,359.5 700.494,359.5" style="stroke:#a80036;stroke-width:1"/><polygon fill="none" points="583.565 366.5 563.565 359.5 583.565 352.5 583.565 366.5" style="stroke:#a80036;stroke-width:1"/><text x="609" y="352.995" fill="#000" font-family="sans-serif" font-size="13" lengthAdjust="spacingAndGlyphs" textLength="46">extends</text><path id="PoTransaction&lt;-SpecificPoTransaction" fill="none" d="M583.897,662 C604.972,662 625.972,662 646.397,662" style="stroke:#a80036;stroke-width:1"/><polygon fill="none" points="583.685 669 563.685 662 583.685 655 583.685 669" style="stroke:#a80036;stroke-width:1"/><text x="582" y="655.495" fill="#000" font-family="sans-serif" font-size="13" lengthAdjust="spacingAndGlyphs" textLength="46">extends</text></g></svg>