<svg xmlns="http://www.w3.org/2000/svg" xmlns:xlink="http://www.w3.org/1999/xlink" width="441" height="630" contentScriptType="application/ecmascript" contentStyleType="text/css" style="width:441px;height:630px" preserveAspectRatio="none" version="1.1" viewBox="0 0 441 630" zoomAndPan="magnify"><g><ellipse cx="113" cy="50.096" fill="#000" rx="10" ry="10" style="stroke:none;stroke-width:1"/><rect style="stroke:#d4ac0d;stroke-width:1.5" width="107" height="35.094" x="59.5" y="80.096" fill="#FEFECE" rx="12.5" ry="12.5"/><text x="69.5" y="102.553" fill="#000" font-family="sans-serif" font-size="12" lengthAdjust="spacingAndGlyphs" textLength="87">define selection</text><rect style="stroke:#d4ac0d;stroke-width:1.5" width="186" height="35.094" x="20" y="135.19" fill="#FEFECE" rx="12.5" ry="12.5"/><text x="30" y="157.647" fill="#000" font-family="sans-serif" font-size="12" lengthAdjust="spacingAndGlyphs" textLength="166">set default selection on reader</text><rect style="stroke:#d4ac0d;stroke-width:1.5" width="144" height="35.094" x="41" y="190.283" fill="#FEFECE" rx="12.5" ry="12.5"/><text x="51" y="212.74" fill="#000" font-family="sans-serif" font-size="12" lengthAdjust="spacingAndGlyphs" textLength="124">set observer on reader</text><rect style="stroke:#d4ac0d;stroke-width:1.5" width="85" height="35.094" x="70.5" y="413.819" fill="#FEFECE" rx="12.5" ry="12.5"/><text x="80.5" y="436.276" fill="#000" font-family="sans-serif" font-size="12" lengthAdjust="spacingAndGlyphs" textLength="65">identify card</text><rect style="stroke:#d4ac0d;stroke-width:1.5" width="155" height="35.094" x="35.5" y="483.913" fill="#FEFECE" rx="12.5" ry="12.5"/><text x="45.5" y="506.37" fill="#000" font-family="sans-serif" font-size="12" lengthAdjust="spacingAndGlyphs" textLength="135">process card application</text><rect style="stroke:#d4ac0d;stroke-width:1.5" width="89" height="35.094" x="68.5" y="539.007" fill="#FEFECE" rx="12.5" ry="12.5"/><text x="78.5" y="561.464" fill="#000" font-family="sans-serif" font-size="12" lengthAdjust="spacingAndGlyphs" textLength="69">release card</text><line style="stroke:#000;stroke-width:2" x1="15" x2="15" y1="12.455" y2="618.101"/><rect style="stroke:#d4ac0d;stroke-width:1.5" width="80" height="35.094" x="249" y="340.516" fill="#FEFECE" rx="12.5" ry="12.5"/><text x="259" y="362.973" fill="#000" font-family="sans-serif" font-size="12" lengthAdjust="spacingAndGlyphs" textLength="60">select card</text><rect style="stroke:#d4ac0d;stroke-width:1.5" width="137" height="35.094" x="220.5" y="263.587" fill="#FEFECE" rx="12.5" ry="12.5"/><text x="230.5" y="286.044" fill="#000" font-family="sans-serif" font-size="12" lengthAdjust="spacingAndGlyphs" textLength="117">wait for card insertion</text><polygon fill="#FEFECE" points="237 594.101 341 594.101 353 606.101 341 618.101 237 618.101 225 606.101 237 594.101" style="stroke:#a80036;stroke-width:1.5"/><text x="237" y="610.602" fill="#000" font-family="sans-serif" font-size="11" lengthAdjust="spacingAndGlyphs" textLength="104">wait for card removal</text><line style="stroke:#000;stroke-width:2" x1="210" x2="210" y1="12.455" y2="618.101"/><line style="stroke:#000;stroke-width:2" x1="422" x2="422" y1="12.455" y2="618.101"/><line style="stroke:#a80036;stroke-width:1.5" x1="113" x2="113" y1="60.096" y2="80.096"/><polygon fill="#A80036" points="109 70.096 113 80.096 117 70.096 113 74.096" style="stroke:#a80036;stroke-width:1"/><line style="stroke:#a80036;stroke-width:1.5" x1="113" x2="113" y1="115.189" y2="135.19"/><polygon fill="#A80036" points="109 125.189 113 135.19 117 125.189 113 129.19" style="stroke:#a80036;stroke-width:1"/><line style="stroke:#a80036;stroke-width:1.5" x1="113" x2="113" y1="170.283" y2="190.283"/><polygon fill="#A80036" points="109 180.283 113 190.283 117 180.283 113 184.283" style="stroke:#a80036;stroke-width:1"/><line style="stroke:#a80036;stroke-width:1.5" x1="113" x2="113" y1="448.913" y2="483.913"/><polygon fill="#A80036" points="109 473.913 113 483.913 117 473.913 113 477.913" style="stroke:#a80036;stroke-width:1"/><line style="stroke:#a80036;stroke-width:1.5" x1="113" x2="113" y1="519.007" y2="539.007"/><polygon fill="#A80036" points="109 529.007 113 539.007 117 529.007 113 533.007" style="stroke:#a80036;stroke-width:1"/><line style="stroke:#00f;stroke-width:1.5;stroke-dasharray:7,7" x1="289" x2="289" y1="298.681" y2="340.516"/><polygon fill="#00F" points="285 330.516 289 340.516 293 330.516 289 334.516" style="stroke:#00f;stroke-width:1"/><text x="293" y="321.017" fill="#000" font-family="sans-serif" font-size="11" lengthAdjust="spacingAndGlyphs" textLength="64">card inserted</text><line style="stroke:#a80036;stroke-width:1.5" x1="353" x2="403" y1="606.101" y2="606.101"/><polygon fill="#A80036" points="399 466.722 403 456.722 407 466.722 403 462.722" style="stroke:#a80036;stroke-width:1.5"/><line style="stroke:#a80036;stroke-width:1.5" x1="403" x2="403" y1="281.134" y2="606.101"/><line style="stroke:#a80036;stroke-width:1.5" x1="403" x2="357.5" y1="281.134" y2="281.134"/><polygon fill="#A80036" points="367.5 277.134 357.5 281.134 367.5 285.134 363.5 281.134" style="stroke:#a80036;stroke-width:1"/><line style="stroke:#000;stroke-width:1.5;stroke-dasharray:7,7" x1="289" x2="289" y1="375.609" y2="398.819"/><line style="stroke:#000;stroke-width:1.5;stroke-dasharray:7,7" x1="289" x2="113" y1="398.819" y2="398.819"/><line style="stroke:#000;stroke-width:1.5;stroke-dasharray:7,7" x1="113" x2="113" y1="398.819" y2="413.819"/><polygon fill="#000" points="109 403.819 113 413.819 117 403.819 113 407.819" style="stroke:#000;stroke-width:1"/><text x="293" y="392.319" fill="#000" font-family="sans-serif" font-size="11" lengthAdjust="spacingAndGlyphs" textLength="98">notify card selection</text><line style="stroke:#000;stroke-width:1.5;stroke-dasharray:7,7" x1="113" x2="113" y1="574.101" y2="579.101"/><line style="stroke:#000;stroke-width:1.5;stroke-dasharray:7,7" x1="113" x2="289" y1="579.101" y2="579.101"/><line style="stroke:#000;stroke-width:1.5;stroke-dasharray:7,7" x1="289" x2="289" y1="579.101" y2="594.101"/><polygon fill="#000" points="285 584.101 289 594.101 293 584.101 289 588.101" style="stroke:#000;stroke-width:1"/><line style="stroke:#000;stroke-width:1.5;stroke-dasharray:7,7" x1="113" x2="113" y1="225.377" y2="248.587"/><line style="stroke:#000;stroke-width:1.5;stroke-dasharray:7,7" x1="113" x2="289" y1="248.587" y2="248.587"/><line style="stroke:#000;stroke-width:1.5;stroke-dasharray:7,7" x1="289" x2="289" y1="248.587" y2="263.587"/><polygon fill="#000" points="285 253.587 289 263.587 293 253.587 289 257.587" style="stroke:#000;stroke-width:1"/><text x="117" y="242.087" fill="#000" font-family="sans-serif" font-size="11" lengthAdjust="spacingAndGlyphs" textLength="82">start observation</text><text x="75.5" y="31.141" fill="#000" font-family="sans-serif" font-size="18" lengthAdjust="spacingAndGlyphs" textLength="74">Observer</text><text x="232" y="31.141" fill="#000" font-family="sans-serif" font-size="18" lengthAdjust="spacingAndGlyphs" textLength="168">&quot;Observable Reader&quot;</text></g></svg>