<svg xmlns="http://www.w3.org/2000/svg" xmlns:xlink="http://www.w3.org/1999/xlink" width="824" height="398" contentScriptType="application/ecmascript" contentStyleType="text/css" style="width:824px;height:398px" preserveAspectRatio="none" version="1.1" viewBox="0 0 824 398" zoomAndPan="magnify"><g><rect id="PoResource" width="188" height="75.672" x="187" y="79" fill="#FEFECE" style="stroke:#d4ac0d;stroke-width:1.5"/><ellipse cx="202" cy="95" fill="#ADD1B2" rx="11" ry="11" style="stroke:#add1b2;stroke-width:1"/><path d="M204,91.5 Q204.2031,91 204.4375,90.75 Q204.6719,90.5 204.9375,90.5 Q205.4063,90.5 205.7031,90.7813 Q206,91.0625 206,91.7188 L206,93.2813 Q206,93.9375 205.7188,94.2188 Q205.4375,94.5 205,94.5 Q204.6094,94.5 204.3594,94.3281 Q204.1094,94.1563 204,93.7031 Q203.9531,93.3906 203.7813,93.2188 Q203.4688,92.8906 202.9063,92.7031 Q202.3438,92.5 201.7813,92.5 Q201.0781,92.5 200.4844,92.7813 Q199.9063,93.0625 199.4531,93.6875 Q199,94.3125 199,95.1719 L199,96.0938 Q199,97.125 199.8438,97.8125 Q200.6875,98.5 202.1875,98.5 Q203.0781,98.5 203.7031,98.2969 Q204.0625,98.1875 204.4688,97.8281 Q204.7344,97.625 204.875,97.5625 Q205.0156,97.5 205.1875,97.5 Q205.5156,97.5 205.75,97.7656 Q206,98.0156 206,98.375 Q206,98.7188 205.6563,99.125 Q205.1563,99.7188 204.3594,100.0469 Q203.3125,100.5 202.0313,100.5 Q200.5313,100.5 199.3281,99.9063 Q198.3594,99.4375 197.6719,98.4219 Q197,97.4063 197,96.2031 L197,95.1094 Q197,93.8594 197.5938,92.7656 Q198.2031,91.6719 199.25,91.0938 Q200.3125,90.5 201.5,90.5 Q202.2188,90.5 202.8438,90.75 Q203.4688,91 204,91.5 Z"/><ellipse cx="221" cy="94.5" fill="#84BE84" rx="3" ry="3" style="stroke:#038048;stroke-width:1"/><text x="227" y="99.91" fill="#000" font-family="sans-serif" font-size="12" lengthAdjust="spacingAndGlyphs" textLength="81">CardResource</text><rect style="stroke:#000;stroke-width:1;stroke-dasharray:2,2" width="62" height="17.094" x="316" y="76" fill="#FFF"/><text x="317" y="89.457" fill="#000" font-family="sans-serif" font-size="12" font-style="italic" lengthAdjust="spacingAndGlyphs" textLength="60">CalypsoPo</text><line style="stroke:#d4ac0d;stroke-width:1.5" x1="188" x2="374" y1="111" y2="111"/><line style="stroke:#d4ac0d;stroke-width:1.5" x1="188" x2="374" y1="119" y2="119"/><ellipse cx="198" cy="130" fill="#84BE84" rx="3" ry="3" style="stroke:#038048;stroke-width:1"/><text x="207" y="134.419" fill="#000" font-family="sans-serif" font-size="11" lengthAdjust="spacingAndGlyphs" textLength="74">CardResource(</text><text x="281" y="134.419" fill="red" font-family="sans-serif" font-size="11" lengthAdjust="spacingAndGlyphs" textLength="35">Reader</text><text x="319" y="134.419" fill="#000" font-family="sans-serif" font-size="11" lengthAdjust="spacingAndGlyphs" textLength="50">poReader,</text><text x="207" y="148.255" fill="#000" font-family="sans-serif" font-size="11" lengthAdjust="spacingAndGlyphs" textLength="73">CalypsoPo po);</text><rect id="SamResource" width="199" height="75.672" x="611.5" y="79" fill="#FEFECE" style="stroke:#d4ac0d;stroke-width:1.5"/><ellipse cx="626.5" cy="95" fill="#ADD1B2" rx="11" ry="11" style="stroke:#add1b2;stroke-width:1"/><path d="M628.5,91.5 Q628.7031,91 628.9375,90.75 Q629.1719,90.5 629.4375,90.5 Q629.9063,90.5 630.2031,90.7813 Q630.5,91.0625 630.5,91.7188 L630.5,93.2813 Q630.5,93.9375 630.2188,94.2188 Q629.9375,94.5 629.5,94.5 Q629.1094,94.5 628.8594,94.3281 Q628.6094,94.1563 628.5,93.7031 Q628.4531,93.3906 628.2813,93.2188 Q627.9688,92.8906 627.4063,92.7031 Q626.8438,92.5 626.2813,92.5 Q625.5781,92.5 624.9844,92.7813 Q624.4063,93.0625 623.9531,93.6875 Q623.5,94.3125 623.5,95.1719 L623.5,96.0938 Q623.5,97.125 624.3438,97.8125 Q625.1875,98.5 626.6875,98.5 Q627.5781,98.5 628.2031,98.2969 Q628.5625,98.1875 628.9688,97.8281 Q629.2344,97.625 629.375,97.5625 Q629.5156,97.5 629.6875,97.5 Q630.0156,97.5 630.25,97.7656 Q630.5,98.0156 630.5,98.375 Q630.5,98.7188 630.1563,99.125 Q629.6563,99.7188 628.8594,100.0469 Q627.8125,100.5 626.5313,100.5 Q625.0313,100.5 623.8281,99.9063 Q622.8594,99.4375 622.1719,98.4219 Q621.5,97.4063 621.5,96.2031 L621.5,95.1094 Q621.5,93.8594 622.0938,92.7656 Q622.7031,91.6719 623.75,91.0938 Q624.8125,90.5 626,90.5 Q626.7188,90.5 627.3438,90.75 Q627.9688,91 628.5,91.5 Z"/><ellipse cx="645.5" cy="94.5" fill="#84BE84" rx="3" ry="3" style="stroke:#038048;stroke-width:1"/><text x="651.5" y="99.91" fill="#000" font-family="sans-serif" font-size="12" lengthAdjust="spacingAndGlyphs" textLength="81">CardResource</text><rect style="stroke:#000;stroke-width:1;stroke-dasharray:2,2" width="73" height="17.094" x="740.5" y="76" fill="#FFF"/><text x="741.5" y="89.457" fill="#000" font-family="sans-serif" font-size="12" font-style="italic" lengthAdjust="spacingAndGlyphs" textLength="71">CalypsoSam</text><line style="stroke:#d4ac0d;stroke-width:1.5" x1="612.5" x2="809.5" y1="111" y2="111"/><line style="stroke:#d4ac0d;stroke-width:1.5" x1="612.5" x2="809.5" y1="119" y2="119"/><ellipse cx="622.5" cy="130" fill="#84BE84" rx="3" ry="3" style="stroke:#038048;stroke-width:1"/><text x="631.5" y="134.419" fill="#000" font-family="sans-serif" font-size="11" lengthAdjust="spacingAndGlyphs" textLength="74">CardResource(</text><text x="705.5" y="134.419" fill="red" font-family="sans-serif" font-size="11" lengthAdjust="spacingAndGlyphs" textLength="35">Reader</text><text x="743.5" y="134.419" fill="#000" font-family="sans-serif" font-size="11" lengthAdjust="spacingAndGlyphs" textLength="58">samReader,</text><text x="631.5" y="148.255" fill="#000" font-family="sans-serif" font-size="11" lengthAdjust="spacingAndGlyphs" textLength="90">CalypsoSam sam);</text><rect id="PoSecuritySetting" width="166" height="48" x="410" y="93" fill="#FEFECE" style="stroke:#d4ac0d;stroke-width:1.5"/><ellipse cx="425" cy="109" fill="#ADD1B2" rx="11" ry="11" style="stroke:#add1b2;stroke-width:1"/><path d="M427,105.5 Q427.2031,105 427.4375,104.75 Q427.6719,104.5 427.9375,104.5 Q428.4063,104.5 428.7031,104.7813 Q429,105.0625 429,105.7188 L429,107.2813 Q429,107.9375 428.7188,108.2188 Q428.4375,108.5 428,108.5 Q427.6094,108.5 427.3594,108.3281 Q427.1094,108.1563 427,107.7031 Q426.9531,107.3906 426.7813,107.2188 Q426.4688,106.8906 425.9063,106.7031 Q425.3438,106.5 424.7813,106.5 Q424.0781,106.5 423.4844,106.7813 Q422.9063,107.0625 422.4531,107.6875 Q422,108.3125 422,109.1719 L422,110.0938 Q422,111.125 422.8438,111.8125 Q423.6875,112.5 425.1875,112.5 Q426.0781,112.5 426.7031,112.2969 Q427.0625,112.1875 427.4688,111.8281 Q427.7344,111.625 427.875,111.5625 Q428.0156,111.5 428.1875,111.5 Q428.5156,111.5 428.75,111.7656 Q429,112.0156 429,112.375 Q429,112.7188 428.6563,113.125 Q428.1563,113.7188 427.3594,114.0469 Q426.3125,114.5 425.0313,114.5 Q423.5313,114.5 422.3281,113.9063 Q421.3594,113.4375 420.6719,112.4219 Q420,111.4063 420,110.2031 L420,109.1094 Q420,107.8594 420.5938,106.7656 Q421.2031,105.6719 422.25,105.0938 Q423.3125,104.5 424.5,104.5 Q425.2188,104.5 425.8438,104.75 Q426.4688,105 427,105.5 Z"/><ellipse cx="444" cy="108.5" fill="#84BE84" rx="3" ry="3" style="stroke:#038048;stroke-width:1"/><text x="450" y="113.91" fill="#000" font-family="sans-serif" font-size="12" font-weight="bold" lengthAdjust="spacingAndGlyphs" textLength="24">final</text><text x="477" y="113.91" fill="#000" font-family="sans-serif" font-size="12" lengthAdjust="spacingAndGlyphs" textLength="96">PoSecuritySetting</text><line style="stroke:#d4ac0d;stroke-width:1.5" x1="411" x2="575" y1="125" y2="125"/><line style="stroke:#d4ac0d;stroke-width:1.5" x1="411" x2="575" y1="133" y2="133"/><rect id="CalypsoPo" width="296" height="172.523" x="38" y="215" fill="#FEFECE" style="stroke:#d4ac0d;stroke-width:1.5"/><ellipse cx="146.25" cy="231" fill="#ADD1B2" rx="11" ry="11" style="stroke:#add1b2;stroke-width:1"/><path d="M148.25,227.5 Q148.4531,227 148.6875,226.75 Q148.9219,226.5 149.1875,226.5 Q149.6563,226.5 149.9531,226.7813 Q150.25,227.0625 150.25,227.7188 L150.25,229.2813 Q150.25,229.9375 149.9688,230.2188 Q149.6875,230.5 149.25,230.5 Q148.8594,230.5 148.6094,230.3281 Q148.3594,230.1563 148.25,229.7031 Q148.2031,229.3906 148.0313,229.2188 Q147.7188,228.8906 147.1563,228.7031 Q146.5938,228.5 146.0313,228.5 Q145.3281,228.5 144.7344,228.7813 Q144.1563,229.0625 143.7031,229.6875 Q143.25,230.3125 143.25,231.1719 L143.25,232.0938 Q143.25,233.125 144.0938,233.8125 Q144.9375,234.5 146.4375,234.5 Q147.3281,234.5 147.9531,234.2969 Q148.3125,234.1875 148.7188,233.8281 Q148.9844,233.625 149.125,233.5625 Q149.2656,233.5 149.4375,233.5 Q149.7656,233.5 150,233.7656 Q150.25,234.0156 150.25,234.375 Q150.25,234.7188 149.9063,235.125 Q149.4063,235.7188 148.6094,236.0469 Q147.5625,236.5 146.2813,236.5 Q144.7813,236.5 143.5781,235.9063 Q142.6094,235.4375 141.9219,234.4219 Q141.25,233.4063 141.25,232.2031 L141.25,231.1094 Q141.25,229.8594 141.8438,228.7656 Q142.4531,227.6719 143.5,227.0938 Q144.5625,226.5 145.75,226.5 Q146.4688,226.5 147.0938,226.75 Q147.7188,227 148.25,227.5 Z"/><ellipse cx="171.75" cy="230.5" fill="#84BE84" rx="3" ry="3" style="stroke:#038048;stroke-width:1"/><text x="177.75" y="235.91" fill="#000" font-family="sans-serif" font-size="12" lengthAdjust="spacingAndGlyphs" textLength="60">CalypsoPo</text><line style="stroke:#d4ac0d;stroke-width:1.5" x1="39" x2="333" y1="247" y2="247"/><line style="stroke:#d4ac0d;stroke-width:1.5" x1="39" x2="333" y1="255" y2="255"/><polygon fill="#4177AF" points="49 262 45 268 53 268" style="stroke:#1963a0;stroke-width:1"/><text x="58" y="270.419" fill="#000" font-family="sans-serif" font-size="11" lengthAdjust="spacingAndGlyphs" textLength="55">CalypsoPo(</text><text x="113" y="270.419" fill="red" font-family="sans-serif" font-size="11" lengthAdjust="spacingAndGlyphs" textLength="116">CardSelectionResponse</text><text x="232" y="270.419" fill="#000" font-family="sans-serif" font-size="11" lengthAdjust="spacingAndGlyphs" textLength="96">selectionResponse)</text><ellipse cx="49" cy="293.672" fill="#84BE84" rx="3" ry="3" style="stroke:#038048;stroke-width:1"/><text x="58" y="298.091" fill="#000" font-family="sans-serif" font-size="11" font-weight="bold" lengthAdjust="spacingAndGlyphs" textLength="23">final</text><text x="84" y="298.091" fill="#000" font-family="sans-serif" font-size="11" lengthAdjust="spacingAndGlyphs" textLength="92">String getDfName()</text><ellipse cx="49" cy="307.508" fill="#84BE84" rx="3" ry="3" style="stroke:#038048;stroke-width:1"/><text x="58" y="311.927" fill="#000" font-family="sans-serif" font-size="11" font-weight="bold" lengthAdjust="spacingAndGlyphs" textLength="23">final</text><text x="84" y="311.927" fill="#000" font-family="sans-serif" font-size="11" lengthAdjust="spacingAndGlyphs" textLength="171">String getApplicationSerialNumber()</text><ellipse cx="49" cy="321.344" fill="#84BE84" rx="3" ry="3" style="stroke:#038048;stroke-width:1"/><text x="58" y="325.763" fill="#000" font-family="sans-serif" font-size="11" font-weight="bold" lengthAdjust="spacingAndGlyphs" textLength="23">final</text><text x="84" y="325.763" fill="#000" font-family="sans-serif" font-size="11" lengthAdjust="spacingAndGlyphs" textLength="107">String getStartupInfo()</text><ellipse cx="49" cy="349.016" fill="#84BE84" rx="3" ry="3" style="stroke:#038048;stroke-width:1"/><text x="58" y="353.435" fill="#000" font-family="sans-serif" font-size="11" font-weight="bold" lengthAdjust="spacingAndGlyphs" textLength="23">final</text><text x="84" y="353.435" fill="#4169E1" font-family="sans-serif" font-size="11" font-style="italic" font-weight="bold" lengthAdjust="spacingAndGlyphs" textLength="89">boolean is_Xxx()</text><ellipse cx="49" cy="376.688" fill="#84BE84" rx="3" ry="3" style="stroke:#038048;stroke-width:1"/><text x="58" y="381.106" fill="#000" font-family="sans-serif" font-size="11" font-weight="bold" lengthAdjust="spacingAndGlyphs" textLength="23">final</text><text x="84" y="381.106" fill="#4169E1" font-family="sans-serif" font-size="11" font-style="italic" font-weight="bold" lengthAdjust="spacingAndGlyphs" textLength="96">Xxx getData_Xxx()</text><rect id="PoTransaction" width="441" height="144.852" x="369.5" y="229" fill="#FEFECE" style="stroke:#d4ac0d;stroke-width:1.5"/><ellipse cx="540.25" cy="245" fill="#ADD1B2" rx="11" ry="11" style="stroke:#add1b2;stroke-width:1"/><path d="M542.25,241.5 Q542.4531,241 542.6875,240.75 Q542.9219,240.5 543.1875,240.5 Q543.6563,240.5 543.9531,240.7813 Q544.25,241.0625 544.25,241.7188 L544.25,243.2813 Q544.25,243.9375 543.9688,244.2188 Q543.6875,244.5 543.25,244.5 Q542.8594,244.5 542.6094,244.3281 Q542.3594,244.1563 542.25,243.7031 Q542.2031,243.3906 542.0313,243.2188 Q541.7188,242.8906 541.1563,242.7031 Q540.5938,242.5 540.0313,242.5 Q539.3281,242.5 538.7344,242.7813 Q538.1563,243.0625 537.7031,243.6875 Q537.25,244.3125 537.25,245.1719 L537.25,246.0938 Q537.25,247.125 538.0938,247.8125 Q538.9375,248.5 540.4375,248.5 Q541.3281,248.5 541.9531,248.2969 Q542.3125,248.1875 542.7188,247.8281 Q542.9844,247.625 543.125,247.5625 Q543.2656,247.5 543.4375,247.5 Q543.7656,247.5 544,247.7656 Q544.25,248.0156 544.25,248.375 Q544.25,248.7188 543.9063,249.125 Q543.4063,249.7188 542.6094,250.0469 Q541.5625,250.5 540.2813,250.5 Q538.7813,250.5 537.5781,249.9063 Q536.6094,249.4375 535.9219,248.4219 Q535.25,247.4063 535.25,246.2031 L535.25,245.1094 Q535.25,243.8594 535.8438,242.7656 Q536.4531,241.6719 537.5,241.0938 Q538.5625,240.5 539.75,240.5 Q540.4688,240.5 541.0938,240.75 Q541.7188,241 542.25,241.5 Z"/><ellipse cx="565.75" cy="244.5" fill="#84BE84" rx="3" ry="3" style="stroke:#038048;stroke-width:1"/><text x="571.75" y="249.91" fill="#000" font-family="sans-serif" font-size="12" lengthAdjust="spacingAndGlyphs" textLength="80">PoTransaction</text><line style="stroke:#d4ac0d;stroke-width:1.5" x1="370.5" x2="809.5" y1="261" y2="261"/><line style="stroke:#d4ac0d;stroke-width:1.5" x1="370.5" x2="809.5" y1="269" y2="269"/><ellipse cx="380.5" cy="280" fill="#84BE84" rx="3" ry="3" style="stroke:#038048;stroke-width:1"/><text x="389.5" y="284.419" fill="#000" font-family="sans-serif" font-size="11" lengthAdjust="spacingAndGlyphs" textLength="415">PoTransaction(CardResource&lt;CalypsoPo&gt; po, PoSecuritySetting[0..1] securitySetting)</text><ellipse cx="380.5" cy="307.672" fill="#84BE84" rx="3" ry="3" style="stroke:#038048;stroke-width:1"/><text x="389.5" y="312.091" fill="#000" font-family="sans-serif" font-size="11" font-weight="bold" lengthAdjust="spacingAndGlyphs" textLength="23">final</text><text x="415.5" y="312.091" fill="#4169E1" font-family="sans-serif" font-size="11" font-style="italic" font-weight="bold" lengthAdjust="spacingAndGlyphs" textLength="131">prepareCommand_Xxx()</text><ellipse cx="380.5" cy="335.344" fill="#84BE84" rx="3" ry="3" style="stroke:#038048;stroke-width:1"/><text x="389.5" y="339.763" fill="#000" font-family="sans-serif" font-size="11" font-weight="bold" lengthAdjust="spacingAndGlyphs" textLength="23">final</text><text x="415.5" y="339.763" fill="#4169E1" font-family="sans-serif" font-size="11" font-style="italic" font-weight="bold" lengthAdjust="spacingAndGlyphs" textLength="182">boolean processCommands_Xxx()</text><ellipse cx="380.5" cy="363.016" fill="#84BE84" rx="3" ry="3" style="stroke:#038048;stroke-width:1"/><text x="389.5" y="367.435" fill="#000" font-family="sans-serif" font-size="11" font-weight="bold" lengthAdjust="spacingAndGlyphs" textLength="23">final</text><text x="415.5" y="367.435" fill="#4169E1" font-family="sans-serif" font-size="11" font-style="italic" font-weight="bold" lengthAdjust="spacingAndGlyphs" textLength="202">Xxx_SecureData getXxx_SecureData()</text><path id="PoResource-&gt;PoTransaction" fill="none" d="M343.903,155.152 C376.657,174.496 418.005,198.917 457.413,222.192" style="stroke:#a80036;stroke-width:1"/><polygon fill="#FFF" points="468.742 228.883 465.61 222.388 458.409 222.781 461.542 229.276 468.742 228.883" style="stroke:#a80036;stroke-width:1"/><text x="346.37" y="176.057" fill="#000" font-family="sans-serif" font-size="13" lengthAdjust="spacingAndGlyphs" textLength="7">1</text><text x="448.876" y="218.09" fill="#000" font-family="sans-serif" font-size="13" lengthAdjust="spacingAndGlyphs" textLength="7">1</text><path id="PoSecuritySetting-&gt;PoTransaction" fill="none" d="M505.285,141.114 C515.545,160.417 530.827,189.17 545.599,216.963" style="stroke:#a80036;stroke-width:1"/><polygon fill="#FFF" points="551.883 228.785 552.599 221.609 546.251 218.189 545.535 225.364 551.883 228.785" style="stroke:#a80036;stroke-width:1"/><text x="483.598" y="162.48" fill="#000" font-family="sans-serif" font-size="13" lengthAdjust="spacingAndGlyphs" textLength="22">0..1</text><text x="540.591" y="217.982" fill="#000" font-family="sans-serif" font-size="13" lengthAdjust="spacingAndGlyphs" textLength="7">1</text><path id="PoResource&lt;-CalypsoPo" fill="none" d="M255.355,167.264 C247.685,182.001 239.041,198.605 230.526,214.963" style="stroke:#a80036;stroke-width:1"/><polygon fill="#FFF" points="261.546 155.372 255.227 158.847 256.005 166.016 262.323 162.541 261.546 155.372" style="stroke:#a80036;stroke-width:1"/><text x="250.888" y="176.312" fill="#000" font-family="sans-serif" font-size="13" lengthAdjust="spacingAndGlyphs" textLength="7">1</text><text x="227.18" y="204.075" fill="#000" font-family="sans-serif" font-size="13" lengthAdjust="spacingAndGlyphs" textLength="7">1</text><path id="PoSecuritySetting&lt;-SamResource" fill="none" d="M589.274,117 C596.634,117 603.993,117 611.352,117" style="stroke:#a80036;stroke-width:1"/><polygon fill="#FFF" points="576.027 117 582.027 121 588.027 117 582.027 113 576.027 117" style="stroke:#a80036;stroke-width:1"/><text x="587.911" y="113.798" fill="#000" font-family="sans-serif" font-size="13" lengthAdjust="spacingAndGlyphs" textLength="7">1</text><text x="583.978" y="131.67" fill="#000" font-family="sans-serif" font-size="13" lengthAdjust="spacingAndGlyphs" textLength="22">0..1</text></g></svg>