<svg xmlns="http://www.w3.org/2000/svg" xmlns:xlink="http://www.w3.org/1999/xlink" width="2300" height="1878" contentScriptType="application/ecmascript" contentStyleType="text/css" style="width:2300px;height:1878px" preserveAspectRatio="none" version="1.1" viewBox="0 0 2300 1878" zoomAndPan="magnify"><g><polygon fill="#FFF" points="44 48 386 48 400 95.219 2256 95.219 2256 1854 44 1854 44 48" style="stroke:#000;stroke-width:3"/><line style="stroke:#000;stroke-width:3" x1="44" x2="400" y1="95.219" y2="95.219"/><text x="52" y="81.066" fill="#000" font-family="sans-serif" font-size="28" font-weight="bold" lengthAdjust="spacingAndGlyphs" textLength="330">org.eclipse.keyple.core</text><polygon fill="#FFF" points="92 136 210 136 224 183.219 2208 183.219 2208 1806 92 1806 92 136" style="stroke:#000;stroke-width:3"/><line style="stroke:#000;stroke-width:3" x1="92" x2="224" y1="183.219" y2="183.219"/><text x="100" y="169.066" fill="#000" font-family="sans-serif" font-size="28" font-weight="bold" lengthAdjust="spacingAndGlyphs" textLength="106">service</text><polygon fill="#FFF" points="686 1198 780 1198 794 1245.219 2160 1245.219 2160 1758 686 1758 686 1198" style="stroke:#000;stroke-width:3"/><line style="stroke:#000;stroke-width:3" x1="686" x2="794" y1="1245.219" y2="1245.219"/><text x="694" y="1231.066" fill="#000" font-family="sans-serif" font-size="28" font-weight="bold" lengthAdjust="spacingAndGlyphs" textLength="82">event</text><rect id="PluginFactory" width="298" height="151.344" x="551" y="340" fill="#FEFECE" style="stroke:#d4ac0d;stroke-width:3"/><ellipse cx="608.9" cy="372" fill="#B4A7E5" rx="22" ry="22" style="stroke:#b4a7e5;stroke-width:2"/><path d="M610.9,366 L610.9,378 L614.9,378 L615.8688,378 L616.9,379.25 L616.9,380 L616.9,380.75 L615.8688,382 L614.9,382 L602.9,382 L601.9313,382 L600.9,380.75 L600.9,380 L600.9,379.25 L601.9313,378 L602.9,378 L606.9,378 L606.9,366 L602.9,366 L601.9313,366 L600.9,364.75 L600.9,364 L600.9,363.25 L601.9313,362 L602.9,362 L614.9,362 L615.8688,362 L616.9,363.25 L616.9,364 L616.9,364.75 L615.8688,366 L614.9,366 L610.9,366 Z"/><ellipse cx="653.1" cy="371" fill="#84BE84" rx="6" ry="6" style="stroke:#038048;stroke-width:2"/><text x="665.1" y="381.82" fill="#000" font-family="sans-serif" font-size="24" font-style="italic" lengthAdjust="spacingAndGlyphs" textLength="150">PluginFactory</text><line style="stroke:#d4ac0d;stroke-width:3" x1="553" x2="847" y1="404" y2="404"/><line style="stroke:#d4ac0d;stroke-width:3" x1="553" x2="847" y1="420" y2="420"/><ellipse cx="573" cy="442" fill="#84BE84" rx="6" ry="6" style="stroke:#038048;stroke-width:2"/><text x="591" y="450.838" fill="#000" font-family="sans-serif" font-size="22" lengthAdjust="spacingAndGlyphs" textLength="218">String getPluginName()</text><ellipse cx="573" cy="469.672" fill="#84BE84" rx="6" ry="6" style="stroke:#038048;stroke-width:2"/><text x="591" y="478.51" fill="#000" font-family="sans-serif" font-size="22" lengthAdjust="spacingAndGlyphs" textLength="246">Plugin getPluginInstance()</text><rect id="SmartCardService" width="526" height="416.766" x="999" y="208" fill="#FEFECE" style="stroke:#d4ac0d;stroke-width:3"/><ellipse cx="1115.5" cy="248.188" fill="#ADD1B2" rx="22" ry="22" style="stroke:#add1b2;stroke-width:2"/><path d="M1119.5,241.1875 Q1119.9063,240.1875 1120.375,239.6875 Q1120.8438,239.1875 1121.375,239.1875 Q1122.3125,239.1875 1122.9063,239.75 Q1123.5,240.3125 1123.5,241.625 L1123.5,244.75 Q1123.5,246.0625 1122.9375,246.625 Q1122.375,247.1875 1121.5,247.1875 Q1120.7188,247.1875 1120.2188,246.8438 Q1119.7188,246.5 1119.5,245.5938 Q1119.4063,244.9688 1119.0625,244.625 Q1118.4375,243.9688 1117.3125,243.5938 Q1116.1875,243.1875 1115.0625,243.1875 Q1113.6563,243.1875 1112.4688,243.75 Q1111.3125,244.3125 1110.4063,245.5625 Q1109.5,246.8125 1109.5,248.5313 L1109.5,250.375 Q1109.5,252.4375 1111.1875,253.8125 Q1112.875,255.1875 1115.875,255.1875 Q1117.6563,255.1875 1118.9063,254.7813 Q1119.625,254.5625 1120.4375,253.8438 Q1120.9688,253.4375 1121.25,253.3125 Q1121.5313,253.1875 1121.875,253.1875 Q1122.5313,253.1875 1123,253.7188 Q1123.5,254.2188 1123.5,254.9375 Q1123.5,255.625 1122.8125,256.4375 Q1121.8125,257.625 1120.2188,258.2813 Q1118.125,259.1875 1115.5625,259.1875 Q1112.5625,259.1875 1110.1563,258 Q1108.2188,257.0625 1106.8438,255.0313 Q1105.5,253 1105.5,250.5938 L1105.5,248.4063 Q1105.5,245.9063 1106.6875,243.7188 Q1107.9063,241.5313 1110,240.375 Q1112.125,239.1875 1114.5,239.1875 Q1115.9375,239.1875 1117.1875,239.6875 Q1118.4375,240.1875 1119.5,241.1875 Z"/><text x="1228.5" y="242.914" fill="#000" font-family="sans-serif" font-size="24" font-style="italic" lengthAdjust="spacingAndGlyphs" textLength="132">«Singleton»</text><ellipse cx="1166.5" cy="262.281" fill="#84BE84" rx="6" ry="6" style="stroke:#038048;stroke-width:2"/><text x="1178.5" y="273.102" fill="#000" font-family="sans-serif" font-size="24" font-weight="bold" lengthAdjust="spacingAndGlyphs" textLength="48">final</text><text x="1232.5" y="273.102" fill="#000" font-family="sans-serif" font-size="24" lengthAdjust="spacingAndGlyphs" textLength="200">SmartCardService</text><line style="stroke:#d4ac0d;stroke-width:3" x1="1001" x2="1523" y1="288.375" y2="288.375"/><rect style="stroke:#c82930;stroke-width:2" width="12" height="12" x="1015" y="304.375" fill="none"/><text x="1039" y="319.213" fill="#000" font-family="sans-serif" font-size="22" font-weight="bold" lengthAdjust="spacingAndGlyphs" text-decoration="underline" textLength="46">final</text><text x="1091" y="319.213" fill="#000" font-family="sans-serif" font-size="22" lengthAdjust="spacingAndGlyphs" text-decoration="underline" textLength="328">SmartCardService uniqueInstance</text><rect style="stroke:#c82930;stroke-width:2" width="12" height="12" x="1015" y="332.047" fill="none"/><text x="1039" y="346.885" fill="#000" font-family="sans-serif" font-size="22" font-weight="bold" lengthAdjust="spacingAndGlyphs" textLength="46">final</text><text x="1091" y="346.885" fill="#000" font-family="sans-serif" font-size="22" lengthAdjust="spacingAndGlyphs" textLength="370">ConcurrentMap&lt;String, Plugin&gt; plugins</text><line style="stroke:#d4ac0d;stroke-width:3" x1="1001" x2="1523" y1="359.719" y2="359.719"/><ellipse cx="1021" cy="381.719" fill="#84BE84" rx="6" ry="6" style="stroke:#038048;stroke-width:2"/><text x="1039" y="390.557" fill="#000" font-family="sans-serif" font-size="22" lengthAdjust="spacingAndGlyphs" text-decoration="underline" textLength="310">SmartCardService getInstance()</text><ellipse cx="1021" cy="409.391" fill="#84BE84" rx="6" ry="6" style="stroke:#038048;stroke-width:2"/><text x="1039" y="418.228" fill="#000" font-family="sans-serif" font-size="22" lengthAdjust="spacingAndGlyphs" textLength="184">String getVersion()</text><ellipse cx="1021" cy="464.734" fill="#84BE84" rx="6" ry="6" style="stroke:#038048;stroke-width:2"/><text x="1039" y="473.572" fill="#000" font-family="sans-serif" font-size="22" lengthAdjust="spacingAndGlyphs" textLength="474">Plugin registerPlugin(PluginFactory pluginFactory)</text><ellipse cx="1021" cy="492.406" fill="#84BE84" rx="6" ry="6" style="stroke:#038048;stroke-width:2"/><text x="1039" y="501.244" fill="#000" font-family="sans-serif" font-size="22" lengthAdjust="spacingAndGlyphs" textLength="390">boolean isRegistered(String pluginName)</text><ellipse cx="1021" cy="520.078" fill="#84BE84" rx="6" ry="6" style="stroke:#038048;stroke-width:2"/><text x="1039" y="528.916" fill="#000" font-family="sans-serif" font-size="22" lengthAdjust="spacingAndGlyphs" textLength="424">boolean unregisterPlugin(String pluginName)</text><ellipse cx="1021" cy="575.422" fill="#84BE84" rx="6" ry="6" style="stroke:#038048;stroke-width:2"/><text x="1039" y="584.26" fill="#000" font-family="sans-serif" font-size="22" lengthAdjust="spacingAndGlyphs" textLength="278">Plugin getPlugin(String name)</text><ellipse cx="1021" cy="603.094" fill="#84BE84" rx="6" ry="6" style="stroke:#038048;stroke-width:2"/><text x="1039" y="611.932" fill="#000" font-family="sans-serif" font-size="22" lengthAdjust="spacingAndGlyphs" textLength="308">Map&lt;String, Plugin&gt; getPlugins()</text><rect id="Plugin" width="388" height="234.359" x="788" y="808" fill="azure" style="stroke:#00f;stroke-width:3"/><ellipse cx="927.5" cy="840" fill="#B4A7E5" rx="22" ry="22" style="stroke:#b4a7e5;stroke-width:2"/><path d="M929.5,834 L929.5,846 L933.5,846 L934.4688,846 L935.5,847.25 L935.5,848 L935.5,848.75 L934.4688,850 L933.5,850 L921.5,850 L920.5313,850 L919.5,848.75 L919.5,848 L919.5,847.25 L920.5313,846 L921.5,846 L925.5,846 L925.5,834 L921.5,834 L920.5313,834 L919.5,832.75 L919.5,832 L919.5,831.25 L920.5313,830 L921.5,830 L933.5,830 L934.4688,830 L935.5,831.25 L935.5,832 L935.5,832.75 L934.4688,834 L933.5,834 L929.5,834 Z"/><ellipse cx="978.5" cy="839" fill="#84BE84" rx="6" ry="6" style="stroke:#038048;stroke-width:2"/><text x="990.5" y="849.82" fill="#000" font-family="sans-serif" font-size="24" font-style="italic" lengthAdjust="spacingAndGlyphs" textLength="70">Plugin</text><line style="stroke:#00f;stroke-width:3" x1="790" x2="1174" y1="872" y2="872"/><line style="stroke:#00f;stroke-width:3" x1="790" x2="1174" y1="888" y2="888"/><ellipse cx="810" cy="910" fill="#84BE84" rx="6" ry="6" style="stroke:#038048;stroke-width:2"/><text x="828" y="918.838" fill="#000" font-family="sans-serif" font-size="22" lengthAdjust="spacingAndGlyphs" textLength="162">String getName()</text><ellipse cx="810" cy="965.344" fill="#84BE84" rx="6" ry="6" style="stroke:#038048;stroke-width:2"/><text x="828" y="974.182" fill="#000" font-family="sans-serif" font-size="22" lengthAdjust="spacingAndGlyphs" textLength="336">Map&lt;String, Reader&gt; getReaders()</text><ellipse cx="810" cy="993.016" fill="#84BE84" rx="6" ry="6" style="stroke:#038048;stroke-width:2"/><text x="828" y="1001.854" fill="#000" font-family="sans-serif" font-size="22" lengthAdjust="spacingAndGlyphs" textLength="300">Set&lt;String&gt; getReaderNames()</text><ellipse cx="810" cy="1020.688" fill="#84BE84" rx="6" ry="6" style="stroke:#038048;stroke-width:2"/><text x="828" y="1029.525" fill="#000" font-family="sans-serif" font-size="22" lengthAdjust="spacingAndGlyphs" textLength="306">Reader getReader(String name)</text><rect id="Reader" width="720" height="289.703" x="1348" y="780" fill="#EFE" style="stroke:green;stroke-width:3"/><ellipse cx="1647.5" cy="812" fill="#B4A7E5" rx="22" ry="22" style="stroke:#b4a7e5;stroke-width:2"/><path d="M1649.5,806 L1649.5,818 L1653.5,818 L1654.4688,818 L1655.5,819.25 L1655.5,820 L1655.5,820.75 L1654.4688,822 L1653.5,822 L1641.5,822 L1640.5313,822 L1639.5,820.75 L1639.5,820 L1639.5,819.25 L1640.5313,818 L1641.5,818 L1645.5,818 L1645.5,806 L1641.5,806 L1640.5313,806 L1639.5,804.75 L1639.5,804 L1639.5,803.25 L1640.5313,802 L1641.5,802 L1653.5,802 L1654.4688,802 L1655.5,803.25 L1655.5,804 L1655.5,804.75 L1654.4688,806 L1653.5,806 L1649.5,806 Z"/><ellipse cx="1698.5" cy="811" fill="#84BE84" rx="6" ry="6" style="stroke:#038048;stroke-width:2"/><text x="1710.5" y="821.82" fill="#000" font-family="sans-serif" font-size="24" font-style="italic" lengthAdjust="spacingAndGlyphs" textLength="82">Reader</text><line style="stroke:green;stroke-width:3" x1="1350" x2="2066" y1="844" y2="844"/><line style="stroke:green;stroke-width:3" x1="1350" x2="2066" y1="860" y2="860"/><ellipse cx="1370" cy="882" fill="#84BE84" rx="6" ry="6" style="stroke:#038048;stroke-width:2"/><text x="1388" y="890.838" fill="#000" font-family="sans-serif" font-size="22" lengthAdjust="spacingAndGlyphs" textLength="162">String getName()</text><ellipse cx="1370" cy="937.344" fill="#84BE84" rx="6" ry="6" style="stroke:#038048;stroke-width:2"/><text x="1388" y="946.182" fill="#000" font-family="sans-serif" font-size="22" lengthAdjust="spacingAndGlyphs" textLength="234">boolean isCardPresent()</text><ellipse cx="1370" cy="965.016" fill="#84BE84" rx="6" ry="6" style="stroke:#038048;stroke-width:2"/><text x="1388" y="973.854" fill="#000" font-family="sans-serif" font-size="22" lengthAdjust="spacingAndGlyphs" textLength="228">boolean isContactless()</text><ellipse cx="1370" cy="1020.359" fill="#84BE84" rx="6" ry="6" style="stroke:#038048;stroke-width:2"/><text x="1388" y="1029.197" fill="#000" font-family="sans-serif" font-size="22" lengthAdjust="spacingAndGlyphs" textLength="668">activateProtocol(String applicationReference, String pluginReference)</text><ellipse cx="1370" cy="1048.031" fill="#84BE84" rx="6" ry="6" style="stroke:#038048;stroke-width:2"/><text x="1388" y="1056.869" fill="#000" font-family="sans-serif" font-size="22" lengthAdjust="spacingAndGlyphs" textLength="460">deactivateProtocol(String applicationReference)</text><rect id="PoolPlugin" width="524" height="179.016" x="124" y="1408" fill="azure" style="stroke:#00f;stroke-width:3"/><ellipse cx="306.5" cy="1440" fill="#B4A7E5" rx="22" ry="22" style="stroke:#b4a7e5;stroke-width:2"/><path d="M308.5,1434 L308.5,1446 L312.5,1446 L313.4688,1446 L314.5,1447.25 L314.5,1448 L314.5,1448.75 L313.4688,1450 L312.5,1450 L300.5,1450 L299.5313,1450 L298.5,1448.75 L298.5,1448 L298.5,1447.25 L299.5313,1446 L300.5,1446 L304.5,1446 L304.5,1434 L300.5,1434 L299.5313,1434 L298.5,1432.75 L298.5,1432 L298.5,1431.25 L299.5313,1430 L300.5,1430 L312.5,1430 L313.4688,1430 L314.5,1431.25 L314.5,1432 L314.5,1432.75 L313.4688,1434 L312.5,1434 L308.5,1434 Z"/><ellipse cx="357.5" cy="1439" fill="#84BE84" rx="6" ry="6" style="stroke:#038048;stroke-width:2"/><text x="369.5" y="1449.82" fill="#000" font-family="sans-serif" font-size="24" font-style="italic" lengthAdjust="spacingAndGlyphs" textLength="120">PoolPlugin</text><line style="stroke:#00f;stroke-width:3" x1="126" x2="646" y1="1472" y2="1472"/><line style="stroke:#00f;stroke-width:3" x1="126" x2="646" y1="1488" y2="1488"/><ellipse cx="146" cy="1510" fill="#84BE84" rx="6" ry="6" style="stroke:#038048;stroke-width:2"/><text x="164" y="1518.838" fill="#000" font-family="sans-serif" font-size="22" lengthAdjust="spacingAndGlyphs" textLength="472">SortedSet&lt;String&gt; getReaderGroupReferences()</text><ellipse cx="146" cy="1537.672" fill="#84BE84" rx="6" ry="6" style="stroke:#038048;stroke-width:2"/><text x="164" y="1546.51" fill="#000" font-family="sans-serif" font-size="22" lengthAdjust="spacingAndGlyphs" textLength="456">Reader allocateReader(String groupReference)</text><ellipse cx="146" cy="1565.344" fill="#84BE84" rx="6" ry="6" style="stroke:#038048;stroke-width:2"/><text x="164" y="1574.182" fill="#000" font-family="sans-serif" font-size="22" lengthAdjust="spacingAndGlyphs" textLength="298">releaseReader(Reader reader)</text><rect id="ObservablePlugin" width="526" height="206.688" x="719" y="1395" fill="azure" style="stroke:#00f;stroke-width:3"/><ellipse cx="862.5" cy="1427" fill="#B4A7E5" rx="22" ry="22" style="stroke:#b4a7e5;stroke-width:2"/><path d="M864.5,1421 L864.5,1433 L868.5,1433 L869.4688,1433 L870.5,1434.25 L870.5,1435 L870.5,1435.75 L869.4688,1437 L868.5,1437 L856.5,1437 L855.5313,1437 L854.5,1435.75 L854.5,1435 L854.5,1434.25 L855.5313,1433 L856.5,1433 L860.5,1433 L860.5,1421 L856.5,1421 L855.5313,1421 L854.5,1419.75 L854.5,1419 L854.5,1418.25 L855.5313,1417 L856.5,1417 L868.5,1417 L869.4688,1417 L870.5,1418.25 L870.5,1419 L870.5,1419.75 L869.4688,1421 L868.5,1421 L864.5,1421 Z"/><ellipse cx="913.5" cy="1426" fill="#84BE84" rx="6" ry="6" style="stroke:#038048;stroke-width:2"/><text x="925.5" y="1436.82" fill="#000" font-family="sans-serif" font-size="24" font-style="italic" lengthAdjust="spacingAndGlyphs" textLength="200">ObservablePlugin</text><line style="stroke:#00f;stroke-width:3" x1="721" x2="1243" y1="1459" y2="1459"/><line style="stroke:#00f;stroke-width:3" x1="721" x2="1243" y1="1475" y2="1475"/><ellipse cx="741" cy="1497" fill="#84BE84" rx="6" ry="6" style="stroke:#038048;stroke-width:2"/><text x="759" y="1505.838" fill="#000" font-family="sans-serif" font-size="22" lengthAdjust="spacingAndGlyphs" textLength="136">addObserver(</text><text x="895" y="1505.838" fill="#000" font-family="sans-serif" font-size="22" font-weight="bold" lengthAdjust="spacingAndGlyphs" textLength="46">final</text><text x="947" y="1505.838" fill="#000" font-family="sans-serif" font-size="22" lengthAdjust="spacingAndGlyphs" textLength="250">PluginObserver observer)</text><ellipse cx="741" cy="1524.672" fill="#84BE84" rx="6" ry="6" style="stroke:#038048;stroke-width:2"/><text x="759" y="1533.51" fill="#000" font-family="sans-serif" font-size="22" lengthAdjust="spacingAndGlyphs" textLength="172">removeObserver(</text><text x="931" y="1533.51" fill="#000" font-family="sans-serif" font-size="22" font-weight="bold" lengthAdjust="spacingAndGlyphs" textLength="46">final</text><text x="983" y="1533.51" fill="#000" font-family="sans-serif" font-size="22" lengthAdjust="spacingAndGlyphs" textLength="250">PluginObserver observer)</text><ellipse cx="741" cy="1552.344" fill="#84BE84" rx="6" ry="6" style="stroke:#038048;stroke-width:2"/><text x="759" y="1561.182" fill="#000" font-family="sans-serif" font-size="22" lengthAdjust="spacingAndGlyphs" textLength="168">clearObservers()</text><ellipse cx="741" cy="1580.016" fill="#84BE84" rx="6" ry="6" style="stroke:#038048;stroke-width:2"/><text x="759" y="1588.853" fill="#000" font-family="sans-serif" font-size="22" lengthAdjust="spacingAndGlyphs" textLength="202">int countObservers()</text><rect id="ObservableReader" width="812" height="455.734" x="1316" y="1270" fill="#EFE" style="stroke:green;stroke-width:3"/><ellipse cx="1596.5" cy="1302" fill="#B4A7E5" rx="22" ry="22" style="stroke:#b4a7e5;stroke-width:2"/><path d="M1598.5,1296 L1598.5,1308 L1602.5,1308 L1603.4688,1308 L1604.5,1309.25 L1604.5,1310 L1604.5,1310.75 L1603.4688,1312 L1602.5,1312 L1590.5,1312 L1589.5313,1312 L1588.5,1310.75 L1588.5,1310 L1588.5,1309.25 L1589.5313,1308 L1590.5,1308 L1594.5,1308 L1594.5,1296 L1590.5,1296 L1589.5313,1296 L1588.5,1294.75 L1588.5,1294 L1588.5,1293.25 L1589.5313,1292 L1590.5,1292 L1602.5,1292 L1603.4688,1292 L1604.5,1293.25 L1604.5,1294 L1604.5,1294.75 L1603.4688,1296 L1602.5,1296 L1598.5,1296 Z"/><ellipse cx="1647.5" cy="1301" fill="#84BE84" rx="6" ry="6" style="stroke:#038048;stroke-width:2"/><text x="1659.5" y="1311.82" fill="#000" font-family="sans-serif" font-size="24" font-style="italic" lengthAdjust="spacingAndGlyphs" textLength="212">ObservableReader</text><line style="stroke:green;stroke-width:3" x1="1318" x2="2126" y1="1334" y2="1334"/><line style="stroke:green;stroke-width:3" x1="1318" x2="2126" y1="1350" y2="1350"/><ellipse cx="1338" cy="1372" fill="#84BE84" rx="6" ry="6" style="stroke:#038048;stroke-width:2"/><text x="1356" y="1380.838" fill="#000" font-family="sans-serif" font-size="22" lengthAdjust="spacingAndGlyphs" textLength="136">addObserver(</text><text x="1492" y="1380.838" fill="#000" font-family="sans-serif" font-size="22" font-weight="bold" lengthAdjust="spacingAndGlyphs" textLength="46">final</text><text x="1544" y="1380.838" fill="#000" font-family="sans-serif" font-size="22" lengthAdjust="spacingAndGlyphs" textLength="264">ReaderObserver observer)</text><ellipse cx="1338" cy="1399.672" fill="#84BE84" rx="6" ry="6" style="stroke:#038048;stroke-width:2"/><text x="1356" y="1408.51" fill="#000" font-family="sans-serif" font-size="22" lengthAdjust="spacingAndGlyphs" textLength="172">removeObserver(</text><text x="1528" y="1408.51" fill="#000" font-family="sans-serif" font-size="22" font-weight="bold" lengthAdjust="spacingAndGlyphs" textLength="46">final</text><text x="1580" y="1408.51" fill="#000" font-family="sans-serif" font-size="22" lengthAdjust="spacingAndGlyphs" textLength="264">ReaderObserver observer)</text><ellipse cx="1338" cy="1427.344" fill="#84BE84" rx="6" ry="6" style="stroke:#038048;stroke-width:2"/><text x="1356" y="1436.182" fill="#000" font-family="sans-serif" font-size="22" lengthAdjust="spacingAndGlyphs" textLength="168">clearObservers()</text><ellipse cx="1338" cy="1455.016" fill="#84BE84" rx="6" ry="6" style="stroke:#038048;stroke-width:2"/><text x="1356" y="1463.853" fill="#000" font-family="sans-serif" font-size="22" lengthAdjust="spacingAndGlyphs" textLength="202">int countObservers()</text><ellipse cx="1338" cy="1510.359" fill="#84BE84" rx="6" ry="6" style="stroke:#038048;stroke-width:2"/><text x="1356" y="1519.197" fill="#000" font-family="sans-serif" font-size="22" lengthAdjust="spacingAndGlyphs" textLength="538">setDefaultSelections(AbstractDefaultSelectionsRequest</text><text x="1356" y="1546.869" fill="#000" font-family="sans-serif" font-size="22" lengthAdjust="spacingAndGlyphs" textLength="416">selectionsR, NotificationMode notificationM)</text><ellipse cx="1338" cy="1565.703" fill="#84BE84" rx="6" ry="6" style="stroke:#038048;stroke-width:2"/><text x="1356" y="1574.541" fill="#000" font-family="sans-serif" font-size="22" lengthAdjust="spacingAndGlyphs" textLength="760">setDefaultSelectionsAndStartCardDetection(AbstractDefaultSelectionsRequest</text><text x="1356" y="1602.213" fill="#000" font-family="sans-serif" font-size="22" lengthAdjust="spacingAndGlyphs" textLength="622">selectionsR, NotificationMode notificationM, PollingMode pollingM)</text><ellipse cx="1338" cy="1621.047" fill="#84BE84" rx="6" ry="6" style="stroke:#038048;stroke-width:2"/><text x="1356" y="1629.885" fill="#000" font-family="sans-serif" font-size="22" lengthAdjust="spacingAndGlyphs" textLength="426">startCardDetection(PollingMode pollingMode)</text><ellipse cx="1338" cy="1648.719" fill="#84BE84" rx="6" ry="6" style="stroke:#038048;stroke-width:2"/><text x="1356" y="1657.557" fill="#000" font-family="sans-serif" font-size="22" lengthAdjust="spacingAndGlyphs" textLength="194">stopCardDetection()</text><ellipse cx="1338" cy="1704.063" fill="#84BE84" rx="6" ry="6" style="stroke:#038048;stroke-width:2"/><text x="1356" y="1712.9" fill="#000" font-family="sans-serif" font-size="22" lengthAdjust="spacingAndGlyphs" textLength="238">finalizeCardProcessing()</text><path id="SmartCardService-Plugin" fill="none" d="M1136.0729,645.122 C1136.0729,645.122 1082.212,742.262 1058.574,784.892" style="stroke:#a80036;stroke-width:2"/><polygon fill="#A80036" points="1045.782 807.966 1061.507 796.103 1050.631 799.22 1047.514 788.345 1045.782 807.966" style="stroke:#a80036;stroke-width:2"/><line style="stroke:#a80036;stroke-width:2" x1="1050.631" x2="1058.389" y1="799.22" y2="785.227"/><polygon fill="#A80036" points="1147.71 624.132 1134.895 630.748 1136.073 645.122 1148.888 638.506 1147.71 624.132" style="stroke:#a80036;stroke-width:2"/><text x="1114" y="712.99" fill="#000" font-family="sans-serif" font-size="26" lengthAdjust="spacingAndGlyphs" textLength="82">plugins</text><text x="1124.803" y="667.58" fill="#000" font-family="sans-serif" font-size="26" lengthAdjust="spacingAndGlyphs" textLength="14">1</text><text x="1043.313" y="785.933" fill="#000" font-family="sans-serif" font-size="26" lengthAdjust="spacingAndGlyphs" textLength="10">*</text><path id="Plugin-Reader" fill="none" d="M1200.554,925 C1200.554,925 1280.59,925 1320.95,925" style="stroke:#a80036;stroke-width:2"/><polygon fill="#A80036" points="1347.51 925 1329.51 917 1337.51 925 1329.51 933 1347.51 925" style="stroke:#a80036;stroke-width:2"/><line style="stroke:#a80036;stroke-width:2" x1="1337.51" x2="1321.51" y1="925" y2="925"/><polygon fill="#A80036" points="1176.554 925 1188.554 933 1200.554 925 1188.554 917 1176.554 925" style="stroke:#a80036;stroke-width:2"/><text x="1219" y="911.99" fill="#000" font-family="sans-serif" font-size="26" lengthAdjust="spacingAndGlyphs" textLength="86">readers</text><text x="1191.986" y="918.778" fill="#000" font-family="sans-serif" font-size="26" lengthAdjust="spacingAndGlyphs" textLength="14">1</text><text x="1322.091" y="919.336" fill="#000" font-family="sans-serif" font-size="26" lengthAdjust="spacingAndGlyphs" textLength="10">*</text><path id="Plugin&lt;-PoolPlugin" fill="none" d="M811.806,1068.688 C769.964,1104.86 725.776,1144.22 686,1182 C608.646,1255.47 525.15,1343.654 465.934,1407.838" style="stroke:#a80036;stroke-width:2"/><polygon fill="none" points="803.022 1057.778 842.494 1042.358 821.254 1079.028 803.022 1057.778" style="stroke:#a80036;stroke-width:2"/><text x="742" y="1158.99" fill="#000" font-family="sans-serif" font-size="26" lengthAdjust="spacingAndGlyphs" textLength="92">extends</text><path id="Plugin&lt;-ObservablePlugin" fill="none" d="M982,1082.208 C982,1181.566 982,1307.648 982,1394.376" style="stroke:#a80036;stroke-width:2"/><polygon fill="none" points="968 1082.146 982 1042.146 996 1082.146 968 1082.146" style="stroke:#a80036;stroke-width:2"/><text x="984" y="1158.99" fill="#000" font-family="sans-serif" font-size="26" lengthAdjust="spacingAndGlyphs" textLength="92">extends</text><path id="Reader&lt;-ObservableReader" fill="none" d="M1712.526,1110.934 C1713.772,1161.616 1715.14,1217.188 1716.438,1269.954" style="stroke:#a80036;stroke-width:2"/><polygon fill="none" points="1698.522 1110.916 1711.532 1070.582 1726.512 1110.226 1698.522 1110.916" style="stroke:#a80036;stroke-width:2"/><text x="1714" y="1158.99" fill="#000" font-family="sans-serif" font-size="26" lengthAdjust="spacingAndGlyphs" textLength="92">extends</text><path id="PluginFactory-SmartCardService" fill="none" d="M849.13,416 C895.144,416 947.258,416 998.588,416" style="stroke:#a80036;stroke-width:2"/><text x="886" y="402.99" fill="#000" font-family="sans-serif" font-size="26" lengthAdjust="spacingAndGlyphs" textLength="50">sets</text><polygon fill="#000" points="942 389.352 954 395.352 942 401.352 942 389.352" style="stroke:#000;stroke-width:2"/><text x="865.025" y="409.41" fill="#000" font-family="sans-serif" font-size="26" lengthAdjust="spacingAndGlyphs" textLength="10">*</text><text x="968.955" y="410.063" fill="#000" font-family="sans-serif" font-size="26" lengthAdjust="spacingAndGlyphs" textLength="14">1</text><path id="PluginFactory-&gt;Plugin" fill="none" d="M741.61,492.514 C786.582,573.048 859,702.732 912.612,798.74" style="stroke:#a80036;stroke-width:2"/><polygon fill="#A80036" points="917.74 807.924 915.947 788.308 912.864 799.194 901.978 796.111 917.74 807.924" style="stroke:#a80036;stroke-width:2"/><text x="868" y="712.99" fill="#000" font-family="sans-serif" font-size="26" lengthAdjust="spacingAndGlyphs" textLength="86">creates</text><polygon fill="#000" points="902 730.703 908 742.703 914 730.703 902 730.703" style="stroke:#000;stroke-width:2"/><text x="733.126" y="534.357" fill="#000" font-family="sans-serif" font-size="26" lengthAdjust="spacingAndGlyphs" textLength="14">1</text><text x="894.61" y="785.886" fill="#000" font-family="sans-serif" font-size="26" lengthAdjust="spacingAndGlyphs" textLength="14">1</text></g></svg>