<svg xmlns="http://www.w3.org/2000/svg" xmlns:xlink="http://www.w3.org/1999/xlink" width="189" height="407" contentScriptType="application/ecmascript" contentStyleType="text/css" style="width:189px;height:407px" preserveAspectRatio="none" version="1.1" viewBox="0 0 189 407" zoomAndPan="magnify"><g><ellipse cx="87.5" cy="20" fill="#000" rx="10" ry="10" style="stroke:none;stroke-width:1"/><rect style="stroke:#d4ac0d;stroke-width:1.5" width="107" height="35.094" x="34" y="50" fill="#FEFECE" rx="12.5" ry="12.5"/><text x="44" y="72.457" fill="#000" font-family="sans-serif" font-size="12" lengthAdjust="spacingAndGlyphs" textLength="87">define selection</text><rect style="stroke:#d4ac0d;stroke-width:1.5" width="80" height="35.094" x="47.5" y="154.012" fill="#FEFECE" rx="12.5" ry="12.5"/><text x="57.5" y="176.469" fill="#000" font-family="sans-serif" font-size="12" lengthAdjust="spacingAndGlyphs" textLength="60">select card</text><rect style="stroke:#d4ac0d;stroke-width:1.5" width="85" height="35.094" x="45" y="209.106" fill="#FEFECE" rx="12.5" ry="12.5"/><text x="55" y="231.563" fill="#000" font-family="sans-serif" font-size="12" lengthAdjust="spacingAndGlyphs" textLength="65">identify card</text><rect style="stroke:#d4ac0d;stroke-width:1.5" width="155" height="35.094" x="10" y="264.199" fill="#FEFECE" rx="12.5" ry="12.5"/><text x="20" y="286.656" fill="#000" font-family="sans-serif" font-size="12" lengthAdjust="spacingAndGlyphs" textLength="135">process card application</text><rect style="stroke:#d4ac0d;stroke-width:1.5" width="136" height="35.094" x="19.5" y="319.293" fill="#FEFECE" rx="12.5" ry="12.5"/><text x="29.5" y="341.75" fill="#000" font-family="sans-serif" font-size="12" lengthAdjust="spacingAndGlyphs" textLength="116">release card channel</text><ellipse cx="87.5" cy="385.387" fill="#FFF" rx="11" ry="11" style="stroke:#000;stroke-width:1"/><ellipse cx="87.5" cy="385.387" fill="#000" rx="6" ry="6" style="stroke:#7f7f7f;stroke-width:1"/><polygon fill="#FEFECE" points="53.5 105.094 121.5 105.094 133.5 117.094 121.5 129.094 53.5 129.094 41.5 117.094 53.5 105.094" style="stroke:#a80036;stroke-width:1.5"/><text x="91.5" y="140.513" fill="#000" font-family="sans-serif" font-size="11" lengthAdjust="spacingAndGlyphs" textLength="18">yes</text><text x="53.5" y="121.595" fill="#000" font-family="sans-serif" font-size="11" lengthAdjust="spacingAndGlyphs" textLength="68">card present?</text><text x="133.5" y="114.677" fill="#000" font-family="sans-serif" font-size="11" lengthAdjust="spacingAndGlyphs" textLength="12">no</text><ellipse cx="167.5" cy="117.094" fill="#FFF" rx="11" ry="11" style="stroke:#000;stroke-width:1"/><ellipse cx="167.5" cy="117.094" fill="#000" rx="6" ry="6" style="stroke:#7f7f7f;stroke-width:1"/><line style="stroke:#a80036;stroke-width:1.5" x1="87.5" x2="87.5" y1="30" y2="50"/><polygon fill="#A80036" points="83.5 40 87.5 50 91.5 40 87.5 44" style="stroke:#a80036;stroke-width:1"/><line style="stroke:#a80036;stroke-width:1.5" x1="87.5" x2="87.5" y1="189.106" y2="209.106"/><polygon fill="#A80036" points="83.5 199.106 87.5 209.106 91.5 199.106 87.5 203.106" style="stroke:#a80036;stroke-width:1"/><line style="stroke:#a80036;stroke-width:1.5" x1="87.5" x2="87.5" y1="244.199" y2="264.199"/><polygon fill="#A80036" points="83.5 254.199 87.5 264.199 91.5 254.199 87.5 258.199" style="stroke:#a80036;stroke-width:1"/><line style="stroke:#a80036;stroke-width:1.5" x1="87.5" x2="87.5" y1="299.293" y2="319.293"/><polygon fill="#A80036" points="83.5 309.293 87.5 319.293 91.5 309.293 87.5 313.293" style="stroke:#a80036;stroke-width:1"/><line style="stroke:#a80036;stroke-width:1.5" x1="87.5" x2="87.5" y1="354.387" y2="374.387"/><polygon fill="#A80036" points="83.5 364.387 87.5 374.387 91.5 364.387 87.5 368.387" style="stroke:#a80036;stroke-width:1"/><line style="stroke:#a80036;stroke-width:1.5" x1="87.5" x2="87.5" y1="129.094" y2="154.012"/><polygon fill="#A80036" points="83.5 144.012 87.5 154.012 91.5 144.012 87.5 148.012" style="stroke:#a80036;stroke-width:1"/><line style="stroke:#a80036;stroke-width:1.5" x1="133.5" x2="156.5" y1="117.094" y2="117.094"/><polygon fill="#A80036" points="146.5 113.094 156.5 117.094 146.5 121.094 150.5 117.094" style="stroke:#a80036;stroke-width:1"/><line style="stroke:#a80036;stroke-width:1.5" x1="87.5" x2="87.5" y1="85.094" y2="105.094"/><polygon fill="#A80036" points="83.5 95.094 87.5 105.094 91.5 95.094 87.5 99.094" style="stroke:#a80036;stroke-width:1"/></g></svg>