<svg xmlns="http://www.w3.org/2000/svg" xmlns:xlink="http://www.w3.org/1999/xlink" width="326" height="368" contentScriptType="application/ecmascript" contentStyleType="text/css" style="width:326px;height:368px" preserveAspectRatio="none" version="1.1" viewBox="0 0 326 368" zoomAndPan="magnify"><g><rect id="Wait for Card Insertion" width="154" height="48" x="120.5" y="8" fill="#FEFECE" style="stroke:#d4ac0d;stroke-width:1.5"/><ellipse cx="135.5" cy="24" fill="#ADD1B2" rx="11" ry="11" style="stroke:#add1b2;stroke-width:1"/><path d="M137.5,20.5 Q137.7031,20 137.9375,19.75 Q138.1719,19.5 138.4375,19.5 Q138.9063,19.5 139.2031,19.7813 Q139.5,20.0625 139.5,20.7188 L139.5,22.2813 Q139.5,22.9375 139.2188,23.2188 Q138.9375,23.5 138.5,23.5 Q138.1094,23.5 137.8594,23.3281 Q137.6094,23.1563 137.5,22.7031 Q137.4531,22.3906 137.2813,22.2188 Q136.9688,21.8906 136.4063,21.7031 Q135.8438,21.5 135.2813,21.5 Q134.5781,21.5 133.9844,21.7813 Q133.4063,22.0625 132.9531,22.6875 Q132.5,23.3125 132.5,24.1719 L132.5,25.0938 Q132.5,26.125 133.3438,26.8125 Q134.1875,27.5 135.6875,27.5 Q136.5781,27.5 137.2031,27.2969 Q137.5625,27.1875 137.9688,26.8281 Q138.2344,26.625 138.375,26.5625 Q138.5156,26.5 138.6875,26.5 Q139.0156,26.5 139.25,26.7656 Q139.5,27.0156 139.5,27.375 Q139.5,27.7188 139.1563,28.125 Q138.6563,28.7188 137.8594,29.0469 Q136.8125,29.5 135.5313,29.5 Q134.0313,29.5 132.8281,28.9063 Q131.8594,28.4375 131.1719,27.4219 Q130.5,26.4063 130.5,25.2031 L130.5,24.1094 Q130.5,22.8594 131.0938,21.7656 Q131.7031,20.6719 132.75,20.0938 Q133.8125,19.5 135,19.5 Q135.7188,19.5 136.3438,19.75 Q136.9688,20 137.5,20.5 Z"/><text x="149.5" y="28.91" fill="#000" font-family="sans-serif" font-size="12" lengthAdjust="spacingAndGlyphs" textLength="122">Wait for Card Insertion</text><line style="stroke:#d4ac0d;stroke-width:1.5" x1="121.5" x2="273.5" y1="40" y2="40"/><line style="stroke:#d4ac0d;stroke-width:1.5" x1="121.5" x2="273.5" y1="48" y2="48"/><rect id="Wait for Card Processing" width="169" height="48" x="6" y="167" fill="#FEFECE" style="stroke:#d4ac0d;stroke-width:1.5"/><ellipse cx="21" cy="183" fill="#ADD1B2" rx="11" ry="11" style="stroke:#add1b2;stroke-width:1"/><path d="M23,179.5 Q23.2031,179 23.4375,178.75 Q23.6719,178.5 23.9375,178.5 Q24.4063,178.5 24.7031,178.7813 Q25,179.0625 25,179.7188 L25,181.2813 Q25,181.9375 24.7188,182.2188 Q24.4375,182.5 24,182.5 Q23.6094,182.5 23.3594,182.3281 Q23.1094,182.1563 23,181.7031 Q22.9531,181.3906 22.7813,181.2188 Q22.4688,180.8906 21.9063,180.7031 Q21.3438,180.5 20.7813,180.5 Q20.0781,180.5 19.4844,180.7813 Q18.9063,181.0625 18.4531,181.6875 Q18,182.3125 18,183.1719 L18,184.0938 Q18,185.125 18.8438,185.8125 Q19.6875,186.5 21.1875,186.5 Q22.0781,186.5 22.7031,186.2969 Q23.0625,186.1875 23.4688,185.8281 Q23.7344,185.625 23.875,185.5625 Q24.0156,185.5 24.1875,185.5 Q24.5156,185.5 24.75,185.7656 Q25,186.0156 25,186.375 Q25,186.7188 24.6563,187.125 Q24.1563,187.7188 23.3594,188.0469 Q22.3125,188.5 21.0313,188.5 Q19.5313,188.5 18.3281,187.9063 Q17.3594,187.4375 16.6719,186.4219 Q16,185.4063 16,184.2031 L16,183.1094 Q16,181.8594 16.5938,180.7656 Q17.2031,179.6719 18.25,179.0938 Q19.3125,178.5 20.5,178.5 Q21.2188,178.5 21.8438,178.75 Q22.4688,179 23,179.5 Z"/><text x="35" y="187.91" fill="#000" font-family="sans-serif" font-size="12" lengthAdjust="spacingAndGlyphs" textLength="137">Wait for Card Processing</text><line style="stroke:#d4ac0d;stroke-width:1.5" x1="7" x2="174" y1="199" y2="199"/><line style="stroke:#d4ac0d;stroke-width:1.5" x1="7" x2="174" y1="207" y2="207"/><rect id="Wait for Card Removal" width="155" height="48" x="97" y="309" fill="#FEFECE" style="stroke:#d4ac0d;stroke-width:1.5"/><ellipse cx="112" cy="325" fill="#ADD1B2" rx="11" ry="11" style="stroke:#add1b2;stroke-width:1"/><path d="M114,321.5 Q114.2031,321 114.4375,320.75 Q114.6719,320.5 114.9375,320.5 Q115.4063,320.5 115.7031,320.7813 Q116,321.0625 116,321.7188 L116,323.2813 Q116,323.9375 115.7188,324.2188 Q115.4375,324.5 115,324.5 Q114.6094,324.5 114.3594,324.3281 Q114.1094,324.1563 114,323.7031 Q113.9531,323.3906 113.7813,323.2188 Q113.4688,322.8906 112.9063,322.7031 Q112.3438,322.5 111.7813,322.5 Q111.0781,322.5 110.4844,322.7813 Q109.9063,323.0625 109.4531,323.6875 Q109,324.3125 109,325.1719 L109,326.0938 Q109,327.125 109.8438,327.8125 Q110.6875,328.5 112.1875,328.5 Q113.0781,328.5 113.7031,328.2969 Q114.0625,328.1875 114.4688,327.8281 Q114.7344,327.625 114.875,327.5625 Q115.0156,327.5 115.1875,327.5 Q115.5156,327.5 115.75,327.7656 Q116,328.0156 116,328.375 Q116,328.7188 115.6563,329.125 Q115.1563,329.7188 114.3594,330.0469 Q113.3125,330.5 112.0313,330.5 Q110.5313,330.5 109.3281,329.9063 Q108.3594,329.4375 107.6719,328.4219 Q107,327.4063 107,326.2031 L107,325.1094 Q107,323.8594 107.5938,322.7656 Q108.2031,321.6719 109.25,321.0938 Q110.3125,320.5 111.5,320.5 Q112.2188,320.5 112.8438,320.75 Q113.4688,321 114,321.5 Z"/><text x="126" y="329.91" fill="#000" font-family="sans-serif" font-size="12" lengthAdjust="spacingAndGlyphs" textLength="123">Wait for Card Removal</text><line style="stroke:#d4ac0d;stroke-width:1.5" x1="98" x2="251" y1="341" y2="341"/><line style="stroke:#d4ac0d;stroke-width:1.5" x1="98" x2="251" y1="349" y2="349"/><path id="Wait for Card Insertion-&gt;Wait for Card Processing" fill="none" d="M173.227,56.135 C164.569,65.032 155.089,75.565 147.5,86 C129.936,110.149 113.978,140.315 103.4446,161.93" style="stroke:red;stroke-width:1"/><polygon fill="red" points="101.149 166.681 108.665 160.316 103.324 162.179 101.461 156.837 101.149 166.681" style="stroke:red;stroke-width:1"/><text x="148.5" y="100.495" fill="#000" font-family="sans-serif" font-size="13" lengthAdjust="spacingAndGlyphs" textLength="70">notifies card</text><text x="160.5" y="116.847" fill="#000" font-family="sans-serif" font-size="13" lengthAdjust="spacingAndGlyphs" textLength="46">inserted</text><text x="151.5" y="133.198" fill="#000" font-family="sans-serif" font-size="13" lengthAdjust="spacingAndGlyphs" textLength="64">or selected</text><path id="Wait for Card Insertion&lt;-Wait for Card Removal" fill="none" d="M214.128,60.91 C217.978,68.759 221.524,77.484 223.5,86 C242.891,169.557 254.766,199.124 223.5,279 C219.115,290.2024 211.128,300.4561 202.857,308.8973" style="stroke:red;stroke-width:1"/><polygon fill="red" points="211.703 56.146 212.222 65.981 213.972 60.602 219.351 62.352 211.703 56.146" style="stroke:red;stroke-width:1"/><text x="244.5" y="188.495" fill="#000" font-family="sans-serif" font-size="13" lengthAdjust="spacingAndGlyphs" textLength="70">notifies card</text><text x="255.5" y="204.847" fill="#000" font-family="sans-serif" font-size="13" lengthAdjust="spacingAndGlyphs" textLength="48">removed</text><path id="Wait for Card Processing-&gt;Wait for Card Removal" fill="none" d="M93.2127,215.26 C96.1977,233.677 102.3003,259.4638 114.5,279 C120.51,288.6245 128.789,297.5006 137.279,305.1267" style="stroke:#00f;stroke-width:1"/><polygon fill="#00F" points="141.454 308.768 137.301 299.837 137.686 305.481 132.042 305.866 141.454 308.768" style="stroke:#00f;stroke-width:1"/><text x="130" y="259.495" fill="#000" font-family="sans-serif" font-size="13" lengthAdjust="spacingAndGlyphs" textLength="74">card channel</text><text x="115.5" y="275.847" fill="#000" font-family="sans-serif" font-size="13" lengthAdjust="spacingAndGlyphs" textLength="103">release requested</text></g></svg>